%TF.GenerationSoftware,KiCad,Pcbnew,9.0.5-1.fc42*%
%TF.CreationDate,2025-11-09T17:29:05+08:00*%
%TF.ProjectId,JACC64-16K,4a414343-3634-42d3-9136-4b2e6b696361,rev?*%
%TF.SameCoordinates,Original*%
%TF.FileFunction,Drillmap*%
%TF.FilePolarity,Positive*%
%FSLAX45Y45*%
G04 Gerber Fmt 4.5, Leading zero omitted, Abs format (unit mm)*
G04 Created by KiCad (PCBNEW 9.0.5-1.fc42) date 2025-11-09 17:29:05*
%MOMM*%
%LPD*%
G01*
G04 APERTURE LIST*
%ADD10C,0.050000*%
%ADD11C,0.200000*%
%ADD12C,0.100000*%
%ADD13C,0.110000*%
G04 APERTURE END LIST*
D10*
X11424405Y-14100122D02*
G75*
G02*
X11324397Y-14000122I-5J100003D01*
G01*
X11425318Y-5393989D02*
X17024082Y-5393989D01*
X17024082Y-5393989D02*
G75*
G02*
X17124081Y-5493989I-2J-100001D01*
G01*
X11324405Y-14000122D02*
X11325318Y-5493989D01*
X17124082Y-5493989D02*
X17123169Y-14000122D01*
X11325318Y-5493989D02*
G75*
G02*
X11425318Y-5393998I99992J-1D01*
G01*
X17123169Y-14000122D02*
G75*
G02*
X17023169Y-14100118I-99999J3D01*
G01*
X14478000Y-9906000D02*
G75*
G02*
X13970000Y-9906000I-254000J0D01*
G01*
X13970000Y-9906000D02*
G75*
G02*
X14478000Y-9906000I254000J0D01*
G01*
X14478000Y-5842000D02*
G75*
G02*
X13970000Y-5842000I-254000J0D01*
G01*
X13970000Y-5842000D02*
G75*
G02*
X14478000Y-5842000I254000J0D01*
G01*
X17023169Y-14100122D02*
X11424405Y-14100122D01*
D11*
D12*
X11669000Y-5827000D02*
X11699000Y-5857000D01*
X11699000Y-5827000D02*
X11669000Y-5857000D01*
X11669000Y-7351000D02*
X11699000Y-7381000D01*
X11699000Y-7351000D02*
X11669000Y-7381000D01*
X11669000Y-8367000D02*
X11699000Y-8397000D01*
X11699000Y-8367000D02*
X11669000Y-8397000D01*
X11669000Y-9129000D02*
X11699000Y-9159000D01*
X11699000Y-9129000D02*
X11669000Y-9159000D01*
X11669000Y-9637000D02*
X11699000Y-9667000D01*
X11699000Y-9637000D02*
X11669000Y-9667000D01*
X11923000Y-6335000D02*
X11953000Y-6365000D01*
X11953000Y-6335000D02*
X11923000Y-6365000D01*
X12177000Y-5827000D02*
X12207000Y-5857000D01*
X12207000Y-5827000D02*
X12177000Y-5857000D01*
X12177000Y-7859000D02*
X12207000Y-7889000D01*
X12207000Y-7859000D02*
X12177000Y-7889000D01*
X12177000Y-9129000D02*
X12207000Y-9159000D01*
X12207000Y-9129000D02*
X12177000Y-9159000D01*
X12685000Y-5827000D02*
X12715000Y-5857000D01*
X12715000Y-5827000D02*
X12685000Y-5857000D01*
X12685000Y-7351000D02*
X12715000Y-7381000D01*
X12715000Y-7351000D02*
X12685000Y-7381000D01*
X12685000Y-9129000D02*
X12715000Y-9159000D01*
X12715000Y-9129000D02*
X12685000Y-9159000D01*
X12939000Y-9891000D02*
X12969000Y-9921000D01*
X12969000Y-9891000D02*
X12939000Y-9921000D01*
X12939000Y-10653000D02*
X12969000Y-10683000D01*
X12969000Y-10653000D02*
X12939000Y-10683000D01*
X12939000Y-11669000D02*
X12969000Y-11699000D01*
X12969000Y-11669000D02*
X12939000Y-11699000D01*
X12939000Y-12431000D02*
X12969000Y-12461000D01*
X12969000Y-12431000D02*
X12939000Y-12461000D01*
X13193000Y-7097000D02*
X13223000Y-7127000D01*
X13223000Y-7097000D02*
X13193000Y-7127000D01*
X13193000Y-12685000D02*
X13223000Y-12715000D01*
X13223000Y-12685000D02*
X13193000Y-12715000D01*
X13447000Y-5827000D02*
X13477000Y-5857000D01*
X13477000Y-5827000D02*
X13447000Y-5857000D01*
X13447000Y-8367000D02*
X13477000Y-8397000D01*
X13477000Y-8367000D02*
X13447000Y-8397000D01*
X13447000Y-9891000D02*
X13477000Y-9921000D01*
X13477000Y-9891000D02*
X13447000Y-9921000D01*
X13447000Y-10653000D02*
X13477000Y-10683000D01*
X13477000Y-10653000D02*
X13447000Y-10683000D01*
X13447000Y-11669000D02*
X13477000Y-11699000D01*
X13477000Y-11669000D02*
X13447000Y-11699000D01*
X13447000Y-12177000D02*
X13477000Y-12207000D01*
X13477000Y-12177000D02*
X13447000Y-12207000D01*
X13629670Y-12812560D02*
X13659670Y-12842560D01*
X13659670Y-12812560D02*
X13629670Y-12842560D01*
X13714190Y-9306090D02*
X13744190Y-9336090D01*
X13744190Y-9306090D02*
X13714190Y-9336090D01*
X13777452Y-11572945D02*
X13807452Y-11602945D01*
X13807452Y-11572945D02*
X13777452Y-11602945D01*
X13840840Y-12781830D02*
X13870840Y-12811830D01*
X13870840Y-12781830D02*
X13840840Y-12811830D01*
X13849380Y-11041160D02*
X13879380Y-11071160D01*
X13879380Y-11041160D02*
X13849380Y-11071160D01*
X13940959Y-9324042D02*
X13970959Y-9354042D01*
X13970959Y-9324042D02*
X13940959Y-9354042D01*
X13955000Y-6589000D02*
X13985000Y-6619000D01*
X13985000Y-6589000D02*
X13955000Y-6619000D01*
X13955000Y-7097000D02*
X13985000Y-7127000D01*
X13985000Y-7097000D02*
X13955000Y-7127000D01*
X13955000Y-11415000D02*
X13985000Y-11445000D01*
X13985000Y-11415000D02*
X13955000Y-11445000D01*
X14067718Y-9526756D02*
X14097718Y-9556756D01*
X14097718Y-9526756D02*
X14067718Y-9556756D01*
X14168351Y-12733779D02*
X14198351Y-12763779D01*
X14198351Y-12733779D02*
X14168351Y-12763779D01*
X14209000Y-10653000D02*
X14239000Y-10683000D01*
X14239000Y-10653000D02*
X14209000Y-10683000D01*
X14382560Y-12824020D02*
X14412560Y-12854020D01*
X14412560Y-12824020D02*
X14382560Y-12854020D01*
X14463000Y-7351000D02*
X14493000Y-7381000D01*
X14493000Y-7351000D02*
X14463000Y-7381000D01*
X14463000Y-9586760D02*
X14493000Y-9616760D01*
X14493000Y-9586760D02*
X14463000Y-9616760D01*
X14472250Y-12712650D02*
X14502250Y-12742650D01*
X14502250Y-12712650D02*
X14472250Y-12742650D01*
X14552901Y-9384730D02*
X14582901Y-9414730D01*
X14582901Y-9384730D02*
X14552901Y-9414730D01*
X14554080Y-12660510D02*
X14584080Y-12690510D01*
X14584080Y-12660510D02*
X14554080Y-12690510D01*
X14585045Y-12813260D02*
X14615045Y-12843260D01*
X14615045Y-12813260D02*
X14585045Y-12843260D01*
X14593360Y-12398926D02*
X14623360Y-12428926D01*
X14623360Y-12398926D02*
X14593360Y-12428926D01*
X14645800Y-8954000D02*
X14675800Y-8984000D01*
X14675800Y-8954000D02*
X14645800Y-8984000D01*
X14688590Y-12780420D02*
X14718590Y-12810420D01*
X14718590Y-12780420D02*
X14688590Y-12810420D01*
X14706533Y-12883216D02*
X14736533Y-12913216D01*
X14736533Y-12883216D02*
X14706533Y-12913216D01*
X14717000Y-7097000D02*
X14747000Y-7127000D01*
X14747000Y-7097000D02*
X14717000Y-7127000D01*
X14786451Y-11529328D02*
X14816451Y-11559328D01*
X14816451Y-11529328D02*
X14786451Y-11559328D01*
X14821000Y-12389480D02*
X14851000Y-12419480D01*
X14851000Y-12389480D02*
X14821000Y-12419480D01*
X14841091Y-12774428D02*
X14871091Y-12804428D01*
X14871091Y-12774428D02*
X14841091Y-12804428D01*
X14971000Y-8367000D02*
X15001000Y-8397000D01*
X15001000Y-8367000D02*
X14971000Y-8397000D01*
X14973930Y-9285260D02*
X15003930Y-9315260D01*
X15003930Y-9285260D02*
X14973930Y-9315260D01*
X15023237Y-12570876D02*
X15053237Y-12600876D01*
X15053237Y-12570876D02*
X15023237Y-12600876D01*
X15141520Y-11901250D02*
X15171520Y-11931250D01*
X15171520Y-11901250D02*
X15141520Y-11931250D01*
X15151717Y-12704760D02*
X15181717Y-12734760D01*
X15181717Y-12704760D02*
X15151717Y-12734760D01*
X15178350Y-12466250D02*
X15208350Y-12496250D01*
X15208350Y-12466250D02*
X15178350Y-12496250D01*
X15219750Y-12180870D02*
X15249750Y-12210870D01*
X15249750Y-12180870D02*
X15219750Y-12210870D01*
X15292750Y-9586760D02*
X15322750Y-9616760D01*
X15322750Y-9586760D02*
X15292750Y-9616760D01*
X15355445Y-12521566D02*
X15385445Y-12551566D01*
X15385445Y-12521566D02*
X15355445Y-12551566D01*
X15403660Y-9307580D02*
X15433660Y-9337580D01*
X15433660Y-9307580D02*
X15403660Y-9337580D01*
X15479000Y-12685000D02*
X15509000Y-12715000D01*
X15509000Y-12685000D02*
X15479000Y-12715000D01*
X15484580Y-12282400D02*
X15514580Y-12312400D01*
X15514580Y-12282400D02*
X15484580Y-12312400D01*
X15484740Y-11913800D02*
X15514740Y-11943800D01*
X15514740Y-11913800D02*
X15484740Y-11943800D01*
X15638690Y-9303130D02*
X15668690Y-9333130D01*
X15668690Y-9303130D02*
X15638690Y-9333130D01*
X15733000Y-5827000D02*
X15763000Y-5857000D01*
X15763000Y-5827000D02*
X15733000Y-5857000D01*
X15733000Y-6843000D02*
X15763000Y-6873000D01*
X15763000Y-6843000D02*
X15733000Y-6873000D01*
X15733000Y-8367000D02*
X15763000Y-8397000D01*
X15763000Y-8367000D02*
X15733000Y-8397000D01*
X15733000Y-11161000D02*
X15763000Y-11191000D01*
X15763000Y-11161000D02*
X15733000Y-11191000D01*
X15788110Y-12630770D02*
X15818110Y-12660770D01*
X15818110Y-12630770D02*
X15788110Y-12660770D01*
X15909372Y-9874119D02*
X15939372Y-9904119D01*
X15939372Y-9874119D02*
X15909372Y-9904119D01*
X15912570Y-10459400D02*
X15942570Y-10489400D01*
X15942570Y-10459400D02*
X15912570Y-10489400D01*
X15966070Y-9275770D02*
X15996070Y-9305770D01*
X15996070Y-9275770D02*
X15966070Y-9305770D01*
X16185380Y-9586760D02*
X16215380Y-9616760D01*
X16215380Y-9586760D02*
X16185380Y-9616760D01*
X16192277Y-11726076D02*
X16222277Y-11756076D01*
X16222277Y-11726076D02*
X16192277Y-11756076D01*
X16241000Y-7097000D02*
X16271000Y-7127000D01*
X16271000Y-7097000D02*
X16241000Y-7127000D01*
X16241000Y-11161000D02*
X16271000Y-11191000D01*
X16271000Y-11161000D02*
X16241000Y-11191000D01*
X16241000Y-12177000D02*
X16271000Y-12207000D01*
X16271000Y-12177000D02*
X16241000Y-12207000D01*
X16391620Y-10459400D02*
X16421620Y-10489400D01*
X16421620Y-10459400D02*
X16391620Y-10489400D01*
X16488110Y-12797969D02*
X16518110Y-12827969D01*
X16518110Y-12797969D02*
X16488110Y-12827969D01*
X16730050Y-11622920D02*
X16760050Y-11652920D01*
X16760050Y-11622920D02*
X16730050Y-11652920D01*
X16749000Y-5827000D02*
X16779000Y-5857000D01*
X16779000Y-5827000D02*
X16749000Y-5857000D01*
X16749000Y-6843000D02*
X16779000Y-6873000D01*
X16779000Y-6843000D02*
X16749000Y-6873000D01*
X16749000Y-7351000D02*
X16779000Y-7381000D01*
X16779000Y-7351000D02*
X16749000Y-7381000D01*
X17003000Y-7605000D02*
X17033000Y-7635000D01*
X17033000Y-7605000D02*
X17003000Y-7635000D01*
X17003000Y-8367000D02*
X17033000Y-8397000D01*
X17033000Y-8367000D02*
X17003000Y-8397000D01*
X11597000Y-10160000D02*
G75*
G02*
X11517000Y-10160000I-40000J0D01*
G01*
X11517000Y-10160000D02*
G75*
G02*
X11597000Y-10160000I40000J0D01*
G01*
X12486000Y-6350000D02*
G75*
G02*
X12406000Y-6350000I-40000J0D01*
G01*
X12406000Y-6350000D02*
G75*
G02*
X12486000Y-6350000I40000J0D01*
G01*
X12613000Y-10160000D02*
G75*
G02*
X12533000Y-10160000I-40000J0D01*
G01*
X12533000Y-10160000D02*
G75*
G02*
X12613000Y-10160000I40000J0D01*
G01*
X12747580Y-8241110D02*
G75*
G02*
X12667580Y-8241110I-40000J0D01*
G01*
X12667580Y-8241110D02*
G75*
G02*
X12747580Y-8241110I40000J0D01*
G01*
X12747580Y-8491110D02*
G75*
G02*
X12667580Y-8491110I-40000J0D01*
G01*
X12667580Y-8491110D02*
G75*
G02*
X12747580Y-8491110I40000J0D01*
G01*
X13248000Y-7620000D02*
G75*
G02*
X13168000Y-7620000I-40000J0D01*
G01*
X13168000Y-7620000D02*
G75*
G02*
X13248000Y-7620000I40000J0D01*
G01*
X13248000Y-9144000D02*
G75*
G02*
X13168000Y-9144000I-40000J0D01*
G01*
X13168000Y-9144000D02*
G75*
G02*
X13248000Y-9144000I40000J0D01*
G01*
X13502000Y-6350000D02*
G75*
G02*
X13422000Y-6350000I-40000J0D01*
G01*
X13422000Y-6350000D02*
G75*
G02*
X13502000Y-6350000I40000J0D01*
G01*
X13502000Y-7620000D02*
G75*
G02*
X13422000Y-7620000I-40000J0D01*
G01*
X13422000Y-7620000D02*
G75*
G02*
X13502000Y-7620000I40000J0D01*
G01*
X13502000Y-9144000D02*
G75*
G02*
X13422000Y-9144000I-40000J0D01*
G01*
X13422000Y-9144000D02*
G75*
G02*
X13502000Y-9144000I40000J0D01*
G01*
X13756000Y-7620000D02*
G75*
G02*
X13676000Y-7620000I-40000J0D01*
G01*
X13676000Y-7620000D02*
G75*
G02*
X13756000Y-7620000I40000J0D01*
G01*
X13756000Y-9144000D02*
G75*
G02*
X13676000Y-9144000I-40000J0D01*
G01*
X13676000Y-9144000D02*
G75*
G02*
X13756000Y-9144000I40000J0D01*
G01*
X14010000Y-7620000D02*
G75*
G02*
X13930000Y-7620000I-40000J0D01*
G01*
X13930000Y-7620000D02*
G75*
G02*
X14010000Y-7620000I40000J0D01*
G01*
X14010000Y-9144000D02*
G75*
G02*
X13930000Y-9144000I-40000J0D01*
G01*
X13930000Y-9144000D02*
G75*
G02*
X14010000Y-9144000I40000J0D01*
G01*
X14264000Y-7620000D02*
G75*
G02*
X14184000Y-7620000I-40000J0D01*
G01*
X14184000Y-7620000D02*
G75*
G02*
X14264000Y-7620000I40000J0D01*
G01*
X14264000Y-9144000D02*
G75*
G02*
X14184000Y-9144000I-40000J0D01*
G01*
X14184000Y-9144000D02*
G75*
G02*
X14264000Y-9144000I40000J0D01*
G01*
X14518000Y-7620000D02*
G75*
G02*
X14438000Y-7620000I-40000J0D01*
G01*
X14438000Y-7620000D02*
G75*
G02*
X14518000Y-7620000I40000J0D01*
G01*
X14518000Y-9144000D02*
G75*
G02*
X14438000Y-9144000I-40000J0D01*
G01*
X14438000Y-9144000D02*
G75*
G02*
X14518000Y-9144000I40000J0D01*
G01*
X14772000Y-7620000D02*
G75*
G02*
X14692000Y-7620000I-40000J0D01*
G01*
X14692000Y-7620000D02*
G75*
G02*
X14772000Y-7620000I40000J0D01*
G01*
X14772000Y-9144000D02*
G75*
G02*
X14692000Y-9144000I-40000J0D01*
G01*
X14692000Y-9144000D02*
G75*
G02*
X14772000Y-9144000I40000J0D01*
G01*
X15026000Y-7620000D02*
G75*
G02*
X14946000Y-7620000I-40000J0D01*
G01*
X14946000Y-7620000D02*
G75*
G02*
X15026000Y-7620000I40000J0D01*
G01*
X15026000Y-9144000D02*
G75*
G02*
X14946000Y-9144000I-40000J0D01*
G01*
X14946000Y-9144000D02*
G75*
G02*
X15026000Y-9144000I40000J0D01*
G01*
X15280000Y-7620000D02*
G75*
G02*
X15200000Y-7620000I-40000J0D01*
G01*
X15200000Y-7620000D02*
G75*
G02*
X15280000Y-7620000I40000J0D01*
G01*
X15280000Y-9144000D02*
G75*
G02*
X15200000Y-9144000I-40000J0D01*
G01*
X15200000Y-9144000D02*
G75*
G02*
X15280000Y-9144000I40000J0D01*
G01*
X15534000Y-7620000D02*
G75*
G02*
X15454000Y-7620000I-40000J0D01*
G01*
X15454000Y-7620000D02*
G75*
G02*
X15534000Y-7620000I40000J0D01*
G01*
X15534000Y-9144000D02*
G75*
G02*
X15454000Y-9144000I-40000J0D01*
G01*
X15454000Y-9144000D02*
G75*
G02*
X15534000Y-9144000I40000J0D01*
G01*
X15788000Y-7620000D02*
G75*
G02*
X15708000Y-7620000I-40000J0D01*
G01*
X15708000Y-7620000D02*
G75*
G02*
X15788000Y-7620000I40000J0D01*
G01*
X15788000Y-9144000D02*
G75*
G02*
X15708000Y-9144000I-40000J0D01*
G01*
X15708000Y-9144000D02*
G75*
G02*
X15788000Y-9144000I40000J0D01*
G01*
X16042000Y-7620000D02*
G75*
G02*
X15962000Y-7620000I-40000J0D01*
G01*
X15962000Y-7620000D02*
G75*
G02*
X16042000Y-7620000I40000J0D01*
G01*
X16042000Y-9144000D02*
G75*
G02*
X15962000Y-9144000I-40000J0D01*
G01*
X15962000Y-9144000D02*
G75*
G02*
X16042000Y-9144000I40000J0D01*
G01*
X16296000Y-7620000D02*
G75*
G02*
X16216000Y-7620000I-40000J0D01*
G01*
X16216000Y-7620000D02*
G75*
G02*
X16296000Y-7620000I40000J0D01*
G01*
X16296000Y-9144000D02*
G75*
G02*
X16216000Y-9144000I-40000J0D01*
G01*
X16216000Y-9144000D02*
G75*
G02*
X16296000Y-9144000I40000J0D01*
G01*
X16550000Y-7620000D02*
G75*
G02*
X16470000Y-7620000I-40000J0D01*
G01*
X16470000Y-7620000D02*
G75*
G02*
X16550000Y-7620000I40000J0D01*
G01*
X16550000Y-9144000D02*
G75*
G02*
X16470000Y-9144000I-40000J0D01*
G01*
X16470000Y-9144000D02*
G75*
G02*
X16550000Y-9144000I40000J0D01*
G01*
X14853594Y-6305000D02*
X14853594Y-6395000D01*
X14808594Y-6350000D02*
X14898594Y-6350000D01*
X15107594Y-6305000D02*
X15107594Y-6395000D01*
X15062594Y-6350000D02*
X15152594Y-6350000D01*
D13*
X11722891Y-10960891D02*
X11722891Y-10883109D01*
X11645109Y-10883109D01*
X11645109Y-10960891D01*
X11722891Y-10960891D01*
X11722891Y-11722891D02*
X11722891Y-11645109D01*
X11645109Y-11645109D01*
X11645109Y-11722891D01*
X11722891Y-11722891D01*
X12484891Y-10960891D02*
X12484891Y-10883109D01*
X12407109Y-10883109D01*
X12407109Y-10960891D01*
X12484891Y-10960891D01*
X12484891Y-11722891D02*
X12484891Y-11645109D01*
X12407109Y-11645109D01*
X12407109Y-11722891D01*
X12484891Y-11722891D01*
X15969891Y-6163891D02*
X15969891Y-6086109D01*
X15892109Y-6086109D01*
X15892109Y-6163891D01*
X15969891Y-6163891D01*
X15969891Y-6613891D02*
X15969891Y-6536109D01*
X15892109Y-6536109D01*
X15892109Y-6613891D01*
X15969891Y-6613891D01*
X16619891Y-6163891D02*
X16619891Y-6086109D01*
X16542109Y-6086109D01*
X16542109Y-6163891D01*
X16619891Y-6163891D01*
X16619891Y-6613891D02*
X16619891Y-6536109D01*
X16542109Y-6536109D01*
X16542109Y-6613891D01*
X16619891Y-6613891D01*
D11*
X11582681Y-14414106D02*
X11582681Y-14214106D01*
X11582681Y-14214106D02*
X11630300Y-14214106D01*
X11630300Y-14214106D02*
X11658872Y-14223630D01*
X11658872Y-14223630D02*
X11677919Y-14242678D01*
X11677919Y-14242678D02*
X11687443Y-14261725D01*
X11687443Y-14261725D02*
X11696967Y-14299820D01*
X11696967Y-14299820D02*
X11696967Y-14328392D01*
X11696967Y-14328392D02*
X11687443Y-14366487D01*
X11687443Y-14366487D02*
X11677919Y-14385535D01*
X11677919Y-14385535D02*
X11658872Y-14404582D01*
X11658872Y-14404582D02*
X11630300Y-14414106D01*
X11630300Y-14414106D02*
X11582681Y-14414106D01*
X11782681Y-14414106D02*
X11782681Y-14280773D01*
X11782681Y-14318868D02*
X11792205Y-14299820D01*
X11792205Y-14299820D02*
X11801729Y-14290297D01*
X11801729Y-14290297D02*
X11820777Y-14280773D01*
X11820777Y-14280773D02*
X11839824Y-14280773D01*
X11906491Y-14414106D02*
X11906491Y-14280773D01*
X11906491Y-14214106D02*
X11896967Y-14223630D01*
X11896967Y-14223630D02*
X11906491Y-14233154D01*
X11906491Y-14233154D02*
X11916015Y-14223630D01*
X11916015Y-14223630D02*
X11906491Y-14214106D01*
X11906491Y-14214106D02*
X11906491Y-14233154D01*
X12030300Y-14414106D02*
X12011253Y-14404582D01*
X12011253Y-14404582D02*
X12001729Y-14385535D01*
X12001729Y-14385535D02*
X12001729Y-14214106D01*
X12135062Y-14414106D02*
X12116015Y-14404582D01*
X12116015Y-14404582D02*
X12106491Y-14385535D01*
X12106491Y-14385535D02*
X12106491Y-14214106D01*
X12363634Y-14414106D02*
X12363634Y-14214106D01*
X12363634Y-14214106D02*
X12430300Y-14356963D01*
X12430300Y-14356963D02*
X12496967Y-14214106D01*
X12496967Y-14214106D02*
X12496967Y-14414106D01*
X12677919Y-14414106D02*
X12677919Y-14309344D01*
X12677919Y-14309344D02*
X12668396Y-14290297D01*
X12668396Y-14290297D02*
X12649348Y-14280773D01*
X12649348Y-14280773D02*
X12611253Y-14280773D01*
X12611253Y-14280773D02*
X12592205Y-14290297D01*
X12677919Y-14404582D02*
X12658872Y-14414106D01*
X12658872Y-14414106D02*
X12611253Y-14414106D01*
X12611253Y-14414106D02*
X12592205Y-14404582D01*
X12592205Y-14404582D02*
X12582681Y-14385535D01*
X12582681Y-14385535D02*
X12582681Y-14366487D01*
X12582681Y-14366487D02*
X12592205Y-14347440D01*
X12592205Y-14347440D02*
X12611253Y-14337916D01*
X12611253Y-14337916D02*
X12658872Y-14337916D01*
X12658872Y-14337916D02*
X12677919Y-14328392D01*
X12773158Y-14280773D02*
X12773158Y-14480773D01*
X12773158Y-14290297D02*
X12792205Y-14280773D01*
X12792205Y-14280773D02*
X12830300Y-14280773D01*
X12830300Y-14280773D02*
X12849348Y-14290297D01*
X12849348Y-14290297D02*
X12858872Y-14299820D01*
X12858872Y-14299820D02*
X12868396Y-14318868D01*
X12868396Y-14318868D02*
X12868396Y-14376011D01*
X12868396Y-14376011D02*
X12858872Y-14395059D01*
X12858872Y-14395059D02*
X12849348Y-14404582D01*
X12849348Y-14404582D02*
X12830300Y-14414106D01*
X12830300Y-14414106D02*
X12792205Y-14414106D01*
X12792205Y-14414106D02*
X12773158Y-14404582D01*
X12954110Y-14395059D02*
X12963634Y-14404582D01*
X12963634Y-14404582D02*
X12954110Y-14414106D01*
X12954110Y-14414106D02*
X12944586Y-14404582D01*
X12944586Y-14404582D02*
X12954110Y-14395059D01*
X12954110Y-14395059D02*
X12954110Y-14414106D01*
X12954110Y-14290297D02*
X12963634Y-14299820D01*
X12963634Y-14299820D02*
X12954110Y-14309344D01*
X12954110Y-14309344D02*
X12944586Y-14299820D01*
X12944586Y-14299820D02*
X12954110Y-14290297D01*
X12954110Y-14290297D02*
X12954110Y-14309344D01*
D12*
X11291905Y-14727622D02*
X11321905Y-14757622D01*
X11321905Y-14727622D02*
X11291905Y-14757622D01*
D11*
X11620777Y-14634106D02*
X11639824Y-14634106D01*
X11639824Y-14634106D02*
X11658872Y-14643630D01*
X11658872Y-14643630D02*
X11668396Y-14653154D01*
X11668396Y-14653154D02*
X11677919Y-14672201D01*
X11677919Y-14672201D02*
X11687443Y-14710297D01*
X11687443Y-14710297D02*
X11687443Y-14757916D01*
X11687443Y-14757916D02*
X11677919Y-14796011D01*
X11677919Y-14796011D02*
X11668396Y-14815059D01*
X11668396Y-14815059D02*
X11658872Y-14824582D01*
X11658872Y-14824582D02*
X11639824Y-14834106D01*
X11639824Y-14834106D02*
X11620777Y-14834106D01*
X11620777Y-14834106D02*
X11601729Y-14824582D01*
X11601729Y-14824582D02*
X11592205Y-14815059D01*
X11592205Y-14815059D02*
X11582681Y-14796011D01*
X11582681Y-14796011D02*
X11573158Y-14757916D01*
X11573158Y-14757916D02*
X11573158Y-14710297D01*
X11573158Y-14710297D02*
X11582681Y-14672201D01*
X11582681Y-14672201D02*
X11592205Y-14653154D01*
X11592205Y-14653154D02*
X11601729Y-14643630D01*
X11601729Y-14643630D02*
X11620777Y-14634106D01*
X11773158Y-14815059D02*
X11782681Y-14824582D01*
X11782681Y-14824582D02*
X11773158Y-14834106D01*
X11773158Y-14834106D02*
X11763634Y-14824582D01*
X11763634Y-14824582D02*
X11773158Y-14815059D01*
X11773158Y-14815059D02*
X11773158Y-14834106D01*
X11849348Y-14634106D02*
X11973158Y-14634106D01*
X11973158Y-14634106D02*
X11906491Y-14710297D01*
X11906491Y-14710297D02*
X11935062Y-14710297D01*
X11935062Y-14710297D02*
X11954110Y-14719820D01*
X11954110Y-14719820D02*
X11963634Y-14729344D01*
X11963634Y-14729344D02*
X11973158Y-14748392D01*
X11973158Y-14748392D02*
X11973158Y-14796011D01*
X11973158Y-14796011D02*
X11963634Y-14815059D01*
X11963634Y-14815059D02*
X11954110Y-14824582D01*
X11954110Y-14824582D02*
X11935062Y-14834106D01*
X11935062Y-14834106D02*
X11877919Y-14834106D01*
X11877919Y-14834106D02*
X11858872Y-14824582D01*
X11858872Y-14824582D02*
X11849348Y-14815059D01*
X12096967Y-14634106D02*
X12116015Y-14634106D01*
X12116015Y-14634106D02*
X12135062Y-14643630D01*
X12135062Y-14643630D02*
X12144586Y-14653154D01*
X12144586Y-14653154D02*
X12154110Y-14672201D01*
X12154110Y-14672201D02*
X12163634Y-14710297D01*
X12163634Y-14710297D02*
X12163634Y-14757916D01*
X12163634Y-14757916D02*
X12154110Y-14796011D01*
X12154110Y-14796011D02*
X12144586Y-14815059D01*
X12144586Y-14815059D02*
X12135062Y-14824582D01*
X12135062Y-14824582D02*
X12116015Y-14834106D01*
X12116015Y-14834106D02*
X12096967Y-14834106D01*
X12096967Y-14834106D02*
X12077919Y-14824582D01*
X12077919Y-14824582D02*
X12068396Y-14815059D01*
X12068396Y-14815059D02*
X12058872Y-14796011D01*
X12058872Y-14796011D02*
X12049348Y-14757916D01*
X12049348Y-14757916D02*
X12049348Y-14710297D01*
X12049348Y-14710297D02*
X12058872Y-14672201D01*
X12058872Y-14672201D02*
X12068396Y-14653154D01*
X12068396Y-14653154D02*
X12077919Y-14643630D01*
X12077919Y-14643630D02*
X12096967Y-14634106D01*
X12287443Y-14634106D02*
X12306491Y-14634106D01*
X12306491Y-14634106D02*
X12325539Y-14643630D01*
X12325539Y-14643630D02*
X12335062Y-14653154D01*
X12335062Y-14653154D02*
X12344586Y-14672201D01*
X12344586Y-14672201D02*
X12354110Y-14710297D01*
X12354110Y-14710297D02*
X12354110Y-14757916D01*
X12354110Y-14757916D02*
X12344586Y-14796011D01*
X12344586Y-14796011D02*
X12335062Y-14815059D01*
X12335062Y-14815059D02*
X12325539Y-14824582D01*
X12325539Y-14824582D02*
X12306491Y-14834106D01*
X12306491Y-14834106D02*
X12287443Y-14834106D01*
X12287443Y-14834106D02*
X12268396Y-14824582D01*
X12268396Y-14824582D02*
X12258872Y-14815059D01*
X12258872Y-14815059D02*
X12249348Y-14796011D01*
X12249348Y-14796011D02*
X12239824Y-14757916D01*
X12239824Y-14757916D02*
X12239824Y-14710297D01*
X12239824Y-14710297D02*
X12249348Y-14672201D01*
X12249348Y-14672201D02*
X12258872Y-14653154D01*
X12258872Y-14653154D02*
X12268396Y-14643630D01*
X12268396Y-14643630D02*
X12287443Y-14634106D01*
X12439824Y-14834106D02*
X12439824Y-14700773D01*
X12439824Y-14719820D02*
X12449348Y-14710297D01*
X12449348Y-14710297D02*
X12468396Y-14700773D01*
X12468396Y-14700773D02*
X12496967Y-14700773D01*
X12496967Y-14700773D02*
X12516015Y-14710297D01*
X12516015Y-14710297D02*
X12525539Y-14729344D01*
X12525539Y-14729344D02*
X12525539Y-14834106D01*
X12525539Y-14729344D02*
X12535062Y-14710297D01*
X12535062Y-14710297D02*
X12554110Y-14700773D01*
X12554110Y-14700773D02*
X12582681Y-14700773D01*
X12582681Y-14700773D02*
X12601729Y-14710297D01*
X12601729Y-14710297D02*
X12611253Y-14729344D01*
X12611253Y-14729344D02*
X12611253Y-14834106D01*
X12706491Y-14834106D02*
X12706491Y-14700773D01*
X12706491Y-14719820D02*
X12716015Y-14710297D01*
X12716015Y-14710297D02*
X12735062Y-14700773D01*
X12735062Y-14700773D02*
X12763634Y-14700773D01*
X12763634Y-14700773D02*
X12782681Y-14710297D01*
X12782681Y-14710297D02*
X12792205Y-14729344D01*
X12792205Y-14729344D02*
X12792205Y-14834106D01*
X12792205Y-14729344D02*
X12801729Y-14710297D01*
X12801729Y-14710297D02*
X12820777Y-14700773D01*
X12820777Y-14700773D02*
X12849348Y-14700773D01*
X12849348Y-14700773D02*
X12868396Y-14710297D01*
X12868396Y-14710297D02*
X12877920Y-14729344D01*
X12877920Y-14729344D02*
X12877920Y-14834106D01*
X13268396Y-14624582D02*
X13096967Y-14881725D01*
X13525539Y-14634106D02*
X13544586Y-14634106D01*
X13544586Y-14634106D02*
X13563634Y-14643630D01*
X13563634Y-14643630D02*
X13573158Y-14653154D01*
X13573158Y-14653154D02*
X13582682Y-14672201D01*
X13582682Y-14672201D02*
X13592205Y-14710297D01*
X13592205Y-14710297D02*
X13592205Y-14757916D01*
X13592205Y-14757916D02*
X13582682Y-14796011D01*
X13582682Y-14796011D02*
X13573158Y-14815059D01*
X13573158Y-14815059D02*
X13563634Y-14824582D01*
X13563634Y-14824582D02*
X13544586Y-14834106D01*
X13544586Y-14834106D02*
X13525539Y-14834106D01*
X13525539Y-14834106D02*
X13506491Y-14824582D01*
X13506491Y-14824582D02*
X13496967Y-14815059D01*
X13496967Y-14815059D02*
X13487443Y-14796011D01*
X13487443Y-14796011D02*
X13477920Y-14757916D01*
X13477920Y-14757916D02*
X13477920Y-14710297D01*
X13477920Y-14710297D02*
X13487443Y-14672201D01*
X13487443Y-14672201D02*
X13496967Y-14653154D01*
X13496967Y-14653154D02*
X13506491Y-14643630D01*
X13506491Y-14643630D02*
X13525539Y-14634106D01*
X13677920Y-14815059D02*
X13687443Y-14824582D01*
X13687443Y-14824582D02*
X13677920Y-14834106D01*
X13677920Y-14834106D02*
X13668396Y-14824582D01*
X13668396Y-14824582D02*
X13677920Y-14815059D01*
X13677920Y-14815059D02*
X13677920Y-14834106D01*
X13811253Y-14634106D02*
X13830301Y-14634106D01*
X13830301Y-14634106D02*
X13849348Y-14643630D01*
X13849348Y-14643630D02*
X13858872Y-14653154D01*
X13858872Y-14653154D02*
X13868396Y-14672201D01*
X13868396Y-14672201D02*
X13877920Y-14710297D01*
X13877920Y-14710297D02*
X13877920Y-14757916D01*
X13877920Y-14757916D02*
X13868396Y-14796011D01*
X13868396Y-14796011D02*
X13858872Y-14815059D01*
X13858872Y-14815059D02*
X13849348Y-14824582D01*
X13849348Y-14824582D02*
X13830301Y-14834106D01*
X13830301Y-14834106D02*
X13811253Y-14834106D01*
X13811253Y-14834106D02*
X13792205Y-14824582D01*
X13792205Y-14824582D02*
X13782682Y-14815059D01*
X13782682Y-14815059D02*
X13773158Y-14796011D01*
X13773158Y-14796011D02*
X13763634Y-14757916D01*
X13763634Y-14757916D02*
X13763634Y-14710297D01*
X13763634Y-14710297D02*
X13773158Y-14672201D01*
X13773158Y-14672201D02*
X13782682Y-14653154D01*
X13782682Y-14653154D02*
X13792205Y-14643630D01*
X13792205Y-14643630D02*
X13811253Y-14634106D01*
X14068396Y-14834106D02*
X13954110Y-14834106D01*
X14011253Y-14834106D02*
X14011253Y-14634106D01*
X14011253Y-14634106D02*
X13992205Y-14662678D01*
X13992205Y-14662678D02*
X13973158Y-14681725D01*
X13973158Y-14681725D02*
X13954110Y-14691249D01*
X14258872Y-14834106D02*
X14144586Y-14834106D01*
X14201729Y-14834106D02*
X14201729Y-14634106D01*
X14201729Y-14634106D02*
X14182682Y-14662678D01*
X14182682Y-14662678D02*
X14163634Y-14681725D01*
X14163634Y-14681725D02*
X14144586Y-14691249D01*
X14373158Y-14719820D02*
X14354110Y-14710297D01*
X14354110Y-14710297D02*
X14344586Y-14700773D01*
X14344586Y-14700773D02*
X14335063Y-14681725D01*
X14335063Y-14681725D02*
X14335063Y-14672201D01*
X14335063Y-14672201D02*
X14344586Y-14653154D01*
X14344586Y-14653154D02*
X14354110Y-14643630D01*
X14354110Y-14643630D02*
X14373158Y-14634106D01*
X14373158Y-14634106D02*
X14411253Y-14634106D01*
X14411253Y-14634106D02*
X14430301Y-14643630D01*
X14430301Y-14643630D02*
X14439824Y-14653154D01*
X14439824Y-14653154D02*
X14449348Y-14672201D01*
X14449348Y-14672201D02*
X14449348Y-14681725D01*
X14449348Y-14681725D02*
X14439824Y-14700773D01*
X14439824Y-14700773D02*
X14430301Y-14710297D01*
X14430301Y-14710297D02*
X14411253Y-14719820D01*
X14411253Y-14719820D02*
X14373158Y-14719820D01*
X14373158Y-14719820D02*
X14354110Y-14729344D01*
X14354110Y-14729344D02*
X14344586Y-14738868D01*
X14344586Y-14738868D02*
X14335063Y-14757916D01*
X14335063Y-14757916D02*
X14335063Y-14796011D01*
X14335063Y-14796011D02*
X14344586Y-14815059D01*
X14344586Y-14815059D02*
X14354110Y-14824582D01*
X14354110Y-14824582D02*
X14373158Y-14834106D01*
X14373158Y-14834106D02*
X14411253Y-14834106D01*
X14411253Y-14834106D02*
X14430301Y-14824582D01*
X14430301Y-14824582D02*
X14439824Y-14815059D01*
X14439824Y-14815059D02*
X14449348Y-14796011D01*
X14449348Y-14796011D02*
X14449348Y-14757916D01*
X14449348Y-14757916D02*
X14439824Y-14738868D01*
X14439824Y-14738868D02*
X14430301Y-14729344D01*
X14430301Y-14729344D02*
X14411253Y-14719820D01*
X14525539Y-14634106D02*
X14525539Y-14672201D01*
X14601729Y-14634106D02*
X14601729Y-14672201D01*
X14896967Y-14910297D02*
X14887444Y-14900773D01*
X14887444Y-14900773D02*
X14868396Y-14872201D01*
X14868396Y-14872201D02*
X14858872Y-14853154D01*
X14858872Y-14853154D02*
X14849348Y-14824582D01*
X14849348Y-14824582D02*
X14839825Y-14776963D01*
X14839825Y-14776963D02*
X14839825Y-14738868D01*
X14839825Y-14738868D02*
X14849348Y-14691249D01*
X14849348Y-14691249D02*
X14858872Y-14662678D01*
X14858872Y-14662678D02*
X14868396Y-14643630D01*
X14868396Y-14643630D02*
X14887444Y-14615059D01*
X14887444Y-14615059D02*
X14896967Y-14605535D01*
X15001729Y-14719820D02*
X14982682Y-14710297D01*
X14982682Y-14710297D02*
X14973158Y-14700773D01*
X14973158Y-14700773D02*
X14963634Y-14681725D01*
X14963634Y-14681725D02*
X14963634Y-14672201D01*
X14963634Y-14672201D02*
X14973158Y-14653154D01*
X14973158Y-14653154D02*
X14982682Y-14643630D01*
X14982682Y-14643630D02*
X15001729Y-14634106D01*
X15001729Y-14634106D02*
X15039825Y-14634106D01*
X15039825Y-14634106D02*
X15058872Y-14643630D01*
X15058872Y-14643630D02*
X15068396Y-14653154D01*
X15068396Y-14653154D02*
X15077920Y-14672201D01*
X15077920Y-14672201D02*
X15077920Y-14681725D01*
X15077920Y-14681725D02*
X15068396Y-14700773D01*
X15068396Y-14700773D02*
X15058872Y-14710297D01*
X15058872Y-14710297D02*
X15039825Y-14719820D01*
X15039825Y-14719820D02*
X15001729Y-14719820D01*
X15001729Y-14719820D02*
X14982682Y-14729344D01*
X14982682Y-14729344D02*
X14973158Y-14738868D01*
X14973158Y-14738868D02*
X14963634Y-14757916D01*
X14963634Y-14757916D02*
X14963634Y-14796011D01*
X14963634Y-14796011D02*
X14973158Y-14815059D01*
X14973158Y-14815059D02*
X14982682Y-14824582D01*
X14982682Y-14824582D02*
X15001729Y-14834106D01*
X15001729Y-14834106D02*
X15039825Y-14834106D01*
X15039825Y-14834106D02*
X15058872Y-14824582D01*
X15058872Y-14824582D02*
X15068396Y-14815059D01*
X15068396Y-14815059D02*
X15077920Y-14796011D01*
X15077920Y-14796011D02*
X15077920Y-14757916D01*
X15077920Y-14757916D02*
X15068396Y-14738868D01*
X15068396Y-14738868D02*
X15058872Y-14729344D01*
X15058872Y-14729344D02*
X15039825Y-14719820D01*
X15249348Y-14634106D02*
X15211253Y-14634106D01*
X15211253Y-14634106D02*
X15192205Y-14643630D01*
X15192205Y-14643630D02*
X15182682Y-14653154D01*
X15182682Y-14653154D02*
X15163634Y-14681725D01*
X15163634Y-14681725D02*
X15154110Y-14719820D01*
X15154110Y-14719820D02*
X15154110Y-14796011D01*
X15154110Y-14796011D02*
X15163634Y-14815059D01*
X15163634Y-14815059D02*
X15173158Y-14824582D01*
X15173158Y-14824582D02*
X15192205Y-14834106D01*
X15192205Y-14834106D02*
X15230301Y-14834106D01*
X15230301Y-14834106D02*
X15249348Y-14824582D01*
X15249348Y-14824582D02*
X15258872Y-14815059D01*
X15258872Y-14815059D02*
X15268396Y-14796011D01*
X15268396Y-14796011D02*
X15268396Y-14748392D01*
X15268396Y-14748392D02*
X15258872Y-14729344D01*
X15258872Y-14729344D02*
X15249348Y-14719820D01*
X15249348Y-14719820D02*
X15230301Y-14710297D01*
X15230301Y-14710297D02*
X15192205Y-14710297D01*
X15192205Y-14710297D02*
X15173158Y-14719820D01*
X15173158Y-14719820D02*
X15163634Y-14729344D01*
X15163634Y-14729344D02*
X15154110Y-14748392D01*
X15506491Y-14834106D02*
X15506491Y-14634106D01*
X15592206Y-14834106D02*
X15592206Y-14729344D01*
X15592206Y-14729344D02*
X15582682Y-14710297D01*
X15582682Y-14710297D02*
X15563634Y-14700773D01*
X15563634Y-14700773D02*
X15535063Y-14700773D01*
X15535063Y-14700773D02*
X15516015Y-14710297D01*
X15516015Y-14710297D02*
X15506491Y-14719820D01*
X15716015Y-14834106D02*
X15696967Y-14824582D01*
X15696967Y-14824582D02*
X15687444Y-14815059D01*
X15687444Y-14815059D02*
X15677920Y-14796011D01*
X15677920Y-14796011D02*
X15677920Y-14738868D01*
X15677920Y-14738868D02*
X15687444Y-14719820D01*
X15687444Y-14719820D02*
X15696967Y-14710297D01*
X15696967Y-14710297D02*
X15716015Y-14700773D01*
X15716015Y-14700773D02*
X15744587Y-14700773D01*
X15744587Y-14700773D02*
X15763634Y-14710297D01*
X15763634Y-14710297D02*
X15773158Y-14719820D01*
X15773158Y-14719820D02*
X15782682Y-14738868D01*
X15782682Y-14738868D02*
X15782682Y-14796011D01*
X15782682Y-14796011D02*
X15773158Y-14815059D01*
X15773158Y-14815059D02*
X15763634Y-14824582D01*
X15763634Y-14824582D02*
X15744587Y-14834106D01*
X15744587Y-14834106D02*
X15716015Y-14834106D01*
X15896967Y-14834106D02*
X15877920Y-14824582D01*
X15877920Y-14824582D02*
X15868396Y-14805535D01*
X15868396Y-14805535D02*
X15868396Y-14634106D01*
X16049348Y-14824582D02*
X16030301Y-14834106D01*
X16030301Y-14834106D02*
X15992206Y-14834106D01*
X15992206Y-14834106D02*
X15973158Y-14824582D01*
X15973158Y-14824582D02*
X15963634Y-14805535D01*
X15963634Y-14805535D02*
X15963634Y-14729344D01*
X15963634Y-14729344D02*
X15973158Y-14710297D01*
X15973158Y-14710297D02*
X15992206Y-14700773D01*
X15992206Y-14700773D02*
X16030301Y-14700773D01*
X16030301Y-14700773D02*
X16049348Y-14710297D01*
X16049348Y-14710297D02*
X16058872Y-14729344D01*
X16058872Y-14729344D02*
X16058872Y-14748392D01*
X16058872Y-14748392D02*
X15963634Y-14767440D01*
X16135063Y-14824582D02*
X16154110Y-14834106D01*
X16154110Y-14834106D02*
X16192206Y-14834106D01*
X16192206Y-14834106D02*
X16211253Y-14824582D01*
X16211253Y-14824582D02*
X16220777Y-14805535D01*
X16220777Y-14805535D02*
X16220777Y-14796011D01*
X16220777Y-14796011D02*
X16211253Y-14776963D01*
X16211253Y-14776963D02*
X16192206Y-14767440D01*
X16192206Y-14767440D02*
X16163634Y-14767440D01*
X16163634Y-14767440D02*
X16144587Y-14757916D01*
X16144587Y-14757916D02*
X16135063Y-14738868D01*
X16135063Y-14738868D02*
X16135063Y-14729344D01*
X16135063Y-14729344D02*
X16144587Y-14710297D01*
X16144587Y-14710297D02*
X16163634Y-14700773D01*
X16163634Y-14700773D02*
X16192206Y-14700773D01*
X16192206Y-14700773D02*
X16211253Y-14710297D01*
X16287444Y-14910297D02*
X16296968Y-14900773D01*
X16296968Y-14900773D02*
X16316015Y-14872201D01*
X16316015Y-14872201D02*
X16325539Y-14853154D01*
X16325539Y-14853154D02*
X16335063Y-14824582D01*
X16335063Y-14824582D02*
X16344587Y-14776963D01*
X16344587Y-14776963D02*
X16344587Y-14738868D01*
X16344587Y-14738868D02*
X16335063Y-14691249D01*
X16335063Y-14691249D02*
X16325539Y-14662678D01*
X16325539Y-14662678D02*
X16316015Y-14643630D01*
X16316015Y-14643630D02*
X16296968Y-14615059D01*
X16296968Y-14615059D02*
X16287444Y-14605535D01*
D12*
X11321905Y-15006622D02*
G75*
G02*
X11241905Y-15006622I-40000J0D01*
G01*
X11241905Y-15006622D02*
G75*
G02*
X11321905Y-15006622I40000J0D01*
G01*
D11*
X11620777Y-14898106D02*
X11639824Y-14898106D01*
X11639824Y-14898106D02*
X11658872Y-14907630D01*
X11658872Y-14907630D02*
X11668396Y-14917154D01*
X11668396Y-14917154D02*
X11677919Y-14936201D01*
X11677919Y-14936201D02*
X11687443Y-14974297D01*
X11687443Y-14974297D02*
X11687443Y-15021916D01*
X11687443Y-15021916D02*
X11677919Y-15060011D01*
X11677919Y-15060011D02*
X11668396Y-15079059D01*
X11668396Y-15079059D02*
X11658872Y-15088582D01*
X11658872Y-15088582D02*
X11639824Y-15098106D01*
X11639824Y-15098106D02*
X11620777Y-15098106D01*
X11620777Y-15098106D02*
X11601729Y-15088582D01*
X11601729Y-15088582D02*
X11592205Y-15079059D01*
X11592205Y-15079059D02*
X11582681Y-15060011D01*
X11582681Y-15060011D02*
X11573158Y-15021916D01*
X11573158Y-15021916D02*
X11573158Y-14974297D01*
X11573158Y-14974297D02*
X11582681Y-14936201D01*
X11582681Y-14936201D02*
X11592205Y-14917154D01*
X11592205Y-14917154D02*
X11601729Y-14907630D01*
X11601729Y-14907630D02*
X11620777Y-14898106D01*
X11773158Y-15079059D02*
X11782681Y-15088582D01*
X11782681Y-15088582D02*
X11773158Y-15098106D01*
X11773158Y-15098106D02*
X11763634Y-15088582D01*
X11763634Y-15088582D02*
X11773158Y-15079059D01*
X11773158Y-15079059D02*
X11773158Y-15098106D01*
X11896967Y-14983820D02*
X11877919Y-14974297D01*
X11877919Y-14974297D02*
X11868396Y-14964773D01*
X11868396Y-14964773D02*
X11858872Y-14945725D01*
X11858872Y-14945725D02*
X11858872Y-14936201D01*
X11858872Y-14936201D02*
X11868396Y-14917154D01*
X11868396Y-14917154D02*
X11877919Y-14907630D01*
X11877919Y-14907630D02*
X11896967Y-14898106D01*
X11896967Y-14898106D02*
X11935062Y-14898106D01*
X11935062Y-14898106D02*
X11954110Y-14907630D01*
X11954110Y-14907630D02*
X11963634Y-14917154D01*
X11963634Y-14917154D02*
X11973158Y-14936201D01*
X11973158Y-14936201D02*
X11973158Y-14945725D01*
X11973158Y-14945725D02*
X11963634Y-14964773D01*
X11963634Y-14964773D02*
X11954110Y-14974297D01*
X11954110Y-14974297D02*
X11935062Y-14983820D01*
X11935062Y-14983820D02*
X11896967Y-14983820D01*
X11896967Y-14983820D02*
X11877919Y-14993344D01*
X11877919Y-14993344D02*
X11868396Y-15002868D01*
X11868396Y-15002868D02*
X11858872Y-15021916D01*
X11858872Y-15021916D02*
X11858872Y-15060011D01*
X11858872Y-15060011D02*
X11868396Y-15079059D01*
X11868396Y-15079059D02*
X11877919Y-15088582D01*
X11877919Y-15088582D02*
X11896967Y-15098106D01*
X11896967Y-15098106D02*
X11935062Y-15098106D01*
X11935062Y-15098106D02*
X11954110Y-15088582D01*
X11954110Y-15088582D02*
X11963634Y-15079059D01*
X11963634Y-15079059D02*
X11973158Y-15060011D01*
X11973158Y-15060011D02*
X11973158Y-15021916D01*
X11973158Y-15021916D02*
X11963634Y-15002868D01*
X11963634Y-15002868D02*
X11954110Y-14993344D01*
X11954110Y-14993344D02*
X11935062Y-14983820D01*
X12096967Y-14898106D02*
X12116015Y-14898106D01*
X12116015Y-14898106D02*
X12135062Y-14907630D01*
X12135062Y-14907630D02*
X12144586Y-14917154D01*
X12144586Y-14917154D02*
X12154110Y-14936201D01*
X12154110Y-14936201D02*
X12163634Y-14974297D01*
X12163634Y-14974297D02*
X12163634Y-15021916D01*
X12163634Y-15021916D02*
X12154110Y-15060011D01*
X12154110Y-15060011D02*
X12144586Y-15079059D01*
X12144586Y-15079059D02*
X12135062Y-15088582D01*
X12135062Y-15088582D02*
X12116015Y-15098106D01*
X12116015Y-15098106D02*
X12096967Y-15098106D01*
X12096967Y-15098106D02*
X12077919Y-15088582D01*
X12077919Y-15088582D02*
X12068396Y-15079059D01*
X12068396Y-15079059D02*
X12058872Y-15060011D01*
X12058872Y-15060011D02*
X12049348Y-15021916D01*
X12049348Y-15021916D02*
X12049348Y-14974297D01*
X12049348Y-14974297D02*
X12058872Y-14936201D01*
X12058872Y-14936201D02*
X12068396Y-14917154D01*
X12068396Y-14917154D02*
X12077919Y-14907630D01*
X12077919Y-14907630D02*
X12096967Y-14898106D01*
X12287443Y-14898106D02*
X12306491Y-14898106D01*
X12306491Y-14898106D02*
X12325539Y-14907630D01*
X12325539Y-14907630D02*
X12335062Y-14917154D01*
X12335062Y-14917154D02*
X12344586Y-14936201D01*
X12344586Y-14936201D02*
X12354110Y-14974297D01*
X12354110Y-14974297D02*
X12354110Y-15021916D01*
X12354110Y-15021916D02*
X12344586Y-15060011D01*
X12344586Y-15060011D02*
X12335062Y-15079059D01*
X12335062Y-15079059D02*
X12325539Y-15088582D01*
X12325539Y-15088582D02*
X12306491Y-15098106D01*
X12306491Y-15098106D02*
X12287443Y-15098106D01*
X12287443Y-15098106D02*
X12268396Y-15088582D01*
X12268396Y-15088582D02*
X12258872Y-15079059D01*
X12258872Y-15079059D02*
X12249348Y-15060011D01*
X12249348Y-15060011D02*
X12239824Y-15021916D01*
X12239824Y-15021916D02*
X12239824Y-14974297D01*
X12239824Y-14974297D02*
X12249348Y-14936201D01*
X12249348Y-14936201D02*
X12258872Y-14917154D01*
X12258872Y-14917154D02*
X12268396Y-14907630D01*
X12268396Y-14907630D02*
X12287443Y-14898106D01*
X12439824Y-15098106D02*
X12439824Y-14964773D01*
X12439824Y-14983820D02*
X12449348Y-14974297D01*
X12449348Y-14974297D02*
X12468396Y-14964773D01*
X12468396Y-14964773D02*
X12496967Y-14964773D01*
X12496967Y-14964773D02*
X12516015Y-14974297D01*
X12516015Y-14974297D02*
X12525539Y-14993344D01*
X12525539Y-14993344D02*
X12525539Y-15098106D01*
X12525539Y-14993344D02*
X12535062Y-14974297D01*
X12535062Y-14974297D02*
X12554110Y-14964773D01*
X12554110Y-14964773D02*
X12582681Y-14964773D01*
X12582681Y-14964773D02*
X12601729Y-14974297D01*
X12601729Y-14974297D02*
X12611253Y-14993344D01*
X12611253Y-14993344D02*
X12611253Y-15098106D01*
X12706491Y-15098106D02*
X12706491Y-14964773D01*
X12706491Y-14983820D02*
X12716015Y-14974297D01*
X12716015Y-14974297D02*
X12735062Y-14964773D01*
X12735062Y-14964773D02*
X12763634Y-14964773D01*
X12763634Y-14964773D02*
X12782681Y-14974297D01*
X12782681Y-14974297D02*
X12792205Y-14993344D01*
X12792205Y-14993344D02*
X12792205Y-15098106D01*
X12792205Y-14993344D02*
X12801729Y-14974297D01*
X12801729Y-14974297D02*
X12820777Y-14964773D01*
X12820777Y-14964773D02*
X12849348Y-14964773D01*
X12849348Y-14964773D02*
X12868396Y-14974297D01*
X12868396Y-14974297D02*
X12877920Y-14993344D01*
X12877920Y-14993344D02*
X12877920Y-15098106D01*
X13268396Y-14888582D02*
X13096967Y-15145725D01*
X13525539Y-14898106D02*
X13544586Y-14898106D01*
X13544586Y-14898106D02*
X13563634Y-14907630D01*
X13563634Y-14907630D02*
X13573158Y-14917154D01*
X13573158Y-14917154D02*
X13582682Y-14936201D01*
X13582682Y-14936201D02*
X13592205Y-14974297D01*
X13592205Y-14974297D02*
X13592205Y-15021916D01*
X13592205Y-15021916D02*
X13582682Y-15060011D01*
X13582682Y-15060011D02*
X13573158Y-15079059D01*
X13573158Y-15079059D02*
X13563634Y-15088582D01*
X13563634Y-15088582D02*
X13544586Y-15098106D01*
X13544586Y-15098106D02*
X13525539Y-15098106D01*
X13525539Y-15098106D02*
X13506491Y-15088582D01*
X13506491Y-15088582D02*
X13496967Y-15079059D01*
X13496967Y-15079059D02*
X13487443Y-15060011D01*
X13487443Y-15060011D02*
X13477920Y-15021916D01*
X13477920Y-15021916D02*
X13477920Y-14974297D01*
X13477920Y-14974297D02*
X13487443Y-14936201D01*
X13487443Y-14936201D02*
X13496967Y-14917154D01*
X13496967Y-14917154D02*
X13506491Y-14907630D01*
X13506491Y-14907630D02*
X13525539Y-14898106D01*
X13677920Y-15079059D02*
X13687443Y-15088582D01*
X13687443Y-15088582D02*
X13677920Y-15098106D01*
X13677920Y-15098106D02*
X13668396Y-15088582D01*
X13668396Y-15088582D02*
X13677920Y-15079059D01*
X13677920Y-15079059D02*
X13677920Y-15098106D01*
X13811253Y-14898106D02*
X13830301Y-14898106D01*
X13830301Y-14898106D02*
X13849348Y-14907630D01*
X13849348Y-14907630D02*
X13858872Y-14917154D01*
X13858872Y-14917154D02*
X13868396Y-14936201D01*
X13868396Y-14936201D02*
X13877920Y-14974297D01*
X13877920Y-14974297D02*
X13877920Y-15021916D01*
X13877920Y-15021916D02*
X13868396Y-15060011D01*
X13868396Y-15060011D02*
X13858872Y-15079059D01*
X13858872Y-15079059D02*
X13849348Y-15088582D01*
X13849348Y-15088582D02*
X13830301Y-15098106D01*
X13830301Y-15098106D02*
X13811253Y-15098106D01*
X13811253Y-15098106D02*
X13792205Y-15088582D01*
X13792205Y-15088582D02*
X13782682Y-15079059D01*
X13782682Y-15079059D02*
X13773158Y-15060011D01*
X13773158Y-15060011D02*
X13763634Y-15021916D01*
X13763634Y-15021916D02*
X13763634Y-14974297D01*
X13763634Y-14974297D02*
X13773158Y-14936201D01*
X13773158Y-14936201D02*
X13782682Y-14917154D01*
X13782682Y-14917154D02*
X13792205Y-14907630D01*
X13792205Y-14907630D02*
X13811253Y-14898106D01*
X13944586Y-14898106D02*
X14068396Y-14898106D01*
X14068396Y-14898106D02*
X14001729Y-14974297D01*
X14001729Y-14974297D02*
X14030301Y-14974297D01*
X14030301Y-14974297D02*
X14049348Y-14983820D01*
X14049348Y-14983820D02*
X14058872Y-14993344D01*
X14058872Y-14993344D02*
X14068396Y-15012392D01*
X14068396Y-15012392D02*
X14068396Y-15060011D01*
X14068396Y-15060011D02*
X14058872Y-15079059D01*
X14058872Y-15079059D02*
X14049348Y-15088582D01*
X14049348Y-15088582D02*
X14030301Y-15098106D01*
X14030301Y-15098106D02*
X13973158Y-15098106D01*
X13973158Y-15098106D02*
X13954110Y-15088582D01*
X13954110Y-15088582D02*
X13944586Y-15079059D01*
X14258872Y-15098106D02*
X14144586Y-15098106D01*
X14201729Y-15098106D02*
X14201729Y-14898106D01*
X14201729Y-14898106D02*
X14182682Y-14926678D01*
X14182682Y-14926678D02*
X14163634Y-14945725D01*
X14163634Y-14945725D02*
X14144586Y-14955249D01*
X14439824Y-14898106D02*
X14344586Y-14898106D01*
X14344586Y-14898106D02*
X14335063Y-14993344D01*
X14335063Y-14993344D02*
X14344586Y-14983820D01*
X14344586Y-14983820D02*
X14363634Y-14974297D01*
X14363634Y-14974297D02*
X14411253Y-14974297D01*
X14411253Y-14974297D02*
X14430301Y-14983820D01*
X14430301Y-14983820D02*
X14439824Y-14993344D01*
X14439824Y-14993344D02*
X14449348Y-15012392D01*
X14449348Y-15012392D02*
X14449348Y-15060011D01*
X14449348Y-15060011D02*
X14439824Y-15079059D01*
X14439824Y-15079059D02*
X14430301Y-15088582D01*
X14430301Y-15088582D02*
X14411253Y-15098106D01*
X14411253Y-15098106D02*
X14363634Y-15098106D01*
X14363634Y-15098106D02*
X14344586Y-15088582D01*
X14344586Y-15088582D02*
X14335063Y-15079059D01*
X14525539Y-14898106D02*
X14525539Y-14936201D01*
X14601729Y-14898106D02*
X14601729Y-14936201D01*
X14896967Y-15174297D02*
X14887444Y-15164773D01*
X14887444Y-15164773D02*
X14868396Y-15136201D01*
X14868396Y-15136201D02*
X14858872Y-15117154D01*
X14858872Y-15117154D02*
X14849348Y-15088582D01*
X14849348Y-15088582D02*
X14839825Y-15040963D01*
X14839825Y-15040963D02*
X14839825Y-15002868D01*
X14839825Y-15002868D02*
X14849348Y-14955249D01*
X14849348Y-14955249D02*
X14858872Y-14926678D01*
X14858872Y-14926678D02*
X14868396Y-14907630D01*
X14868396Y-14907630D02*
X14887444Y-14879059D01*
X14887444Y-14879059D02*
X14896967Y-14869535D01*
X14954110Y-14898106D02*
X15077920Y-14898106D01*
X15077920Y-14898106D02*
X15011253Y-14974297D01*
X15011253Y-14974297D02*
X15039825Y-14974297D01*
X15039825Y-14974297D02*
X15058872Y-14983820D01*
X15058872Y-14983820D02*
X15068396Y-14993344D01*
X15068396Y-14993344D02*
X15077920Y-15012392D01*
X15077920Y-15012392D02*
X15077920Y-15060011D01*
X15077920Y-15060011D02*
X15068396Y-15079059D01*
X15068396Y-15079059D02*
X15058872Y-15088582D01*
X15058872Y-15088582D02*
X15039825Y-15098106D01*
X15039825Y-15098106D02*
X14982682Y-15098106D01*
X14982682Y-15098106D02*
X14963634Y-15088582D01*
X14963634Y-15088582D02*
X14954110Y-15079059D01*
X15249348Y-14964773D02*
X15249348Y-15098106D01*
X15201729Y-14888582D02*
X15154110Y-15031440D01*
X15154110Y-15031440D02*
X15277920Y-15031440D01*
X15506491Y-15098106D02*
X15506491Y-14898106D01*
X15592206Y-15098106D02*
X15592206Y-14993344D01*
X15592206Y-14993344D02*
X15582682Y-14974297D01*
X15582682Y-14974297D02*
X15563634Y-14964773D01*
X15563634Y-14964773D02*
X15535063Y-14964773D01*
X15535063Y-14964773D02*
X15516015Y-14974297D01*
X15516015Y-14974297D02*
X15506491Y-14983820D01*
X15716015Y-15098106D02*
X15696967Y-15088582D01*
X15696967Y-15088582D02*
X15687444Y-15079059D01*
X15687444Y-15079059D02*
X15677920Y-15060011D01*
X15677920Y-15060011D02*
X15677920Y-15002868D01*
X15677920Y-15002868D02*
X15687444Y-14983820D01*
X15687444Y-14983820D02*
X15696967Y-14974297D01*
X15696967Y-14974297D02*
X15716015Y-14964773D01*
X15716015Y-14964773D02*
X15744587Y-14964773D01*
X15744587Y-14964773D02*
X15763634Y-14974297D01*
X15763634Y-14974297D02*
X15773158Y-14983820D01*
X15773158Y-14983820D02*
X15782682Y-15002868D01*
X15782682Y-15002868D02*
X15782682Y-15060011D01*
X15782682Y-15060011D02*
X15773158Y-15079059D01*
X15773158Y-15079059D02*
X15763634Y-15088582D01*
X15763634Y-15088582D02*
X15744587Y-15098106D01*
X15744587Y-15098106D02*
X15716015Y-15098106D01*
X15896967Y-15098106D02*
X15877920Y-15088582D01*
X15877920Y-15088582D02*
X15868396Y-15069535D01*
X15868396Y-15069535D02*
X15868396Y-14898106D01*
X16049348Y-15088582D02*
X16030301Y-15098106D01*
X16030301Y-15098106D02*
X15992206Y-15098106D01*
X15992206Y-15098106D02*
X15973158Y-15088582D01*
X15973158Y-15088582D02*
X15963634Y-15069535D01*
X15963634Y-15069535D02*
X15963634Y-14993344D01*
X15963634Y-14993344D02*
X15973158Y-14974297D01*
X15973158Y-14974297D02*
X15992206Y-14964773D01*
X15992206Y-14964773D02*
X16030301Y-14964773D01*
X16030301Y-14964773D02*
X16049348Y-14974297D01*
X16049348Y-14974297D02*
X16058872Y-14993344D01*
X16058872Y-14993344D02*
X16058872Y-15012392D01*
X16058872Y-15012392D02*
X15963634Y-15031440D01*
X16135063Y-15088582D02*
X16154110Y-15098106D01*
X16154110Y-15098106D02*
X16192206Y-15098106D01*
X16192206Y-15098106D02*
X16211253Y-15088582D01*
X16211253Y-15088582D02*
X16220777Y-15069535D01*
X16220777Y-15069535D02*
X16220777Y-15060011D01*
X16220777Y-15060011D02*
X16211253Y-15040963D01*
X16211253Y-15040963D02*
X16192206Y-15031440D01*
X16192206Y-15031440D02*
X16163634Y-15031440D01*
X16163634Y-15031440D02*
X16144587Y-15021916D01*
X16144587Y-15021916D02*
X16135063Y-15002868D01*
X16135063Y-15002868D02*
X16135063Y-14993344D01*
X16135063Y-14993344D02*
X16144587Y-14974297D01*
X16144587Y-14974297D02*
X16163634Y-14964773D01*
X16163634Y-14964773D02*
X16192206Y-14964773D01*
X16192206Y-14964773D02*
X16211253Y-14974297D01*
X16287444Y-15174297D02*
X16296968Y-15164773D01*
X16296968Y-15164773D02*
X16316015Y-15136201D01*
X16316015Y-15136201D02*
X16325539Y-15117154D01*
X16325539Y-15117154D02*
X16335063Y-15088582D01*
X16335063Y-15088582D02*
X16344587Y-15040963D01*
X16344587Y-15040963D02*
X16344587Y-15002868D01*
X16344587Y-15002868D02*
X16335063Y-14955249D01*
X16335063Y-14955249D02*
X16325539Y-14926678D01*
X16325539Y-14926678D02*
X16316015Y-14907630D01*
X16316015Y-14907630D02*
X16296968Y-14879059D01*
X16296968Y-14879059D02*
X16287444Y-14869535D01*
D12*
X11276905Y-15225622D02*
X11276905Y-15315622D01*
X11231905Y-15270622D02*
X11321905Y-15270622D01*
D11*
X11620777Y-15162106D02*
X11639824Y-15162106D01*
X11639824Y-15162106D02*
X11658872Y-15171630D01*
X11658872Y-15171630D02*
X11668396Y-15181154D01*
X11668396Y-15181154D02*
X11677919Y-15200201D01*
X11677919Y-15200201D02*
X11687443Y-15238297D01*
X11687443Y-15238297D02*
X11687443Y-15285916D01*
X11687443Y-15285916D02*
X11677919Y-15324011D01*
X11677919Y-15324011D02*
X11668396Y-15343059D01*
X11668396Y-15343059D02*
X11658872Y-15352582D01*
X11658872Y-15352582D02*
X11639824Y-15362106D01*
X11639824Y-15362106D02*
X11620777Y-15362106D01*
X11620777Y-15362106D02*
X11601729Y-15352582D01*
X11601729Y-15352582D02*
X11592205Y-15343059D01*
X11592205Y-15343059D02*
X11582681Y-15324011D01*
X11582681Y-15324011D02*
X11573158Y-15285916D01*
X11573158Y-15285916D02*
X11573158Y-15238297D01*
X11573158Y-15238297D02*
X11582681Y-15200201D01*
X11582681Y-15200201D02*
X11592205Y-15181154D01*
X11592205Y-15181154D02*
X11601729Y-15171630D01*
X11601729Y-15171630D02*
X11620777Y-15162106D01*
X11773158Y-15343059D02*
X11782681Y-15352582D01*
X11782681Y-15352582D02*
X11773158Y-15362106D01*
X11773158Y-15362106D02*
X11763634Y-15352582D01*
X11763634Y-15352582D02*
X11773158Y-15343059D01*
X11773158Y-15343059D02*
X11773158Y-15362106D01*
X11877919Y-15362106D02*
X11916015Y-15362106D01*
X11916015Y-15362106D02*
X11935062Y-15352582D01*
X11935062Y-15352582D02*
X11944586Y-15343059D01*
X11944586Y-15343059D02*
X11963634Y-15314487D01*
X11963634Y-15314487D02*
X11973158Y-15276392D01*
X11973158Y-15276392D02*
X11973158Y-15200201D01*
X11973158Y-15200201D02*
X11963634Y-15181154D01*
X11963634Y-15181154D02*
X11954110Y-15171630D01*
X11954110Y-15171630D02*
X11935062Y-15162106D01*
X11935062Y-15162106D02*
X11896967Y-15162106D01*
X11896967Y-15162106D02*
X11877919Y-15171630D01*
X11877919Y-15171630D02*
X11868396Y-15181154D01*
X11868396Y-15181154D02*
X11858872Y-15200201D01*
X11858872Y-15200201D02*
X11858872Y-15247820D01*
X11858872Y-15247820D02*
X11868396Y-15266868D01*
X11868396Y-15266868D02*
X11877919Y-15276392D01*
X11877919Y-15276392D02*
X11896967Y-15285916D01*
X11896967Y-15285916D02*
X11935062Y-15285916D01*
X11935062Y-15285916D02*
X11954110Y-15276392D01*
X11954110Y-15276392D02*
X11963634Y-15266868D01*
X11963634Y-15266868D02*
X11973158Y-15247820D01*
X12096967Y-15162106D02*
X12116015Y-15162106D01*
X12116015Y-15162106D02*
X12135062Y-15171630D01*
X12135062Y-15171630D02*
X12144586Y-15181154D01*
X12144586Y-15181154D02*
X12154110Y-15200201D01*
X12154110Y-15200201D02*
X12163634Y-15238297D01*
X12163634Y-15238297D02*
X12163634Y-15285916D01*
X12163634Y-15285916D02*
X12154110Y-15324011D01*
X12154110Y-15324011D02*
X12144586Y-15343059D01*
X12144586Y-15343059D02*
X12135062Y-15352582D01*
X12135062Y-15352582D02*
X12116015Y-15362106D01*
X12116015Y-15362106D02*
X12096967Y-15362106D01*
X12096967Y-15362106D02*
X12077919Y-15352582D01*
X12077919Y-15352582D02*
X12068396Y-15343059D01*
X12068396Y-15343059D02*
X12058872Y-15324011D01*
X12058872Y-15324011D02*
X12049348Y-15285916D01*
X12049348Y-15285916D02*
X12049348Y-15238297D01*
X12049348Y-15238297D02*
X12058872Y-15200201D01*
X12058872Y-15200201D02*
X12068396Y-15181154D01*
X12068396Y-15181154D02*
X12077919Y-15171630D01*
X12077919Y-15171630D02*
X12096967Y-15162106D01*
X12287443Y-15162106D02*
X12306491Y-15162106D01*
X12306491Y-15162106D02*
X12325539Y-15171630D01*
X12325539Y-15171630D02*
X12335062Y-15181154D01*
X12335062Y-15181154D02*
X12344586Y-15200201D01*
X12344586Y-15200201D02*
X12354110Y-15238297D01*
X12354110Y-15238297D02*
X12354110Y-15285916D01*
X12354110Y-15285916D02*
X12344586Y-15324011D01*
X12344586Y-15324011D02*
X12335062Y-15343059D01*
X12335062Y-15343059D02*
X12325539Y-15352582D01*
X12325539Y-15352582D02*
X12306491Y-15362106D01*
X12306491Y-15362106D02*
X12287443Y-15362106D01*
X12287443Y-15362106D02*
X12268396Y-15352582D01*
X12268396Y-15352582D02*
X12258872Y-15343059D01*
X12258872Y-15343059D02*
X12249348Y-15324011D01*
X12249348Y-15324011D02*
X12239824Y-15285916D01*
X12239824Y-15285916D02*
X12239824Y-15238297D01*
X12239824Y-15238297D02*
X12249348Y-15200201D01*
X12249348Y-15200201D02*
X12258872Y-15181154D01*
X12258872Y-15181154D02*
X12268396Y-15171630D01*
X12268396Y-15171630D02*
X12287443Y-15162106D01*
X12439824Y-15362106D02*
X12439824Y-15228773D01*
X12439824Y-15247820D02*
X12449348Y-15238297D01*
X12449348Y-15238297D02*
X12468396Y-15228773D01*
X12468396Y-15228773D02*
X12496967Y-15228773D01*
X12496967Y-15228773D02*
X12516015Y-15238297D01*
X12516015Y-15238297D02*
X12525539Y-15257344D01*
X12525539Y-15257344D02*
X12525539Y-15362106D01*
X12525539Y-15257344D02*
X12535062Y-15238297D01*
X12535062Y-15238297D02*
X12554110Y-15228773D01*
X12554110Y-15228773D02*
X12582681Y-15228773D01*
X12582681Y-15228773D02*
X12601729Y-15238297D01*
X12601729Y-15238297D02*
X12611253Y-15257344D01*
X12611253Y-15257344D02*
X12611253Y-15362106D01*
X12706491Y-15362106D02*
X12706491Y-15228773D01*
X12706491Y-15247820D02*
X12716015Y-15238297D01*
X12716015Y-15238297D02*
X12735062Y-15228773D01*
X12735062Y-15228773D02*
X12763634Y-15228773D01*
X12763634Y-15228773D02*
X12782681Y-15238297D01*
X12782681Y-15238297D02*
X12792205Y-15257344D01*
X12792205Y-15257344D02*
X12792205Y-15362106D01*
X12792205Y-15257344D02*
X12801729Y-15238297D01*
X12801729Y-15238297D02*
X12820777Y-15228773D01*
X12820777Y-15228773D02*
X12849348Y-15228773D01*
X12849348Y-15228773D02*
X12868396Y-15238297D01*
X12868396Y-15238297D02*
X12877920Y-15257344D01*
X12877920Y-15257344D02*
X12877920Y-15362106D01*
X13268396Y-15152582D02*
X13096967Y-15409725D01*
X13525539Y-15162106D02*
X13544586Y-15162106D01*
X13544586Y-15162106D02*
X13563634Y-15171630D01*
X13563634Y-15171630D02*
X13573158Y-15181154D01*
X13573158Y-15181154D02*
X13582682Y-15200201D01*
X13582682Y-15200201D02*
X13592205Y-15238297D01*
X13592205Y-15238297D02*
X13592205Y-15285916D01*
X13592205Y-15285916D02*
X13582682Y-15324011D01*
X13582682Y-15324011D02*
X13573158Y-15343059D01*
X13573158Y-15343059D02*
X13563634Y-15352582D01*
X13563634Y-15352582D02*
X13544586Y-15362106D01*
X13544586Y-15362106D02*
X13525539Y-15362106D01*
X13525539Y-15362106D02*
X13506491Y-15352582D01*
X13506491Y-15352582D02*
X13496967Y-15343059D01*
X13496967Y-15343059D02*
X13487443Y-15324011D01*
X13487443Y-15324011D02*
X13477920Y-15285916D01*
X13477920Y-15285916D02*
X13477920Y-15238297D01*
X13477920Y-15238297D02*
X13487443Y-15200201D01*
X13487443Y-15200201D02*
X13496967Y-15181154D01*
X13496967Y-15181154D02*
X13506491Y-15171630D01*
X13506491Y-15171630D02*
X13525539Y-15162106D01*
X13677920Y-15343059D02*
X13687443Y-15352582D01*
X13687443Y-15352582D02*
X13677920Y-15362106D01*
X13677920Y-15362106D02*
X13668396Y-15352582D01*
X13668396Y-15352582D02*
X13677920Y-15343059D01*
X13677920Y-15343059D02*
X13677920Y-15362106D01*
X13811253Y-15162106D02*
X13830301Y-15162106D01*
X13830301Y-15162106D02*
X13849348Y-15171630D01*
X13849348Y-15171630D02*
X13858872Y-15181154D01*
X13858872Y-15181154D02*
X13868396Y-15200201D01*
X13868396Y-15200201D02*
X13877920Y-15238297D01*
X13877920Y-15238297D02*
X13877920Y-15285916D01*
X13877920Y-15285916D02*
X13868396Y-15324011D01*
X13868396Y-15324011D02*
X13858872Y-15343059D01*
X13858872Y-15343059D02*
X13849348Y-15352582D01*
X13849348Y-15352582D02*
X13830301Y-15362106D01*
X13830301Y-15362106D02*
X13811253Y-15362106D01*
X13811253Y-15362106D02*
X13792205Y-15352582D01*
X13792205Y-15352582D02*
X13782682Y-15343059D01*
X13782682Y-15343059D02*
X13773158Y-15324011D01*
X13773158Y-15324011D02*
X13763634Y-15285916D01*
X13763634Y-15285916D02*
X13763634Y-15238297D01*
X13763634Y-15238297D02*
X13773158Y-15200201D01*
X13773158Y-15200201D02*
X13782682Y-15181154D01*
X13782682Y-15181154D02*
X13792205Y-15171630D01*
X13792205Y-15171630D02*
X13811253Y-15162106D01*
X13944586Y-15162106D02*
X14068396Y-15162106D01*
X14068396Y-15162106D02*
X14001729Y-15238297D01*
X14001729Y-15238297D02*
X14030301Y-15238297D01*
X14030301Y-15238297D02*
X14049348Y-15247820D01*
X14049348Y-15247820D02*
X14058872Y-15257344D01*
X14058872Y-15257344D02*
X14068396Y-15276392D01*
X14068396Y-15276392D02*
X14068396Y-15324011D01*
X14068396Y-15324011D02*
X14058872Y-15343059D01*
X14058872Y-15343059D02*
X14049348Y-15352582D01*
X14049348Y-15352582D02*
X14030301Y-15362106D01*
X14030301Y-15362106D02*
X13973158Y-15362106D01*
X13973158Y-15362106D02*
X13954110Y-15352582D01*
X13954110Y-15352582D02*
X13944586Y-15343059D01*
X14249348Y-15162106D02*
X14154110Y-15162106D01*
X14154110Y-15162106D02*
X14144586Y-15257344D01*
X14144586Y-15257344D02*
X14154110Y-15247820D01*
X14154110Y-15247820D02*
X14173158Y-15238297D01*
X14173158Y-15238297D02*
X14220777Y-15238297D01*
X14220777Y-15238297D02*
X14239824Y-15247820D01*
X14239824Y-15247820D02*
X14249348Y-15257344D01*
X14249348Y-15257344D02*
X14258872Y-15276392D01*
X14258872Y-15276392D02*
X14258872Y-15324011D01*
X14258872Y-15324011D02*
X14249348Y-15343059D01*
X14249348Y-15343059D02*
X14239824Y-15352582D01*
X14239824Y-15352582D02*
X14220777Y-15362106D01*
X14220777Y-15362106D02*
X14173158Y-15362106D01*
X14173158Y-15362106D02*
X14154110Y-15352582D01*
X14154110Y-15352582D02*
X14144586Y-15343059D01*
X14430301Y-15228773D02*
X14430301Y-15362106D01*
X14382682Y-15152582D02*
X14335063Y-15295440D01*
X14335063Y-15295440D02*
X14458872Y-15295440D01*
X14525539Y-15162106D02*
X14525539Y-15200201D01*
X14601729Y-15162106D02*
X14601729Y-15200201D01*
X14896967Y-15438297D02*
X14887444Y-15428773D01*
X14887444Y-15428773D02*
X14868396Y-15400201D01*
X14868396Y-15400201D02*
X14858872Y-15381154D01*
X14858872Y-15381154D02*
X14849348Y-15352582D01*
X14849348Y-15352582D02*
X14839825Y-15304963D01*
X14839825Y-15304963D02*
X14839825Y-15266868D01*
X14839825Y-15266868D02*
X14849348Y-15219249D01*
X14849348Y-15219249D02*
X14858872Y-15190678D01*
X14858872Y-15190678D02*
X14868396Y-15171630D01*
X14868396Y-15171630D02*
X14887444Y-15143059D01*
X14887444Y-15143059D02*
X14896967Y-15133535D01*
X14963634Y-15181154D02*
X14973158Y-15171630D01*
X14973158Y-15171630D02*
X14992205Y-15162106D01*
X14992205Y-15162106D02*
X15039825Y-15162106D01*
X15039825Y-15162106D02*
X15058872Y-15171630D01*
X15058872Y-15171630D02*
X15068396Y-15181154D01*
X15068396Y-15181154D02*
X15077920Y-15200201D01*
X15077920Y-15200201D02*
X15077920Y-15219249D01*
X15077920Y-15219249D02*
X15068396Y-15247820D01*
X15068396Y-15247820D02*
X14954110Y-15362106D01*
X14954110Y-15362106D02*
X15077920Y-15362106D01*
X15316015Y-15362106D02*
X15316015Y-15162106D01*
X15401729Y-15362106D02*
X15401729Y-15257344D01*
X15401729Y-15257344D02*
X15392206Y-15238297D01*
X15392206Y-15238297D02*
X15373158Y-15228773D01*
X15373158Y-15228773D02*
X15344586Y-15228773D01*
X15344586Y-15228773D02*
X15325539Y-15238297D01*
X15325539Y-15238297D02*
X15316015Y-15247820D01*
X15525539Y-15362106D02*
X15506491Y-15352582D01*
X15506491Y-15352582D02*
X15496967Y-15343059D01*
X15496967Y-15343059D02*
X15487444Y-15324011D01*
X15487444Y-15324011D02*
X15487444Y-15266868D01*
X15487444Y-15266868D02*
X15496967Y-15247820D01*
X15496967Y-15247820D02*
X15506491Y-15238297D01*
X15506491Y-15238297D02*
X15525539Y-15228773D01*
X15525539Y-15228773D02*
X15554110Y-15228773D01*
X15554110Y-15228773D02*
X15573158Y-15238297D01*
X15573158Y-15238297D02*
X15582682Y-15247820D01*
X15582682Y-15247820D02*
X15592206Y-15266868D01*
X15592206Y-15266868D02*
X15592206Y-15324011D01*
X15592206Y-15324011D02*
X15582682Y-15343059D01*
X15582682Y-15343059D02*
X15573158Y-15352582D01*
X15573158Y-15352582D02*
X15554110Y-15362106D01*
X15554110Y-15362106D02*
X15525539Y-15362106D01*
X15706491Y-15362106D02*
X15687444Y-15352582D01*
X15687444Y-15352582D02*
X15677920Y-15333535D01*
X15677920Y-15333535D02*
X15677920Y-15162106D01*
X15858872Y-15352582D02*
X15839825Y-15362106D01*
X15839825Y-15362106D02*
X15801729Y-15362106D01*
X15801729Y-15362106D02*
X15782682Y-15352582D01*
X15782682Y-15352582D02*
X15773158Y-15333535D01*
X15773158Y-15333535D02*
X15773158Y-15257344D01*
X15773158Y-15257344D02*
X15782682Y-15238297D01*
X15782682Y-15238297D02*
X15801729Y-15228773D01*
X15801729Y-15228773D02*
X15839825Y-15228773D01*
X15839825Y-15228773D02*
X15858872Y-15238297D01*
X15858872Y-15238297D02*
X15868396Y-15257344D01*
X15868396Y-15257344D02*
X15868396Y-15276392D01*
X15868396Y-15276392D02*
X15773158Y-15295440D01*
X15944587Y-15352582D02*
X15963634Y-15362106D01*
X15963634Y-15362106D02*
X16001729Y-15362106D01*
X16001729Y-15362106D02*
X16020777Y-15352582D01*
X16020777Y-15352582D02*
X16030301Y-15333535D01*
X16030301Y-15333535D02*
X16030301Y-15324011D01*
X16030301Y-15324011D02*
X16020777Y-15304963D01*
X16020777Y-15304963D02*
X16001729Y-15295440D01*
X16001729Y-15295440D02*
X15973158Y-15295440D01*
X15973158Y-15295440D02*
X15954110Y-15285916D01*
X15954110Y-15285916D02*
X15944587Y-15266868D01*
X15944587Y-15266868D02*
X15944587Y-15257344D01*
X15944587Y-15257344D02*
X15954110Y-15238297D01*
X15954110Y-15238297D02*
X15973158Y-15228773D01*
X15973158Y-15228773D02*
X16001729Y-15228773D01*
X16001729Y-15228773D02*
X16020777Y-15238297D01*
X16096968Y-15438297D02*
X16106491Y-15428773D01*
X16106491Y-15428773D02*
X16125539Y-15400201D01*
X16125539Y-15400201D02*
X16135063Y-15381154D01*
X16135063Y-15381154D02*
X16144587Y-15352582D01*
X16144587Y-15352582D02*
X16154110Y-15304963D01*
X16154110Y-15304963D02*
X16154110Y-15266868D01*
X16154110Y-15266868D02*
X16144587Y-15219249D01*
X16144587Y-15219249D02*
X16135063Y-15190678D01*
X16135063Y-15190678D02*
X16125539Y-15171630D01*
X16125539Y-15171630D02*
X16106491Y-15143059D01*
X16106491Y-15143059D02*
X16096968Y-15133535D01*
D13*
X11305796Y-15573514D02*
X11305796Y-15495731D01*
X11228013Y-15495731D01*
X11228013Y-15573514D01*
X11305796Y-15573514D01*
D11*
X11687443Y-15626106D02*
X11573158Y-15626106D01*
X11630300Y-15626106D02*
X11630300Y-15426106D01*
X11630300Y-15426106D02*
X11611253Y-15454678D01*
X11611253Y-15454678D02*
X11592205Y-15473725D01*
X11592205Y-15473725D02*
X11573158Y-15483249D01*
X11773158Y-15607059D02*
X11782681Y-15616582D01*
X11782681Y-15616582D02*
X11773158Y-15626106D01*
X11773158Y-15626106D02*
X11763634Y-15616582D01*
X11763634Y-15616582D02*
X11773158Y-15607059D01*
X11773158Y-15607059D02*
X11773158Y-15626106D01*
X11973158Y-15626106D02*
X11858872Y-15626106D01*
X11916015Y-15626106D02*
X11916015Y-15426106D01*
X11916015Y-15426106D02*
X11896967Y-15454678D01*
X11896967Y-15454678D02*
X11877919Y-15473725D01*
X11877919Y-15473725D02*
X11858872Y-15483249D01*
X12096967Y-15426106D02*
X12116015Y-15426106D01*
X12116015Y-15426106D02*
X12135062Y-15435630D01*
X12135062Y-15435630D02*
X12144586Y-15445154D01*
X12144586Y-15445154D02*
X12154110Y-15464201D01*
X12154110Y-15464201D02*
X12163634Y-15502297D01*
X12163634Y-15502297D02*
X12163634Y-15549916D01*
X12163634Y-15549916D02*
X12154110Y-15588011D01*
X12154110Y-15588011D02*
X12144586Y-15607059D01*
X12144586Y-15607059D02*
X12135062Y-15616582D01*
X12135062Y-15616582D02*
X12116015Y-15626106D01*
X12116015Y-15626106D02*
X12096967Y-15626106D01*
X12096967Y-15626106D02*
X12077919Y-15616582D01*
X12077919Y-15616582D02*
X12068396Y-15607059D01*
X12068396Y-15607059D02*
X12058872Y-15588011D01*
X12058872Y-15588011D02*
X12049348Y-15549916D01*
X12049348Y-15549916D02*
X12049348Y-15502297D01*
X12049348Y-15502297D02*
X12058872Y-15464201D01*
X12058872Y-15464201D02*
X12068396Y-15445154D01*
X12068396Y-15445154D02*
X12077919Y-15435630D01*
X12077919Y-15435630D02*
X12096967Y-15426106D01*
X12287443Y-15426106D02*
X12306491Y-15426106D01*
X12306491Y-15426106D02*
X12325539Y-15435630D01*
X12325539Y-15435630D02*
X12335062Y-15445154D01*
X12335062Y-15445154D02*
X12344586Y-15464201D01*
X12344586Y-15464201D02*
X12354110Y-15502297D01*
X12354110Y-15502297D02*
X12354110Y-15549916D01*
X12354110Y-15549916D02*
X12344586Y-15588011D01*
X12344586Y-15588011D02*
X12335062Y-15607059D01*
X12335062Y-15607059D02*
X12325539Y-15616582D01*
X12325539Y-15616582D02*
X12306491Y-15626106D01*
X12306491Y-15626106D02*
X12287443Y-15626106D01*
X12287443Y-15626106D02*
X12268396Y-15616582D01*
X12268396Y-15616582D02*
X12258872Y-15607059D01*
X12258872Y-15607059D02*
X12249348Y-15588011D01*
X12249348Y-15588011D02*
X12239824Y-15549916D01*
X12239824Y-15549916D02*
X12239824Y-15502297D01*
X12239824Y-15502297D02*
X12249348Y-15464201D01*
X12249348Y-15464201D02*
X12258872Y-15445154D01*
X12258872Y-15445154D02*
X12268396Y-15435630D01*
X12268396Y-15435630D02*
X12287443Y-15426106D01*
X12439824Y-15626106D02*
X12439824Y-15492773D01*
X12439824Y-15511820D02*
X12449348Y-15502297D01*
X12449348Y-15502297D02*
X12468396Y-15492773D01*
X12468396Y-15492773D02*
X12496967Y-15492773D01*
X12496967Y-15492773D02*
X12516015Y-15502297D01*
X12516015Y-15502297D02*
X12525539Y-15521344D01*
X12525539Y-15521344D02*
X12525539Y-15626106D01*
X12525539Y-15521344D02*
X12535062Y-15502297D01*
X12535062Y-15502297D02*
X12554110Y-15492773D01*
X12554110Y-15492773D02*
X12582681Y-15492773D01*
X12582681Y-15492773D02*
X12601729Y-15502297D01*
X12601729Y-15502297D02*
X12611253Y-15521344D01*
X12611253Y-15521344D02*
X12611253Y-15626106D01*
X12706491Y-15626106D02*
X12706491Y-15492773D01*
X12706491Y-15511820D02*
X12716015Y-15502297D01*
X12716015Y-15502297D02*
X12735062Y-15492773D01*
X12735062Y-15492773D02*
X12763634Y-15492773D01*
X12763634Y-15492773D02*
X12782681Y-15502297D01*
X12782681Y-15502297D02*
X12792205Y-15521344D01*
X12792205Y-15521344D02*
X12792205Y-15626106D01*
X12792205Y-15521344D02*
X12801729Y-15502297D01*
X12801729Y-15502297D02*
X12820777Y-15492773D01*
X12820777Y-15492773D02*
X12849348Y-15492773D01*
X12849348Y-15492773D02*
X12868396Y-15502297D01*
X12868396Y-15502297D02*
X12877920Y-15521344D01*
X12877920Y-15521344D02*
X12877920Y-15626106D01*
X13268396Y-15416582D02*
X13096967Y-15673725D01*
X13525539Y-15426106D02*
X13544586Y-15426106D01*
X13544586Y-15426106D02*
X13563634Y-15435630D01*
X13563634Y-15435630D02*
X13573158Y-15445154D01*
X13573158Y-15445154D02*
X13582682Y-15464201D01*
X13582682Y-15464201D02*
X13592205Y-15502297D01*
X13592205Y-15502297D02*
X13592205Y-15549916D01*
X13592205Y-15549916D02*
X13582682Y-15588011D01*
X13582682Y-15588011D02*
X13573158Y-15607059D01*
X13573158Y-15607059D02*
X13563634Y-15616582D01*
X13563634Y-15616582D02*
X13544586Y-15626106D01*
X13544586Y-15626106D02*
X13525539Y-15626106D01*
X13525539Y-15626106D02*
X13506491Y-15616582D01*
X13506491Y-15616582D02*
X13496967Y-15607059D01*
X13496967Y-15607059D02*
X13487443Y-15588011D01*
X13487443Y-15588011D02*
X13477920Y-15549916D01*
X13477920Y-15549916D02*
X13477920Y-15502297D01*
X13477920Y-15502297D02*
X13487443Y-15464201D01*
X13487443Y-15464201D02*
X13496967Y-15445154D01*
X13496967Y-15445154D02*
X13506491Y-15435630D01*
X13506491Y-15435630D02*
X13525539Y-15426106D01*
X13677920Y-15607059D02*
X13687443Y-15616582D01*
X13687443Y-15616582D02*
X13677920Y-15626106D01*
X13677920Y-15626106D02*
X13668396Y-15616582D01*
X13668396Y-15616582D02*
X13677920Y-15607059D01*
X13677920Y-15607059D02*
X13677920Y-15626106D01*
X13811253Y-15426106D02*
X13830301Y-15426106D01*
X13830301Y-15426106D02*
X13849348Y-15435630D01*
X13849348Y-15435630D02*
X13858872Y-15445154D01*
X13858872Y-15445154D02*
X13868396Y-15464201D01*
X13868396Y-15464201D02*
X13877920Y-15502297D01*
X13877920Y-15502297D02*
X13877920Y-15549916D01*
X13877920Y-15549916D02*
X13868396Y-15588011D01*
X13868396Y-15588011D02*
X13858872Y-15607059D01*
X13858872Y-15607059D02*
X13849348Y-15616582D01*
X13849348Y-15616582D02*
X13830301Y-15626106D01*
X13830301Y-15626106D02*
X13811253Y-15626106D01*
X13811253Y-15626106D02*
X13792205Y-15616582D01*
X13792205Y-15616582D02*
X13782682Y-15607059D01*
X13782682Y-15607059D02*
X13773158Y-15588011D01*
X13773158Y-15588011D02*
X13763634Y-15549916D01*
X13763634Y-15549916D02*
X13763634Y-15502297D01*
X13763634Y-15502297D02*
X13773158Y-15464201D01*
X13773158Y-15464201D02*
X13782682Y-15445154D01*
X13782682Y-15445154D02*
X13792205Y-15435630D01*
X13792205Y-15435630D02*
X13811253Y-15426106D01*
X14049348Y-15492773D02*
X14049348Y-15626106D01*
X14001729Y-15416582D02*
X13954110Y-15559440D01*
X13954110Y-15559440D02*
X14077920Y-15559440D01*
X14135063Y-15426106D02*
X14258872Y-15426106D01*
X14258872Y-15426106D02*
X14192205Y-15502297D01*
X14192205Y-15502297D02*
X14220777Y-15502297D01*
X14220777Y-15502297D02*
X14239824Y-15511820D01*
X14239824Y-15511820D02*
X14249348Y-15521344D01*
X14249348Y-15521344D02*
X14258872Y-15540392D01*
X14258872Y-15540392D02*
X14258872Y-15588011D01*
X14258872Y-15588011D02*
X14249348Y-15607059D01*
X14249348Y-15607059D02*
X14239824Y-15616582D01*
X14239824Y-15616582D02*
X14220777Y-15626106D01*
X14220777Y-15626106D02*
X14163634Y-15626106D01*
X14163634Y-15626106D02*
X14144586Y-15616582D01*
X14144586Y-15616582D02*
X14135063Y-15607059D01*
X14325539Y-15426106D02*
X14449348Y-15426106D01*
X14449348Y-15426106D02*
X14382682Y-15502297D01*
X14382682Y-15502297D02*
X14411253Y-15502297D01*
X14411253Y-15502297D02*
X14430301Y-15511820D01*
X14430301Y-15511820D02*
X14439824Y-15521344D01*
X14439824Y-15521344D02*
X14449348Y-15540392D01*
X14449348Y-15540392D02*
X14449348Y-15588011D01*
X14449348Y-15588011D02*
X14439824Y-15607059D01*
X14439824Y-15607059D02*
X14430301Y-15616582D01*
X14430301Y-15616582D02*
X14411253Y-15626106D01*
X14411253Y-15626106D02*
X14354110Y-15626106D01*
X14354110Y-15626106D02*
X14335063Y-15616582D01*
X14335063Y-15616582D02*
X14325539Y-15607059D01*
X14525539Y-15426106D02*
X14525539Y-15464201D01*
X14601729Y-15426106D02*
X14601729Y-15464201D01*
X14896967Y-15702297D02*
X14887444Y-15692773D01*
X14887444Y-15692773D02*
X14868396Y-15664201D01*
X14868396Y-15664201D02*
X14858872Y-15645154D01*
X14858872Y-15645154D02*
X14849348Y-15616582D01*
X14849348Y-15616582D02*
X14839825Y-15568963D01*
X14839825Y-15568963D02*
X14839825Y-15530868D01*
X14839825Y-15530868D02*
X14849348Y-15483249D01*
X14849348Y-15483249D02*
X14858872Y-15454678D01*
X14858872Y-15454678D02*
X14868396Y-15435630D01*
X14868396Y-15435630D02*
X14887444Y-15407059D01*
X14887444Y-15407059D02*
X14896967Y-15397535D01*
X15001729Y-15511820D02*
X14982682Y-15502297D01*
X14982682Y-15502297D02*
X14973158Y-15492773D01*
X14973158Y-15492773D02*
X14963634Y-15473725D01*
X14963634Y-15473725D02*
X14963634Y-15464201D01*
X14963634Y-15464201D02*
X14973158Y-15445154D01*
X14973158Y-15445154D02*
X14982682Y-15435630D01*
X14982682Y-15435630D02*
X15001729Y-15426106D01*
X15001729Y-15426106D02*
X15039825Y-15426106D01*
X15039825Y-15426106D02*
X15058872Y-15435630D01*
X15058872Y-15435630D02*
X15068396Y-15445154D01*
X15068396Y-15445154D02*
X15077920Y-15464201D01*
X15077920Y-15464201D02*
X15077920Y-15473725D01*
X15077920Y-15473725D02*
X15068396Y-15492773D01*
X15068396Y-15492773D02*
X15058872Y-15502297D01*
X15058872Y-15502297D02*
X15039825Y-15511820D01*
X15039825Y-15511820D02*
X15001729Y-15511820D01*
X15001729Y-15511820D02*
X14982682Y-15521344D01*
X14982682Y-15521344D02*
X14973158Y-15530868D01*
X14973158Y-15530868D02*
X14963634Y-15549916D01*
X14963634Y-15549916D02*
X14963634Y-15588011D01*
X14963634Y-15588011D02*
X14973158Y-15607059D01*
X14973158Y-15607059D02*
X14982682Y-15616582D01*
X14982682Y-15616582D02*
X15001729Y-15626106D01*
X15001729Y-15626106D02*
X15039825Y-15626106D01*
X15039825Y-15626106D02*
X15058872Y-15616582D01*
X15058872Y-15616582D02*
X15068396Y-15607059D01*
X15068396Y-15607059D02*
X15077920Y-15588011D01*
X15077920Y-15588011D02*
X15077920Y-15549916D01*
X15077920Y-15549916D02*
X15068396Y-15530868D01*
X15068396Y-15530868D02*
X15058872Y-15521344D01*
X15058872Y-15521344D02*
X15039825Y-15511820D01*
X15316015Y-15626106D02*
X15316015Y-15426106D01*
X15401729Y-15626106D02*
X15401729Y-15521344D01*
X15401729Y-15521344D02*
X15392206Y-15502297D01*
X15392206Y-15502297D02*
X15373158Y-15492773D01*
X15373158Y-15492773D02*
X15344586Y-15492773D01*
X15344586Y-15492773D02*
X15325539Y-15502297D01*
X15325539Y-15502297D02*
X15316015Y-15511820D01*
X15525539Y-15626106D02*
X15506491Y-15616582D01*
X15506491Y-15616582D02*
X15496967Y-15607059D01*
X15496967Y-15607059D02*
X15487444Y-15588011D01*
X15487444Y-15588011D02*
X15487444Y-15530868D01*
X15487444Y-15530868D02*
X15496967Y-15511820D01*
X15496967Y-15511820D02*
X15506491Y-15502297D01*
X15506491Y-15502297D02*
X15525539Y-15492773D01*
X15525539Y-15492773D02*
X15554110Y-15492773D01*
X15554110Y-15492773D02*
X15573158Y-15502297D01*
X15573158Y-15502297D02*
X15582682Y-15511820D01*
X15582682Y-15511820D02*
X15592206Y-15530868D01*
X15592206Y-15530868D02*
X15592206Y-15588011D01*
X15592206Y-15588011D02*
X15582682Y-15607059D01*
X15582682Y-15607059D02*
X15573158Y-15616582D01*
X15573158Y-15616582D02*
X15554110Y-15626106D01*
X15554110Y-15626106D02*
X15525539Y-15626106D01*
X15706491Y-15626106D02*
X15687444Y-15616582D01*
X15687444Y-15616582D02*
X15677920Y-15597535D01*
X15677920Y-15597535D02*
X15677920Y-15426106D01*
X15858872Y-15616582D02*
X15839825Y-15626106D01*
X15839825Y-15626106D02*
X15801729Y-15626106D01*
X15801729Y-15626106D02*
X15782682Y-15616582D01*
X15782682Y-15616582D02*
X15773158Y-15597535D01*
X15773158Y-15597535D02*
X15773158Y-15521344D01*
X15773158Y-15521344D02*
X15782682Y-15502297D01*
X15782682Y-15502297D02*
X15801729Y-15492773D01*
X15801729Y-15492773D02*
X15839825Y-15492773D01*
X15839825Y-15492773D02*
X15858872Y-15502297D01*
X15858872Y-15502297D02*
X15868396Y-15521344D01*
X15868396Y-15521344D02*
X15868396Y-15540392D01*
X15868396Y-15540392D02*
X15773158Y-15559440D01*
X15944587Y-15616582D02*
X15963634Y-15626106D01*
X15963634Y-15626106D02*
X16001729Y-15626106D01*
X16001729Y-15626106D02*
X16020777Y-15616582D01*
X16020777Y-15616582D02*
X16030301Y-15597535D01*
X16030301Y-15597535D02*
X16030301Y-15588011D01*
X16030301Y-15588011D02*
X16020777Y-15568963D01*
X16020777Y-15568963D02*
X16001729Y-15559440D01*
X16001729Y-15559440D02*
X15973158Y-15559440D01*
X15973158Y-15559440D02*
X15954110Y-15549916D01*
X15954110Y-15549916D02*
X15944587Y-15530868D01*
X15944587Y-15530868D02*
X15944587Y-15521344D01*
X15944587Y-15521344D02*
X15954110Y-15502297D01*
X15954110Y-15502297D02*
X15973158Y-15492773D01*
X15973158Y-15492773D02*
X16001729Y-15492773D01*
X16001729Y-15492773D02*
X16020777Y-15502297D01*
X16096968Y-15702297D02*
X16106491Y-15692773D01*
X16106491Y-15692773D02*
X16125539Y-15664201D01*
X16125539Y-15664201D02*
X16135063Y-15645154D01*
X16135063Y-15645154D02*
X16144587Y-15616582D01*
X16144587Y-15616582D02*
X16154110Y-15568963D01*
X16154110Y-15568963D02*
X16154110Y-15530868D01*
X16154110Y-15530868D02*
X16144587Y-15483249D01*
X16144587Y-15483249D02*
X16135063Y-15454678D01*
X16135063Y-15454678D02*
X16125539Y-15435630D01*
X16125539Y-15435630D02*
X16106491Y-15407059D01*
X16106491Y-15407059D02*
X16096968Y-15397535D01*
M02*
