%TF.GenerationSoftware,KiCad,Pcbnew,9.0.5-1.fc42*%
%TF.CreationDate,2025-11-09T17:28:59+08:00*%
%TF.ProjectId,JACC64-16K,4a414343-3634-42d3-9136-4b2e6b696361,rev?*%
%TF.SameCoordinates,Original*%
%TF.FileFunction,Copper,L1,Top*%
%TF.FilePolarity,Positive*%
%FSLAX46Y46*%
G04 Gerber Fmt 4.6, Leading zero omitted, Abs format (unit mm)*
G04 Created by KiCad (PCBNEW 9.0.5-1.fc42) date 2025-11-09 17:28:59*
%MOMM*%
%LPD*%
G01*
G04 APERTURE LIST*
G04 Aperture macros list*
%AMRoundRect*
0 Rectangle with rounded corners*
0 $1 Rounding radius*
0 $2 $3 $4 $5 $6 $7 $8 $9 X,Y pos of 4 corners*
0 Add a 4 corners polygon primitive as box body*
4,1,4,$2,$3,$4,$5,$6,$7,$8,$9,$2,$3,0*
0 Add four circle primitives for the rounded corners*
1,1,$1+$1,$2,$3*
1,1,$1+$1,$4,$5*
1,1,$1+$1,$6,$7*
1,1,$1+$1,$8,$9*
0 Add four rect primitives between the rounded corners*
20,1,$1+$1,$2,$3,$4,$5,0*
20,1,$1+$1,$4,$5,$6,$7,0*
20,1,$1+$1,$6,$7,$8,$9,0*
20,1,$1+$1,$8,$9,$2,$3,0*%
G04 Aperture macros list end*
%TA.AperFunction,ComponentPad*%
%ADD10RoundRect,0.249999X0.850001X0.850001X-0.850001X0.850001X-0.850001X-0.850001X0.850001X-0.850001X0*%
%TD*%
%TA.AperFunction,ComponentPad*%
%ADD11C,2.200000*%
%TD*%
%TA.AperFunction,ComponentPad*%
%ADD12C,2.000000*%
%TD*%
%TA.AperFunction,ComponentPad*%
%ADD13C,1.600000*%
%TD*%
%TA.AperFunction,ComponentPad*%
%ADD14R,1.800000X1.800000*%
%TD*%
%TA.AperFunction,ComponentPad*%
%ADD15C,1.800000*%
%TD*%
%TA.AperFunction,ConnectorPad*%
%ADD16R,1.524000X11.430000*%
%TD*%
%TA.AperFunction,ComponentPad*%
%ADD17RoundRect,0.250000X0.550000X-0.550000X0.550000X0.550000X-0.550000X0.550000X-0.550000X-0.550000X0*%
%TD*%
%TA.AperFunction,ViaPad*%
%ADD18C,0.600000*%
%TD*%
%TA.AperFunction,Conductor*%
%ADD19C,0.200000*%
%TD*%
G04 APERTURE END LIST*
D10*
%TO.P,D1,1,K*%
%TO.N,Net-(CN1-~{ROML})*%
X124460000Y-109220000D03*
D11*
%TO.P,D1,2,A*%
%TO.N,Net-(D1-A)*%
X116840000Y-109220000D03*
%TD*%
D12*
%TO.P,SW1,1,1*%
%TO.N,GND*%
X165810000Y-65750000D03*
X159310000Y-65750000D03*
%TO.P,SW1,2,2*%
%TO.N,Net-(CN1-~{RESET})*%
X165810000Y-61250000D03*
X159310000Y-61250000D03*
%TD*%
D13*
%TO.P,R2,1*%
%TO.N,Net-(D3-A)*%
X124460000Y-63500000D03*
%TO.P,R2,2*%
%TO.N,VCC*%
X134620000Y-63500000D03*
%TD*%
%TO.P,C1,1*%
%TO.N,GND*%
X127075800Y-82411100D03*
%TO.P,C1,2*%
%TO.N,VCC*%
X127075800Y-84911100D03*
%TD*%
%TO.P,R1,1*%
%TO.N,Net-(D1-A)*%
X115570000Y-101600000D03*
%TO.P,R1,2*%
%TO.N,VCC*%
X125730000Y-101600000D03*
%TD*%
D14*
%TO.P,D3,1,K*%
%TO.N,GND*%
X151075944Y-63500000D03*
D15*
%TO.P,D3,2,A*%
%TO.N,Net-(D3-A)*%
X148535944Y-63500000D03*
%TD*%
D10*
%TO.P,D2,1,K*%
%TO.N,Net-(CN1-~{ROMH})*%
X124460000Y-116840000D03*
D11*
%TO.P,D2,2,A*%
%TO.N,Net-(D1-A)*%
X116840000Y-116840000D03*
%TD*%
D16*
%TO.P,CN1,1,GND*%
%TO.N,GND*%
X115570000Y-135255000D03*
%TO.P,CN1,2,+5V*%
%TO.N,VCC*%
X118110000Y-135255000D03*
%TO.P,CN1,3,+5V*%
X120650000Y-135255000D03*
%TO.P,CN1,4,~{IRQ}*%
%TO.N,unconnected-(CN1-~{IRQ}-Pad4)*%
X123190000Y-135255000D03*
%TO.P,CN1,5,RW*%
%TO.N,unconnected-(CN1-RW-Pad5)*%
X125730000Y-135255000D03*
%TO.P,CN1,6,DOT_CLK*%
%TO.N,unconnected-(CN1-DOT_CLK-Pad6)*%
X128270000Y-135255000D03*
%TO.P,CN1,7,IO_1*%
%TO.N,unconnected-(CN1-IO_1-Pad7)*%
X130810000Y-135255000D03*
%TO.P,CN1,8,~{GAME}*%
%TO.N,GND*%
X133350000Y-135255000D03*
%TO.P,CN1,9,~{EXROM}*%
X135890000Y-135255000D03*
%TO.P,CN1,10,IO_2*%
%TO.N,unconnected-(CN1-IO_2-Pad10)*%
X138430000Y-135255000D03*
%TO.P,CN1,11,~{ROML}*%
%TO.N,Net-(CN1-~{ROML})*%
X140970000Y-135255000D03*
%TO.P,CN1,12,BA*%
%TO.N,unconnected-(CN1-BA-Pad12)*%
X143510000Y-135255000D03*
%TO.P,CN1,13,~{DMA}*%
%TO.N,unconnected-(CN1-~{DMA}-Pad13)*%
X146050000Y-135255000D03*
%TO.P,CN1,14,D7*%
%TO.N,/D7*%
X148590000Y-135255000D03*
%TO.P,CN1,15,D6*%
%TO.N,/D6*%
X151130000Y-135255000D03*
%TO.P,CN1,16,D5*%
%TO.N,/D5*%
X153670000Y-135255000D03*
%TO.P,CN1,17,D4*%
%TO.N,/D4*%
X156210000Y-135255000D03*
%TO.P,CN1,18,D3*%
%TO.N,/D3*%
X158750000Y-135255000D03*
%TO.P,CN1,19,D2*%
%TO.N,/D2*%
X161290000Y-135255000D03*
%TO.P,CN1,20,D1*%
%TO.N,/D1*%
X163830000Y-135255000D03*
%TO.P,CN1,21,D0*%
%TO.N,/D0*%
X166370000Y-135255000D03*
%TO.P,CN1,22,GND*%
%TO.N,GND*%
X168910000Y-135255000D03*
%TD*%
D17*
%TO.P,U1,1,VPP*%
%TO.N,VCC*%
X132080000Y-91440000D03*
D13*
%TO.P,U1,2,A12*%
%TO.N,/A12*%
X134620000Y-91440000D03*
%TO.P,U1,3,A7*%
%TO.N,/A7*%
X137160000Y-91440000D03*
%TO.P,U1,4,A6*%
%TO.N,/A6*%
X139700000Y-91440000D03*
%TO.P,U1,5,A5*%
%TO.N,/A5*%
X142240000Y-91440000D03*
%TO.P,U1,6,A4*%
%TO.N,/A4*%
X144780000Y-91440000D03*
%TO.P,U1,7,A3*%
%TO.N,/A3*%
X147320000Y-91440000D03*
%TO.P,U1,8,A2*%
%TO.N,/A2*%
X149860000Y-91440000D03*
%TO.P,U1,9,A1*%
%TO.N,/A1*%
X152400000Y-91440000D03*
%TO.P,U1,10,A0*%
%TO.N,/A0*%
X154940000Y-91440000D03*
%TO.P,U1,11,D0*%
%TO.N,/D0*%
X157480000Y-91440000D03*
%TO.P,U1,12,D1*%
%TO.N,/D1*%
X160020000Y-91440000D03*
%TO.P,U1,13,D2*%
%TO.N,/D2*%
X162560000Y-91440000D03*
%TO.P,U1,14,GND*%
%TO.N,GND*%
X165100000Y-91440000D03*
%TO.P,U1,15,D3*%
%TO.N,/D3*%
X165100000Y-76200000D03*
%TO.P,U1,16,D4*%
%TO.N,/D4*%
X162560000Y-76200000D03*
%TO.P,U1,17,D5*%
%TO.N,/D5*%
X160020000Y-76200000D03*
%TO.P,U1,18,D6*%
%TO.N,/D6*%
X157480000Y-76200000D03*
%TO.P,U1,19,D7*%
%TO.N,/D7*%
X154940000Y-76200000D03*
%TO.P,U1,20,~{CE}*%
%TO.N,Net-(D1-A)*%
X152400000Y-76200000D03*
%TO.P,U1,21,A10*%
%TO.N,/A10*%
X149860000Y-76200000D03*
%TO.P,U1,22,~{OE}*%
%TO.N,Net-(D1-A)*%
X147320000Y-76200000D03*
%TO.P,U1,23,A11*%
%TO.N,/A11*%
X144780000Y-76200000D03*
%TO.P,U1,24,A9*%
%TO.N,/A9*%
X142240000Y-76200000D03*
%TO.P,U1,25,A8*%
%TO.N,/A8*%
X139700000Y-76200000D03*
%TO.P,U1,26,A13*%
%TO.N,Net-(CN1-~{ROML})*%
X137160000Y-76200000D03*
%TO.P,U1,27,~{PGM}*%
%TO.N,VCC*%
X134620000Y-76200000D03*
%TO.P,U1,28,VCC*%
X132080000Y-76200000D03*
%TD*%
D18*
%TO.N,GND*%
X127000000Y-73660000D03*
X127000000Y-91440000D03*
X134620000Y-121920000D03*
X148560906Y-127894276D03*
X134620000Y-99060000D03*
X121920000Y-58420000D03*
X121920000Y-78740000D03*
X162560000Y-111760000D03*
X116840000Y-73660000D03*
X150382374Y-125858763D03*
X119380000Y-63500000D03*
X129540000Y-116840000D03*
X151667175Y-127197599D03*
X157480000Y-83820000D03*
X149860000Y-83820000D03*
X129540000Y-99060000D03*
X116840000Y-91440000D03*
X142240000Y-106680000D03*
X157480000Y-111760000D03*
X146000448Y-128282597D03*
X139700000Y-71120000D03*
X116840000Y-96520000D03*
X165031100Y-128129694D03*
X137924520Y-115879450D03*
X144780000Y-73660000D03*
X159243719Y-98891187D03*
X148014506Y-115443282D03*
X129540000Y-124460000D03*
X153704451Y-125365662D03*
X139559592Y-93390418D03*
X167640000Y-73660000D03*
X127000000Y-58420000D03*
X170180000Y-76200000D03*
X162560000Y-121920000D03*
X146083605Y-124139256D03*
X134620000Y-106680000D03*
X170180000Y-83820000D03*
X134620000Y-83820000D03*
X162072770Y-117410756D03*
X132080000Y-127000000D03*
X116840000Y-58420000D03*
X139700000Y-66040000D03*
X116840000Y-83820000D03*
X141833511Y-127487787D03*
X167640000Y-58420000D03*
X145679015Y-93997303D03*
X139700000Y-114300000D03*
X157480000Y-58420000D03*
X129540000Y-106680000D03*
X132080000Y-71120000D03*
X157480000Y-68580000D03*
X167640000Y-68580000D03*
X147320000Y-71120000D03*
X134620000Y-58420000D03*
X140827177Y-95417558D03*
X162560000Y-71120000D03*
X121920000Y-91440000D03*
X134620000Y-116840000D03*
%TO.N,Net-(CN1-~{RESET})*%
X151565200Y-119162500D03*
%TO.N,/A1*%
X152347500Y-121958700D03*
%TO.N,/D3*%
X159275700Y-104744000D03*
X164066200Y-104744000D03*
%TO.N,/D2*%
X159810700Y-92907700D03*
%TO.N,/A0*%
X154997400Y-119288000D03*
%TO.N,/A12*%
X136446700Y-128275600D03*
%TO.N,/A2*%
X154995800Y-122974000D03*
X154186600Y-93225800D03*
%TO.N,/A10*%
X143975600Y-128390200D03*
%TO.N,/D4*%
X158031100Y-126457700D03*
X167450500Y-116379200D03*
%TO.N,/A8*%
X147215335Y-128982165D03*
%TO.N,/A11*%
X145690800Y-126755100D03*
%TO.N,/A6*%
X138558400Y-127968300D03*
X137291900Y-93210900D03*
%TO.N,/A5*%
X151933500Y-124812500D03*
X153077500Y-96017600D03*
X144780000Y-96017600D03*
%TO.N,/A9*%
X144872500Y-127276500D03*
%TO.N,Net-(CN1-~{ROML})*%
X138643800Y-110561600D03*
%TO.N,/A7*%
X147035900Y-127954200D03*
X149889300Y-93002600D03*
%TO.N,/D0*%
X162003800Y-96017600D03*
%TO.N,/A3*%
X148360000Y-124044800D03*
%TO.N,/A4*%
X156536900Y-93181300D03*
X154940000Y-127000000D03*
%TO.N,Net-(D1-A)*%
X146608000Y-89690000D03*
%TD*%
D19*
%TO.N,GND*%
X136371200Y-129000000D02*
X136132900Y-129238300D01*
X169618100Y-126925000D02*
X168910000Y-127633100D01*
X133420800Y-129007200D02*
X133350000Y-129078000D01*
X114855000Y-127037200D02*
X115570000Y-127752200D01*
X115570000Y-127752200D02*
X115570000Y-135255000D01*
X135890000Y-135255000D02*
X135890000Y-129238300D01*
X133350000Y-129078000D02*
X133350000Y-135255000D01*
X168910000Y-127633100D02*
X168910000Y-135255000D01*
X136132900Y-129238300D02*
X135890000Y-129238300D01*
%TO.N,VCC*%
X120650000Y-127000000D02*
X118110000Y-129540000D01*
X127075800Y-86435800D02*
X132080000Y-91440000D01*
X125730000Y-101600000D02*
X125730000Y-102701700D01*
X120650000Y-129339200D02*
X120650000Y-129238300D01*
X134620000Y-63500000D02*
X134620000Y-76200000D01*
X132080000Y-76200000D02*
X132080000Y-91440000D01*
X120650000Y-129238300D02*
X120650000Y-107781700D01*
X120650000Y-135255000D02*
X120650000Y-129339200D01*
X118110000Y-129540000D02*
X118110000Y-135255000D01*
X127075800Y-84911100D02*
X127075800Y-86435800D01*
X125730000Y-101600000D02*
X125730000Y-97790000D01*
X120650000Y-107781700D02*
X125730000Y-102701700D01*
X125730000Y-97790000D02*
X132080000Y-91440000D01*
%TO.N,Net-(CN1-~{RESET})*%
X151287200Y-69272800D02*
X151287200Y-118884500D01*
X159310000Y-61250000D02*
X151287200Y-69272800D01*
X151287200Y-118884500D02*
X151565200Y-119162500D01*
%TO.N,/A1*%
X152400000Y-91440000D02*
X152400000Y-92541700D01*
X152400000Y-92541700D02*
X152400000Y-121906200D01*
X152400000Y-121906200D02*
X152347500Y-121958700D01*
%TO.N,/D3*%
X165100000Y-76200000D02*
X165100000Y-77301700D01*
X161402000Y-80999700D02*
X161402000Y-102079800D01*
X159275700Y-104744000D02*
X159275700Y-128712600D01*
X158750000Y-135255000D02*
X158750000Y-129238300D01*
X165100000Y-77301700D02*
X161402000Y-80999700D01*
X159275700Y-128712600D02*
X158750000Y-129238300D01*
X161402000Y-102079800D02*
X164066200Y-104744000D01*
%TO.N,/D2*%
X159877400Y-127825700D02*
X159877400Y-92974400D01*
X161290000Y-129238300D02*
X159877400Y-127825700D01*
X159877400Y-92974400D02*
X159810700Y-92907700D01*
X161290000Y-135255000D02*
X161290000Y-129238300D01*
%TO.N,/A0*%
X154940000Y-119230600D02*
X154940000Y-91440000D01*
X154997400Y-119288000D02*
X154940000Y-119230600D01*
%TO.N,/A12*%
X136446700Y-128275600D02*
X136446700Y-94368400D01*
X136446700Y-94368400D02*
X134620000Y-92541700D01*
X134620000Y-91440000D02*
X134620000Y-92541700D01*
%TO.N,/A2*%
X154186600Y-122164800D02*
X154186600Y-93225800D01*
X154995800Y-122974000D02*
X154186600Y-122164800D01*
%TO.N,/A10*%
X144906500Y-128390200D02*
X148961700Y-124335000D01*
X148961700Y-124335000D02*
X148961700Y-123795700D01*
X143975600Y-128390200D02*
X144906500Y-128390200D01*
X148758300Y-78403400D02*
X149860000Y-77301700D01*
X148758300Y-123592300D02*
X148758300Y-78403400D01*
X148961700Y-123795700D02*
X148758300Y-123592300D01*
X149860000Y-76200000D02*
X149860000Y-77301700D01*
%TO.N,/D4*%
X167450500Y-116379200D02*
X167450500Y-76241425D01*
X167450500Y-76241425D02*
X164869075Y-73660000D01*
X164869075Y-73660000D02*
X164541300Y-73660000D01*
X158031100Y-127417200D02*
X158031100Y-126457700D01*
X156210000Y-129238300D02*
X158031100Y-127417200D01*
X164541300Y-73660000D02*
X162560000Y-75641300D01*
X162560000Y-75641300D02*
X162560000Y-76200000D01*
X156210000Y-135255000D02*
X156210000Y-129238300D01*
%TO.N,/D1*%
X160412400Y-91832400D02*
X160020000Y-91440000D01*
X163830000Y-117298400D02*
X160412400Y-113880800D01*
X163830000Y-135255000D02*
X163830000Y-117298400D01*
X160412400Y-113880800D02*
X160412400Y-91832400D01*
%TO.N,/A8*%
X147207300Y-128990200D02*
X143727071Y-128990200D01*
X147215335Y-128982165D02*
X147207300Y-128990200D01*
X138689513Y-95788287D02*
X140822900Y-93654900D01*
X140822900Y-93654900D02*
X140822900Y-77322900D01*
X140822900Y-77322900D02*
X139700000Y-76200000D01*
X143727071Y-128990200D02*
X143375600Y-128638729D01*
X143375600Y-113441577D02*
X138689513Y-108755490D01*
X138689513Y-108755490D02*
X138689513Y-95788287D01*
X143375600Y-128638729D02*
X143375600Y-113441577D01*
%TO.N,/D6*%
X151130000Y-135255000D02*
X151130000Y-129238300D01*
X151130000Y-129238300D02*
X155935200Y-124433100D01*
X156095800Y-78685900D02*
X157480000Y-77301700D01*
X155935200Y-92931900D02*
X156095800Y-92771300D01*
X156095800Y-92771300D02*
X156095800Y-78685900D01*
X157480000Y-76200000D02*
X157480000Y-77301700D01*
X155935200Y-124433100D02*
X155935200Y-92931900D01*
%TO.N,/A11*%
X146920000Y-92595635D02*
X146008000Y-91683635D01*
X147320000Y-125125900D02*
X147320000Y-123570486D01*
X147320000Y-123570486D02*
X146920000Y-123170486D01*
X146008000Y-91683635D02*
X146008000Y-77428000D01*
X146920000Y-123170486D02*
X146920000Y-92595635D01*
X145690800Y-126755100D02*
X147320000Y-125125900D01*
X146008000Y-77428000D02*
X144780000Y-76200000D01*
%TO.N,/A6*%
X138558400Y-127968300D02*
X137291900Y-126701800D01*
X137291900Y-126701800D02*
X137291900Y-93210900D01*
%TO.N,/A5*%
X143517500Y-96017600D02*
X142240000Y-94740100D01*
X151933500Y-124812500D02*
X153077500Y-123668500D01*
X142240000Y-94740100D02*
X142240000Y-91440000D01*
X144780000Y-96017600D02*
X143517500Y-96017600D01*
X153077500Y-123668500D02*
X153077500Y-96017600D01*
%TO.N,/A9*%
X143510000Y-78571700D02*
X143510000Y-93165386D01*
X146068152Y-120631848D02*
X144872500Y-121827500D01*
X144872500Y-121827500D02*
X144872500Y-127276500D01*
X143510000Y-93165386D02*
X146068152Y-95723538D01*
X146068152Y-95723538D02*
X146068152Y-120631848D01*
X142240000Y-76200000D02*
X142240000Y-77301700D01*
X142240000Y-77301700D02*
X143510000Y-78571700D01*
%TO.N,/D7*%
X153679200Y-95768500D02*
X153584900Y-95674200D01*
X154940000Y-76200000D02*
X154940000Y-77301700D01*
X148590000Y-135255000D02*
X148590000Y-129238300D01*
X148590000Y-129238300D02*
X153679200Y-124149100D01*
X153679200Y-124149100D02*
X153679200Y-95768500D01*
X153584900Y-78656800D02*
X154940000Y-77301700D01*
X153584900Y-95674200D02*
X153584900Y-78656800D01*
%TO.N,/D5*%
X157429400Y-124460000D02*
X157429400Y-125560850D01*
X160020000Y-77301700D02*
X158615500Y-78706200D01*
X153670000Y-129320250D02*
X153670000Y-135255000D01*
X160020000Y-76200000D02*
X160020000Y-77301700D01*
X158615500Y-78706200D02*
X158615500Y-123273900D01*
X158615500Y-123273900D02*
X157429400Y-124460000D01*
X157429400Y-125560850D02*
X153670000Y-129320250D01*
%TO.N,Net-(CN1-~{ROML})*%
X138289513Y-110207313D02*
X138643800Y-110561600D01*
X138643800Y-110561600D02*
X138643800Y-126912100D01*
X138289513Y-78431213D02*
X138289513Y-110207313D01*
X137160000Y-77301700D02*
X138289513Y-78431213D01*
X140970000Y-135255000D02*
X140970000Y-129238300D01*
X137160000Y-76200000D02*
X137160000Y-77301700D01*
X138643800Y-126912100D02*
X140970000Y-129238300D01*
%TO.N,/A7*%
X149889300Y-125100800D02*
X147035900Y-127954200D01*
X149889300Y-93002600D02*
X149889300Y-125100800D01*
%TO.N,/D0*%
X166370000Y-100383800D02*
X166370000Y-135255000D01*
X162003800Y-96017600D02*
X166370000Y-100383800D01*
%TO.N,/A3*%
X147320000Y-123004800D02*
X147320000Y-91440000D01*
X148360000Y-124044800D02*
X147320000Y-123004800D01*
%TO.N,/A4*%
X154940000Y-127000000D02*
X156536800Y-125403200D01*
X156536800Y-93181300D02*
X156536900Y-93181300D01*
X156536800Y-125403200D02*
X156536800Y-93181300D01*
%TO.N,Net-(D1-A)*%
X115570000Y-101600000D02*
X116840000Y-102870000D01*
X146608000Y-78013700D02*
X146608000Y-89690000D01*
X116840000Y-116840000D02*
X116840000Y-109220000D01*
X116840000Y-102870000D02*
X116840000Y-109220000D01*
X147320000Y-77301700D02*
X146608000Y-78013700D01*
X147320000Y-76200000D02*
X147320000Y-77301700D01*
%TD*%
%TA.AperFunction,Conductor*%
%TO.N,GND*%
G36*
X170247731Y-54441172D02*
G01*
X170338073Y-54451353D01*
X170365143Y-54457532D01*
X170444347Y-54485248D01*
X170469363Y-54497296D01*
X170540408Y-54541937D01*
X170562118Y-54559249D01*
X170621454Y-54618586D01*
X170638764Y-54640293D01*
X170683409Y-54711346D01*
X170695451Y-54736350D01*
X170723170Y-54815565D01*
X170729347Y-54842631D01*
X170739539Y-54933082D01*
X170740319Y-54946979D01*
X170732370Y-128956259D01*
X170712678Y-129023297D01*
X170659869Y-129069046D01*
X170608874Y-129080245D01*
X166795004Y-129095755D01*
X166727885Y-129076343D01*
X166681916Y-129023726D01*
X166670500Y-128971756D01*
X166670500Y-100344239D01*
X166650020Y-100267809D01*
X166650017Y-100267804D01*
X166610464Y-100199295D01*
X166610458Y-100199287D01*
X162540619Y-96129448D01*
X162507134Y-96068125D01*
X162504300Y-96041767D01*
X162504300Y-95951710D01*
X162504300Y-95951708D01*
X162470192Y-95824414D01*
X162404300Y-95710286D01*
X162311114Y-95617100D01*
X162210699Y-95559125D01*
X162196987Y-95551208D01*
X162133339Y-95534154D01*
X162069692Y-95517100D01*
X161937908Y-95517100D01*
X161858593Y-95538352D01*
X161788743Y-95536689D01*
X161730880Y-95497526D01*
X161703377Y-95433297D01*
X161702500Y-95418577D01*
X161702500Y-92296784D01*
X161722185Y-92229745D01*
X161774989Y-92183990D01*
X161844147Y-92174046D01*
X161907703Y-92203071D01*
X161914181Y-92209103D01*
X161922214Y-92217136D01*
X161922218Y-92217139D01*
X162086079Y-92326628D01*
X162086092Y-92326635D01*
X162245814Y-92392793D01*
X162268165Y-92402051D01*
X162268169Y-92402051D01*
X162268170Y-92402052D01*
X162461456Y-92440500D01*
X162461459Y-92440500D01*
X162658543Y-92440500D01*
X162808887Y-92410594D01*
X162851835Y-92402051D01*
X162908468Y-92378593D01*
X162959021Y-92357654D01*
X163033907Y-92326635D01*
X163033907Y-92326634D01*
X163033914Y-92326632D01*
X163197782Y-92217139D01*
X163337139Y-92077782D01*
X163446632Y-91913914D01*
X163447642Y-91911477D01*
X163470673Y-91855873D01*
X163522051Y-91731835D01*
X163558034Y-91550937D01*
X163590419Y-91489027D01*
X163651134Y-91454453D01*
X163720904Y-91458192D01*
X163777576Y-91499059D01*
X163802124Y-91555731D01*
X163832009Y-91744417D01*
X163895244Y-91939031D01*
X163988141Y-92121350D01*
X163988147Y-92121359D01*
X164020523Y-92165921D01*
X164020524Y-92165922D01*
X164700000Y-91486446D01*
X164700000Y-91492661D01*
X164727259Y-91594394D01*
X164779920Y-91685606D01*
X164854394Y-91760080D01*
X164945606Y-91812741D01*
X165047339Y-91840000D01*
X165053553Y-91840000D01*
X164374076Y-92519474D01*
X164418650Y-92551859D01*
X164600968Y-92644755D01*
X164795582Y-92707990D01*
X164997683Y-92740000D01*
X165202317Y-92740000D01*
X165404417Y-92707990D01*
X165599031Y-92644755D01*
X165781349Y-92551859D01*
X165825921Y-92519474D01*
X165146447Y-91840000D01*
X165152661Y-91840000D01*
X165254394Y-91812741D01*
X165345606Y-91760080D01*
X165420080Y-91685606D01*
X165472741Y-91594394D01*
X165500000Y-91492661D01*
X165500000Y-91486448D01*
X166179474Y-92165922D01*
X166179474Y-92165921D01*
X166211859Y-92121349D01*
X166304755Y-91939031D01*
X166367990Y-91744417D01*
X166400000Y-91542317D01*
X166400000Y-91337682D01*
X166367990Y-91135582D01*
X166304755Y-90940968D01*
X166211859Y-90758650D01*
X166179474Y-90714077D01*
X166179474Y-90714076D01*
X165500000Y-91393551D01*
X165500000Y-91387339D01*
X165472741Y-91285606D01*
X165420080Y-91194394D01*
X165345606Y-91119920D01*
X165254394Y-91067259D01*
X165152661Y-91040000D01*
X165146446Y-91040000D01*
X165825922Y-90360524D01*
X165825921Y-90360523D01*
X165781359Y-90328147D01*
X165781350Y-90328141D01*
X165599031Y-90235244D01*
X165404417Y-90172009D01*
X165202317Y-90140000D01*
X164997683Y-90140000D01*
X164795582Y-90172009D01*
X164600968Y-90235244D01*
X164418644Y-90328143D01*
X164374077Y-90360523D01*
X164374077Y-90360524D01*
X165053554Y-91040000D01*
X165047339Y-91040000D01*
X164945606Y-91067259D01*
X164854394Y-91119920D01*
X164779920Y-91194394D01*
X164727259Y-91285606D01*
X164700000Y-91387339D01*
X164700000Y-91393553D01*
X164020524Y-90714077D01*
X164020523Y-90714077D01*
X163988143Y-90758644D01*
X163895244Y-90940968D01*
X163832010Y-91135581D01*
X163802124Y-91324269D01*
X163772194Y-91387403D01*
X163712883Y-91424334D01*
X163643020Y-91423336D01*
X163584788Y-91384726D01*
X163558034Y-91329061D01*
X163548409Y-91280674D01*
X163522051Y-91148165D01*
X163510352Y-91119920D01*
X163446635Y-90966092D01*
X163446628Y-90966079D01*
X163337139Y-90802218D01*
X163337136Y-90802214D01*
X163197785Y-90662863D01*
X163197781Y-90662860D01*
X163033920Y-90553371D01*
X163033907Y-90553364D01*
X162959016Y-90522344D01*
X162851839Y-90477950D01*
X162851829Y-90477947D01*
X162658543Y-90439500D01*
X162658541Y-90439500D01*
X162461459Y-90439500D01*
X162461457Y-90439500D01*
X162268170Y-90477947D01*
X162268160Y-90477950D01*
X162086092Y-90553364D01*
X162086079Y-90553371D01*
X161922218Y-90662860D01*
X161922214Y-90662863D01*
X161914181Y-90670897D01*
X161852858Y-90704382D01*
X161783166Y-90699398D01*
X161727233Y-90657526D01*
X161702816Y-90592062D01*
X161702500Y-90583216D01*
X161702500Y-81175533D01*
X161722185Y-81108494D01*
X161738819Y-81087852D01*
X162067431Y-80759240D01*
X165340460Y-77486211D01*
X165380022Y-77417688D01*
X165400500Y-77341262D01*
X165400500Y-77262138D01*
X165400500Y-77241315D01*
X165420185Y-77174276D01*
X165472989Y-77128521D01*
X165477002Y-77126773D01*
X165573914Y-77086632D01*
X165737782Y-76977139D01*
X165877139Y-76837782D01*
X165986632Y-76673914D01*
X165988139Y-76670277D01*
X166020222Y-76592820D01*
X166062051Y-76491835D01*
X166076885Y-76417258D01*
X166100500Y-76298543D01*
X166100500Y-76101456D01*
X166062052Y-75908170D01*
X166062051Y-75908169D01*
X166062051Y-75908165D01*
X166062049Y-75908160D01*
X165986635Y-75726092D01*
X165986628Y-75726079D01*
X165877139Y-75562218D01*
X165877136Y-75562214D01*
X165737785Y-75422863D01*
X165737781Y-75422860D01*
X165573920Y-75313371D01*
X165573907Y-75313364D01*
X165391839Y-75237950D01*
X165391829Y-75237947D01*
X165198543Y-75199500D01*
X165198541Y-75199500D01*
X165001459Y-75199500D01*
X165001457Y-75199500D01*
X164808170Y-75237947D01*
X164808160Y-75237950D01*
X164626092Y-75313364D01*
X164626079Y-75313371D01*
X164462218Y-75422860D01*
X164462214Y-75422863D01*
X164322863Y-75562214D01*
X164322860Y-75562218D01*
X164213371Y-75726079D01*
X164213364Y-75726092D01*
X164137950Y-75908160D01*
X164137947Y-75908170D01*
X164099500Y-76101456D01*
X164099500Y-76101459D01*
X164099500Y-76298541D01*
X164099500Y-76298543D01*
X164099499Y-76298543D01*
X164137947Y-76491829D01*
X164137950Y-76491839D01*
X164213364Y-76673907D01*
X164213371Y-76673920D01*
X164322860Y-76837781D01*
X164322863Y-76837785D01*
X164462217Y-76977139D01*
X164534562Y-77025478D01*
X164626086Y-77086632D01*
X164641315Y-77092940D01*
X164695718Y-77136776D01*
X164717786Y-77203070D01*
X164700510Y-77270770D01*
X164681546Y-77295182D01*
X161217489Y-80759240D01*
X161161541Y-80815187D01*
X161161535Y-80815195D01*
X161121982Y-80883704D01*
X161121979Y-80883709D01*
X161101500Y-80960139D01*
X161101500Y-90848952D01*
X161081815Y-90915991D01*
X161029011Y-90961746D01*
X160959853Y-90971690D01*
X160896297Y-90942665D01*
X160874398Y-90917843D01*
X160797139Y-90802218D01*
X160797136Y-90802214D01*
X160657785Y-90662863D01*
X160657781Y-90662860D01*
X160493920Y-90553371D01*
X160493907Y-90553364D01*
X160311839Y-90477950D01*
X160311829Y-90477947D01*
X160118543Y-90439500D01*
X160118541Y-90439500D01*
X159921459Y-90439500D01*
X159921457Y-90439500D01*
X159728170Y-90477947D01*
X159728160Y-90477950D01*
X159546092Y-90553364D01*
X159546079Y-90553371D01*
X159382218Y-90662860D01*
X159382214Y-90662863D01*
X159242863Y-90802214D01*
X159242860Y-90802218D01*
X159143102Y-90951517D01*
X159089490Y-90996322D01*
X159020165Y-91005029D01*
X158957137Y-90974875D01*
X158920418Y-90915432D01*
X158916000Y-90882626D01*
X158916000Y-78882033D01*
X158935685Y-78814994D01*
X158952319Y-78794352D01*
X159583731Y-78162940D01*
X160260460Y-77486211D01*
X160271227Y-77467562D01*
X160300021Y-77417689D01*
X160320500Y-77341262D01*
X160320500Y-77241315D01*
X160340185Y-77174276D01*
X160392989Y-77128521D01*
X160397002Y-77126773D01*
X160493914Y-77086632D01*
X160657782Y-76977139D01*
X160797139Y-76837782D01*
X160906632Y-76673914D01*
X160908139Y-76670277D01*
X160940222Y-76592820D01*
X160982051Y-76491835D01*
X160996885Y-76417258D01*
X161020500Y-76298543D01*
X161559499Y-76298543D01*
X161597947Y-76491829D01*
X161597950Y-76491839D01*
X161673364Y-76673907D01*
X161673371Y-76673920D01*
X161782860Y-76837781D01*
X161782863Y-76837785D01*
X161922214Y-76977136D01*
X161922218Y-76977139D01*
X162086079Y-77086628D01*
X162086092Y-77086635D01*
X162236188Y-77148806D01*
X162268165Y-77162051D01*
X162268169Y-77162051D01*
X162268170Y-77162052D01*
X162461456Y-77200500D01*
X162461459Y-77200500D01*
X162658543Y-77200500D01*
X162808887Y-77170594D01*
X162851835Y-77162051D01*
X163033914Y-77086632D01*
X163197782Y-76977139D01*
X163337139Y-76837782D01*
X163446632Y-76673914D01*
X163448139Y-76670277D01*
X163480222Y-76592820D01*
X163522051Y-76491835D01*
X163536885Y-76417258D01*
X163560500Y-76298543D01*
X163560500Y-76101456D01*
X163522052Y-75908170D01*
X163522051Y-75908169D01*
X163522051Y-75908165D01*
X163522049Y-75908160D01*
X163446635Y-75726092D01*
X163446628Y-75726079D01*
X163337139Y-75562218D01*
X163337136Y-75562214D01*
X163288277Y-75513355D01*
X163254792Y-75452032D01*
X163259776Y-75382340D01*
X163288275Y-75337995D01*
X164617508Y-74008762D01*
X164678829Y-73975279D01*
X164748521Y-73980263D01*
X164792868Y-74008764D01*
X167113681Y-76329577D01*
X167147166Y-76390900D01*
X167150000Y-76417258D01*
X167150000Y-115920523D01*
X167130315Y-115987562D01*
X167113682Y-116008204D01*
X167050000Y-116071886D01*
X166984108Y-116186012D01*
X166950000Y-116313308D01*
X166950000Y-116445091D01*
X166984108Y-116572387D01*
X167017054Y-116629450D01*
X167050000Y-116686514D01*
X167143186Y-116779700D01*
X167257314Y-116845592D01*
X167384608Y-116879700D01*
X167384610Y-116879700D01*
X167516390Y-116879700D01*
X167516392Y-116879700D01*
X167643686Y-116845592D01*
X167757814Y-116779700D01*
X167851000Y-116686514D01*
X167916892Y-116572386D01*
X167951000Y-116445092D01*
X167951000Y-116313308D01*
X167916892Y-116186014D01*
X167851000Y-116071886D01*
X167787318Y-116008204D01*
X167753834Y-115946880D01*
X167751000Y-115920523D01*
X167751000Y-76201864D01*
X167730520Y-76125434D01*
X167730517Y-76125429D01*
X167690964Y-76056920D01*
X167690958Y-76056912D01*
X165053587Y-73419541D01*
X165053579Y-73419535D01*
X164985070Y-73379982D01*
X164985065Y-73379979D01*
X164959588Y-73373152D01*
X164908637Y-73359500D01*
X164501738Y-73359500D01*
X164463524Y-73369739D01*
X164425309Y-73379979D01*
X164425304Y-73379982D01*
X164356795Y-73419535D01*
X164356787Y-73419541D01*
X162613148Y-75163181D01*
X162551825Y-75196666D01*
X162525467Y-75199500D01*
X162461457Y-75199500D01*
X162268170Y-75237947D01*
X162268160Y-75237950D01*
X162086092Y-75313364D01*
X162086079Y-75313371D01*
X161922218Y-75422860D01*
X161922214Y-75422863D01*
X161782863Y-75562214D01*
X161782860Y-75562218D01*
X161673371Y-75726079D01*
X161673364Y-75726092D01*
X161597950Y-75908160D01*
X161597947Y-75908170D01*
X161559500Y-76101456D01*
X161559500Y-76101459D01*
X161559500Y-76298541D01*
X161559500Y-76298543D01*
X161559499Y-76298543D01*
X161020500Y-76298543D01*
X161020500Y-76101456D01*
X160982052Y-75908170D01*
X160982051Y-75908169D01*
X160982051Y-75908165D01*
X160982049Y-75908160D01*
X160906635Y-75726092D01*
X160906628Y-75726079D01*
X160797139Y-75562218D01*
X160797136Y-75562214D01*
X160657785Y-75422863D01*
X160657781Y-75422860D01*
X160493920Y-75313371D01*
X160493907Y-75313364D01*
X160311839Y-75237950D01*
X160311829Y-75237947D01*
X160118543Y-75199500D01*
X160118541Y-75199500D01*
X159921459Y-75199500D01*
X159921457Y-75199500D01*
X159728170Y-75237947D01*
X159728160Y-75237950D01*
X159546092Y-75313364D01*
X159546079Y-75313371D01*
X159382218Y-75422860D01*
X159382214Y-75422863D01*
X159242863Y-75562214D01*
X159242860Y-75562218D01*
X159133371Y-75726079D01*
X159133364Y-75726092D01*
X159057950Y-75908160D01*
X159057947Y-75908170D01*
X159019500Y-76101456D01*
X159019500Y-76101459D01*
X159019500Y-76298541D01*
X159019500Y-76298543D01*
X159019499Y-76298543D01*
X159057947Y-76491829D01*
X159057950Y-76491839D01*
X159133364Y-76673907D01*
X159133371Y-76673920D01*
X159242860Y-76837781D01*
X159242863Y-76837785D01*
X159382217Y-76977139D01*
X159454562Y-77025478D01*
X159546086Y-77086632D01*
X159561315Y-77092940D01*
X159615718Y-77136776D01*
X159637786Y-77203070D01*
X159620510Y-77270770D01*
X159601546Y-77295182D01*
X158430989Y-78465740D01*
X158375041Y-78521687D01*
X158375035Y-78521695D01*
X158335482Y-78590204D01*
X158335479Y-78590209D01*
X158321826Y-78641162D01*
X158316819Y-78659852D01*
X158315000Y-78666639D01*
X158315000Y-90562649D01*
X158295315Y-90629688D01*
X158242511Y-90675443D01*
X158173353Y-90685387D01*
X158122110Y-90665751D01*
X157953925Y-90553374D01*
X157953907Y-90553364D01*
X157771839Y-90477950D01*
X157771829Y-90477947D01*
X157578543Y-90439500D01*
X157578541Y-90439500D01*
X157381459Y-90439500D01*
X157381457Y-90439500D01*
X157188170Y-90477947D01*
X157188160Y-90477950D01*
X157006092Y-90553364D01*
X157006079Y-90553371D01*
X156842218Y-90662860D01*
X156842214Y-90662863D01*
X156702863Y-90802214D01*
X156702860Y-90802218D01*
X156623402Y-90921136D01*
X156569790Y-90965941D01*
X156500465Y-90974648D01*
X156437437Y-90944494D01*
X156400718Y-90885051D01*
X156396300Y-90852245D01*
X156396300Y-78861733D01*
X156415985Y-78794694D01*
X156432619Y-78774052D01*
X157068500Y-78138171D01*
X157720460Y-77486211D01*
X157731227Y-77467562D01*
X157760021Y-77417689D01*
X157780500Y-77341262D01*
X157780500Y-77241315D01*
X157800185Y-77174276D01*
X157852989Y-77128521D01*
X157857002Y-77126773D01*
X157953914Y-77086632D01*
X158117782Y-76977139D01*
X158257139Y-76837782D01*
X158366632Y-76673914D01*
X158368139Y-76670277D01*
X158400222Y-76592820D01*
X158442051Y-76491835D01*
X158456885Y-76417258D01*
X158480500Y-76298543D01*
X158480500Y-76101456D01*
X158442052Y-75908170D01*
X158442051Y-75908169D01*
X158442051Y-75908165D01*
X158442049Y-75908160D01*
X158366635Y-75726092D01*
X158366628Y-75726079D01*
X158257139Y-75562218D01*
X158257136Y-75562214D01*
X158117785Y-75422863D01*
X158117781Y-75422860D01*
X157953920Y-75313371D01*
X157953907Y-75313364D01*
X157771839Y-75237950D01*
X157771829Y-75237947D01*
X157578543Y-75199500D01*
X157578541Y-75199500D01*
X157381459Y-75199500D01*
X157381457Y-75199500D01*
X157188170Y-75237947D01*
X157188160Y-75237950D01*
X157006092Y-75313364D01*
X157006079Y-75313371D01*
X156842218Y-75422860D01*
X156842214Y-75422863D01*
X156702863Y-75562214D01*
X156702860Y-75562218D01*
X156593371Y-75726079D01*
X156593364Y-75726092D01*
X156517950Y-75908160D01*
X156517947Y-75908170D01*
X156479500Y-76101456D01*
X156479500Y-76101459D01*
X156479500Y-76298541D01*
X156479500Y-76298543D01*
X156479499Y-76298543D01*
X156517947Y-76491829D01*
X156517950Y-76491839D01*
X156593364Y-76673907D01*
X156593371Y-76673920D01*
X156702860Y-76837781D01*
X156702863Y-76837785D01*
X156842217Y-76977139D01*
X156914562Y-77025478D01*
X157006086Y-77086632D01*
X157021315Y-77092940D01*
X157075718Y-77136776D01*
X157097786Y-77203070D01*
X157080510Y-77270770D01*
X157061546Y-77295182D01*
X155911289Y-78445440D01*
X155855341Y-78501387D01*
X155855335Y-78501395D01*
X155815782Y-78569904D01*
X155815779Y-78569909D01*
X155795300Y-78646339D01*
X155795300Y-90581016D01*
X155775615Y-90648055D01*
X155722811Y-90693810D01*
X155653653Y-90703754D01*
X155590097Y-90674729D01*
X155583619Y-90668697D01*
X155577785Y-90662863D01*
X155577781Y-90662860D01*
X155413920Y-90553371D01*
X155413907Y-90553364D01*
X155231839Y-90477950D01*
X155231829Y-90477947D01*
X155038543Y-90439500D01*
X155038541Y-90439500D01*
X154841459Y-90439500D01*
X154841457Y-90439500D01*
X154648170Y-90477947D01*
X154648160Y-90477950D01*
X154466092Y-90553364D01*
X154466079Y-90553371D01*
X154302218Y-90662860D01*
X154302214Y-90662863D01*
X154162863Y-90802214D01*
X154162860Y-90802218D01*
X154112502Y-90877584D01*
X154058889Y-90922389D01*
X153989564Y-90931096D01*
X153926537Y-90900941D01*
X153889818Y-90841498D01*
X153885400Y-90808693D01*
X153885400Y-78832633D01*
X153905085Y-78765594D01*
X153921719Y-78744952D01*
X154544177Y-78122494D01*
X155180460Y-77486211D01*
X155191227Y-77467562D01*
X155220021Y-77417689D01*
X155240500Y-77341262D01*
X155240500Y-77241315D01*
X155260185Y-77174276D01*
X155312989Y-77128521D01*
X155317002Y-77126773D01*
X155413914Y-77086632D01*
X155577782Y-76977139D01*
X155717139Y-76837782D01*
X155826632Y-76673914D01*
X155828139Y-76670277D01*
X155860222Y-76592820D01*
X155902051Y-76491835D01*
X155916885Y-76417258D01*
X155940500Y-76298543D01*
X155940500Y-76101456D01*
X155902052Y-75908170D01*
X155902051Y-75908169D01*
X155902051Y-75908165D01*
X155902049Y-75908160D01*
X155826635Y-75726092D01*
X155826628Y-75726079D01*
X155717139Y-75562218D01*
X155717136Y-75562214D01*
X155577785Y-75422863D01*
X155577781Y-75422860D01*
X155413920Y-75313371D01*
X155413907Y-75313364D01*
X155231839Y-75237950D01*
X155231829Y-75237947D01*
X155038543Y-75199500D01*
X155038541Y-75199500D01*
X154841459Y-75199500D01*
X154841457Y-75199500D01*
X154648170Y-75237947D01*
X154648160Y-75237950D01*
X154466092Y-75313364D01*
X154466079Y-75313371D01*
X154302218Y-75422860D01*
X154302214Y-75422863D01*
X154162863Y-75562214D01*
X154162860Y-75562218D01*
X154053371Y-75726079D01*
X154053364Y-75726092D01*
X153977950Y-75908160D01*
X153977947Y-75908170D01*
X153939500Y-76101456D01*
X153939500Y-76101459D01*
X153939500Y-76298541D01*
X153939500Y-76298543D01*
X153939499Y-76298543D01*
X153977947Y-76491829D01*
X153977950Y-76491839D01*
X154053364Y-76673907D01*
X154053371Y-76673920D01*
X154162860Y-76837781D01*
X154162863Y-76837785D01*
X154302217Y-76977139D01*
X154374562Y-77025478D01*
X154466086Y-77086632D01*
X154481315Y-77092940D01*
X154535718Y-77136776D01*
X154557786Y-77203070D01*
X154540510Y-77270770D01*
X154521546Y-77295182D01*
X153400389Y-78416340D01*
X153344441Y-78472287D01*
X153344435Y-78472295D01*
X153304882Y-78540804D01*
X153304879Y-78540809D01*
X153284400Y-78617239D01*
X153284400Y-90610116D01*
X153264715Y-90677155D01*
X153211911Y-90722910D01*
X153142753Y-90732854D01*
X153079197Y-90703829D01*
X153072719Y-90697797D01*
X153037785Y-90662863D01*
X153037781Y-90662860D01*
X152873920Y-90553371D01*
X152873907Y-90553364D01*
X152691839Y-90477950D01*
X152691829Y-90477947D01*
X152498543Y-90439500D01*
X152498541Y-90439500D01*
X152301459Y-90439500D01*
X152301457Y-90439500D01*
X152108170Y-90477947D01*
X152108160Y-90477950D01*
X151926092Y-90553364D01*
X151926079Y-90553371D01*
X151780591Y-90650584D01*
X151713913Y-90671462D01*
X151646533Y-90652977D01*
X151599843Y-90600999D01*
X151587700Y-90547482D01*
X151587700Y-77092517D01*
X151607385Y-77025478D01*
X151660189Y-76979723D01*
X151729347Y-76969779D01*
X151780589Y-76989414D01*
X151837510Y-77027447D01*
X151926079Y-77086628D01*
X151926092Y-77086635D01*
X152076188Y-77148806D01*
X152108165Y-77162051D01*
X152108169Y-77162051D01*
X152108170Y-77162052D01*
X152301456Y-77200500D01*
X152301459Y-77200500D01*
X152498543Y-77200500D01*
X152648887Y-77170594D01*
X152691835Y-77162051D01*
X152873914Y-77086632D01*
X153037782Y-76977139D01*
X153177139Y-76837782D01*
X153286632Y-76673914D01*
X153288139Y-76670277D01*
X153320222Y-76592820D01*
X153362051Y-76491835D01*
X153376885Y-76417258D01*
X153400500Y-76298543D01*
X153400500Y-76101456D01*
X153362052Y-75908170D01*
X153362051Y-75908169D01*
X153362051Y-75908165D01*
X153362049Y-75908160D01*
X153286635Y-75726092D01*
X153286628Y-75726079D01*
X153177139Y-75562218D01*
X153177136Y-75562214D01*
X153037785Y-75422863D01*
X153037781Y-75422860D01*
X152873920Y-75313371D01*
X152873907Y-75313364D01*
X152691839Y-75237950D01*
X152691829Y-75237947D01*
X152498543Y-75199500D01*
X152498541Y-75199500D01*
X152301459Y-75199500D01*
X152301457Y-75199500D01*
X152108170Y-75237947D01*
X152108160Y-75237950D01*
X151926092Y-75313364D01*
X151926079Y-75313371D01*
X151780591Y-75410584D01*
X151713913Y-75431462D01*
X151646533Y-75412977D01*
X151599843Y-75360999D01*
X151587700Y-75307482D01*
X151587700Y-69448632D01*
X151607385Y-69381593D01*
X151624014Y-69360956D01*
X155353022Y-65631947D01*
X157810000Y-65631947D01*
X157810000Y-65868052D01*
X157846934Y-66101247D01*
X157919897Y-66325802D01*
X158027087Y-66536174D01*
X158087338Y-66619104D01*
X158087340Y-66619105D01*
X158786212Y-65920233D01*
X158797482Y-65962292D01*
X158869890Y-66087708D01*
X158972292Y-66190110D01*
X159097708Y-66262518D01*
X159139765Y-66273787D01*
X158440893Y-66972658D01*
X158523828Y-67032914D01*
X158734197Y-67140102D01*
X158958752Y-67213065D01*
X158958751Y-67213065D01*
X159191948Y-67250000D01*
X159428052Y-67250000D01*
X159661247Y-67213065D01*
X159885802Y-67140102D01*
X160096163Y-67032918D01*
X160096169Y-67032914D01*
X160179104Y-66972658D01*
X160179105Y-66972658D01*
X159480233Y-66273787D01*
X159522292Y-66262518D01*
X159647708Y-66190110D01*
X159750110Y-66087708D01*
X159822518Y-65962292D01*
X159833787Y-65920234D01*
X160532658Y-66619105D01*
X160532658Y-66619104D01*
X160592914Y-66536169D01*
X160592918Y-66536163D01*
X160700102Y-66325802D01*
X160773065Y-66101247D01*
X160810000Y-65868052D01*
X160810000Y-65631947D01*
X164310000Y-65631947D01*
X164310000Y-65868052D01*
X164346934Y-66101247D01*
X164419897Y-66325802D01*
X164527087Y-66536174D01*
X164587338Y-66619104D01*
X164587340Y-66619105D01*
X165286212Y-65920233D01*
X165297482Y-65962292D01*
X165369890Y-66087708D01*
X165472292Y-66190110D01*
X165597708Y-66262518D01*
X165639765Y-66273787D01*
X164940893Y-66972658D01*
X165023828Y-67032914D01*
X165234197Y-67140102D01*
X165458752Y-67213065D01*
X165458751Y-67213065D01*
X165691948Y-67250000D01*
X165928052Y-67250000D01*
X166161247Y-67213065D01*
X166385802Y-67140102D01*
X166596163Y-67032918D01*
X166596169Y-67032914D01*
X166679104Y-66972658D01*
X166679105Y-66972658D01*
X165980233Y-66273787D01*
X166022292Y-66262518D01*
X166147708Y-66190110D01*
X166250110Y-66087708D01*
X166322518Y-65962292D01*
X166333787Y-65920233D01*
X167032658Y-66619105D01*
X167032658Y-66619104D01*
X167092914Y-66536169D01*
X167092918Y-66536163D01*
X167200102Y-66325802D01*
X167273065Y-66101247D01*
X167310000Y-65868052D01*
X167310000Y-65631947D01*
X167273065Y-65398752D01*
X167200102Y-65174197D01*
X167092914Y-64963828D01*
X167032658Y-64880894D01*
X167032658Y-64880893D01*
X166333787Y-65579765D01*
X166322518Y-65537708D01*
X166250110Y-65412292D01*
X166147708Y-65309890D01*
X166022292Y-65237482D01*
X165980234Y-65226212D01*
X166679105Y-64527340D01*
X166679104Y-64527338D01*
X166596174Y-64467087D01*
X166385802Y-64359897D01*
X166161247Y-64286934D01*
X166161248Y-64286934D01*
X165928052Y-64250000D01*
X165691948Y-64250000D01*
X165458752Y-64286934D01*
X165234197Y-64359897D01*
X165023830Y-64467084D01*
X164940894Y-64527340D01*
X165639766Y-65226212D01*
X165597708Y-65237482D01*
X165472292Y-65309890D01*
X165369890Y-65412292D01*
X165297482Y-65537708D01*
X165286212Y-65579766D01*
X164587340Y-64880894D01*
X164527084Y-64963830D01*
X164419897Y-65174197D01*
X164346934Y-65398752D01*
X164310000Y-65631947D01*
X160810000Y-65631947D01*
X160773065Y-65398752D01*
X160700102Y-65174197D01*
X160592914Y-64963828D01*
X160532658Y-64880894D01*
X160532658Y-64880893D01*
X159833787Y-65579765D01*
X159822518Y-65537708D01*
X159750110Y-65412292D01*
X159647708Y-65309890D01*
X159522292Y-65237482D01*
X159480234Y-65226212D01*
X160179105Y-64527340D01*
X160179104Y-64527339D01*
X160096174Y-64467087D01*
X159885802Y-64359897D01*
X159661247Y-64286934D01*
X159661248Y-64286934D01*
X159428052Y-64250000D01*
X159191948Y-64250000D01*
X158958752Y-64286934D01*
X158734197Y-64359897D01*
X158523830Y-64467084D01*
X158440894Y-64527340D01*
X159139766Y-65226212D01*
X159097708Y-65237482D01*
X158972292Y-65309890D01*
X158869890Y-65412292D01*
X158797482Y-65537708D01*
X158786212Y-65579766D01*
X158087340Y-64880894D01*
X158027084Y-64963830D01*
X157919897Y-65174197D01*
X157846934Y-65398752D01*
X157810000Y-65631947D01*
X155353022Y-65631947D01*
X158635256Y-62349713D01*
X158696577Y-62316230D01*
X158766269Y-62321214D01*
X158779223Y-62326907D01*
X158849168Y-62362547D01*
X158993488Y-62409439D01*
X159028881Y-62420940D01*
X159215514Y-62450500D01*
X159215519Y-62450500D01*
X159404486Y-62450500D01*
X159591118Y-62420940D01*
X159770832Y-62362547D01*
X159939199Y-62276760D01*
X160092073Y-62165690D01*
X160225690Y-62032073D01*
X160336760Y-61879199D01*
X160422547Y-61710832D01*
X160480940Y-61531118D01*
X160492125Y-61460499D01*
X160510500Y-61344486D01*
X160510500Y-61155513D01*
X164609500Y-61155513D01*
X164609500Y-61344486D01*
X164639059Y-61531118D01*
X164697454Y-61710836D01*
X164783240Y-61879199D01*
X164894310Y-62032073D01*
X165027927Y-62165690D01*
X165180801Y-62276760D01*
X165260347Y-62317290D01*
X165349163Y-62362545D01*
X165349165Y-62362545D01*
X165349168Y-62362547D01*
X165445497Y-62393846D01*
X165528881Y-62420940D01*
X165715514Y-62450500D01*
X165715519Y-62450500D01*
X165904486Y-62450500D01*
X166091118Y-62420940D01*
X166270832Y-62362547D01*
X166439199Y-62276760D01*
X166592073Y-62165690D01*
X166725690Y-62032073D01*
X166836760Y-61879199D01*
X166922547Y-61710832D01*
X166980940Y-61531118D01*
X166992125Y-61460499D01*
X167010500Y-61344486D01*
X167010500Y-61155513D01*
X166980940Y-60968881D01*
X166922545Y-60789163D01*
X166836759Y-60620800D01*
X166725690Y-60467927D01*
X166592073Y-60334310D01*
X166439199Y-60223240D01*
X166270836Y-60137454D01*
X166091118Y-60079059D01*
X165904486Y-60049500D01*
X165904481Y-60049500D01*
X165715519Y-60049500D01*
X165715514Y-60049500D01*
X165528881Y-60079059D01*
X165349163Y-60137454D01*
X165180800Y-60223240D01*
X165093579Y-60286610D01*
X165027927Y-60334310D01*
X165027925Y-60334312D01*
X165027924Y-60334312D01*
X164894312Y-60467924D01*
X164894312Y-60467925D01*
X164894310Y-60467927D01*
X164846610Y-60533579D01*
X164783240Y-60620800D01*
X164697454Y-60789163D01*
X164639059Y-60968881D01*
X164609500Y-61155513D01*
X160510500Y-61155513D01*
X160480940Y-60968881D01*
X160422545Y-60789163D01*
X160336759Y-60620800D01*
X160225690Y-60467927D01*
X160092073Y-60334310D01*
X159939199Y-60223240D01*
X159770836Y-60137454D01*
X159591118Y-60079059D01*
X159404486Y-60049500D01*
X159404481Y-60049500D01*
X159215519Y-60049500D01*
X159215514Y-60049500D01*
X159028881Y-60079059D01*
X158849163Y-60137454D01*
X158680800Y-60223240D01*
X158593579Y-60286610D01*
X158527927Y-60334310D01*
X158527925Y-60334312D01*
X158527924Y-60334312D01*
X158394312Y-60467924D01*
X158394312Y-60467925D01*
X158394310Y-60467927D01*
X158346610Y-60533579D01*
X158283240Y-60620800D01*
X158197454Y-60789163D01*
X158139059Y-60968881D01*
X158109500Y-61155513D01*
X158109500Y-61344486D01*
X158139059Y-61531118D01*
X158197454Y-61710836D01*
X158233087Y-61780768D01*
X158245983Y-61849437D01*
X158219707Y-61914178D01*
X158210283Y-61924744D01*
X151102689Y-69032340D01*
X151046741Y-69088287D01*
X151046735Y-69088295D01*
X151007182Y-69156804D01*
X151007179Y-69156809D01*
X150986700Y-69233239D01*
X150986700Y-75682270D01*
X150967015Y-75749309D01*
X150914211Y-75795064D01*
X150845053Y-75805008D01*
X150781497Y-75775983D01*
X150748140Y-75729726D01*
X150746633Y-75726088D01*
X150746628Y-75726079D01*
X150637139Y-75562218D01*
X150637136Y-75562214D01*
X150497785Y-75422863D01*
X150497781Y-75422860D01*
X150333920Y-75313371D01*
X150333907Y-75313364D01*
X150151839Y-75237950D01*
X150151829Y-75237947D01*
X149958543Y-75199500D01*
X149958541Y-75199500D01*
X149761459Y-75199500D01*
X149761457Y-75199500D01*
X149568170Y-75237947D01*
X149568160Y-75237950D01*
X149386092Y-75313364D01*
X149386079Y-75313371D01*
X149222218Y-75422860D01*
X149222214Y-75422863D01*
X149082863Y-75562214D01*
X149082860Y-75562218D01*
X148973371Y-75726079D01*
X148973364Y-75726092D01*
X148897950Y-75908160D01*
X148897947Y-75908170D01*
X148859500Y-76101456D01*
X148859500Y-76101459D01*
X148859500Y-76298541D01*
X148859500Y-76298543D01*
X148859499Y-76298543D01*
X148897947Y-76491829D01*
X148897950Y-76491839D01*
X148973364Y-76673907D01*
X148973371Y-76673920D01*
X149082860Y-76837781D01*
X149082863Y-76837785D01*
X149222217Y-76977139D01*
X149294562Y-77025478D01*
X149386086Y-77086632D01*
X149401315Y-77092940D01*
X149455718Y-77136776D01*
X149477786Y-77203070D01*
X149460510Y-77270770D01*
X149441546Y-77295182D01*
X148573789Y-78162940D01*
X148517841Y-78218887D01*
X148517835Y-78218895D01*
X148478282Y-78287404D01*
X148478279Y-78287409D01*
X148457800Y-78363839D01*
X148457800Y-90949068D01*
X148438115Y-91016107D01*
X148385311Y-91061862D01*
X148316153Y-91071806D01*
X148252597Y-91042781D01*
X148219239Y-90996521D01*
X148206633Y-90966089D01*
X148206633Y-90966088D01*
X148206632Y-90966086D01*
X148206630Y-90966083D01*
X148206628Y-90966079D01*
X148097139Y-90802218D01*
X148097136Y-90802214D01*
X147957785Y-90662863D01*
X147957781Y-90662860D01*
X147793920Y-90553371D01*
X147793907Y-90553364D01*
X147611839Y-90477950D01*
X147611829Y-90477947D01*
X147418543Y-90439500D01*
X147418541Y-90439500D01*
X147221459Y-90439500D01*
X147221457Y-90439500D01*
X147028170Y-90477947D01*
X147028160Y-90477950D01*
X146846092Y-90553364D01*
X146846079Y-90553371D01*
X146682218Y-90662860D01*
X146682214Y-90662863D01*
X146542863Y-90802214D01*
X146542858Y-90802220D01*
X146535601Y-90813082D01*
X146481989Y-90857886D01*
X146412664Y-90866593D01*
X146349637Y-90836438D01*
X146312918Y-90776994D01*
X146308500Y-90744190D01*
X146308500Y-90289504D01*
X146328185Y-90222465D01*
X146380989Y-90176710D01*
X146450147Y-90166766D01*
X146464571Y-90169724D01*
X146542108Y-90190500D01*
X146542111Y-90190500D01*
X146673890Y-90190500D01*
X146673892Y-90190500D01*
X146801186Y-90156392D01*
X146915314Y-90090500D01*
X147008500Y-89997314D01*
X147074392Y-89883186D01*
X147108500Y-89755892D01*
X147108500Y-89624108D01*
X147074392Y-89496814D01*
X147008500Y-89382686D01*
X146944818Y-89319004D01*
X146911334Y-89257680D01*
X146908500Y-89231323D01*
X146908500Y-78189533D01*
X146928185Y-78122494D01*
X146944819Y-78101852D01*
X147217482Y-77829189D01*
X147560460Y-77486211D01*
X147571227Y-77467562D01*
X147600021Y-77417689D01*
X147620500Y-77341262D01*
X147620500Y-77241315D01*
X147640185Y-77174276D01*
X147692989Y-77128521D01*
X147697002Y-77126773D01*
X147793914Y-77086632D01*
X147957782Y-76977139D01*
X148097139Y-76837782D01*
X148206632Y-76673914D01*
X148208139Y-76670277D01*
X148240222Y-76592820D01*
X148282051Y-76491835D01*
X148296885Y-76417258D01*
X148320500Y-76298543D01*
X148320500Y-76101456D01*
X148282052Y-75908170D01*
X148282051Y-75908169D01*
X148282051Y-75908165D01*
X148282049Y-75908160D01*
X148206635Y-75726092D01*
X148206628Y-75726079D01*
X148097139Y-75562218D01*
X148097136Y-75562214D01*
X147957785Y-75422863D01*
X147957781Y-75422860D01*
X147793920Y-75313371D01*
X147793907Y-75313364D01*
X147611839Y-75237950D01*
X147611829Y-75237947D01*
X147418543Y-75199500D01*
X147418541Y-75199500D01*
X147221459Y-75199500D01*
X147221457Y-75199500D01*
X147028170Y-75237947D01*
X147028160Y-75237950D01*
X146846092Y-75313364D01*
X146846079Y-75313371D01*
X146682218Y-75422860D01*
X146682214Y-75422863D01*
X146542863Y-75562214D01*
X146542860Y-75562218D01*
X146433371Y-75726079D01*
X146433364Y-75726092D01*
X146357950Y-75908160D01*
X146357947Y-75908170D01*
X146319500Y-76101456D01*
X146319500Y-76101459D01*
X146319500Y-76298541D01*
X146319500Y-76298543D01*
X146319499Y-76298543D01*
X146357947Y-76491829D01*
X146357950Y-76491839D01*
X146433364Y-76673907D01*
X146433371Y-76673920D01*
X146542860Y-76837781D01*
X146542863Y-76837785D01*
X146682217Y-76977139D01*
X146754562Y-77025478D01*
X146846086Y-77086632D01*
X146861315Y-77092940D01*
X146915718Y-77136776D01*
X146937786Y-77203070D01*
X146920510Y-77270770D01*
X146901546Y-77295182D01*
X146520181Y-77676548D01*
X146458858Y-77710033D01*
X146389167Y-77705049D01*
X146333233Y-77663178D01*
X146308816Y-77597713D01*
X146308500Y-77588867D01*
X146308500Y-77388439D01*
X146295859Y-77341262D01*
X146288021Y-77312011D01*
X146278305Y-77295182D01*
X146248464Y-77243495D01*
X146248458Y-77243487D01*
X145728806Y-76723835D01*
X145695321Y-76662512D01*
X145700305Y-76592820D01*
X145701910Y-76588743D01*
X145742051Y-76491835D01*
X145756885Y-76417258D01*
X145780500Y-76298543D01*
X145780500Y-76101456D01*
X145742052Y-75908170D01*
X145742051Y-75908169D01*
X145742051Y-75908165D01*
X145742049Y-75908160D01*
X145666635Y-75726092D01*
X145666628Y-75726079D01*
X145557139Y-75562218D01*
X145557136Y-75562214D01*
X145417785Y-75422863D01*
X145417781Y-75422860D01*
X145253920Y-75313371D01*
X145253907Y-75313364D01*
X145071839Y-75237950D01*
X145071829Y-75237947D01*
X144878543Y-75199500D01*
X144878541Y-75199500D01*
X144681459Y-75199500D01*
X144681457Y-75199500D01*
X144488170Y-75237947D01*
X144488160Y-75237950D01*
X144306092Y-75313364D01*
X144306079Y-75313371D01*
X144142218Y-75422860D01*
X144142214Y-75422863D01*
X144002863Y-75562214D01*
X144002860Y-75562218D01*
X143893371Y-75726079D01*
X143893364Y-75726092D01*
X143817950Y-75908160D01*
X143817947Y-75908170D01*
X143779500Y-76101456D01*
X143779500Y-76101459D01*
X143779500Y-76298541D01*
X143779500Y-76298543D01*
X143779499Y-76298543D01*
X143817947Y-76491829D01*
X143817950Y-76491839D01*
X143893364Y-76673907D01*
X143893371Y-76673920D01*
X144002860Y-76837781D01*
X144002863Y-76837785D01*
X144142214Y-76977136D01*
X144142218Y-76977139D01*
X144306079Y-77086628D01*
X144306092Y-77086635D01*
X144456188Y-77148806D01*
X144488165Y-77162051D01*
X144488169Y-77162051D01*
X144488170Y-77162052D01*
X144681456Y-77200500D01*
X144681459Y-77200500D01*
X144878543Y-77200500D01*
X145028887Y-77170594D01*
X145071835Y-77162051D01*
X145168702Y-77121926D01*
X145238169Y-77114457D01*
X145300649Y-77145731D01*
X145303835Y-77148806D01*
X145671181Y-77516152D01*
X145704666Y-77577475D01*
X145707500Y-77603833D01*
X145707500Y-90653216D01*
X145687815Y-90720255D01*
X145635011Y-90766010D01*
X145565853Y-90775954D01*
X145502297Y-90746929D01*
X145495819Y-90740897D01*
X145417785Y-90662863D01*
X145417781Y-90662860D01*
X145253920Y-90553371D01*
X145253907Y-90553364D01*
X145071839Y-90477950D01*
X145071829Y-90477947D01*
X144878543Y-90439500D01*
X144878541Y-90439500D01*
X144681459Y-90439500D01*
X144681457Y-90439500D01*
X144488170Y-90477947D01*
X144488160Y-90477950D01*
X144306092Y-90553364D01*
X144306079Y-90553371D01*
X144142218Y-90662860D01*
X144142214Y-90662863D01*
X144022181Y-90782897D01*
X143960858Y-90816382D01*
X143891166Y-90811398D01*
X143835233Y-90769526D01*
X143810816Y-90704062D01*
X143810500Y-90695216D01*
X143810500Y-78532139D01*
X143810500Y-78532138D01*
X143790021Y-78455711D01*
X143784091Y-78445440D01*
X143750464Y-78387195D01*
X143750458Y-78387187D01*
X142658453Y-77295182D01*
X142624968Y-77233859D01*
X142629952Y-77164167D01*
X142671824Y-77108234D01*
X142698677Y-77092943D01*
X142713914Y-77086632D01*
X142877782Y-76977139D01*
X143017139Y-76837782D01*
X143126632Y-76673914D01*
X143128139Y-76670277D01*
X143160222Y-76592820D01*
X143202051Y-76491835D01*
X143216885Y-76417258D01*
X143240500Y-76298543D01*
X143240500Y-76101456D01*
X143202052Y-75908170D01*
X143202051Y-75908169D01*
X143202051Y-75908165D01*
X143202049Y-75908160D01*
X143126635Y-75726092D01*
X143126628Y-75726079D01*
X143017139Y-75562218D01*
X143017136Y-75562214D01*
X142877785Y-75422863D01*
X142877781Y-75422860D01*
X142713920Y-75313371D01*
X142713907Y-75313364D01*
X142531839Y-75237950D01*
X142531829Y-75237947D01*
X142338543Y-75199500D01*
X142338541Y-75199500D01*
X142141459Y-75199500D01*
X142141457Y-75199500D01*
X141948170Y-75237947D01*
X141948160Y-75237950D01*
X141766092Y-75313364D01*
X141766079Y-75313371D01*
X141602218Y-75422860D01*
X141602214Y-75422863D01*
X141462863Y-75562214D01*
X141462860Y-75562218D01*
X141353371Y-75726079D01*
X141353364Y-75726092D01*
X141277950Y-75908160D01*
X141277947Y-75908170D01*
X141239500Y-76101456D01*
X141239500Y-76101459D01*
X141239500Y-76298541D01*
X141239500Y-76298543D01*
X141239499Y-76298543D01*
X141277947Y-76491829D01*
X141277950Y-76491839D01*
X141353364Y-76673907D01*
X141353371Y-76673920D01*
X141462860Y-76837781D01*
X141462863Y-76837785D01*
X141602217Y-76977139D01*
X141674562Y-77025478D01*
X141766086Y-77086632D01*
X141862953Y-77126755D01*
X141917355Y-77170594D01*
X141939421Y-77236888D01*
X141939500Y-77241315D01*
X141939500Y-77341262D01*
X141952141Y-77388438D01*
X141959979Y-77417690D01*
X141959980Y-77417691D01*
X141988773Y-77467562D01*
X141999540Y-77486211D01*
X141999542Y-77486213D01*
X143173181Y-78659852D01*
X143206666Y-78721175D01*
X143209500Y-78747533D01*
X143209500Y-90695216D01*
X143189815Y-90762255D01*
X143137011Y-90808010D01*
X143067853Y-90817954D01*
X143004297Y-90788929D01*
X142997819Y-90782897D01*
X142877785Y-90662863D01*
X142877781Y-90662860D01*
X142713920Y-90553371D01*
X142713907Y-90553364D01*
X142531839Y-90477950D01*
X142531829Y-90477947D01*
X142338543Y-90439500D01*
X142338541Y-90439500D01*
X142141459Y-90439500D01*
X142141457Y-90439500D01*
X141948170Y-90477947D01*
X141948160Y-90477950D01*
X141766092Y-90553364D01*
X141766079Y-90553371D01*
X141602218Y-90662860D01*
X141602214Y-90662863D01*
X141462863Y-90802214D01*
X141462860Y-90802218D01*
X141350502Y-90970374D01*
X141296890Y-91015179D01*
X141227565Y-91023886D01*
X141164537Y-90993731D01*
X141127818Y-90934288D01*
X141123400Y-90901483D01*
X141123400Y-77283339D01*
X141117719Y-77262138D01*
X141102921Y-77206911D01*
X141085784Y-77177229D01*
X141063364Y-77138395D01*
X141063358Y-77138387D01*
X140648806Y-76723835D01*
X140615321Y-76662512D01*
X140620305Y-76592820D01*
X140621910Y-76588743D01*
X140662051Y-76491835D01*
X140676885Y-76417258D01*
X140700500Y-76298543D01*
X140700500Y-76101456D01*
X140662052Y-75908170D01*
X140662051Y-75908169D01*
X140662051Y-75908165D01*
X140662049Y-75908160D01*
X140586635Y-75726092D01*
X140586628Y-75726079D01*
X140477139Y-75562218D01*
X140477136Y-75562214D01*
X140337785Y-75422863D01*
X140337781Y-75422860D01*
X140173920Y-75313371D01*
X140173907Y-75313364D01*
X139991839Y-75237950D01*
X139991829Y-75237947D01*
X139798543Y-75199500D01*
X139798541Y-75199500D01*
X139601459Y-75199500D01*
X139601457Y-75199500D01*
X139408170Y-75237947D01*
X139408160Y-75237950D01*
X139226092Y-75313364D01*
X139226079Y-75313371D01*
X139062218Y-75422860D01*
X139062214Y-75422863D01*
X138922863Y-75562214D01*
X138922860Y-75562218D01*
X138813371Y-75726079D01*
X138813364Y-75726092D01*
X138737950Y-75908160D01*
X138737947Y-75908170D01*
X138699500Y-76101456D01*
X138699500Y-76101459D01*
X138699500Y-76298541D01*
X138699500Y-76298543D01*
X138699499Y-76298543D01*
X138737947Y-76491829D01*
X138737950Y-76491839D01*
X138813364Y-76673907D01*
X138813371Y-76673920D01*
X138922860Y-76837781D01*
X138922863Y-76837785D01*
X139062214Y-76977136D01*
X139062218Y-76977139D01*
X139226079Y-77086628D01*
X139226092Y-77086635D01*
X139376188Y-77148806D01*
X139408165Y-77162051D01*
X139408169Y-77162051D01*
X139408170Y-77162052D01*
X139601456Y-77200500D01*
X139601459Y-77200500D01*
X139798543Y-77200500D01*
X139948887Y-77170594D01*
X139991835Y-77162051D01*
X140088702Y-77121926D01*
X140158169Y-77114457D01*
X140220649Y-77145731D01*
X140223835Y-77148806D01*
X140486081Y-77411052D01*
X140519566Y-77472375D01*
X140522400Y-77498733D01*
X140522400Y-90554230D01*
X140502715Y-90621269D01*
X140449911Y-90667024D01*
X140380753Y-90676968D01*
X140329510Y-90657332D01*
X140173925Y-90553374D01*
X140173907Y-90553364D01*
X139991839Y-90477950D01*
X139991829Y-90477947D01*
X139798543Y-90439500D01*
X139798541Y-90439500D01*
X139601459Y-90439500D01*
X139601457Y-90439500D01*
X139408170Y-90477947D01*
X139408160Y-90477950D01*
X139226092Y-90553364D01*
X139226079Y-90553371D01*
X139062218Y-90662860D01*
X139062214Y-90662863D01*
X138922863Y-90802214D01*
X138922860Y-90802218D01*
X138817115Y-90960477D01*
X138763503Y-91005282D01*
X138694178Y-91013989D01*
X138631150Y-90983834D01*
X138594431Y-90924391D01*
X138590013Y-90891586D01*
X138590013Y-78391653D01*
X138590013Y-78391651D01*
X138586028Y-78376779D01*
X138569535Y-78315225D01*
X138529973Y-78246702D01*
X137578453Y-77295182D01*
X137544968Y-77233859D01*
X137549952Y-77164167D01*
X137591824Y-77108234D01*
X137618677Y-77092943D01*
X137633914Y-77086632D01*
X137797782Y-76977139D01*
X137937139Y-76837782D01*
X138046632Y-76673914D01*
X138048139Y-76670277D01*
X138080222Y-76592820D01*
X138122051Y-76491835D01*
X138136885Y-76417258D01*
X138160500Y-76298543D01*
X138160500Y-76101456D01*
X138122052Y-75908170D01*
X138122051Y-75908169D01*
X138122051Y-75908165D01*
X138122049Y-75908160D01*
X138046635Y-75726092D01*
X138046628Y-75726079D01*
X137937139Y-75562218D01*
X137937136Y-75562214D01*
X137797785Y-75422863D01*
X137797781Y-75422860D01*
X137633920Y-75313371D01*
X137633907Y-75313364D01*
X137451839Y-75237950D01*
X137451829Y-75237947D01*
X137258543Y-75199500D01*
X137258541Y-75199500D01*
X137061459Y-75199500D01*
X137061457Y-75199500D01*
X136868170Y-75237947D01*
X136868160Y-75237950D01*
X136686092Y-75313364D01*
X136686079Y-75313371D01*
X136522218Y-75422860D01*
X136522214Y-75422863D01*
X136382863Y-75562214D01*
X136382860Y-75562218D01*
X136273371Y-75726079D01*
X136273364Y-75726092D01*
X136197950Y-75908160D01*
X136197947Y-75908170D01*
X136159500Y-76101456D01*
X136159500Y-76101459D01*
X136159500Y-76298541D01*
X136159500Y-76298543D01*
X136159499Y-76298543D01*
X136197947Y-76491829D01*
X136197950Y-76491839D01*
X136273364Y-76673907D01*
X136273371Y-76673920D01*
X136382860Y-76837781D01*
X136382863Y-76837785D01*
X136522217Y-76977139D01*
X136594562Y-77025478D01*
X136686086Y-77086632D01*
X136782953Y-77126755D01*
X136837355Y-77170594D01*
X136859421Y-77236888D01*
X136859500Y-77241315D01*
X136859500Y-77341262D01*
X136872141Y-77388438D01*
X136879979Y-77417690D01*
X136879980Y-77417691D01*
X136908773Y-77467562D01*
X136919540Y-77486211D01*
X136919542Y-77486213D01*
X137952694Y-78519365D01*
X137986179Y-78580688D01*
X137989013Y-78607046D01*
X137989013Y-90558649D01*
X137969328Y-90625688D01*
X137916524Y-90671443D01*
X137847366Y-90681387D01*
X137796122Y-90661751D01*
X137633920Y-90553371D01*
X137633907Y-90553364D01*
X137451839Y-90477950D01*
X137451829Y-90477947D01*
X137258543Y-90439500D01*
X137258541Y-90439500D01*
X137061459Y-90439500D01*
X137061457Y-90439500D01*
X136868170Y-90477947D01*
X136868160Y-90477950D01*
X136686092Y-90553364D01*
X136686079Y-90553371D01*
X136522218Y-90662860D01*
X136522214Y-90662863D01*
X136382863Y-90802214D01*
X136382860Y-90802218D01*
X136273371Y-90966079D01*
X136273364Y-90966092D01*
X136197950Y-91148160D01*
X136197947Y-91148170D01*
X136159500Y-91341456D01*
X136159500Y-91341459D01*
X136159500Y-91538541D01*
X136159500Y-91538543D01*
X136159499Y-91538543D01*
X136197947Y-91731829D01*
X136197950Y-91731839D01*
X136273364Y-91913907D01*
X136273371Y-91913920D01*
X136382860Y-92077781D01*
X136382863Y-92077785D01*
X136522214Y-92217136D01*
X136522218Y-92217139D01*
X136686079Y-92326628D01*
X136686092Y-92326635D01*
X136845814Y-92392793D01*
X136868165Y-92402051D01*
X136868169Y-92402051D01*
X136868170Y-92402052D01*
X137061456Y-92440500D01*
X137061459Y-92440500D01*
X137258543Y-92440500D01*
X137408887Y-92410594D01*
X137451835Y-92402051D01*
X137633914Y-92326632D01*
X137796122Y-92218247D01*
X137862799Y-92197370D01*
X137930180Y-92215854D01*
X137976870Y-92267833D01*
X137989013Y-92321350D01*
X137989013Y-92954559D01*
X137969328Y-93021598D01*
X137916524Y-93067353D01*
X137847366Y-93077297D01*
X137783810Y-93048272D01*
X137757626Y-93016560D01*
X137732818Y-92973592D01*
X137692400Y-92903586D01*
X137599214Y-92810400D01*
X137531782Y-92771468D01*
X137485087Y-92744508D01*
X137416800Y-92726211D01*
X137357792Y-92710400D01*
X137226008Y-92710400D01*
X137098712Y-92744508D01*
X136984586Y-92810400D01*
X136984583Y-92810402D01*
X136891402Y-92903583D01*
X136891400Y-92903586D01*
X136825508Y-93017712D01*
X136811902Y-93068491D01*
X136791400Y-93145008D01*
X136791400Y-93276792D01*
X136801596Y-93314844D01*
X136825508Y-93404087D01*
X136838555Y-93426684D01*
X136891400Y-93518214D01*
X136891402Y-93518216D01*
X136955081Y-93581895D01*
X136988566Y-93643218D01*
X136991400Y-93669576D01*
X136991400Y-94298331D01*
X136971715Y-94365370D01*
X136918911Y-94411125D01*
X136849753Y-94421069D01*
X136786197Y-94392044D01*
X136748423Y-94333266D01*
X136747625Y-94330426D01*
X136747200Y-94328839D01*
X136747200Y-94328838D01*
X136726721Y-94252411D01*
X136726717Y-94252404D01*
X136687164Y-94183895D01*
X136687158Y-94183887D01*
X135038453Y-92535182D01*
X135004968Y-92473859D01*
X135009952Y-92404167D01*
X135051824Y-92348234D01*
X135078677Y-92332943D01*
X135093914Y-92326632D01*
X135257782Y-92217139D01*
X135397139Y-92077782D01*
X135506632Y-91913914D01*
X135507642Y-91911477D01*
X135530673Y-91855873D01*
X135582051Y-91731835D01*
X135620500Y-91538541D01*
X135620500Y-91341459D01*
X135620500Y-91341456D01*
X135582052Y-91148170D01*
X135582051Y-91148169D01*
X135582051Y-91148165D01*
X135570352Y-91119920D01*
X135506635Y-90966092D01*
X135506628Y-90966079D01*
X135397139Y-90802218D01*
X135397136Y-90802214D01*
X135257785Y-90662863D01*
X135257781Y-90662860D01*
X135093920Y-90553371D01*
X135093907Y-90553364D01*
X134911839Y-90477950D01*
X134911829Y-90477947D01*
X134718543Y-90439500D01*
X134718541Y-90439500D01*
X134521459Y-90439500D01*
X134521457Y-90439500D01*
X134328170Y-90477947D01*
X134328160Y-90477950D01*
X134146092Y-90553364D01*
X134146079Y-90553371D01*
X133982218Y-90662860D01*
X133982214Y-90662863D01*
X133842863Y-90802214D01*
X133842860Y-90802218D01*
X133733371Y-90966079D01*
X133733364Y-90966092D01*
X133657950Y-91148160D01*
X133657947Y-91148170D01*
X133619500Y-91341456D01*
X133619500Y-91341459D01*
X133619500Y-91538541D01*
X133619500Y-91538543D01*
X133619499Y-91538543D01*
X133657947Y-91731829D01*
X133657950Y-91731839D01*
X133733364Y-91913907D01*
X133733371Y-91913920D01*
X133842860Y-92077781D01*
X133842863Y-92077785D01*
X133982217Y-92217139D01*
X134124412Y-92312150D01*
X134146086Y-92326632D01*
X134242953Y-92366755D01*
X134297355Y-92410594D01*
X134319421Y-92476888D01*
X134319500Y-92481315D01*
X134319500Y-92581262D01*
X134324666Y-92600541D01*
X134339979Y-92657690D01*
X134339980Y-92657691D01*
X134359465Y-92691440D01*
X134369020Y-92707990D01*
X134379539Y-92726209D01*
X134379541Y-92726212D01*
X136109881Y-94456552D01*
X136143366Y-94517875D01*
X136146200Y-94544233D01*
X136146200Y-127816923D01*
X136126515Y-127883962D01*
X136109882Y-127904604D01*
X136046200Y-127968286D01*
X135980308Y-128082412D01*
X135953679Y-128181794D01*
X135946200Y-128209708D01*
X135946200Y-128341492D01*
X135953516Y-128368797D01*
X135980308Y-128468787D01*
X136007436Y-128515773D01*
X136046200Y-128582914D01*
X136139386Y-128676100D01*
X136253514Y-128741992D01*
X136380808Y-128776100D01*
X136380810Y-128776100D01*
X136512590Y-128776100D01*
X136512592Y-128776100D01*
X136639886Y-128741992D01*
X136754014Y-128676100D01*
X136847200Y-128582914D01*
X136913092Y-128468786D01*
X136947200Y-128341492D01*
X136947200Y-128209708D01*
X136913092Y-128082414D01*
X136847200Y-127968286D01*
X136783518Y-127904604D01*
X136750034Y-127843280D01*
X136747200Y-127816923D01*
X136747200Y-126771868D01*
X136751536Y-126757099D01*
X136750921Y-126741720D01*
X136761179Y-126724258D01*
X136766885Y-126704829D01*
X136778516Y-126694750D01*
X136786314Y-126681478D01*
X136804385Y-126672334D01*
X136819689Y-126659074D01*
X136834922Y-126656883D01*
X136848658Y-126649934D01*
X136868802Y-126652012D01*
X136888847Y-126649130D01*
X136902849Y-126655524D01*
X136918159Y-126657104D01*
X136933980Y-126669741D01*
X136952403Y-126678155D01*
X136961524Y-126691742D01*
X136972751Y-126700710D01*
X136984612Y-126726134D01*
X136988685Y-126732202D01*
X136991400Y-126740243D01*
X136991400Y-126741362D01*
X137011879Y-126817789D01*
X137019453Y-126830907D01*
X137025610Y-126841571D01*
X137025611Y-126841574D01*
X137043215Y-126872065D01*
X137050603Y-126884862D01*
X137051439Y-126886309D01*
X137051441Y-126886312D01*
X138021581Y-127856452D01*
X138055066Y-127917775D01*
X138057900Y-127944133D01*
X138057900Y-128034191D01*
X138092008Y-128161487D01*
X138119849Y-128209708D01*
X138157900Y-128275614D01*
X138251086Y-128368800D01*
X138365214Y-128434692D01*
X138492508Y-128468800D01*
X138492510Y-128468800D01*
X138624290Y-128468800D01*
X138624292Y-128468800D01*
X138751586Y-128434692D01*
X138865714Y-128368800D01*
X138958900Y-128275614D01*
X139024792Y-128161486D01*
X139058900Y-128034192D01*
X139058900Y-128034190D01*
X139061003Y-128026342D01*
X139062252Y-128026676D01*
X139087145Y-127970389D01*
X139145465Y-127931911D01*
X139215330Y-127931072D01*
X139269508Y-127962779D01*
X140298914Y-128992185D01*
X140332399Y-129053508D01*
X140327415Y-129123200D01*
X140285543Y-129179133D01*
X140220079Y-129203550D01*
X140211737Y-129203865D01*
X121075004Y-129281691D01*
X121007885Y-129262279D01*
X120961916Y-129209662D01*
X120950500Y-129157692D01*
X120950500Y-115935729D01*
X123159500Y-115935729D01*
X123159500Y-117744260D01*
X123159501Y-117744266D01*
X123162354Y-117774700D01*
X123162354Y-117774702D01*
X123162355Y-117774703D01*
X123162355Y-117774705D01*
X123207206Y-117902882D01*
X123287849Y-118012150D01*
X123332655Y-118045218D01*
X123397117Y-118092793D01*
X123439844Y-118107744D01*
X123525298Y-118137646D01*
X123532323Y-118138304D01*
X123555733Y-118140500D01*
X125364266Y-118140499D01*
X125394700Y-118137646D01*
X125522883Y-118092793D01*
X125632150Y-118012150D01*
X125712793Y-117902883D01*
X125737608Y-117831966D01*
X125757646Y-117774702D01*
X125757646Y-117774700D01*
X125760500Y-117744267D01*
X125760499Y-115935734D01*
X125757646Y-115905300D01*
X125712793Y-115777117D01*
X125676331Y-115727713D01*
X125632150Y-115667849D01*
X125530617Y-115592915D01*
X125522883Y-115587207D01*
X125522881Y-115587206D01*
X125394701Y-115542353D01*
X125364270Y-115539500D01*
X123555739Y-115539500D01*
X123541751Y-115540811D01*
X123525300Y-115542354D01*
X123525297Y-115542354D01*
X123525296Y-115542355D01*
X123525294Y-115542355D01*
X123397117Y-115587206D01*
X123287849Y-115667849D01*
X123207206Y-115777118D01*
X123162353Y-115905297D01*
X123162353Y-115905299D01*
X123159500Y-115935729D01*
X120950500Y-115935729D01*
X120950500Y-108315729D01*
X123159500Y-108315729D01*
X123159500Y-110124260D01*
X123159501Y-110124266D01*
X123162354Y-110154700D01*
X123162354Y-110154702D01*
X123162355Y-110154703D01*
X123162355Y-110154705D01*
X123207206Y-110282882D01*
X123287849Y-110392150D01*
X123332655Y-110425218D01*
X123397117Y-110472793D01*
X123439844Y-110487744D01*
X123525298Y-110517646D01*
X123532323Y-110518304D01*
X123555733Y-110520500D01*
X125364266Y-110520499D01*
X125394700Y-110517646D01*
X125522883Y-110472793D01*
X125632150Y-110392150D01*
X125712793Y-110282883D01*
X125755407Y-110161100D01*
X125757646Y-110154702D01*
X125757646Y-110154700D01*
X125760500Y-110124267D01*
X125760499Y-108315734D01*
X125757646Y-108285300D01*
X125712793Y-108157117D01*
X125676331Y-108107713D01*
X125632150Y-108047849D01*
X125530617Y-107972915D01*
X125522883Y-107967207D01*
X125522881Y-107967206D01*
X125394701Y-107922353D01*
X125364270Y-107919500D01*
X123555739Y-107919500D01*
X123541751Y-107920811D01*
X123525300Y-107922354D01*
X123525297Y-107922354D01*
X123525296Y-107922355D01*
X123525294Y-107922355D01*
X123397117Y-107967206D01*
X123287849Y-108047849D01*
X123207206Y-108157118D01*
X123162353Y-108285297D01*
X123162353Y-108285299D01*
X123159500Y-108315729D01*
X120950500Y-108315729D01*
X120950500Y-107957533D01*
X120970185Y-107890494D01*
X120986819Y-107869852D01*
X121315431Y-107541240D01*
X125970460Y-102886211D01*
X126002660Y-102830438D01*
X126010021Y-102817689D01*
X126030500Y-102741262D01*
X126030500Y-102641315D01*
X126050185Y-102574276D01*
X126102989Y-102528521D01*
X126107002Y-102526773D01*
X126203914Y-102486632D01*
X126367782Y-102377139D01*
X126507139Y-102237782D01*
X126616632Y-102073914D01*
X126692051Y-101891835D01*
X126725175Y-101725313D01*
X126730500Y-101698543D01*
X126730500Y-101501456D01*
X126692052Y-101308170D01*
X126692051Y-101308169D01*
X126692051Y-101308165D01*
X126692049Y-101308160D01*
X126616635Y-101126092D01*
X126616628Y-101126079D01*
X126507139Y-100962218D01*
X126507136Y-100962214D01*
X126367785Y-100822863D01*
X126367781Y-100822860D01*
X126203920Y-100713371D01*
X126203910Y-100713366D01*
X126107047Y-100673244D01*
X126052644Y-100629403D01*
X126030579Y-100563109D01*
X126030500Y-100558683D01*
X126030500Y-97965833D01*
X126050185Y-97898794D01*
X126066819Y-97878152D01*
X131468152Y-92476819D01*
X131529475Y-92443334D01*
X131555833Y-92440500D01*
X132684270Y-92440500D01*
X132714699Y-92437646D01*
X132714701Y-92437646D01*
X132792009Y-92410594D01*
X132842882Y-92392793D01*
X132952150Y-92312150D01*
X133032793Y-92202882D01*
X133069807Y-92097103D01*
X133077646Y-92074701D01*
X133077646Y-92074699D01*
X133080500Y-92044269D01*
X133080500Y-90835730D01*
X133077646Y-90805300D01*
X133077646Y-90805298D01*
X133042221Y-90704062D01*
X133032793Y-90677118D01*
X132952150Y-90567850D01*
X132842882Y-90487207D01*
X132842880Y-90487206D01*
X132714700Y-90442353D01*
X132684270Y-90439500D01*
X132684266Y-90439500D01*
X132504500Y-90439500D01*
X132437461Y-90419815D01*
X132391706Y-90367011D01*
X132380500Y-90315500D01*
X132380500Y-77241315D01*
X132400185Y-77174276D01*
X132452989Y-77128521D01*
X132457002Y-77126773D01*
X132553914Y-77086632D01*
X132717782Y-76977139D01*
X132857139Y-76837782D01*
X132966632Y-76673914D01*
X132968139Y-76670277D01*
X133000222Y-76592820D01*
X133042051Y-76491835D01*
X133056885Y-76417258D01*
X133080500Y-76298543D01*
X133080500Y-76101456D01*
X133042052Y-75908170D01*
X133042051Y-75908169D01*
X133042051Y-75908165D01*
X133042049Y-75908160D01*
X132966635Y-75726092D01*
X132966628Y-75726079D01*
X132857139Y-75562218D01*
X132857136Y-75562214D01*
X132717785Y-75422863D01*
X132717781Y-75422860D01*
X132553920Y-75313371D01*
X132553907Y-75313364D01*
X132371839Y-75237950D01*
X132371829Y-75237947D01*
X132178543Y-75199500D01*
X132178541Y-75199500D01*
X131981459Y-75199500D01*
X131981457Y-75199500D01*
X131788170Y-75237947D01*
X131788160Y-75237950D01*
X131606092Y-75313364D01*
X131606079Y-75313371D01*
X131442218Y-75422860D01*
X131442214Y-75422863D01*
X131302863Y-75562214D01*
X131302860Y-75562218D01*
X131193371Y-75726079D01*
X131193364Y-75726092D01*
X131117950Y-75908160D01*
X131117947Y-75908170D01*
X131079500Y-76101456D01*
X131079500Y-76101459D01*
X131079500Y-76298541D01*
X131079500Y-76298543D01*
X131079499Y-76298543D01*
X131117947Y-76491829D01*
X131117950Y-76491839D01*
X131193364Y-76673907D01*
X131193371Y-76673920D01*
X131302860Y-76837781D01*
X131302863Y-76837785D01*
X131442217Y-76977139D01*
X131514562Y-77025478D01*
X131606086Y-77086632D01*
X131702953Y-77126755D01*
X131757355Y-77170594D01*
X131779421Y-77236888D01*
X131779500Y-77241315D01*
X131779500Y-90315500D01*
X131776949Y-90324185D01*
X131778238Y-90333147D01*
X131767259Y-90357187D01*
X131759815Y-90382539D01*
X131752974Y-90388466D01*
X131749213Y-90396703D01*
X131726978Y-90410992D01*
X131707011Y-90428294D01*
X131696496Y-90430581D01*
X131690435Y-90434477D01*
X131655500Y-90439500D01*
X131555833Y-90439500D01*
X131488794Y-90419815D01*
X131468152Y-90403181D01*
X127412619Y-86347648D01*
X127379134Y-86286325D01*
X127376300Y-86259967D01*
X127376300Y-85952415D01*
X127395985Y-85885376D01*
X127448789Y-85839621D01*
X127452802Y-85837873D01*
X127549714Y-85797732D01*
X127713582Y-85688239D01*
X127852939Y-85548882D01*
X127962432Y-85385014D01*
X128037851Y-85202935D01*
X128076300Y-85009641D01*
X128076300Y-84812559D01*
X128076300Y-84812556D01*
X128037852Y-84619270D01*
X128037851Y-84619269D01*
X128037851Y-84619265D01*
X128037849Y-84619260D01*
X127962435Y-84437192D01*
X127962428Y-84437179D01*
X127852939Y-84273318D01*
X127852936Y-84273314D01*
X127713585Y-84133963D01*
X127713581Y-84133960D01*
X127549720Y-84024471D01*
X127549707Y-84024464D01*
X127367639Y-83949050D01*
X127367630Y-83949047D01*
X127298686Y-83935333D01*
X127236776Y-83902947D01*
X127202202Y-83842231D01*
X127205943Y-83772461D01*
X127246810Y-83715790D01*
X127303482Y-83691242D01*
X127380223Y-83679088D01*
X127574831Y-83615855D01*
X127757149Y-83522959D01*
X127801721Y-83490574D01*
X127122247Y-82811100D01*
X127128461Y-82811100D01*
X127230194Y-82783841D01*
X127321406Y-82731180D01*
X127395880Y-82656706D01*
X127448541Y-82565494D01*
X127475800Y-82463761D01*
X127475800Y-82457547D01*
X128155274Y-83137021D01*
X128187659Y-83092449D01*
X128280555Y-82910131D01*
X128343790Y-82715517D01*
X128375800Y-82513417D01*
X128375800Y-82308782D01*
X128343790Y-82106682D01*
X128280555Y-81912068D01*
X128187659Y-81729750D01*
X128155274Y-81685177D01*
X128155274Y-81685176D01*
X127475800Y-82364651D01*
X127475800Y-82358439D01*
X127448541Y-82256706D01*
X127395880Y-82165494D01*
X127321406Y-82091020D01*
X127230194Y-82038359D01*
X127128461Y-82011100D01*
X127122246Y-82011100D01*
X127801722Y-81331624D01*
X127801721Y-81331623D01*
X127757159Y-81299247D01*
X127757150Y-81299241D01*
X127574831Y-81206344D01*
X127380217Y-81143109D01*
X127178117Y-81111100D01*
X126973483Y-81111100D01*
X126771382Y-81143109D01*
X126576768Y-81206344D01*
X126394444Y-81299243D01*
X126349877Y-81331623D01*
X126349877Y-81331624D01*
X127029354Y-82011100D01*
X127023139Y-82011100D01*
X126921406Y-82038359D01*
X126830194Y-82091020D01*
X126755720Y-82165494D01*
X126703059Y-82256706D01*
X126675800Y-82358439D01*
X126675800Y-82364653D01*
X125996324Y-81685177D01*
X125996323Y-81685177D01*
X125963943Y-81729744D01*
X125871044Y-81912068D01*
X125807809Y-82106682D01*
X125775800Y-82308782D01*
X125775800Y-82513417D01*
X125807809Y-82715517D01*
X125871044Y-82910131D01*
X125963941Y-83092450D01*
X125963947Y-83092459D01*
X125996323Y-83137021D01*
X125996324Y-83137022D01*
X126675800Y-82457546D01*
X126675800Y-82463761D01*
X126703059Y-82565494D01*
X126755720Y-82656706D01*
X126830194Y-82731180D01*
X126921406Y-82783841D01*
X127023139Y-82811100D01*
X127029353Y-82811100D01*
X126349876Y-83490574D01*
X126394450Y-83522959D01*
X126576768Y-83615855D01*
X126771376Y-83679088D01*
X126848117Y-83691242D01*
X126911252Y-83721171D01*
X126948184Y-83780483D01*
X126947186Y-83850345D01*
X126908577Y-83908578D01*
X126852913Y-83935333D01*
X126783969Y-83949047D01*
X126783960Y-83949050D01*
X126601892Y-84024464D01*
X126601879Y-84024471D01*
X126438018Y-84133960D01*
X126438014Y-84133963D01*
X126298663Y-84273314D01*
X126298660Y-84273318D01*
X126189171Y-84437179D01*
X126189164Y-84437192D01*
X126113750Y-84619260D01*
X126113747Y-84619270D01*
X126075300Y-84812556D01*
X126075300Y-84812559D01*
X126075300Y-85009641D01*
X126075300Y-85009643D01*
X126075299Y-85009643D01*
X126113747Y-85202929D01*
X126113750Y-85202939D01*
X126189164Y-85385007D01*
X126189171Y-85385020D01*
X126298660Y-85548881D01*
X126298663Y-85548885D01*
X126438017Y-85688239D01*
X126601880Y-85797728D01*
X126601886Y-85797732D01*
X126698753Y-85837855D01*
X126753155Y-85881694D01*
X126775221Y-85947988D01*
X126775300Y-85952415D01*
X126775300Y-86475362D01*
X126788952Y-86526313D01*
X126795779Y-86551790D01*
X126795782Y-86551795D01*
X126835335Y-86620304D01*
X126835341Y-86620312D01*
X131043181Y-90828152D01*
X131076666Y-90889475D01*
X131079500Y-90915833D01*
X131079500Y-91964167D01*
X131059815Y-92031206D01*
X131043181Y-92051848D01*
X125489541Y-97605487D01*
X125489535Y-97605495D01*
X125449982Y-97674004D01*
X125449979Y-97674009D01*
X125429500Y-97750439D01*
X125429500Y-100558683D01*
X125409815Y-100625722D01*
X125357011Y-100671477D01*
X125352953Y-100673244D01*
X125256089Y-100713366D01*
X125256079Y-100713371D01*
X125092218Y-100822860D01*
X125092214Y-100822863D01*
X124952863Y-100962214D01*
X124952860Y-100962218D01*
X124843371Y-101126079D01*
X124843364Y-101126092D01*
X124767950Y-101308160D01*
X124767947Y-101308170D01*
X124729500Y-101501456D01*
X124729500Y-101501459D01*
X124729500Y-101698541D01*
X124729500Y-101698543D01*
X124729499Y-101698543D01*
X124767947Y-101891829D01*
X124767950Y-101891839D01*
X124843364Y-102073907D01*
X124843371Y-102073920D01*
X124952860Y-102237781D01*
X124952863Y-102237785D01*
X125092217Y-102377139D01*
X125256080Y-102486628D01*
X125256086Y-102486632D01*
X125271315Y-102492940D01*
X125325718Y-102536776D01*
X125347786Y-102603070D01*
X125330510Y-102670770D01*
X125311546Y-102695182D01*
X120465489Y-107541240D01*
X120409541Y-107597187D01*
X120409535Y-107597195D01*
X120369982Y-107665704D01*
X120369979Y-107665709D01*
X120349500Y-107742139D01*
X120349500Y-126824166D01*
X120329815Y-126891205D01*
X120313181Y-126911847D01*
X117966658Y-129258369D01*
X117905335Y-129291854D01*
X117879481Y-129294687D01*
X113870210Y-129310992D01*
X113803091Y-129291580D01*
X113757122Y-129238963D01*
X113745707Y-129186986D01*
X113748659Y-101698543D01*
X114569499Y-101698543D01*
X114607947Y-101891829D01*
X114607950Y-101891839D01*
X114683364Y-102073907D01*
X114683371Y-102073920D01*
X114792860Y-102237781D01*
X114792863Y-102237785D01*
X114932214Y-102377136D01*
X114932218Y-102377139D01*
X115096079Y-102486628D01*
X115096092Y-102486635D01*
X115246188Y-102548806D01*
X115278165Y-102562051D01*
X115278169Y-102562051D01*
X115278170Y-102562052D01*
X115471456Y-102600500D01*
X115471459Y-102600500D01*
X115668543Y-102600500D01*
X115800376Y-102574276D01*
X115861835Y-102562051D01*
X115958702Y-102521926D01*
X116028169Y-102514457D01*
X116090649Y-102545731D01*
X116093835Y-102548806D01*
X116503181Y-102958152D01*
X116536666Y-103019475D01*
X116539500Y-103045833D01*
X116539500Y-107860121D01*
X116519815Y-107927160D01*
X116467011Y-107972915D01*
X116453818Y-107978052D01*
X116340778Y-108014781D01*
X116158386Y-108107715D01*
X115992786Y-108228028D01*
X115848028Y-108372786D01*
X115727715Y-108538386D01*
X115634781Y-108720776D01*
X115571522Y-108915465D01*
X115539500Y-109117648D01*
X115539500Y-109322351D01*
X115571522Y-109524534D01*
X115634781Y-109719223D01*
X115727715Y-109901613D01*
X115848028Y-110067213D01*
X115992786Y-110211971D01*
X116146023Y-110323302D01*
X116158390Y-110332287D01*
X116340781Y-110425220D01*
X116448852Y-110460334D01*
X116453818Y-110461948D01*
X116511494Y-110501386D01*
X116538692Y-110565744D01*
X116539500Y-110579879D01*
X116539500Y-115480121D01*
X116519815Y-115547160D01*
X116467011Y-115592915D01*
X116453818Y-115598052D01*
X116340778Y-115634781D01*
X116158386Y-115727715D01*
X115992786Y-115848028D01*
X115848028Y-115992786D01*
X115727715Y-116158386D01*
X115634781Y-116340776D01*
X115571522Y-116535465D01*
X115539500Y-116737648D01*
X115539500Y-116942351D01*
X115571522Y-117144534D01*
X115634781Y-117339223D01*
X115727715Y-117521613D01*
X115848028Y-117687213D01*
X115992786Y-117831971D01*
X116147749Y-117944556D01*
X116158390Y-117952287D01*
X116274607Y-118011503D01*
X116340776Y-118045218D01*
X116340778Y-118045218D01*
X116340781Y-118045220D01*
X116445137Y-118079127D01*
X116535465Y-118108477D01*
X116636557Y-118124488D01*
X116737648Y-118140500D01*
X116737649Y-118140500D01*
X116942351Y-118140500D01*
X116942352Y-118140500D01*
X117144534Y-118108477D01*
X117339219Y-118045220D01*
X117521610Y-117952287D01*
X117614590Y-117884732D01*
X117687213Y-117831971D01*
X117687215Y-117831968D01*
X117687219Y-117831966D01*
X117831966Y-117687219D01*
X117831968Y-117687215D01*
X117831971Y-117687213D01*
X117884732Y-117614590D01*
X117952287Y-117521610D01*
X118045220Y-117339219D01*
X118108477Y-117144534D01*
X118140500Y-116942352D01*
X118140500Y-116737648D01*
X118108477Y-116535466D01*
X118045220Y-116340781D01*
X118045218Y-116340778D01*
X118045218Y-116340776D01*
X118011503Y-116274607D01*
X117952287Y-116158390D01*
X117889439Y-116071886D01*
X117831971Y-115992786D01*
X117687213Y-115848028D01*
X117521613Y-115727715D01*
X117521612Y-115727714D01*
X117521610Y-115727713D01*
X117339219Y-115634780D01*
X117226182Y-115598052D01*
X117168506Y-115558614D01*
X117141308Y-115494256D01*
X117140500Y-115480121D01*
X117140500Y-110579879D01*
X117160185Y-110512840D01*
X117212989Y-110467085D01*
X117226182Y-110461948D01*
X117229992Y-110460709D01*
X117339219Y-110425220D01*
X117521610Y-110332287D01*
X117628974Y-110254283D01*
X117687213Y-110211971D01*
X117687215Y-110211968D01*
X117687219Y-110211966D01*
X117831966Y-110067219D01*
X117831968Y-110067215D01*
X117831971Y-110067213D01*
X117926502Y-109937100D01*
X117952287Y-109901610D01*
X118045220Y-109719219D01*
X118108477Y-109524534D01*
X118140500Y-109322352D01*
X118140500Y-109117648D01*
X118108477Y-108915466D01*
X118045220Y-108720781D01*
X118045218Y-108720778D01*
X118045218Y-108720776D01*
X117999484Y-108631019D01*
X117952287Y-108538390D01*
X117944556Y-108527749D01*
X117831971Y-108372786D01*
X117687213Y-108228028D01*
X117521613Y-108107715D01*
X117521612Y-108107714D01*
X117521610Y-108107713D01*
X117339219Y-108014780D01*
X117226182Y-107978052D01*
X117168506Y-107938614D01*
X117141308Y-107874256D01*
X117140500Y-107860121D01*
X117140500Y-102830438D01*
X117137084Y-102817689D01*
X117120021Y-102754011D01*
X117120017Y-102754004D01*
X117080464Y-102685495D01*
X117080458Y-102685487D01*
X116518806Y-102123835D01*
X116485321Y-102062512D01*
X116490305Y-101992820D01*
X116491910Y-101988743D01*
X116532051Y-101891835D01*
X116565175Y-101725313D01*
X116570500Y-101698543D01*
X116570500Y-101501456D01*
X116532052Y-101308170D01*
X116532051Y-101308169D01*
X116532051Y-101308165D01*
X116532049Y-101308160D01*
X116456635Y-101126092D01*
X116456628Y-101126079D01*
X116347139Y-100962218D01*
X116347136Y-100962214D01*
X116207785Y-100822863D01*
X116207781Y-100822860D01*
X116043920Y-100713371D01*
X116043907Y-100713364D01*
X115861839Y-100637950D01*
X115861829Y-100637947D01*
X115668543Y-100599500D01*
X115668541Y-100599500D01*
X115471459Y-100599500D01*
X115471457Y-100599500D01*
X115278170Y-100637947D01*
X115278160Y-100637950D01*
X115096092Y-100713364D01*
X115096079Y-100713371D01*
X114932218Y-100822860D01*
X114932214Y-100822863D01*
X114792863Y-100962214D01*
X114792860Y-100962218D01*
X114683371Y-101126079D01*
X114683364Y-101126092D01*
X114607950Y-101308160D01*
X114607947Y-101308170D01*
X114569500Y-101501456D01*
X114569500Y-101501459D01*
X114569500Y-101698541D01*
X114569500Y-101698543D01*
X114569499Y-101698543D01*
X113748659Y-101698543D01*
X113752750Y-63598543D01*
X123459499Y-63598543D01*
X123497947Y-63791829D01*
X123497950Y-63791839D01*
X123573364Y-63973907D01*
X123573371Y-63973920D01*
X123682860Y-64137781D01*
X123682863Y-64137785D01*
X123822214Y-64277136D01*
X123822218Y-64277139D01*
X123986079Y-64386628D01*
X123986092Y-64386635D01*
X124117903Y-64441232D01*
X124168165Y-64462051D01*
X124168169Y-64462051D01*
X124168170Y-64462052D01*
X124361456Y-64500500D01*
X124361459Y-64500500D01*
X124558543Y-64500500D01*
X124708887Y-64470594D01*
X124751835Y-64462051D01*
X124933914Y-64386632D01*
X125097782Y-64277139D01*
X125237139Y-64137782D01*
X125346632Y-63973914D01*
X125422051Y-63791835D01*
X125460500Y-63598543D01*
X133619499Y-63598543D01*
X133657947Y-63791829D01*
X133657950Y-63791839D01*
X133733364Y-63973907D01*
X133733371Y-63973920D01*
X133842860Y-64137781D01*
X133842863Y-64137785D01*
X133982217Y-64277139D01*
X134075419Y-64339414D01*
X134146086Y-64386632D01*
X134242953Y-64426755D01*
X134297355Y-64470594D01*
X134319421Y-64536888D01*
X134319500Y-64541315D01*
X134319500Y-75158683D01*
X134299815Y-75225722D01*
X134247011Y-75271477D01*
X134242953Y-75273244D01*
X134146089Y-75313366D01*
X134146079Y-75313371D01*
X133982218Y-75422860D01*
X133982214Y-75422863D01*
X133842863Y-75562214D01*
X133842860Y-75562218D01*
X133733371Y-75726079D01*
X133733364Y-75726092D01*
X133657950Y-75908160D01*
X133657947Y-75908170D01*
X133619500Y-76101456D01*
X133619500Y-76101459D01*
X133619500Y-76298541D01*
X133619500Y-76298543D01*
X133619499Y-76298543D01*
X133657947Y-76491829D01*
X133657950Y-76491839D01*
X133733364Y-76673907D01*
X133733371Y-76673920D01*
X133842860Y-76837781D01*
X133842863Y-76837785D01*
X133982214Y-76977136D01*
X133982218Y-76977139D01*
X134146079Y-77086628D01*
X134146092Y-77086635D01*
X134296188Y-77148806D01*
X134328165Y-77162051D01*
X134328169Y-77162051D01*
X134328170Y-77162052D01*
X134521456Y-77200500D01*
X134521459Y-77200500D01*
X134718543Y-77200500D01*
X134868887Y-77170594D01*
X134911835Y-77162051D01*
X135093914Y-77086632D01*
X135257782Y-76977139D01*
X135397139Y-76837782D01*
X135506632Y-76673914D01*
X135508139Y-76670277D01*
X135540222Y-76592820D01*
X135582051Y-76491835D01*
X135596885Y-76417258D01*
X135620500Y-76298543D01*
X135620500Y-76101456D01*
X135582052Y-75908170D01*
X135582051Y-75908169D01*
X135582051Y-75908165D01*
X135582049Y-75908160D01*
X135506635Y-75726092D01*
X135506628Y-75726079D01*
X135397139Y-75562218D01*
X135397136Y-75562214D01*
X135257785Y-75422863D01*
X135257781Y-75422860D01*
X135093920Y-75313371D01*
X135093910Y-75313366D01*
X134997047Y-75273244D01*
X134942644Y-75229403D01*
X134920579Y-75163109D01*
X134920500Y-75158683D01*
X134920500Y-64541315D01*
X134940185Y-64474276D01*
X134992989Y-64428521D01*
X134997002Y-64426773D01*
X135093914Y-64386632D01*
X135257782Y-64277139D01*
X135397139Y-64137782D01*
X135506632Y-63973914D01*
X135582051Y-63791835D01*
X135620500Y-63598541D01*
X135620500Y-63413389D01*
X147435444Y-63413389D01*
X147435444Y-63586610D01*
X147449236Y-63673694D01*
X147462542Y-63757701D01*
X147516071Y-63922445D01*
X147594712Y-64076788D01*
X147696530Y-64216928D01*
X147819016Y-64339414D01*
X147959156Y-64441232D01*
X148113499Y-64519873D01*
X148278243Y-64573402D01*
X148449333Y-64600500D01*
X148449334Y-64600500D01*
X148622554Y-64600500D01*
X148622555Y-64600500D01*
X148793645Y-64573402D01*
X148958389Y-64519873D01*
X149112732Y-64441232D01*
X149252872Y-64339414D01*
X149375358Y-64216928D01*
X149451626Y-64111953D01*
X149506956Y-64069289D01*
X149576570Y-64063310D01*
X149638365Y-64095916D01*
X149672722Y-64156755D01*
X149675944Y-64184840D01*
X149675944Y-64447844D01*
X149682345Y-64507372D01*
X149682347Y-64507379D01*
X149732589Y-64642086D01*
X149732593Y-64642093D01*
X149818753Y-64757187D01*
X149818756Y-64757190D01*
X149933850Y-64843350D01*
X149933857Y-64843354D01*
X150068564Y-64893596D01*
X150068571Y-64893598D01*
X150128099Y-64899999D01*
X150128116Y-64900000D01*
X150825944Y-64900000D01*
X150825944Y-63875277D01*
X150902250Y-63919333D01*
X151016700Y-63950000D01*
X151135188Y-63950000D01*
X151249638Y-63919333D01*
X151325944Y-63875277D01*
X151325944Y-64900000D01*
X152023772Y-64900000D01*
X152023788Y-64899999D01*
X152083316Y-64893598D01*
X152083323Y-64893596D01*
X152218030Y-64843354D01*
X152218037Y-64843350D01*
X152333131Y-64757190D01*
X152333134Y-64757187D01*
X152419294Y-64642093D01*
X152419298Y-64642086D01*
X152469540Y-64507379D01*
X152469542Y-64507372D01*
X152475943Y-64447844D01*
X152475944Y-64447827D01*
X152475944Y-63750000D01*
X151451222Y-63750000D01*
X151495277Y-63673694D01*
X151525944Y-63559244D01*
X151525944Y-63440756D01*
X151495277Y-63326306D01*
X151451222Y-63250000D01*
X152475944Y-63250000D01*
X152475944Y-62552172D01*
X152475943Y-62552155D01*
X152469542Y-62492627D01*
X152469540Y-62492620D01*
X152419298Y-62357913D01*
X152419294Y-62357906D01*
X152333134Y-62242812D01*
X152333131Y-62242809D01*
X152218037Y-62156649D01*
X152218030Y-62156645D01*
X152083323Y-62106403D01*
X152083316Y-62106401D01*
X152023788Y-62100000D01*
X151325944Y-62100000D01*
X151325944Y-63124722D01*
X151249638Y-63080667D01*
X151135188Y-63050000D01*
X151016700Y-63050000D01*
X150902250Y-63080667D01*
X150825944Y-63124722D01*
X150825944Y-62100000D01*
X150128099Y-62100000D01*
X150068571Y-62106401D01*
X150068564Y-62106403D01*
X149933857Y-62156645D01*
X149933850Y-62156649D01*
X149818756Y-62242809D01*
X149818753Y-62242812D01*
X149732593Y-62357906D01*
X149732589Y-62357913D01*
X149682347Y-62492620D01*
X149682345Y-62492627D01*
X149675944Y-62552155D01*
X149675944Y-62815159D01*
X149656259Y-62882198D01*
X149603455Y-62927953D01*
X149534297Y-62937897D01*
X149470741Y-62908872D01*
X149451626Y-62888045D01*
X149419225Y-62843450D01*
X149375358Y-62783072D01*
X149252872Y-62660586D01*
X149112732Y-62558768D01*
X148958389Y-62480127D01*
X148793645Y-62426598D01*
X148793643Y-62426597D01*
X148793642Y-62426597D01*
X148662215Y-62405781D01*
X148622555Y-62399500D01*
X148449333Y-62399500D01*
X148409672Y-62405781D01*
X148278246Y-62426597D01*
X148113496Y-62480128D01*
X147959155Y-62558768D01*
X147884011Y-62613364D01*
X147819016Y-62660586D01*
X147819014Y-62660588D01*
X147819013Y-62660588D01*
X147696532Y-62783069D01*
X147696532Y-62783070D01*
X147696530Y-62783072D01*
X147652803Y-62843256D01*
X147594712Y-62923211D01*
X147516072Y-63077552D01*
X147462541Y-63242302D01*
X147435444Y-63413389D01*
X135620500Y-63413389D01*
X135620500Y-63401459D01*
X135620500Y-63401456D01*
X135582052Y-63208170D01*
X135582051Y-63208169D01*
X135582051Y-63208165D01*
X135527950Y-63077552D01*
X135506635Y-63026092D01*
X135506628Y-63026079D01*
X135397139Y-62862218D01*
X135397136Y-62862214D01*
X135257785Y-62722863D01*
X135257781Y-62722860D01*
X135093920Y-62613371D01*
X135093907Y-62613364D01*
X134911839Y-62537950D01*
X134911829Y-62537947D01*
X134718543Y-62499500D01*
X134718541Y-62499500D01*
X134521459Y-62499500D01*
X134521457Y-62499500D01*
X134328170Y-62537947D01*
X134328160Y-62537950D01*
X134146092Y-62613364D01*
X134146079Y-62613371D01*
X133982218Y-62722860D01*
X133982214Y-62722863D01*
X133842863Y-62862214D01*
X133842860Y-62862218D01*
X133733371Y-63026079D01*
X133733364Y-63026092D01*
X133657950Y-63208160D01*
X133657947Y-63208170D01*
X133619500Y-63401456D01*
X133619500Y-63401459D01*
X133619500Y-63598541D01*
X133619500Y-63598543D01*
X133619499Y-63598543D01*
X125460500Y-63598543D01*
X125460500Y-63598541D01*
X125460500Y-63401459D01*
X125460500Y-63401456D01*
X125422052Y-63208170D01*
X125422051Y-63208169D01*
X125422051Y-63208165D01*
X125367950Y-63077552D01*
X125346635Y-63026092D01*
X125346628Y-63026079D01*
X125237139Y-62862218D01*
X125237136Y-62862214D01*
X125097785Y-62722863D01*
X125097781Y-62722860D01*
X124933920Y-62613371D01*
X124933907Y-62613364D01*
X124751839Y-62537950D01*
X124751829Y-62537947D01*
X124558543Y-62499500D01*
X124558541Y-62499500D01*
X124361459Y-62499500D01*
X124361457Y-62499500D01*
X124168170Y-62537947D01*
X124168160Y-62537950D01*
X123986092Y-62613364D01*
X123986079Y-62613371D01*
X123822218Y-62722860D01*
X123822214Y-62722863D01*
X123682863Y-62862214D01*
X123682860Y-62862218D01*
X123573371Y-63026079D01*
X123573364Y-63026092D01*
X123497950Y-63208160D01*
X123497947Y-63208170D01*
X123459500Y-63401456D01*
X123459500Y-63401459D01*
X123459500Y-63598541D01*
X123459500Y-63598543D01*
X123459499Y-63598543D01*
X113752750Y-63598543D01*
X113753325Y-58249244D01*
X139199500Y-58249244D01*
X139199500Y-58590755D01*
X139237734Y-58930092D01*
X139237736Y-58930108D01*
X139313726Y-59263044D01*
X139313730Y-59263056D01*
X139426515Y-59585375D01*
X139426524Y-59585397D01*
X139574686Y-59893059D01*
X139574690Y-59893065D01*
X139756380Y-60182222D01*
X139969303Y-60449219D01*
X140210781Y-60690697D01*
X140477778Y-60903620D01*
X140581642Y-60968882D01*
X140766940Y-61085313D01*
X141074602Y-61233475D01*
X141074611Y-61233478D01*
X141074618Y-61233482D01*
X141074624Y-61233484D01*
X141396943Y-61346269D01*
X141396955Y-61346273D01*
X141729895Y-61422264D01*
X142069245Y-61460499D01*
X142069246Y-61460500D01*
X142069249Y-61460500D01*
X142410754Y-61460500D01*
X142410754Y-61460499D01*
X142750105Y-61422264D01*
X143083045Y-61346273D01*
X143405382Y-61233482D01*
X143567275Y-61155519D01*
X143713059Y-61085313D01*
X143713059Y-61085312D01*
X143713065Y-61085310D01*
X144002222Y-60903620D01*
X144269219Y-60690697D01*
X144510697Y-60449219D01*
X144723620Y-60182222D01*
X144905310Y-59893065D01*
X145053482Y-59585382D01*
X145166273Y-59263045D01*
X145242264Y-58930105D01*
X145280500Y-58590751D01*
X145280500Y-58249249D01*
X145242264Y-57909895D01*
X145166273Y-57576955D01*
X145053482Y-57254618D01*
X145053478Y-57254611D01*
X145053475Y-57254602D01*
X144905313Y-56946940D01*
X144765367Y-56724218D01*
X144723620Y-56657778D01*
X144510697Y-56390781D01*
X144269219Y-56149303D01*
X144002222Y-55936380D01*
X143713065Y-55754690D01*
X143713066Y-55754690D01*
X143713059Y-55754686D01*
X143405397Y-55606524D01*
X143405375Y-55606515D01*
X143083056Y-55493730D01*
X143083044Y-55493726D01*
X142750108Y-55417736D01*
X142750092Y-55417734D01*
X142410755Y-55379500D01*
X142410751Y-55379500D01*
X142069249Y-55379500D01*
X142069244Y-55379500D01*
X141729907Y-55417734D01*
X141729891Y-55417736D01*
X141396955Y-55493726D01*
X141396943Y-55493730D01*
X141074624Y-55606515D01*
X141074602Y-55606524D01*
X140766940Y-55754686D01*
X140477779Y-55936379D01*
X140210781Y-56149302D01*
X139969302Y-56390781D01*
X139756379Y-56657779D01*
X139574686Y-56946940D01*
X139426524Y-57254602D01*
X139426515Y-57254624D01*
X139313730Y-57576943D01*
X139313726Y-57576955D01*
X139237736Y-57909891D01*
X139237734Y-57909907D01*
X139199500Y-58249244D01*
X113753325Y-58249244D01*
X113753673Y-55005815D01*
X113753681Y-55005789D01*
X113753681Y-54946843D01*
X113753682Y-54946839D01*
X113754461Y-54932975D01*
X113761100Y-54874055D01*
X113764640Y-54842639D01*
X113770817Y-54815576D01*
X113798531Y-54736382D01*
X113810577Y-54711371D01*
X113855220Y-54640328D01*
X113872525Y-54618628D01*
X113931866Y-54559292D01*
X113953557Y-54541996D01*
X114024616Y-54497352D01*
X114049615Y-54485315D01*
X114128822Y-54457606D01*
X114155881Y-54451432D01*
X114247006Y-54441171D01*
X114260861Y-54440393D01*
X114319033Y-54440399D01*
X114319055Y-54440393D01*
X170233847Y-54440393D01*
X170247731Y-54441172D01*
G37*
%TD.AperFunction*%
%TA.AperFunction,Conductor*%
G36*
X138795216Y-109286610D02*
G01*
X138801694Y-109292642D01*
X143038781Y-113529729D01*
X143072266Y-113591052D01*
X143075100Y-113617410D01*
X143075100Y-128678291D01*
X143090091Y-128734238D01*
X143095578Y-128754715D01*
X143095580Y-128754721D01*
X143100592Y-128763400D01*
X143100594Y-128763408D01*
X143100596Y-128763407D01*
X143135139Y-128823238D01*
X143135141Y-128823241D01*
X143291913Y-128980013D01*
X143325398Y-129041336D01*
X143320414Y-129111028D01*
X143278542Y-129166961D01*
X143213078Y-129191378D01*
X143204736Y-129191693D01*
X141365218Y-129199174D01*
X141298099Y-129179762D01*
X141252130Y-129127145D01*
X141250152Y-129122625D01*
X141250023Y-129122314D01*
X141237608Y-129100811D01*
X141210460Y-129053789D01*
X138980619Y-126823948D01*
X138947134Y-126762625D01*
X138944300Y-126736267D01*
X138944300Y-111020276D01*
X138963985Y-110953237D01*
X138980619Y-110932595D01*
X139044300Y-110868914D01*
X139110192Y-110754786D01*
X139144300Y-110627492D01*
X139144300Y-110495708D01*
X139110192Y-110368414D01*
X139044300Y-110254286D01*
X138951114Y-110161100D01*
X138887316Y-110124266D01*
X138836987Y-110095208D01*
X138773339Y-110078154D01*
X138709692Y-110061100D01*
X138709691Y-110061100D01*
X138701632Y-110060039D01*
X138701958Y-110057560D01*
X138646974Y-110041415D01*
X138601219Y-109988611D01*
X138590013Y-109937100D01*
X138590013Y-109380323D01*
X138609698Y-109313284D01*
X138662502Y-109267529D01*
X138731660Y-109257585D01*
X138795216Y-109286610D01*
G37*
%TD.AperFunction*%
%TA.AperFunction,Conductor*%
G36*
X150925972Y-91851087D02*
G01*
X150973583Y-91902223D01*
X150986700Y-91957729D01*
X150986700Y-118924062D01*
X150987772Y-118928061D01*
X151007179Y-119000490D01*
X151007180Y-119000491D01*
X151033506Y-119046089D01*
X151046740Y-119069011D01*
X151046741Y-119069012D01*
X151048086Y-119071341D01*
X151064700Y-119133343D01*
X151064700Y-119228391D01*
X151098808Y-119355687D01*
X151131754Y-119412750D01*
X151164700Y-119469814D01*
X151257886Y-119563000D01*
X151372014Y-119628892D01*
X151499308Y-119663000D01*
X151499310Y-119663000D01*
X151631090Y-119663000D01*
X151631092Y-119663000D01*
X151758386Y-119628892D01*
X151872514Y-119563000D01*
X151887819Y-119547695D01*
X151949142Y-119514210D01*
X152018834Y-119519194D01*
X152074767Y-119561066D01*
X152099184Y-119626530D01*
X152099500Y-119635376D01*
X152099500Y-121452363D01*
X152079815Y-121519402D01*
X152045654Y-121551975D01*
X152046634Y-121553252D01*
X152040186Y-121558199D01*
X151947000Y-121651386D01*
X151881108Y-121765512D01*
X151847000Y-121892808D01*
X151847000Y-122024591D01*
X151881108Y-122151887D01*
X151914054Y-122208950D01*
X151947000Y-122266014D01*
X152040186Y-122359200D01*
X152104002Y-122396044D01*
X152154310Y-122425090D01*
X152154314Y-122425092D01*
X152281608Y-122459200D01*
X152281610Y-122459200D01*
X152413390Y-122459200D01*
X152413392Y-122459200D01*
X152540686Y-122425092D01*
X152554531Y-122417098D01*
X152590999Y-122396044D01*
X152658899Y-122379570D01*
X152724926Y-122402422D01*
X152768117Y-122457343D01*
X152777000Y-122503430D01*
X152777000Y-123492666D01*
X152757315Y-123559705D01*
X152740681Y-123580347D01*
X152045347Y-124275681D01*
X151984024Y-124309166D01*
X151957666Y-124312000D01*
X151867608Y-124312000D01*
X151740312Y-124346108D01*
X151626186Y-124412000D01*
X151626183Y-124412002D01*
X151533002Y-124505183D01*
X151533000Y-124505186D01*
X151467108Y-124619312D01*
X151433000Y-124746608D01*
X151433000Y-124878391D01*
X151467108Y-125005687D01*
X151500054Y-125062750D01*
X151533000Y-125119814D01*
X151626186Y-125213000D01*
X151708219Y-125260362D01*
X151740031Y-125278729D01*
X151740314Y-125278892D01*
X151835806Y-125304478D01*
X151895466Y-125340843D01*
X151925995Y-125403690D01*
X151917700Y-125473065D01*
X151891393Y-125511934D01*
X148410744Y-128992584D01*
X148410740Y-128992588D01*
X148405489Y-128997840D01*
X148349540Y-129053789D01*
X148313059Y-129116974D01*
X148307605Y-129123921D01*
X148286057Y-129139286D01*
X148266901Y-129157552D01*
X148257070Y-129159958D01*
X148250718Y-129164488D01*
X148235570Y-129165220D01*
X148210586Y-129171335D01*
X147840339Y-129172840D01*
X147773220Y-129153428D01*
X147727251Y-129100811D01*
X147715835Y-129048841D01*
X147715835Y-128916275D01*
X147715835Y-128916273D01*
X147681727Y-128788979D01*
X147615835Y-128674851D01*
X147522649Y-128581665D01*
X147408521Y-128515773D01*
X147404950Y-128513711D01*
X147356735Y-128463143D01*
X147343513Y-128394536D01*
X147369481Y-128329672D01*
X147379254Y-128318659D01*
X147436400Y-128261514D01*
X147502292Y-128147386D01*
X147536400Y-128020092D01*
X147536400Y-127930032D01*
X147556085Y-127862993D01*
X147572719Y-127842351D01*
X148815570Y-126599500D01*
X150129760Y-125285311D01*
X150144171Y-125260350D01*
X150169321Y-125216789D01*
X150189800Y-125140362D01*
X150189800Y-93461276D01*
X150209485Y-93394237D01*
X150226119Y-93373595D01*
X150255912Y-93343802D01*
X150289800Y-93309914D01*
X150355692Y-93195786D01*
X150389800Y-93068492D01*
X150389800Y-92936708D01*
X150355692Y-92809414D01*
X150289800Y-92695286D01*
X150196614Y-92602100D01*
X150193912Y-92600540D01*
X150192090Y-92598629D01*
X150190165Y-92597152D01*
X150190395Y-92596851D01*
X150145699Y-92549972D01*
X150132478Y-92481365D01*
X150158447Y-92416501D01*
X150208461Y-92378595D01*
X150333914Y-92326632D01*
X150497782Y-92217139D01*
X150637139Y-92077782D01*
X150746632Y-91913914D01*
X150748138Y-91910275D01*
X150749437Y-91908663D01*
X150749502Y-91908544D01*
X150749524Y-91908556D01*
X150791979Y-91855873D01*
X150858273Y-91833808D01*
X150925972Y-91851087D01*
G37*
%TD.AperFunction*%
%TA.AperFunction,Conductor*%
G36*
X154184903Y-122588520D02*
G01*
X154191381Y-122594552D01*
X154458981Y-122862152D01*
X154492466Y-122923475D01*
X154495300Y-122949833D01*
X154495300Y-123039891D01*
X154529408Y-123167187D01*
X154552815Y-123207728D01*
X154595300Y-123281314D01*
X154688486Y-123374500D01*
X154802614Y-123440392D01*
X154929908Y-123474500D01*
X154929910Y-123474500D01*
X155061690Y-123474500D01*
X155061692Y-123474500D01*
X155188986Y-123440392D01*
X155303114Y-123374500D01*
X155396300Y-123281314D01*
X155403313Y-123269166D01*
X155453880Y-123220951D01*
X155522487Y-123207728D01*
X155587352Y-123233696D01*
X155627880Y-123290610D01*
X155634700Y-123331167D01*
X155634700Y-124257267D01*
X155615015Y-124324306D01*
X155598381Y-124344948D01*
X150889541Y-129053787D01*
X150889539Y-129053789D01*
X150863447Y-129098983D01*
X150812879Y-129147198D01*
X150756564Y-129160981D01*
X149386582Y-129166552D01*
X149319463Y-129147140D01*
X149273494Y-129094523D01*
X149263269Y-129025405D01*
X149292036Y-128961732D01*
X149298371Y-128954899D01*
X153919660Y-124333611D01*
X153959222Y-124265088D01*
X153979700Y-124188662D01*
X153979700Y-124109538D01*
X153979700Y-122682233D01*
X153999385Y-122615194D01*
X154052189Y-122569439D01*
X154121347Y-122559495D01*
X154184903Y-122588520D01*
G37*
%TD.AperFunction*%
%TA.AperFunction,Conductor*%
G36*
X160383103Y-114276920D02*
G01*
X160389581Y-114282952D01*
X163493181Y-117386552D01*
X163526666Y-117447875D01*
X163529500Y-117474233D01*
X163529500Y-128985539D01*
X163509815Y-129052578D01*
X163457011Y-129098333D01*
X163406004Y-129109538D01*
X161638891Y-129116724D01*
X161571772Y-129097312D01*
X161535912Y-129059854D01*
X161535410Y-129060240D01*
X161531886Y-129055647D01*
X161530996Y-129054719D01*
X161530460Y-129053789D01*
X161474511Y-128997840D01*
X160214219Y-127737548D01*
X160180734Y-127676225D01*
X160177900Y-127649867D01*
X160177900Y-114370633D01*
X160197585Y-114303594D01*
X160250389Y-114257839D01*
X160319547Y-114247895D01*
X160383103Y-114276920D01*
G37*
%TD.AperFunction*%
%TA.AperFunction,Conductor*%
G36*
X161001249Y-91910516D02*
G01*
X161005585Y-91910269D01*
X161032494Y-91925465D01*
X161060362Y-91938798D01*
X161062643Y-91942490D01*
X161066424Y-91944626D01*
X161080843Y-91971953D01*
X161097082Y-91998241D01*
X161097893Y-92004267D01*
X161099030Y-92006421D01*
X161098700Y-92010258D01*
X161101500Y-92031047D01*
X161101500Y-102119362D01*
X161102699Y-102123835D01*
X161121979Y-102195790D01*
X161121980Y-102195791D01*
X161139133Y-102225501D01*
X161161540Y-102264311D01*
X161161542Y-102264313D01*
X163529381Y-104632152D01*
X163562866Y-104693475D01*
X163565700Y-104719833D01*
X163565700Y-104809891D01*
X163599808Y-104937187D01*
X163632754Y-104994250D01*
X163665700Y-105051314D01*
X163758886Y-105144500D01*
X163873014Y-105210392D01*
X164000308Y-105244500D01*
X164000310Y-105244500D01*
X164132090Y-105244500D01*
X164132092Y-105244500D01*
X164259386Y-105210392D01*
X164373514Y-105144500D01*
X164466700Y-105051314D01*
X164532592Y-104937186D01*
X164566700Y-104809892D01*
X164566700Y-104678108D01*
X164532592Y-104550814D01*
X164466700Y-104436686D01*
X164373514Y-104343500D01*
X164316450Y-104310554D01*
X164259387Y-104277608D01*
X164162848Y-104251741D01*
X164132092Y-104243500D01*
X164042033Y-104243500D01*
X163974994Y-104223815D01*
X163954352Y-104207181D01*
X161738819Y-101991648D01*
X161705334Y-101930325D01*
X161702500Y-101903967D01*
X161702500Y-96616622D01*
X161707231Y-96600508D01*
X161706946Y-96583715D01*
X161716872Y-96567675D01*
X161722185Y-96549583D01*
X161734874Y-96538587D01*
X161743715Y-96524303D01*
X161760738Y-96516176D01*
X161774989Y-96503828D01*
X161792054Y-96501225D01*
X161806768Y-96494202D01*
X161830258Y-96495400D01*
X161842057Y-96493602D01*
X161850432Y-96494661D01*
X161937908Y-96518100D01*
X162035775Y-96518100D01*
X162043524Y-96519080D01*
X162068676Y-96530053D01*
X162095006Y-96537785D01*
X162105170Y-96545975D01*
X162107564Y-96547020D01*
X162108839Y-96548932D01*
X162115648Y-96554419D01*
X166033181Y-100471952D01*
X166066666Y-100533275D01*
X166069500Y-100559633D01*
X166069500Y-128975209D01*
X166049815Y-129042248D01*
X165997011Y-129088003D01*
X165946004Y-129099208D01*
X164255004Y-129106085D01*
X164187885Y-129086673D01*
X164141916Y-129034056D01*
X164130500Y-128982086D01*
X164130500Y-117258839D01*
X164110020Y-117182409D01*
X164110017Y-117182404D01*
X164070464Y-117113895D01*
X164070458Y-117113887D01*
X160749219Y-113792648D01*
X160715734Y-113731325D01*
X160712900Y-113704967D01*
X160712900Y-92213383D01*
X160719380Y-92191312D01*
X160721349Y-92168396D01*
X160730001Y-92155140D01*
X160732585Y-92146344D01*
X160738704Y-92137663D01*
X160743575Y-92131345D01*
X160797139Y-92077782D01*
X160876732Y-91958661D01*
X160879304Y-91955327D01*
X160904298Y-91937167D01*
X160928010Y-91917351D01*
X160932317Y-91916809D01*
X160935829Y-91914259D01*
X160966677Y-91912494D01*
X160997335Y-91908644D01*
X161001249Y-91910516D01*
G37*
%TD.AperFunction*%
%TA.AperFunction,Conductor*%
G36*
X149251691Y-92236832D02*
G01*
X149386079Y-92326628D01*
X149386092Y-92326635D01*
X149438238Y-92348234D01*
X149548026Y-92393709D01*
X149602430Y-92437549D01*
X149624495Y-92503843D01*
X149607216Y-92571543D01*
X149586408Y-92595028D01*
X149587733Y-92596353D01*
X149488802Y-92695283D01*
X149488800Y-92695286D01*
X149422908Y-92809412D01*
X149388800Y-92936708D01*
X149388800Y-93068492D01*
X149397480Y-93100886D01*
X149422908Y-93195787D01*
X149434009Y-93215014D01*
X149488800Y-93309914D01*
X149488802Y-93309916D01*
X149552481Y-93373595D01*
X149585966Y-93434918D01*
X149588800Y-93461276D01*
X149588800Y-124924966D01*
X149569115Y-124992005D01*
X149552481Y-125012647D01*
X147147747Y-127417381D01*
X147086424Y-127450866D01*
X147060066Y-127453700D01*
X146970008Y-127453700D01*
X146842712Y-127487808D01*
X146728586Y-127553700D01*
X146728583Y-127553702D01*
X146635402Y-127646883D01*
X146635400Y-127646886D01*
X146569508Y-127761012D01*
X146535400Y-127888308D01*
X146535400Y-128020091D01*
X146569508Y-128147387D01*
X146602454Y-128204450D01*
X146635400Y-128261514D01*
X146728586Y-128354700D01*
X146797584Y-128394536D01*
X146846283Y-128422653D01*
X146863535Y-128440746D01*
X146883549Y-128455728D01*
X146887229Y-128465596D01*
X146894499Y-128473220D01*
X146899229Y-128497768D01*
X146907967Y-128521192D01*
X146905727Y-128531485D01*
X146907721Y-128541827D01*
X146898430Y-128565034D01*
X146893116Y-128589465D01*
X146883515Y-128602290D01*
X146881753Y-128606692D01*
X146871965Y-128617720D01*
X146836306Y-128653380D01*
X146774984Y-128686866D01*
X146748624Y-128689700D01*
X145331333Y-128689700D01*
X145264294Y-128670015D01*
X145218539Y-128617211D01*
X145208595Y-128548053D01*
X145237620Y-128484497D01*
X145243652Y-128478019D01*
X147222171Y-126499500D01*
X149202160Y-124519511D01*
X149206963Y-124511192D01*
X149241721Y-124450989D01*
X149262200Y-124374562D01*
X149262200Y-123756138D01*
X149241721Y-123679711D01*
X149212840Y-123629687D01*
X149202164Y-123611195D01*
X149202158Y-123611187D01*
X149095119Y-123504148D01*
X149061634Y-123442825D01*
X149058800Y-123416467D01*
X149058800Y-92339934D01*
X149078485Y-92272895D01*
X149131289Y-92227140D01*
X149200447Y-92217196D01*
X149251691Y-92236832D01*
G37*
%TD.AperFunction*%
%TA.AperFunction,Conductor*%
G36*
X143128834Y-92068602D02*
G01*
X143184767Y-92110474D01*
X143209184Y-92175938D01*
X143209500Y-92184784D01*
X143209500Y-93204948D01*
X143229979Y-93281375D01*
X143261451Y-93335887D01*
X143261452Y-93335889D01*
X143261451Y-93335889D01*
X143269535Y-93349891D01*
X143269542Y-93349900D01*
X145731333Y-95811690D01*
X145764818Y-95873013D01*
X145767652Y-95899371D01*
X145767652Y-120456015D01*
X145747967Y-120523054D01*
X145731333Y-120543696D01*
X144632041Y-121642987D01*
X144632035Y-121642995D01*
X144592482Y-121711504D01*
X144592479Y-121711509D01*
X144572000Y-121787939D01*
X144572000Y-126817823D01*
X144552315Y-126884862D01*
X144535682Y-126905504D01*
X144472000Y-126969186D01*
X144406108Y-127083312D01*
X144372000Y-127210608D01*
X144372000Y-127342391D01*
X144406108Y-127469687D01*
X144424711Y-127501908D01*
X144472000Y-127583814D01*
X144565186Y-127677000D01*
X144679314Y-127742892D01*
X144806608Y-127777000D01*
X144806618Y-127777000D01*
X144811911Y-127777697D01*
X144824898Y-127783442D01*
X144839062Y-127784455D01*
X144856213Y-127797294D01*
X144875808Y-127805962D01*
X144883627Y-127817815D01*
X144894996Y-127826326D01*
X144902483Y-127846400D01*
X144914281Y-127864285D01*
X144914450Y-127878484D01*
X144919413Y-127891790D01*
X144914858Y-127912727D01*
X144915114Y-127934150D01*
X144907291Y-127947515D01*
X144904562Y-127960063D01*
X144883411Y-127988317D01*
X144818346Y-128053382D01*
X144757026Y-128086866D01*
X144730667Y-128089700D01*
X144434276Y-128089700D01*
X144367237Y-128070015D01*
X144346595Y-128053381D01*
X144282916Y-127989702D01*
X144282914Y-127989700D01*
X144191897Y-127937151D01*
X144168787Y-127923808D01*
X144088919Y-127902408D01*
X144041492Y-127889700D01*
X143909708Y-127889700D01*
X143832193Y-127910470D01*
X143762343Y-127908807D01*
X143704481Y-127869644D01*
X143676977Y-127805416D01*
X143676100Y-127790695D01*
X143676100Y-113402017D01*
X143676100Y-113402015D01*
X143655622Y-113325589D01*
X143616060Y-113257066D01*
X139026332Y-108667338D01*
X138992847Y-108606015D01*
X138990013Y-108579657D01*
X138990013Y-99579529D01*
X139009698Y-99512490D01*
X139062502Y-99466735D01*
X139131660Y-99456791D01*
X139195216Y-99485816D01*
X139232990Y-99544594D01*
X139237233Y-99565646D01*
X139237733Y-99570091D01*
X139237736Y-99570108D01*
X139313726Y-99903044D01*
X139313730Y-99903056D01*
X139426515Y-100225375D01*
X139426524Y-100225397D01*
X139574686Y-100533059D01*
X139574690Y-100533065D01*
X139756380Y-100822222D01*
X139969303Y-101089219D01*
X140210781Y-101330697D01*
X140477778Y-101543620D01*
X140724333Y-101698541D01*
X140766940Y-101725313D01*
X141074602Y-101873475D01*
X141074611Y-101873478D01*
X141074618Y-101873482D01*
X141074624Y-101873484D01*
X141396943Y-101986269D01*
X141396955Y-101986273D01*
X141729895Y-102062264D01*
X142069245Y-102100499D01*
X142069246Y-102100500D01*
X142069249Y-102100500D01*
X142410754Y-102100500D01*
X142410754Y-102100499D01*
X142750105Y-102062264D01*
X143083045Y-101986273D01*
X143405382Y-101873482D01*
X143713065Y-101725310D01*
X144002222Y-101543620D01*
X144269219Y-101330697D01*
X144510697Y-101089219D01*
X144723620Y-100822222D01*
X144905310Y-100533065D01*
X144917250Y-100508271D01*
X145053475Y-100225397D01*
X145053476Y-100225393D01*
X145053482Y-100225382D01*
X145166273Y-99903045D01*
X145242264Y-99570105D01*
X145280500Y-99230751D01*
X145280500Y-98889249D01*
X145242264Y-98549895D01*
X145166273Y-98216955D01*
X145053482Y-97894618D01*
X145053478Y-97894611D01*
X145053475Y-97894602D01*
X144905313Y-97586940D01*
X144765367Y-97364218D01*
X144723620Y-97297778D01*
X144510697Y-97030781D01*
X144269219Y-96789303D01*
X144002222Y-96576380D01*
X143955614Y-96547094D01*
X143909323Y-96494759D01*
X143898675Y-96425705D01*
X143927050Y-96361857D01*
X143985440Y-96323485D01*
X144021586Y-96318100D01*
X144321324Y-96318100D01*
X144388363Y-96337785D01*
X144409005Y-96354419D01*
X144472686Y-96418100D01*
X144586814Y-96483992D01*
X144714108Y-96518100D01*
X144714110Y-96518100D01*
X144845890Y-96518100D01*
X144845892Y-96518100D01*
X144973186Y-96483992D01*
X145087314Y-96418100D01*
X145180500Y-96324914D01*
X145246392Y-96210786D01*
X145280500Y-96083492D01*
X145280500Y-95951708D01*
X145246392Y-95824414D01*
X145180500Y-95710286D01*
X145087314Y-95617100D01*
X144986899Y-95559125D01*
X144973187Y-95551208D01*
X144909539Y-95534154D01*
X144845892Y-95517100D01*
X144714108Y-95517100D01*
X144586812Y-95551208D01*
X144472686Y-95617100D01*
X144472683Y-95617102D01*
X144409005Y-95680781D01*
X144347682Y-95714266D01*
X144321324Y-95717100D01*
X143693333Y-95717100D01*
X143626294Y-95697415D01*
X143605652Y-95680781D01*
X142576819Y-94651948D01*
X142543334Y-94590625D01*
X142540500Y-94564267D01*
X142540500Y-92481315D01*
X142560185Y-92414276D01*
X142612989Y-92368521D01*
X142617002Y-92366773D01*
X142713914Y-92326632D01*
X142877782Y-92217139D01*
X142932900Y-92162021D01*
X142997819Y-92097103D01*
X143059142Y-92063618D01*
X143128834Y-92068602D01*
G37*
%TD.AperFunction*%
%TA.AperFunction,Conductor*%
G36*
X137941665Y-93369770D02*
G01*
X137982193Y-93426684D01*
X137989013Y-93467240D01*
X137989013Y-110246875D01*
X138009492Y-110323302D01*
X138035537Y-110368414D01*
X138049053Y-110391824D01*
X138049055Y-110391826D01*
X138106981Y-110449752D01*
X138140466Y-110511075D01*
X138143300Y-110537433D01*
X138143300Y-110627491D01*
X138177408Y-110754787D01*
X138210354Y-110811850D01*
X138243300Y-110868914D01*
X138243302Y-110868916D01*
X138306981Y-110932595D01*
X138340466Y-110993918D01*
X138343300Y-111020276D01*
X138343300Y-126951662D01*
X138347996Y-126969186D01*
X138361359Y-127019057D01*
X138359696Y-127088907D01*
X138320534Y-127146770D01*
X138256305Y-127174274D01*
X138187403Y-127162688D01*
X138153903Y-127138832D01*
X137628719Y-126613648D01*
X137595234Y-126552325D01*
X137592400Y-126525967D01*
X137592400Y-93669576D01*
X137612085Y-93602537D01*
X137628719Y-93581895D01*
X137658219Y-93552395D01*
X137692400Y-93518214D01*
X137757626Y-93405240D01*
X137808193Y-93357024D01*
X137876800Y-93343802D01*
X137941665Y-93369770D01*
G37*
%TD.AperFunction*%
%TA.AperFunction,Conductor*%
G36*
X145827403Y-91928260D02*
G01*
X145832222Y-91932828D01*
X146583181Y-92683787D01*
X146616666Y-92745110D01*
X146619500Y-92771468D01*
X146619500Y-123210048D01*
X146622422Y-123220951D01*
X146639979Y-123286475D01*
X146677716Y-123351838D01*
X146679541Y-123354998D01*
X146679542Y-123355000D01*
X146983181Y-123658638D01*
X147016666Y-123719961D01*
X147019500Y-123746319D01*
X147019500Y-124950066D01*
X146999815Y-125017105D01*
X146983181Y-125037747D01*
X145802647Y-126218281D01*
X145741324Y-126251766D01*
X145714966Y-126254600D01*
X145624908Y-126254600D01*
X145497612Y-126288708D01*
X145383486Y-126354600D01*
X145377040Y-126359547D01*
X145375974Y-126358158D01*
X145323358Y-126386890D01*
X145253666Y-126381906D01*
X145197733Y-126340034D01*
X145173316Y-126274570D01*
X145173000Y-126265724D01*
X145173000Y-122003333D01*
X145192685Y-121936294D01*
X145209319Y-121915652D01*
X145672608Y-121452363D01*
X146308612Y-120816359D01*
X146348173Y-120747837D01*
X146368652Y-120671410D01*
X146368652Y-95683976D01*
X146348173Y-95607549D01*
X146320216Y-95559125D01*
X146308616Y-95539033D01*
X146308610Y-95539025D01*
X143846819Y-93077234D01*
X143813334Y-93015911D01*
X143810500Y-92989553D01*
X143810500Y-92184784D01*
X143830185Y-92117745D01*
X143882989Y-92071990D01*
X143952147Y-92062046D01*
X144015703Y-92091071D01*
X144022181Y-92097103D01*
X144142214Y-92217136D01*
X144142218Y-92217139D01*
X144306079Y-92326628D01*
X144306092Y-92326635D01*
X144465814Y-92392793D01*
X144488165Y-92402051D01*
X144488169Y-92402051D01*
X144488170Y-92402052D01*
X144681456Y-92440500D01*
X144681459Y-92440500D01*
X144878543Y-92440500D01*
X145028887Y-92410594D01*
X145071835Y-92402051D01*
X145253914Y-92326632D01*
X145417782Y-92217139D01*
X145557139Y-92077782D01*
X145604821Y-92006421D01*
X145641439Y-91951619D01*
X145695051Y-91906813D01*
X145764376Y-91898106D01*
X145827403Y-91928260D01*
G37*
%TD.AperFunction*%
%TA.AperFunction,Conductor*%
G36*
X156536807Y-91905179D02*
G01*
X156537947Y-91905016D01*
X156568778Y-91919096D01*
X156599817Y-91932607D01*
X156600828Y-91933732D01*
X156601503Y-91934041D01*
X156623402Y-91958864D01*
X156702857Y-92077777D01*
X156702863Y-92077785D01*
X156842214Y-92217136D01*
X156842218Y-92217139D01*
X157006079Y-92326628D01*
X157006092Y-92326635D01*
X157165814Y-92392793D01*
X157188165Y-92402051D01*
X157188169Y-92402051D01*
X157188170Y-92402052D01*
X157381456Y-92440500D01*
X157381459Y-92440500D01*
X157578543Y-92440500D01*
X157728887Y-92410594D01*
X157771835Y-92402051D01*
X157953914Y-92326632D01*
X158034337Y-92272895D01*
X158122109Y-92214248D01*
X158188787Y-92193370D01*
X158256167Y-92211854D01*
X158302857Y-92263833D01*
X158315000Y-92317350D01*
X158315000Y-123098067D01*
X158295315Y-123165106D01*
X158278681Y-123185748D01*
X157188941Y-124275487D01*
X157188935Y-124275495D01*
X157149382Y-124344004D01*
X157149379Y-124344009D01*
X157135726Y-124394962D01*
X157131161Y-124412002D01*
X157128900Y-124420439D01*
X157128900Y-125385016D01*
X157120255Y-125414456D01*
X157113732Y-125444443D01*
X157109977Y-125449458D01*
X157109215Y-125452055D01*
X157092581Y-125472697D01*
X157048981Y-125516297D01*
X156987658Y-125549782D01*
X156917966Y-125544798D01*
X156862033Y-125502926D01*
X156837616Y-125437462D01*
X156837300Y-125428616D01*
X156837300Y-93640076D01*
X156856985Y-93573037D01*
X156873619Y-93552395D01*
X156895585Y-93530429D01*
X156937400Y-93488614D01*
X157003292Y-93374486D01*
X157037400Y-93247192D01*
X157037400Y-93115408D01*
X157003292Y-92988114D01*
X156937400Y-92873986D01*
X156844214Y-92780800D01*
X156773547Y-92740000D01*
X156730087Y-92714908D01*
X156642501Y-92691440D01*
X156602792Y-92680800D01*
X156520300Y-92680800D01*
X156453261Y-92661115D01*
X156407506Y-92608311D01*
X156396300Y-92556800D01*
X156396300Y-92027754D01*
X156405843Y-91995253D01*
X156414805Y-91962587D01*
X156415661Y-91961817D01*
X156415985Y-91960715D01*
X156441569Y-91938546D01*
X156466784Y-91915897D01*
X156467920Y-91915712D01*
X156468789Y-91914960D01*
X156502320Y-91910138D01*
X156535754Y-91904721D01*
X156536807Y-91905179D01*
G37*
%TD.AperFunction*%
%TA.AperFunction,Conductor*%
G36*
X148397073Y-91824289D02*
G01*
X148444684Y-91875426D01*
X148457800Y-91930931D01*
X148457800Y-123418267D01*
X148438115Y-123485306D01*
X148385311Y-123531061D01*
X148316153Y-123541005D01*
X148252597Y-123511980D01*
X148246119Y-123505948D01*
X147656819Y-122916648D01*
X147623334Y-122855325D01*
X147620500Y-122828967D01*
X147620500Y-92481315D01*
X147640185Y-92414276D01*
X147692989Y-92368521D01*
X147697002Y-92366773D01*
X147793914Y-92326632D01*
X147957782Y-92217139D01*
X148097139Y-92077782D01*
X148206632Y-91913914D01*
X148207220Y-91912494D01*
X148219239Y-91883479D01*
X148263080Y-91829075D01*
X148329374Y-91807010D01*
X148397073Y-91824289D01*
G37*
%TD.AperFunction*%
%TA.AperFunction,Conductor*%
G36*
X159056507Y-91874798D02*
G01*
X159057647Y-91874635D01*
X159088478Y-91888715D01*
X159119517Y-91902226D01*
X159120528Y-91903351D01*
X159121203Y-91903660D01*
X159143102Y-91928482D01*
X159242860Y-92077782D01*
X159382214Y-92217136D01*
X159382218Y-92217139D01*
X159505463Y-92299489D01*
X159550268Y-92353101D01*
X159558975Y-92422426D01*
X159528821Y-92485453D01*
X159509173Y-92501390D01*
X159509835Y-92502252D01*
X159503383Y-92507202D01*
X159410202Y-92600383D01*
X159410200Y-92600386D01*
X159344308Y-92714512D01*
X159310200Y-92841808D01*
X159310200Y-92973591D01*
X159344308Y-93100887D01*
X159352692Y-93115408D01*
X159410200Y-93215014D01*
X159503386Y-93308200D01*
X159514898Y-93314846D01*
X159563113Y-93365409D01*
X159576900Y-93422234D01*
X159576900Y-104144950D01*
X159557215Y-104211989D01*
X159504411Y-104257744D01*
X159435253Y-104267688D01*
X159420808Y-104264725D01*
X159341593Y-104243500D01*
X159341592Y-104243500D01*
X159209808Y-104243500D01*
X159082514Y-104277608D01*
X159082512Y-104277608D01*
X159074663Y-104279712D01*
X159073941Y-104277018D01*
X159017962Y-104283027D01*
X158955488Y-104251741D01*
X158919846Y-104191646D01*
X158916000Y-104161001D01*
X158916000Y-91997373D01*
X158925543Y-91964872D01*
X158934505Y-91932206D01*
X158935361Y-91931436D01*
X158935685Y-91930334D01*
X158961269Y-91908165D01*
X158986484Y-91885516D01*
X158987620Y-91885331D01*
X158988489Y-91884579D01*
X159022020Y-91879757D01*
X159055454Y-91874340D01*
X159056507Y-91874798D01*
G37*
%TD.AperFunction*%
%TA.AperFunction,Conductor*%
G36*
X141328603Y-91884803D02*
G01*
X141350502Y-91909625D01*
X141462860Y-92077782D01*
X141602217Y-92217139D01*
X141744412Y-92312150D01*
X141766086Y-92326632D01*
X141862953Y-92366755D01*
X141917355Y-92410594D01*
X141939421Y-92476888D01*
X141939500Y-92481315D01*
X141939500Y-94779662D01*
X141953152Y-94830613D01*
X141959979Y-94856090D01*
X141959982Y-94856095D01*
X141999535Y-94924604D01*
X141999541Y-94924612D01*
X142941457Y-95866528D01*
X142974942Y-95927851D01*
X142969958Y-95997543D01*
X142928086Y-96053476D01*
X142862622Y-96077893D01*
X142826184Y-96075100D01*
X142750109Y-96057736D01*
X142750092Y-96057734D01*
X142410755Y-96019500D01*
X142410751Y-96019500D01*
X142069249Y-96019500D01*
X142069244Y-96019500D01*
X141729907Y-96057734D01*
X141729891Y-96057736D01*
X141396955Y-96133726D01*
X141396943Y-96133730D01*
X141074624Y-96246515D01*
X141074602Y-96246524D01*
X140766940Y-96394686D01*
X140477779Y-96576379D01*
X140210781Y-96789302D01*
X139969302Y-97030781D01*
X139756379Y-97297779D01*
X139574686Y-97586940D01*
X139426524Y-97894602D01*
X139426515Y-97894624D01*
X139313730Y-98216943D01*
X139313726Y-98216955D01*
X139237736Y-98549891D01*
X139237734Y-98549905D01*
X139237233Y-98554355D01*
X139210166Y-98618769D01*
X139152570Y-98658323D01*
X139082733Y-98660460D01*
X139022827Y-98624501D01*
X138991872Y-98561863D01*
X138990013Y-98540470D01*
X138990013Y-95964120D01*
X139009698Y-95897081D01*
X139026332Y-95876439D01*
X139978167Y-94924604D01*
X141063360Y-93839411D01*
X141102921Y-93770889D01*
X141123400Y-93694462D01*
X141123400Y-91978516D01*
X141143085Y-91911477D01*
X141195889Y-91865722D01*
X141265047Y-91855778D01*
X141328603Y-91884803D01*
G37*
%TD.AperFunction*%
%TA.AperFunction,Conductor*%
G36*
X138795216Y-91894700D02*
G01*
X138817115Y-91919522D01*
X138922860Y-92077782D01*
X139062214Y-92217136D01*
X139062218Y-92217139D01*
X139226079Y-92326628D01*
X139226092Y-92326635D01*
X139385814Y-92392793D01*
X139408165Y-92402051D01*
X139408169Y-92402051D01*
X139408170Y-92402052D01*
X139601456Y-92440500D01*
X139601459Y-92440500D01*
X139798543Y-92440500D01*
X139948887Y-92410594D01*
X139991835Y-92402051D01*
X140173914Y-92326632D01*
X140254337Y-92272895D01*
X140329509Y-92222667D01*
X140396186Y-92201789D01*
X140463567Y-92220273D01*
X140510257Y-92272252D01*
X140522400Y-92325769D01*
X140522400Y-93479067D01*
X140502715Y-93546106D01*
X140486081Y-93566748D01*
X138801694Y-95251135D01*
X138740371Y-95284620D01*
X138670679Y-95279636D01*
X138614746Y-95237764D01*
X138590329Y-95172300D01*
X138590013Y-95163454D01*
X138590013Y-91988413D01*
X138609698Y-91921374D01*
X138662502Y-91875619D01*
X138731660Y-91865675D01*
X138795216Y-91894700D01*
G37*
%TD.AperFunction*%
%TA.AperFunction,Conductor*%
G36*
X150925972Y-76611087D02*
G01*
X150973583Y-76662223D01*
X150986700Y-76717729D01*
X150986700Y-90922270D01*
X150967015Y-90989309D01*
X150914211Y-91035064D01*
X150845053Y-91045008D01*
X150781497Y-91015983D01*
X150748140Y-90969726D01*
X150746633Y-90966088D01*
X150746628Y-90966079D01*
X150637139Y-90802218D01*
X150637136Y-90802214D01*
X150497785Y-90662863D01*
X150497781Y-90662860D01*
X150333920Y-90553371D01*
X150333907Y-90553364D01*
X150151839Y-90477950D01*
X150151829Y-90477947D01*
X149958543Y-90439500D01*
X149958541Y-90439500D01*
X149761459Y-90439500D01*
X149761457Y-90439500D01*
X149568170Y-90477947D01*
X149568160Y-90477950D01*
X149386092Y-90553364D01*
X149386079Y-90553371D01*
X149251691Y-90643167D01*
X149185013Y-90664045D01*
X149117633Y-90645560D01*
X149070943Y-90593581D01*
X149058800Y-90540065D01*
X149058800Y-78579233D01*
X149078485Y-78512194D01*
X149095119Y-78491552D01*
X149484819Y-78101852D01*
X150100460Y-77486211D01*
X150111227Y-77467562D01*
X150140021Y-77417689D01*
X150160500Y-77341262D01*
X150160500Y-77241315D01*
X150180185Y-77174276D01*
X150232989Y-77128521D01*
X150237002Y-77126773D01*
X150333914Y-77086632D01*
X150497782Y-76977139D01*
X150637139Y-76837782D01*
X150746632Y-76673914D01*
X150748138Y-76670275D01*
X150749437Y-76668663D01*
X150749502Y-76668544D01*
X150749524Y-76668556D01*
X150791979Y-76615873D01*
X150858273Y-76593808D01*
X150925972Y-76611087D01*
G37*
%TD.AperFunction*%
%TD*%
M02*
