%TF.GenerationSoftware,KiCad,Pcbnew,9.0.5-1.fc42*%
%TF.CreationDate,2025-11-09T17:28:59+08:00*%
%TF.ProjectId,JACC64-16K,4a414343-3634-42d3-9136-4b2e6b696361,rev?*%
%TF.SameCoordinates,Original*%
%TF.FileFunction,Legend,Top*%
%TF.FilePolarity,Positive*%
%FSLAX46Y46*%
G04 Gerber Fmt 4.6, Leading zero omitted, Abs format (unit mm)*
G04 Created by KiCad (PCBNEW 9.0.5-1.fc42) date 2025-11-09 17:28:59*
%MOMM*%
%LPD*%
G01*
G04 APERTURE LIST*
G04 Aperture macros list*
%AMRoundRect*
0 Rectangle with rounded corners*
0 $1 Rounding radius*
0 $2 $3 $4 $5 $6 $7 $8 $9 X,Y pos of 4 corners*
0 Add a 4 corners polygon primitive as box body*
4,1,4,$2,$3,$4,$5,$6,$7,$8,$9,$2,$3,0*
0 Add four circle primitives for the rounded corners*
1,1,$1+$1,$2,$3*
1,1,$1+$1,$4,$5*
1,1,$1+$1,$6,$7*
1,1,$1+$1,$8,$9*
0 Add four rect primitives between the rounded corners*
20,1,$1+$1,$2,$3,$4,$5,0*
20,1,$1+$1,$4,$5,$6,$7,0*
20,1,$1+$1,$6,$7,$8,$9,0*
20,1,$1+$1,$8,$9,$2,$3,0*%
G04 Aperture macros list end*
%ADD10C,0.000000*%
%ADD11C,0.052916*%
%ADD12C,0.005291*%
%ADD13C,0.100000*%
%ADD14C,0.300000*%
%ADD15C,0.150000*%
%ADD16C,0.120000*%
%ADD17RoundRect,0.249999X0.850001X0.850001X-0.850001X0.850001X-0.850001X-0.850001X0.850001X-0.850001X0*%
%ADD18C,2.200000*%
%ADD19C,2.000000*%
%ADD20C,1.600000*%
%ADD21R,1.800000X1.800000*%
%ADD22C,1.800000*%
%ADD23R,1.524000X11.430000*%
%ADD24RoundRect,0.250000X0.550000X-0.550000X0.550000X0.550000X-0.550000X0.550000X-0.550000X-0.550000X0*%
G04 APERTURE END LIST*
D10*
G36*
X115468853Y-69377942D02*
G01*
X115483040Y-69379021D01*
X115497021Y-69380798D01*
X115510779Y-69383255D01*
X115524294Y-69386374D01*
X115537551Y-69390139D01*
X115550532Y-69394531D01*
X115563218Y-69399533D01*
X115575593Y-69405127D01*
X115587639Y-69411297D01*
X115599338Y-69418024D01*
X115610673Y-69425290D01*
X115621626Y-69433079D01*
X115632179Y-69441372D01*
X115642316Y-69450153D01*
X115652018Y-69459403D01*
X115661268Y-69469105D01*
X115670049Y-69479242D01*
X115678342Y-69489796D01*
X115686131Y-69500749D01*
X115693398Y-69512083D01*
X115700124Y-69523782D01*
X115706294Y-69535828D01*
X115711888Y-69548203D01*
X115716890Y-69560889D01*
X115721283Y-69573870D01*
X115725047Y-69587127D01*
X115728167Y-69600643D01*
X115730623Y-69614400D01*
X115732400Y-69628381D01*
X115733479Y-69642568D01*
X115733842Y-69656944D01*
X115733479Y-69671321D01*
X115732400Y-69685508D01*
X115730623Y-69699489D01*
X115728167Y-69713246D01*
X115725047Y-69726762D01*
X115721283Y-69740019D01*
X115716890Y-69753000D01*
X115711888Y-69765686D01*
X115706294Y-69778061D01*
X115700124Y-69790107D01*
X115693398Y-69801806D01*
X115686131Y-69813141D01*
X115678342Y-69824093D01*
X115670049Y-69834647D01*
X115661268Y-69844784D01*
X115652018Y-69854486D01*
X115642316Y-69863736D01*
X115632179Y-69872517D01*
X115621626Y-69880810D01*
X115610673Y-69888599D01*
X115599338Y-69895866D01*
X115587639Y-69902592D01*
X115575593Y-69908762D01*
X115563218Y-69914356D01*
X115550532Y-69919358D01*
X115537551Y-69923751D01*
X115524294Y-69927515D01*
X115510779Y-69930635D01*
X115497021Y-69933091D01*
X115483040Y-69934868D01*
X115468853Y-69935947D01*
X115454477Y-69936310D01*
X115440100Y-69935947D01*
X115425913Y-69934868D01*
X115411932Y-69933091D01*
X115398175Y-69930635D01*
X115384659Y-69927515D01*
X115371402Y-69923751D01*
X115358421Y-69919358D01*
X115345735Y-69914356D01*
X115333360Y-69908762D01*
X115321314Y-69902592D01*
X115309615Y-69895866D01*
X115298281Y-69888599D01*
X115287328Y-69880810D01*
X115276774Y-69872517D01*
X115266637Y-69863736D01*
X115256935Y-69854486D01*
X115247685Y-69844784D01*
X115238904Y-69834647D01*
X115230611Y-69824093D01*
X115222822Y-69813141D01*
X115215556Y-69801806D01*
X115208829Y-69790107D01*
X115202659Y-69778061D01*
X115197065Y-69765686D01*
X115192063Y-69753000D01*
X115187671Y-69740019D01*
X115183906Y-69726762D01*
X115180787Y-69713246D01*
X115178330Y-69699489D01*
X115176553Y-69685508D01*
X115175474Y-69671321D01*
X115175111Y-69656944D01*
X115175474Y-69642568D01*
X115176553Y-69628381D01*
X115178330Y-69614400D01*
X115180787Y-69600643D01*
X115183906Y-69587127D01*
X115187671Y-69573870D01*
X115192063Y-69560889D01*
X115197065Y-69548203D01*
X115202659Y-69535828D01*
X115208829Y-69523782D01*
X115215556Y-69512083D01*
X115222822Y-69500749D01*
X115230611Y-69489796D01*
X115238904Y-69479242D01*
X115247685Y-69469105D01*
X115256935Y-69459403D01*
X115266637Y-69450153D01*
X115276774Y-69441372D01*
X115287328Y-69433079D01*
X115298281Y-69425290D01*
X115309615Y-69418024D01*
X115321314Y-69411297D01*
X115333360Y-69405127D01*
X115345735Y-69399533D01*
X115358421Y-69394531D01*
X115371402Y-69390139D01*
X115384659Y-69386374D01*
X115398175Y-69383255D01*
X115411932Y-69380798D01*
X115425913Y-69379021D01*
X115440100Y-69377942D01*
X115454477Y-69377579D01*
X115468853Y-69377942D01*
G37*
D11*
X117450767Y-68715746D02*
X117487808Y-68715746D01*
X117493100Y-68721038D01*
X117514267Y-68721038D01*
X117519559Y-68726329D01*
X117535434Y-68726329D01*
X117540725Y-68731621D01*
X117551309Y-68731621D01*
X117556600Y-68736913D01*
X117567183Y-68736913D01*
X117572475Y-68742204D01*
X117577767Y-68742204D01*
X117583058Y-68747496D01*
X117593642Y-68747496D01*
X117598934Y-68752788D01*
X117604225Y-68752788D01*
X117609517Y-68758080D01*
X117614809Y-68758080D01*
X117620100Y-68763371D01*
X117625392Y-68763371D01*
X117630684Y-68768663D01*
X117635975Y-68768663D01*
X117641267Y-68773955D01*
X117646558Y-68773955D01*
X117657142Y-68784538D01*
X117662433Y-68784538D01*
X117673017Y-68795121D01*
X117678309Y-68795121D01*
X117688892Y-68805704D01*
X117694184Y-68805704D01*
X117710059Y-68821579D01*
X117715350Y-68821579D01*
X117815892Y-68922121D01*
X117815892Y-68927413D01*
X117837059Y-68948580D01*
X117837059Y-68953871D01*
X117858225Y-68975038D01*
X117858225Y-68980329D01*
X117874100Y-68996205D01*
X117874100Y-69001496D01*
X117889975Y-69017371D01*
X117889975Y-69022663D01*
X117900558Y-69033246D01*
X117900558Y-69038538D01*
X117932309Y-69070288D01*
X117932309Y-69075580D01*
X117948184Y-69091455D01*
X117948184Y-69096746D01*
X118038142Y-69186705D01*
X118043433Y-69186705D01*
X118069892Y-69213163D01*
X118075184Y-69213163D01*
X118101642Y-69239621D01*
X118106934Y-69239621D01*
X118128100Y-69260788D01*
X118133392Y-69260788D01*
X118149267Y-69276663D01*
X118154559Y-69276663D01*
X118170434Y-69292538D01*
X118175725Y-69292538D01*
X118191600Y-69308413D01*
X118196892Y-69308413D01*
X118207475Y-69318996D01*
X118212767Y-69318996D01*
X118223350Y-69329580D01*
X118228642Y-69329580D01*
X118239225Y-69340163D01*
X118244517Y-69340163D01*
X118249809Y-69345455D01*
X118255100Y-69345455D01*
X118265684Y-69356038D01*
X118270975Y-69356038D01*
X118276267Y-69361329D01*
X118281558Y-69361329D01*
X118286850Y-69366621D01*
X118292142Y-69366621D01*
X118302725Y-69377204D01*
X118308017Y-69377204D01*
X118313309Y-69382496D01*
X118318600Y-69382496D01*
X118329184Y-69393080D01*
X118334475Y-69393080D01*
X118339767Y-69398371D01*
X118345059Y-69398371D01*
X118350350Y-69403663D01*
X118355642Y-69403663D01*
X118366225Y-69414246D01*
X118371517Y-69414246D01*
X118376808Y-69419538D01*
X118382100Y-69419538D01*
X118387392Y-69424830D01*
X118392683Y-69424830D01*
X118397975Y-69430121D01*
X118403267Y-69430121D01*
X118408559Y-69435413D01*
X118413850Y-69435413D01*
X118424434Y-69445996D01*
X118429725Y-69445996D01*
X118435017Y-69451288D01*
X118440308Y-69451288D01*
X118445600Y-69456579D01*
X118450892Y-69456579D01*
X118456183Y-69461871D01*
X118461475Y-69461871D01*
X118472058Y-69472455D01*
X118477350Y-69472455D01*
X118482642Y-69477746D01*
X118487934Y-69477746D01*
X118493225Y-69483038D01*
X118498517Y-69483038D01*
X118503809Y-69488330D01*
X118509100Y-69488330D01*
X118514392Y-69493621D01*
X118519683Y-69493621D01*
X118530267Y-69504205D01*
X118535558Y-69504205D01*
X118540850Y-69509496D01*
X118546142Y-69509496D01*
X118551433Y-69514788D01*
X118556725Y-69514788D01*
X118562017Y-69520079D01*
X118567309Y-69520079D01*
X118572600Y-69525371D01*
X118577892Y-69525371D01*
X118583184Y-69530663D01*
X118588475Y-69530663D01*
X118599058Y-69541246D01*
X118604350Y-69541246D01*
X118609642Y-69546538D01*
X118614933Y-69546538D01*
X118620225Y-69551829D01*
X118625517Y-69551829D01*
X118630808Y-69557121D01*
X118636100Y-69557121D01*
X118641392Y-69562413D01*
X118646684Y-69562413D01*
X118651975Y-69567705D01*
X118657267Y-69567705D01*
X118667850Y-69578288D01*
X118678433Y-69578288D01*
X118689017Y-69588871D01*
X118694308Y-69588871D01*
X118699600Y-69594163D01*
X118704892Y-69594163D01*
X118710183Y-69599454D01*
X118715475Y-69599454D01*
X118720767Y-69604746D01*
X118726059Y-69604746D01*
X118731350Y-69610038D01*
X118736642Y-69610038D01*
X118741934Y-69615329D01*
X118747225Y-69615329D01*
X118752517Y-69620621D01*
X118757808Y-69620621D01*
X118763100Y-69625913D01*
X118768392Y-69625913D01*
X118778975Y-69636496D01*
X118784267Y-69636496D01*
X118789558Y-69641788D01*
X118794850Y-69641788D01*
X118800142Y-69647080D01*
X118805434Y-69647080D01*
X118810725Y-69652371D01*
X118816017Y-69652371D01*
X118821309Y-69657663D01*
X118826600Y-69657663D01*
X118837183Y-69668246D01*
X118842475Y-69668246D01*
X118847767Y-69673538D01*
X118853058Y-69673538D01*
X118858350Y-69678829D01*
X118863642Y-69678829D01*
X118874225Y-69689413D01*
X118879517Y-69689413D01*
X118884809Y-69694704D01*
X118890100Y-69694704D01*
X118900684Y-69705288D01*
X118905975Y-69705288D01*
X118916558Y-69715871D01*
X118921850Y-69715871D01*
X118927142Y-69721163D01*
X118932433Y-69721163D01*
X118943017Y-69731746D01*
X118948308Y-69731746D01*
X118958892Y-69742330D01*
X118964184Y-69742330D01*
X118980059Y-69758204D01*
X118985350Y-69758204D01*
X119001225Y-69774079D01*
X119006517Y-69774079D01*
X119027683Y-69795246D01*
X119032975Y-69795246D01*
X119101767Y-69864038D01*
X119101767Y-69869329D01*
X119144100Y-69911663D01*
X119144100Y-69916954D01*
X119165267Y-69938121D01*
X119165267Y-69943413D01*
X119181142Y-69959288D01*
X119181142Y-69964580D01*
X119197017Y-69980455D01*
X119197017Y-69985746D01*
X119212892Y-70001621D01*
X119212892Y-70006913D01*
X119223475Y-70017496D01*
X119223475Y-70022788D01*
X119234058Y-70033371D01*
X119234058Y-70038663D01*
X119244642Y-70049246D01*
X119244642Y-70054538D01*
X119255225Y-70065121D01*
X119255225Y-70070413D01*
X119265808Y-70080996D01*
X119265808Y-70086288D01*
X119271100Y-70091579D01*
X119271100Y-70096871D01*
X119276392Y-70102163D01*
X119276392Y-70107454D01*
X119281684Y-70112746D01*
X119281684Y-70118038D01*
X119286975Y-70123330D01*
X119286975Y-70128621D01*
X119292267Y-70133913D01*
X119292267Y-70139205D01*
X119297559Y-70144496D01*
X119297559Y-70149788D01*
X119302850Y-70155079D01*
X119302850Y-70160371D01*
X119308142Y-70165663D01*
X119308142Y-70176246D01*
X119313433Y-70181538D01*
X119313433Y-70186829D01*
X119318725Y-70192121D01*
X119318725Y-70202705D01*
X119324017Y-70207996D01*
X119324017Y-70218580D01*
X119329308Y-70223871D01*
X119329308Y-70234454D01*
X119334600Y-70239746D01*
X119334600Y-70255621D01*
X119339892Y-70260913D01*
X119339892Y-70276788D01*
X119345183Y-70282080D01*
X119345183Y-70297955D01*
X119350475Y-70303246D01*
X119350475Y-70324413D01*
X119355767Y-70329704D01*
X119355767Y-70361455D01*
X119361059Y-70366746D01*
X119361059Y-70424954D01*
X119366350Y-70430246D01*
X119366350Y-70467288D01*
X119361059Y-70472579D01*
X119361059Y-70530788D01*
X119355767Y-70536080D01*
X119355767Y-70557246D01*
X119350475Y-70562538D01*
X119350475Y-70583704D01*
X119345183Y-70588996D01*
X119345183Y-70604871D01*
X119339892Y-70610163D01*
X119339892Y-70620746D01*
X119334600Y-70626038D01*
X119334600Y-70636621D01*
X119329308Y-70641913D01*
X119329308Y-70652496D01*
X119324017Y-70657788D01*
X119324017Y-70663080D01*
X119318725Y-70668371D01*
X119318725Y-70673663D01*
X119313433Y-70678954D01*
X119313433Y-70684246D01*
X119308142Y-70689538D01*
X119308142Y-70694829D01*
X119302850Y-70700121D01*
X119302850Y-70705413D01*
X119297559Y-70710704D01*
X119297559Y-70715996D01*
X119292267Y-70721288D01*
X119292267Y-70726579D01*
X119286975Y-70731871D01*
X119286975Y-70737163D01*
X119281684Y-70742455D01*
X119281684Y-70747746D01*
X119271100Y-70758329D01*
X119271100Y-70763621D01*
X119260517Y-70774204D01*
X119260517Y-70779496D01*
X119249933Y-70790079D01*
X119249933Y-70795371D01*
X119234058Y-70811246D01*
X119234058Y-70816538D01*
X119212892Y-70837704D01*
X119212892Y-70842996D01*
X119170558Y-70885329D01*
X119165267Y-70885329D01*
X119138809Y-70911788D01*
X119133517Y-70911788D01*
X119117642Y-70927663D01*
X119112350Y-70927663D01*
X119101767Y-70938246D01*
X119096475Y-70938246D01*
X119085892Y-70948829D01*
X119080600Y-70948829D01*
X119075308Y-70954121D01*
X119070017Y-70954121D01*
X119064725Y-70959413D01*
X119059434Y-70959413D01*
X119054142Y-70964704D01*
X119048850Y-70964704D01*
X119043559Y-70969996D01*
X119038267Y-70969996D01*
X119032975Y-70975288D01*
X119027683Y-70975288D01*
X119022392Y-70980579D01*
X119017100Y-70980579D01*
X119011808Y-70985871D01*
X119001225Y-70985871D01*
X118995933Y-70991163D01*
X118990642Y-70991163D01*
X118985350Y-70996454D01*
X118974767Y-70996454D01*
X118969475Y-71001746D01*
X118958892Y-71001746D01*
X118953600Y-71007038D01*
X118937725Y-71007038D01*
X118932433Y-71012329D01*
X118916558Y-71012329D01*
X118911267Y-71017621D01*
X118890100Y-71017621D01*
X118884809Y-71022913D01*
X118853058Y-71022913D01*
X118847767Y-71028204D01*
X118720767Y-71028204D01*
X118715475Y-71022913D01*
X118683725Y-71022913D01*
X118678433Y-71017621D01*
X118657267Y-71017621D01*
X118651975Y-71012329D01*
X118636100Y-71012329D01*
X118630808Y-71007038D01*
X118614933Y-71007038D01*
X118609642Y-71001746D01*
X118599058Y-71001746D01*
X118593767Y-70996454D01*
X118577892Y-70996454D01*
X118572600Y-70991163D01*
X118567309Y-70991163D01*
X118562017Y-70985871D01*
X118551433Y-70985871D01*
X118546142Y-70980579D01*
X118535558Y-70980579D01*
X118530267Y-70975288D01*
X118519683Y-70975288D01*
X118514392Y-70969996D01*
X118503809Y-70969996D01*
X118498517Y-70964704D01*
X118493225Y-70964704D01*
X118487934Y-70959413D01*
X118482642Y-70959413D01*
X118477350Y-70954121D01*
X118466767Y-70954121D01*
X118461475Y-70948829D01*
X118456183Y-70948829D01*
X118450892Y-70943538D01*
X118445600Y-70943538D01*
X118440308Y-70938246D01*
X118435017Y-70938246D01*
X118429725Y-70932954D01*
X118419142Y-70932954D01*
X118413850Y-70927663D01*
X118408559Y-70927663D01*
X118403267Y-70922371D01*
X118397975Y-70922371D01*
X118392683Y-70917079D01*
X118387392Y-70917079D01*
X118382100Y-70911788D01*
X118376808Y-70911788D01*
X118366225Y-70901205D01*
X118360933Y-70901205D01*
X118355642Y-70895913D01*
X118350350Y-70895913D01*
X118345059Y-70890621D01*
X118339767Y-70890621D01*
X118334475Y-70885329D01*
X118329184Y-70885329D01*
X118323892Y-70880038D01*
X118318600Y-70880038D01*
X118313309Y-70874746D01*
X118308017Y-70874746D01*
X118302725Y-70869454D01*
X118297433Y-70869454D01*
X118292142Y-70864163D01*
X118286850Y-70864163D01*
X118276267Y-70853579D01*
X118265684Y-70853579D01*
X118255100Y-70842996D01*
X118249809Y-70842996D01*
X118244517Y-70837704D01*
X118239225Y-70837704D01*
X118233934Y-70832413D01*
X118228642Y-70832413D01*
X118218058Y-70821830D01*
X118212767Y-70821830D01*
X118207475Y-70816538D01*
X118202183Y-70816538D01*
X118196892Y-70811246D01*
X118191600Y-70811246D01*
X118186309Y-70805954D01*
X118181017Y-70805954D01*
X118170434Y-70795371D01*
X118165142Y-70795371D01*
X118154559Y-70784788D01*
X118149267Y-70784788D01*
X118143975Y-70779496D01*
X118138683Y-70779496D01*
X118128100Y-70768913D01*
X118122808Y-70768913D01*
X118117517Y-70763621D01*
X118112225Y-70763621D01*
X118101642Y-70753038D01*
X118096350Y-70753038D01*
X118091059Y-70747746D01*
X118085767Y-70747746D01*
X118075184Y-70737163D01*
X118069892Y-70737163D01*
X118064600Y-70731871D01*
X118059308Y-70731871D01*
X118054017Y-70726579D01*
X118048725Y-70726579D01*
X118038142Y-70715996D01*
X118032850Y-70715996D01*
X118027559Y-70710704D01*
X118022267Y-70710704D01*
X118011684Y-70700121D01*
X118006392Y-70700121D01*
X118001100Y-70694829D01*
X117995809Y-70694829D01*
X117985225Y-70684246D01*
X117979933Y-70684246D01*
X117974642Y-70678954D01*
X117969350Y-70678954D01*
X117958767Y-70668371D01*
X117953475Y-70668371D01*
X117948184Y-70663080D01*
X117942892Y-70663080D01*
X117932309Y-70652496D01*
X117927017Y-70652496D01*
X117921725Y-70647204D01*
X117916434Y-70647204D01*
X117911142Y-70641913D01*
X117905850Y-70641913D01*
X117895267Y-70631329D01*
X117889975Y-70631329D01*
X117879392Y-70620746D01*
X117874100Y-70620746D01*
X117863517Y-70610163D01*
X117852934Y-70610163D01*
X117842350Y-70599580D01*
X117837059Y-70599580D01*
X117831767Y-70594288D01*
X117826475Y-70594288D01*
X117815892Y-70583704D01*
X117810600Y-70583704D01*
X117805308Y-70578413D01*
X117800017Y-70578413D01*
X117794725Y-70573121D01*
X117789434Y-70573121D01*
X117784142Y-70567829D01*
X117778850Y-70567829D01*
X117768267Y-70557246D01*
X117762975Y-70557246D01*
X117757684Y-70551954D01*
X117752392Y-70551954D01*
X117747100Y-70546663D01*
X117741808Y-70546663D01*
X117731225Y-70536080D01*
X117725933Y-70536080D01*
X117720642Y-70530788D01*
X117715350Y-70530788D01*
X117710059Y-70525496D01*
X117704767Y-70525496D01*
X117694184Y-70514913D01*
X117688892Y-70514913D01*
X117683600Y-70509621D01*
X117678309Y-70509621D01*
X117673017Y-70504329D01*
X117667725Y-70504329D01*
X117657142Y-70493746D01*
X117651850Y-70493746D01*
X117646558Y-70488454D01*
X117641267Y-70488454D01*
X117635975Y-70483163D01*
X117630684Y-70483163D01*
X117620100Y-70472579D01*
X117614809Y-70472579D01*
X117609517Y-70467288D01*
X117604225Y-70467288D01*
X117598934Y-70461996D01*
X117593642Y-70461996D01*
X117583058Y-70451413D01*
X117577767Y-70451413D01*
X117572475Y-70446121D01*
X117567183Y-70446121D01*
X117556600Y-70435538D01*
X117551309Y-70435538D01*
X117546017Y-70430246D01*
X117540725Y-70430246D01*
X117535434Y-70424954D01*
X117530142Y-70424954D01*
X117519559Y-70414371D01*
X117514267Y-70414371D01*
X117508975Y-70409079D01*
X117503683Y-70409079D01*
X117493100Y-70398496D01*
X117487808Y-70398496D01*
X117477225Y-70387913D01*
X117471934Y-70387913D01*
X117466642Y-70382621D01*
X117461350Y-70382621D01*
X117450767Y-70372038D01*
X117445475Y-70372038D01*
X117440184Y-70366746D01*
X117434892Y-70366746D01*
X117424308Y-70356163D01*
X117419017Y-70356163D01*
X117413725Y-70350871D01*
X117408433Y-70350871D01*
X117392559Y-70334996D01*
X117381975Y-70334996D01*
X117376684Y-70329704D01*
X117371392Y-70329704D01*
X117360809Y-70319121D01*
X117355517Y-70319121D01*
X117350225Y-70313829D01*
X117344933Y-70313829D01*
X117339642Y-70308538D01*
X117329058Y-70308538D01*
X117323767Y-70303246D01*
X117313184Y-70303246D01*
X117307892Y-70297955D01*
X117297309Y-70297955D01*
X117292017Y-70292663D01*
X117281434Y-70292663D01*
X117276142Y-70287371D01*
X117265558Y-70287371D01*
X117260267Y-70282080D01*
X117249684Y-70282080D01*
X117244392Y-70276788D01*
X117228517Y-70276788D01*
X117223225Y-70271496D01*
X117207350Y-70271496D01*
X117202058Y-70266204D01*
X117186184Y-70266204D01*
X117180892Y-70260913D01*
X117159725Y-70260913D01*
X117154434Y-70255621D01*
X117127975Y-70255621D01*
X117122683Y-70250329D01*
X117080350Y-70250329D01*
X117075059Y-70245038D01*
X116969225Y-70245038D01*
X116963933Y-70250329D01*
X116905725Y-70250329D01*
X116900434Y-70255621D01*
X116863392Y-70255621D01*
X116858100Y-70260913D01*
X116852809Y-70255621D01*
X116847517Y-70260913D01*
X116799892Y-70260913D01*
X116794600Y-70266204D01*
X116789309Y-70266204D01*
X116784017Y-70260913D01*
X116778725Y-70266204D01*
X116720517Y-70266204D01*
X116715225Y-70271496D01*
X116672892Y-70271496D01*
X116667600Y-70276788D01*
X116641142Y-70276788D01*
X116635850Y-70282080D01*
X116609392Y-70282080D01*
X116604100Y-70287371D01*
X116582934Y-70287371D01*
X116577642Y-70292663D01*
X116556475Y-70292663D01*
X116551184Y-70297955D01*
X116530017Y-70297955D01*
X116524725Y-70303246D01*
X116498267Y-70303246D01*
X116492975Y-70308538D01*
X116466517Y-70308538D01*
X116461225Y-70313829D01*
X116434767Y-70313829D01*
X116429475Y-70319121D01*
X116408309Y-70319121D01*
X116403017Y-70324413D01*
X116381850Y-70324413D01*
X116376559Y-70329704D01*
X116350100Y-70329704D01*
X116344809Y-70334996D01*
X116323642Y-70334996D01*
X116318350Y-70340288D01*
X116291892Y-70340288D01*
X116286600Y-70345579D01*
X116254850Y-70345579D01*
X116249559Y-70350871D01*
X116223100Y-70350871D01*
X116217809Y-70356163D01*
X116186059Y-70356163D01*
X116180767Y-70361455D01*
X116159600Y-70361455D01*
X116154309Y-70366746D01*
X116133142Y-70366746D01*
X116127850Y-70372038D01*
X116101392Y-70372038D01*
X116096100Y-70377330D01*
X116074934Y-70377330D01*
X116069642Y-70382621D01*
X116043184Y-70382621D01*
X116037892Y-70387913D01*
X116016725Y-70387913D01*
X116011434Y-70393204D01*
X115984975Y-70393204D01*
X115979684Y-70398496D01*
X115953225Y-70398496D01*
X115947934Y-70403788D01*
X115926767Y-70403788D01*
X115921475Y-70409079D01*
X115895017Y-70409079D01*
X115889725Y-70414371D01*
X115863267Y-70414371D01*
X115857975Y-70419663D01*
X115831517Y-70419663D01*
X115826225Y-70424954D01*
X115799767Y-70424954D01*
X115794475Y-70430246D01*
X115768017Y-70430246D01*
X115762725Y-70435538D01*
X115730975Y-70435538D01*
X115725684Y-70440830D01*
X115693934Y-70440830D01*
X115688642Y-70446121D01*
X115641017Y-70446121D01*
X115635725Y-70451413D01*
X115609267Y-70451413D01*
X115603975Y-70456705D01*
X115577517Y-70456705D01*
X115572225Y-70461996D01*
X115545767Y-70461996D01*
X115540475Y-70467288D01*
X115514017Y-70467288D01*
X115508725Y-70472579D01*
X115482267Y-70472579D01*
X115476975Y-70477871D01*
X115450517Y-70477871D01*
X115445225Y-70483163D01*
X115418767Y-70483163D01*
X115413475Y-70488454D01*
X115387017Y-70488454D01*
X115381725Y-70493746D01*
X115355267Y-70493746D01*
X115349975Y-70499038D01*
X115318225Y-70499038D01*
X115312934Y-70504329D01*
X115286475Y-70504329D01*
X115281184Y-70509621D01*
X115254725Y-70509621D01*
X115249434Y-70514913D01*
X115217684Y-70514913D01*
X115212392Y-70509621D01*
X115207100Y-70509621D01*
X115201809Y-70504329D01*
X115196517Y-70504329D01*
X115180642Y-70488454D01*
X115180642Y-70483163D01*
X115175350Y-70477871D01*
X115175350Y-70472579D01*
X115170059Y-70467288D01*
X115170059Y-70451413D01*
X115164767Y-70446121D01*
X115164767Y-70414371D01*
X115159475Y-70409079D01*
X115159475Y-70377330D01*
X115154184Y-70372038D01*
X115154184Y-70340288D01*
X115148892Y-70334996D01*
X115148892Y-70297955D01*
X115143600Y-70292663D01*
X115143600Y-70260913D01*
X115138309Y-70255621D01*
X115138309Y-70223871D01*
X115133017Y-70218580D01*
X115133017Y-70181538D01*
X115127725Y-70176246D01*
X115127725Y-70139205D01*
X115122434Y-70133913D01*
X115122434Y-70102163D01*
X115117142Y-70096871D01*
X115117142Y-70054538D01*
X115111850Y-70049246D01*
X115111850Y-70017496D01*
X115106559Y-70012204D01*
X115106559Y-69975163D01*
X115101267Y-69969871D01*
X115101267Y-69932829D01*
X115095975Y-69927538D01*
X115095975Y-69895788D01*
X115090684Y-69890496D01*
X115090684Y-69858746D01*
X115085392Y-69853454D01*
X115085392Y-69816413D01*
X115080100Y-69811121D01*
X115080100Y-69779371D01*
X115074809Y-69774079D01*
X115074809Y-69737038D01*
X115069517Y-69731746D01*
X115069517Y-69699996D01*
X115064225Y-69694704D01*
X115064225Y-69662955D01*
X115058934Y-69657663D01*
X115058934Y-69625913D01*
X115053642Y-69620621D01*
X115053642Y-69588871D01*
X115048350Y-69583580D01*
X115048350Y-69541246D01*
X115043059Y-69535954D01*
X115043059Y-69498913D01*
X115037767Y-69493621D01*
X115037767Y-69456579D01*
X115032475Y-69451288D01*
X115032475Y-69414246D01*
X115027184Y-69408955D01*
X115027184Y-69366621D01*
X115032475Y-69361329D01*
X115032475Y-69350746D01*
X115037767Y-69345455D01*
X115037767Y-69340163D01*
X115058934Y-69318996D01*
X115069517Y-69318996D01*
X115074809Y-69313705D01*
X115085392Y-69313705D01*
X115090684Y-69308413D01*
X115122434Y-69308413D01*
X115127725Y-69303121D01*
X115154184Y-69303121D01*
X115159475Y-69297829D01*
X115191225Y-69297829D01*
X115196517Y-69292538D01*
X115222975Y-69292538D01*
X115228267Y-69287246D01*
X115254725Y-69287246D01*
X115260017Y-69281954D01*
X115286475Y-69281954D01*
X115291767Y-69276663D01*
X115323517Y-69276663D01*
X115328809Y-69271371D01*
X115355267Y-69271371D01*
X115360559Y-69266080D01*
X115392309Y-69266080D01*
X115397600Y-69260788D01*
X115424059Y-69260788D01*
X115429350Y-69255496D01*
X115455809Y-69255496D01*
X115461100Y-69250205D01*
X115487559Y-69250205D01*
X115492850Y-69244913D01*
X115519309Y-69244913D01*
X115524600Y-69239621D01*
X115551059Y-69239621D01*
X115556350Y-69234330D01*
X115582809Y-69234330D01*
X115588100Y-69229038D01*
X115619850Y-69229038D01*
X115625142Y-69223746D01*
X115651600Y-69223746D01*
X115656892Y-69218454D01*
X115693934Y-69218454D01*
X115699225Y-69213163D01*
X115730975Y-69213163D01*
X115736267Y-69207871D01*
X115768017Y-69207871D01*
X115773309Y-69202579D01*
X115799767Y-69202579D01*
X115805059Y-69197288D01*
X115831517Y-69197288D01*
X115836809Y-69191996D01*
X115868559Y-69191996D01*
X115873850Y-69186705D01*
X115905600Y-69186705D01*
X115910892Y-69181413D01*
X115937350Y-69181413D01*
X115942642Y-69176121D01*
X115963809Y-69176121D01*
X115969100Y-69170830D01*
X115990267Y-69170830D01*
X115995559Y-69165538D01*
X116022017Y-69165538D01*
X116027309Y-69160246D01*
X116053767Y-69160246D01*
X116059059Y-69154955D01*
X116085517Y-69154955D01*
X116090809Y-69149663D01*
X116122559Y-69149663D01*
X116127850Y-69144371D01*
X116159600Y-69144371D01*
X116164892Y-69139079D01*
X116186059Y-69139079D01*
X116191350Y-69133788D01*
X116223100Y-69133788D01*
X116228392Y-69128496D01*
X116265434Y-69128496D01*
X116270725Y-69123204D01*
X116297184Y-69123204D01*
X116302475Y-69117913D01*
X116339517Y-69117913D01*
X116344809Y-69112621D01*
X116376559Y-69112621D01*
X116381850Y-69107330D01*
X116413600Y-69107330D01*
X116418892Y-69102038D01*
X116450642Y-69102038D01*
X116455934Y-69096746D01*
X116482392Y-69096746D01*
X116487684Y-69091455D01*
X116508850Y-69091455D01*
X116514142Y-69086163D01*
X116535309Y-69086163D01*
X116540600Y-69080871D01*
X116556475Y-69080871D01*
X116561767Y-69075580D01*
X116577642Y-69075580D01*
X116582934Y-69070288D01*
X116598809Y-69070288D01*
X116604100Y-69064996D01*
X116619975Y-69064996D01*
X116625267Y-69059704D01*
X116646434Y-69059704D01*
X116651725Y-69054413D01*
X116667600Y-69054413D01*
X116672892Y-69049121D01*
X116688767Y-69049121D01*
X116694059Y-69043829D01*
X116709934Y-69043829D01*
X116715225Y-69038538D01*
X116736392Y-69038538D01*
X116741684Y-69033246D01*
X116757559Y-69033246D01*
X116762850Y-69027955D01*
X116773434Y-69027955D01*
X116778725Y-69022663D01*
X116789309Y-69022663D01*
X116794600Y-69017371D01*
X116799892Y-69017371D01*
X116805184Y-69012080D01*
X116810475Y-69017371D01*
X116821059Y-69006788D01*
X116826350Y-69006788D01*
X116831642Y-69001496D01*
X116842225Y-69001496D01*
X116847517Y-68996205D01*
X116852809Y-68996205D01*
X116858100Y-68990913D01*
X116863392Y-68990913D01*
X116868684Y-68985621D01*
X116873975Y-68985621D01*
X116879267Y-68980329D01*
X116889850Y-68980329D01*
X116895142Y-68975038D01*
X116900434Y-68975038D01*
X116905725Y-68969746D01*
X116911017Y-68969746D01*
X116916309Y-68964454D01*
X116921600Y-68964454D01*
X116926892Y-68959163D01*
X116932184Y-68959163D01*
X116942767Y-68948580D01*
X116948059Y-68948580D01*
X116958642Y-68937996D01*
X116963933Y-68937996D01*
X116974517Y-68927413D01*
X116979809Y-68927413D01*
X116990392Y-68916830D01*
X116995684Y-68916830D01*
X117011559Y-68900954D01*
X117016850Y-68900954D01*
X117027434Y-68890371D01*
X117032725Y-68890371D01*
X117048600Y-68874496D01*
X117053892Y-68874496D01*
X117064475Y-68863913D01*
X117069767Y-68863913D01*
X117080350Y-68853330D01*
X117085642Y-68853330D01*
X117101517Y-68837455D01*
X117106809Y-68837455D01*
X117117392Y-68826871D01*
X117122683Y-68826871D01*
X117138559Y-68810996D01*
X117143850Y-68810996D01*
X117154434Y-68800413D01*
X117159725Y-68800413D01*
X117170309Y-68789830D01*
X117175600Y-68789830D01*
X117186184Y-68779246D01*
X117191475Y-68779246D01*
X117196767Y-68773955D01*
X117202058Y-68773955D01*
X117207350Y-68768663D01*
X117212642Y-68768663D01*
X117223225Y-68758080D01*
X117233809Y-68758080D01*
X117239100Y-68752788D01*
X117244392Y-68752788D01*
X117249684Y-68747496D01*
X117254975Y-68747496D01*
X117260267Y-68742204D01*
X117265558Y-68742204D01*
X117270850Y-68736913D01*
X117281434Y-68736913D01*
X117286725Y-68731621D01*
X117297309Y-68731621D01*
X117302600Y-68726329D01*
X117318475Y-68726329D01*
X117323767Y-68721038D01*
X117339642Y-68721038D01*
X117344933Y-68715746D01*
X117381975Y-68715746D01*
X117387267Y-68710455D01*
X117445475Y-68710455D01*
X117450767Y-68715746D01*
D10*
G36*
X116684524Y-69251839D02*
G01*
X116698711Y-69252917D01*
X116712693Y-69254694D01*
X116726450Y-69257151D01*
X116739966Y-69260270D01*
X116753223Y-69264035D01*
X116766203Y-69268427D01*
X116778890Y-69273429D01*
X116791264Y-69279024D01*
X116803310Y-69285193D01*
X116815009Y-69291920D01*
X116826344Y-69299186D01*
X116837297Y-69306975D01*
X116847850Y-69315269D01*
X116857987Y-69324049D01*
X116867689Y-69333299D01*
X116876939Y-69343002D01*
X116885720Y-69353138D01*
X116894013Y-69363692D01*
X116901802Y-69374645D01*
X116909069Y-69385980D01*
X116915796Y-69397679D01*
X116921965Y-69409724D01*
X116927560Y-69422099D01*
X116932562Y-69434786D01*
X116936954Y-69447766D01*
X116940718Y-69461023D01*
X116943838Y-69474539D01*
X116946295Y-69488296D01*
X116948071Y-69502277D01*
X116949150Y-69516465D01*
X116949514Y-69530841D01*
X116949150Y-69545217D01*
X116948071Y-69559404D01*
X116946295Y-69573386D01*
X116943838Y-69587143D01*
X116940718Y-69600659D01*
X116936954Y-69613916D01*
X116932562Y-69626896D01*
X116927560Y-69639583D01*
X116921965Y-69651957D01*
X116915796Y-69664003D01*
X116909069Y-69675702D01*
X116901802Y-69687037D01*
X116894013Y-69697990D01*
X116885720Y-69708543D01*
X116876939Y-69718680D01*
X116867689Y-69728382D01*
X116857987Y-69737632D01*
X116847850Y-69746413D01*
X116837297Y-69754706D01*
X116826344Y-69762495D01*
X116815009Y-69769762D01*
X116803310Y-69776489D01*
X116791264Y-69782658D01*
X116778890Y-69788253D01*
X116766203Y-69793255D01*
X116753223Y-69797647D01*
X116739966Y-69801411D01*
X116726450Y-69804531D01*
X116712693Y-69806988D01*
X116698711Y-69808764D01*
X116684524Y-69809843D01*
X116670148Y-69810206D01*
X116655772Y-69809843D01*
X116641584Y-69808764D01*
X116627603Y-69806988D01*
X116613846Y-69804531D01*
X116600330Y-69801411D01*
X116587073Y-69797647D01*
X116574093Y-69793255D01*
X116561406Y-69788253D01*
X116549031Y-69782658D01*
X116536986Y-69776489D01*
X116525287Y-69769762D01*
X116513952Y-69762495D01*
X116502999Y-69754706D01*
X116492445Y-69746413D01*
X116482309Y-69737632D01*
X116472607Y-69728382D01*
X116463356Y-69718680D01*
X116454576Y-69708543D01*
X116446282Y-69697990D01*
X116438494Y-69687037D01*
X116431227Y-69675702D01*
X116424500Y-69664003D01*
X116418331Y-69651957D01*
X116412736Y-69639583D01*
X116407734Y-69626896D01*
X116403342Y-69613916D01*
X116399577Y-69600659D01*
X116396458Y-69587143D01*
X116394001Y-69573386D01*
X116392225Y-69559404D01*
X116391146Y-69545217D01*
X116390782Y-69530841D01*
X116391146Y-69516465D01*
X116392225Y-69502277D01*
X116394001Y-69488296D01*
X116396458Y-69474539D01*
X116399577Y-69461023D01*
X116403342Y-69447766D01*
X116407734Y-69434786D01*
X116412736Y-69422099D01*
X116418331Y-69409724D01*
X116424500Y-69397679D01*
X116431227Y-69385980D01*
X116438494Y-69374645D01*
X116446282Y-69363692D01*
X116454576Y-69353138D01*
X116463356Y-69343002D01*
X116472607Y-69333299D01*
X116482309Y-69324049D01*
X116492445Y-69315269D01*
X116502999Y-69306975D01*
X116513952Y-69299186D01*
X116525287Y-69291920D01*
X116536986Y-69285193D01*
X116549031Y-69279024D01*
X116561406Y-69273429D01*
X116574093Y-69268427D01*
X116587073Y-69264035D01*
X116600330Y-69260270D01*
X116613846Y-69257151D01*
X116627603Y-69254694D01*
X116641584Y-69252917D01*
X116655772Y-69251839D01*
X116670148Y-69251475D01*
X116684524Y-69251839D01*
G37*
G36*
X118814500Y-69972181D02*
G01*
X118828687Y-69973260D01*
X118842668Y-69975036D01*
X118856425Y-69977493D01*
X118869941Y-69980612D01*
X118883198Y-69984377D01*
X118896179Y-69988769D01*
X118908865Y-69993771D01*
X118921240Y-69999366D01*
X118933286Y-70005535D01*
X118944985Y-70012262D01*
X118956319Y-70019528D01*
X118967272Y-70027317D01*
X118977826Y-70035611D01*
X118987963Y-70044391D01*
X118997665Y-70053641D01*
X119006915Y-70063344D01*
X119015696Y-70073480D01*
X119023989Y-70084034D01*
X119031778Y-70094987D01*
X119039044Y-70106322D01*
X119045771Y-70118021D01*
X119051941Y-70130066D01*
X119057535Y-70142441D01*
X119062537Y-70155127D01*
X119066929Y-70168108D01*
X119070694Y-70181365D01*
X119073813Y-70194881D01*
X119076270Y-70208638D01*
X119078047Y-70222619D01*
X119079126Y-70236807D01*
X119079489Y-70251183D01*
X119079126Y-70265559D01*
X119078047Y-70279746D01*
X119076270Y-70293727D01*
X119073813Y-70307485D01*
X119070694Y-70321001D01*
X119066929Y-70334258D01*
X119062537Y-70347238D01*
X119057535Y-70359925D01*
X119051941Y-70372299D01*
X119045771Y-70384345D01*
X119039044Y-70396044D01*
X119031778Y-70407379D01*
X119023989Y-70418332D01*
X119015696Y-70428885D01*
X119006915Y-70439022D01*
X118997665Y-70448724D01*
X118987963Y-70457974D01*
X118977826Y-70466755D01*
X118967272Y-70475048D01*
X118956319Y-70482837D01*
X118944985Y-70490104D01*
X118933286Y-70496831D01*
X118921240Y-70503000D01*
X118908865Y-70508595D01*
X118896179Y-70513597D01*
X118883198Y-70517989D01*
X118869941Y-70521753D01*
X118856425Y-70524873D01*
X118842668Y-70527330D01*
X118828687Y-70529106D01*
X118814500Y-70530185D01*
X118800124Y-70530549D01*
X118785747Y-70530185D01*
X118771560Y-70529106D01*
X118757579Y-70527330D01*
X118743822Y-70524873D01*
X118730306Y-70521753D01*
X118717049Y-70517989D01*
X118704068Y-70513597D01*
X118691382Y-70508595D01*
X118679007Y-70503000D01*
X118666961Y-70496831D01*
X118655262Y-70490104D01*
X118643927Y-70482837D01*
X118632974Y-70475048D01*
X118622421Y-70466755D01*
X118612284Y-70457974D01*
X118602582Y-70448724D01*
X118593332Y-70439022D01*
X118584551Y-70428885D01*
X118576258Y-70418332D01*
X118568469Y-70407379D01*
X118561202Y-70396044D01*
X118554476Y-70384345D01*
X118548306Y-70372299D01*
X118542712Y-70359925D01*
X118537710Y-70347238D01*
X118533317Y-70334258D01*
X118529553Y-70321001D01*
X118526433Y-70307485D01*
X118523977Y-70293727D01*
X118522200Y-70279746D01*
X118521121Y-70265559D01*
X118520758Y-70251183D01*
X118521121Y-70236807D01*
X118522200Y-70222619D01*
X118523977Y-70208638D01*
X118526433Y-70194881D01*
X118529553Y-70181365D01*
X118533317Y-70168108D01*
X118537710Y-70155127D01*
X118542712Y-70142441D01*
X118548306Y-70130066D01*
X118554476Y-70118021D01*
X118561202Y-70106322D01*
X118568469Y-70094987D01*
X118576258Y-70084034D01*
X118584551Y-70073480D01*
X118593332Y-70063344D01*
X118602582Y-70053641D01*
X118612284Y-70044391D01*
X118622421Y-70035611D01*
X118632974Y-70027317D01*
X118643927Y-70019528D01*
X118655262Y-70012262D01*
X118666961Y-70005535D01*
X118679007Y-69999366D01*
X118691382Y-69993771D01*
X118704068Y-69988769D01*
X118717049Y-69984377D01*
X118730306Y-69980612D01*
X118743822Y-69977493D01*
X118757579Y-69975036D01*
X118771560Y-69973260D01*
X118785747Y-69972181D01*
X118800124Y-69971817D01*
X118814500Y-69972181D01*
G37*
G36*
X117812442Y-69764337D02*
G01*
X117826630Y-69765416D01*
X117840611Y-69767192D01*
X117854368Y-69769649D01*
X117867884Y-69772769D01*
X117881141Y-69776533D01*
X117894121Y-69780925D01*
X117906808Y-69785927D01*
X117919183Y-69791522D01*
X117931228Y-69797691D01*
X117942927Y-69804418D01*
X117954262Y-69811685D01*
X117965215Y-69819474D01*
X117975769Y-69827767D01*
X117985905Y-69836548D01*
X117995607Y-69845798D01*
X118004858Y-69855500D01*
X118013638Y-69865637D01*
X118021932Y-69876190D01*
X118029720Y-69887143D01*
X118036987Y-69898478D01*
X118043714Y-69910177D01*
X118049883Y-69922223D01*
X118055478Y-69934597D01*
X118060480Y-69947284D01*
X118064872Y-69960264D01*
X118068637Y-69973521D01*
X118071756Y-69987037D01*
X118074213Y-70000794D01*
X118075990Y-70014776D01*
X118077068Y-70028963D01*
X118077432Y-70043339D01*
X118077068Y-70057715D01*
X118075990Y-70071903D01*
X118074213Y-70085884D01*
X118071756Y-70099641D01*
X118068637Y-70113157D01*
X118064872Y-70126414D01*
X118060480Y-70139394D01*
X118055478Y-70152081D01*
X118049883Y-70164456D01*
X118043714Y-70176501D01*
X118036987Y-70188200D01*
X118029720Y-70199535D01*
X118021932Y-70210488D01*
X118013638Y-70221042D01*
X118004858Y-70231178D01*
X117995607Y-70240881D01*
X117985905Y-70250131D01*
X117975769Y-70258911D01*
X117965215Y-70267205D01*
X117954262Y-70274994D01*
X117942927Y-70282260D01*
X117931228Y-70288987D01*
X117919183Y-70295156D01*
X117906808Y-70300751D01*
X117894121Y-70305753D01*
X117881141Y-70310145D01*
X117867884Y-70313910D01*
X117854368Y-70317029D01*
X117840611Y-70319486D01*
X117826630Y-70321263D01*
X117812442Y-70322341D01*
X117798066Y-70322705D01*
X117783690Y-70322341D01*
X117769503Y-70321263D01*
X117755521Y-70319486D01*
X117741764Y-70317029D01*
X117728248Y-70313910D01*
X117714991Y-70310145D01*
X117702011Y-70305753D01*
X117689324Y-70300751D01*
X117676950Y-70295156D01*
X117664904Y-70288987D01*
X117653205Y-70282260D01*
X117641870Y-70274994D01*
X117630917Y-70267205D01*
X117620364Y-70258911D01*
X117610227Y-70250131D01*
X117600525Y-70240881D01*
X117591275Y-70231178D01*
X117582494Y-70221042D01*
X117574201Y-70210488D01*
X117566412Y-70199535D01*
X117559145Y-70188200D01*
X117552418Y-70176501D01*
X117546249Y-70164456D01*
X117540654Y-70152081D01*
X117535652Y-70139394D01*
X117531260Y-70126414D01*
X117527496Y-70113157D01*
X117524376Y-70099641D01*
X117521919Y-70085884D01*
X117520143Y-70071903D01*
X117519064Y-70057715D01*
X117518700Y-70043339D01*
X117519064Y-70028963D01*
X117520143Y-70014776D01*
X117521919Y-70000794D01*
X117524376Y-69987037D01*
X117527496Y-69973521D01*
X117531260Y-69960264D01*
X117535652Y-69947284D01*
X117540654Y-69934597D01*
X117546249Y-69922223D01*
X117552418Y-69910177D01*
X117559145Y-69898478D01*
X117566412Y-69887143D01*
X117574201Y-69876190D01*
X117582494Y-69865637D01*
X117591275Y-69855500D01*
X117600525Y-69845798D01*
X117610227Y-69836548D01*
X117620364Y-69827767D01*
X117630917Y-69819474D01*
X117641870Y-69811685D01*
X117653205Y-69804418D01*
X117664904Y-69797691D01*
X117676950Y-69791522D01*
X117689324Y-69785927D01*
X117702011Y-69780925D01*
X117714991Y-69776533D01*
X117728248Y-69772769D01*
X117741764Y-69769649D01*
X117755521Y-69767192D01*
X117769503Y-69765416D01*
X117783690Y-69764337D01*
X117798066Y-69763974D01*
X117812442Y-69764337D01*
G37*
D12*
X115233559Y-70700121D02*
X115265309Y-70700121D01*
X115270600Y-70705413D01*
X115302350Y-70705413D01*
X115307642Y-70710704D01*
X115339392Y-70710704D01*
X115344684Y-70715996D01*
X115376434Y-70715996D01*
X115381725Y-70721288D01*
X115413475Y-70721288D01*
X115418767Y-70726579D01*
X115450517Y-70726579D01*
X115455809Y-70731871D01*
X115487559Y-70731871D01*
X115492850Y-70737163D01*
X115524600Y-70737163D01*
X115529892Y-70742455D01*
X115556350Y-70742455D01*
X115561642Y-70747746D01*
X115593392Y-70747746D01*
X115598684Y-70753038D01*
X115619850Y-70753038D01*
X115625142Y-70758329D01*
X115662184Y-70758329D01*
X115667475Y-70763621D01*
X115699225Y-70763621D01*
X115704517Y-70768913D01*
X115736267Y-70768913D01*
X115741559Y-70774204D01*
X115773309Y-70774204D01*
X115778600Y-70779496D01*
X115815642Y-70779496D01*
X115820934Y-70784788D01*
X115863267Y-70784788D01*
X115868559Y-70790079D01*
X115910892Y-70790079D01*
X115916184Y-70795371D01*
X115958517Y-70795371D01*
X115963809Y-70800663D01*
X115995559Y-70800663D01*
X116000850Y-70805954D01*
X116043184Y-70805954D01*
X116048475Y-70811246D01*
X116085517Y-70811246D01*
X116090809Y-70816538D01*
X116127850Y-70816538D01*
X116133142Y-70821830D01*
X116164892Y-70821830D01*
X116170184Y-70827121D01*
X116207225Y-70827121D01*
X116212517Y-70832413D01*
X116249559Y-70832413D01*
X116254850Y-70837704D01*
X116291892Y-70837704D01*
X116297184Y-70842996D01*
X116334225Y-70842996D01*
X116339517Y-70848288D01*
X116371267Y-70848288D01*
X116376559Y-70853579D01*
X116403017Y-70853579D01*
X116408309Y-70858871D01*
X116445350Y-70858871D01*
X116450642Y-70864163D01*
X116492975Y-70864163D01*
X116498267Y-70869454D01*
X116530017Y-70869454D01*
X116535309Y-70874746D01*
X116567059Y-70874746D01*
X116572350Y-70880038D01*
X116619975Y-70880038D01*
X116625267Y-70885329D01*
X116651725Y-70885329D01*
X116657017Y-70890621D01*
X116688767Y-70890621D01*
X116694059Y-70895913D01*
X116731100Y-70895913D01*
X116736392Y-70901205D01*
X116752267Y-70901205D01*
X116757559Y-70906496D01*
X116762850Y-70901205D01*
X116768142Y-70901205D01*
X116773434Y-70906496D01*
X116821059Y-70906496D01*
X116826350Y-70911788D01*
X116969225Y-70911788D01*
X116974517Y-70906496D01*
X117022142Y-70906496D01*
X117027434Y-70901205D01*
X117064475Y-70901205D01*
X117069767Y-70895913D01*
X117096225Y-70895913D01*
X117101517Y-70890621D01*
X117127975Y-70890621D01*
X117133267Y-70885329D01*
X117149142Y-70885329D01*
X117154434Y-70880038D01*
X117170309Y-70880038D01*
X117175600Y-70874746D01*
X117191475Y-70874746D01*
X117196767Y-70869454D01*
X117212642Y-70869454D01*
X117217934Y-70864163D01*
X117233809Y-70864163D01*
X117239100Y-70858871D01*
X117254975Y-70858871D01*
X117260267Y-70853579D01*
X117276142Y-70853579D01*
X117281434Y-70848288D01*
X117297309Y-70848288D01*
X117302600Y-70842996D01*
X117318475Y-70842996D01*
X117323767Y-70837704D01*
X117344933Y-70837704D01*
X117350225Y-70832413D01*
X117371392Y-70832413D01*
X117376684Y-70827121D01*
X117403142Y-70827121D01*
X117408433Y-70821830D01*
X117434892Y-70821830D01*
X117440184Y-70816538D01*
X117556600Y-70816538D01*
X117561892Y-70821830D01*
X117583058Y-70821830D01*
X117588350Y-70827121D01*
X117604225Y-70827121D01*
X117609517Y-70832413D01*
X117620100Y-70832413D01*
X117625392Y-70837704D01*
X117635975Y-70837704D01*
X117641267Y-70842996D01*
X117651850Y-70842996D01*
X117657142Y-70848288D01*
X117662433Y-70848288D01*
X117667725Y-70853579D01*
X117678309Y-70853579D01*
X117683600Y-70858871D01*
X117688892Y-70858871D01*
X117694184Y-70864163D01*
X117699475Y-70864163D01*
X117710059Y-70874746D01*
X117715350Y-70874746D01*
X117720642Y-70880038D01*
X117725933Y-70880038D01*
X117731225Y-70885329D01*
X117736517Y-70885329D01*
X117747100Y-70895913D01*
X117752392Y-70895913D01*
X117778850Y-70922371D01*
X117784142Y-70922371D01*
X117784142Y-70927663D01*
X117847642Y-70991163D01*
X117847642Y-70996454D01*
X117879392Y-71028204D01*
X117879392Y-71033496D01*
X117900558Y-71054663D01*
X117900558Y-71059954D01*
X117916434Y-71075829D01*
X117916434Y-71081121D01*
X117927017Y-71091704D01*
X117927017Y-71096996D01*
X117942892Y-71112871D01*
X117942892Y-71118163D01*
X117953475Y-71128746D01*
X117953475Y-71134038D01*
X117964058Y-71144621D01*
X117964058Y-71149913D01*
X117979933Y-71165788D01*
X117979933Y-71171079D01*
X117990517Y-71181663D01*
X117990517Y-71186954D01*
X118001100Y-71197538D01*
X118001100Y-71202829D01*
X118006392Y-71208121D01*
X118006392Y-71213413D01*
X118016975Y-71223996D01*
X118016975Y-71229288D01*
X118022267Y-71234579D01*
X118022267Y-71239871D01*
X118032850Y-71250454D01*
X118032850Y-71255746D01*
X118048725Y-71271621D01*
X118048725Y-71276913D01*
X118064600Y-71292788D01*
X118064600Y-71298079D01*
X118080475Y-71313954D01*
X118080475Y-71319246D01*
X118101642Y-71340413D01*
X118101642Y-71345704D01*
X118186309Y-71430371D01*
X118191600Y-71430371D01*
X118218058Y-71456829D01*
X118223350Y-71456829D01*
X118239225Y-71472704D01*
X118244517Y-71472704D01*
X118249809Y-71477996D01*
X118255100Y-71477996D01*
X118265684Y-71488579D01*
X118270975Y-71488579D01*
X118281558Y-71499163D01*
X118286850Y-71499163D01*
X118297433Y-71509746D01*
X118302725Y-71509746D01*
X118318600Y-71525621D01*
X118323892Y-71525621D01*
X118334475Y-71536204D01*
X118339767Y-71536204D01*
X118350350Y-71546788D01*
X118355642Y-71546788D01*
X118366225Y-71557371D01*
X118371517Y-71557371D01*
X118382100Y-71567954D01*
X118387392Y-71567954D01*
X118397975Y-71578538D01*
X118403267Y-71578538D01*
X118413850Y-71589121D01*
X118419142Y-71589121D01*
X118424434Y-71594413D01*
X118429725Y-71594413D01*
X118440308Y-71604996D01*
X118445600Y-71604996D01*
X118461475Y-71620871D01*
X118466767Y-71620871D01*
X118487934Y-71642038D01*
X118493225Y-71642038D01*
X118503809Y-71652621D01*
X118509100Y-71652621D01*
X118519683Y-71663204D01*
X118524975Y-71663204D01*
X118535558Y-71673788D01*
X118540850Y-71673788D01*
X118551433Y-71684371D01*
X118556725Y-71684371D01*
X118572600Y-71700246D01*
X118577892Y-71700246D01*
X118588475Y-71710829D01*
X118593767Y-71710829D01*
X118609642Y-71726704D01*
X118614933Y-71726704D01*
X118630808Y-71742579D01*
X118636100Y-71742579D01*
X118651975Y-71758454D01*
X118657267Y-71758454D01*
X118673142Y-71774329D01*
X118678433Y-71774329D01*
X118704892Y-71800788D01*
X118710183Y-71800788D01*
X118736642Y-71827246D01*
X118741934Y-71827246D01*
X118778975Y-71864288D01*
X118784267Y-71864288D01*
X118831892Y-71911913D01*
X118837183Y-71911913D01*
X118927142Y-72001871D01*
X118927142Y-72007163D01*
X118943017Y-72023038D01*
X118943017Y-72028329D01*
X118958892Y-72044204D01*
X118958892Y-72049496D01*
X118969475Y-72060079D01*
X118969475Y-72065371D01*
X118980059Y-72075954D01*
X118980059Y-72081246D01*
X118990642Y-72091829D01*
X118990642Y-72097121D01*
X119001225Y-72107704D01*
X119001225Y-72112996D01*
X119011808Y-72123579D01*
X119011808Y-72128871D01*
X119022392Y-72139454D01*
X119022392Y-72144746D01*
X119032975Y-72155329D01*
X119032975Y-72160621D01*
X119038267Y-72165913D01*
X119038267Y-72171204D01*
X119043559Y-72176496D01*
X119043559Y-72181788D01*
X119048850Y-72187079D01*
X119048850Y-72192371D01*
X119054142Y-72197663D01*
X119054142Y-72202954D01*
X119059434Y-72208246D01*
X119059434Y-72213538D01*
X119064725Y-72218829D01*
X119064725Y-72224121D01*
X119070017Y-72229413D01*
X119070017Y-72234704D01*
X119075308Y-72239996D01*
X119075308Y-72245288D01*
X119080600Y-72250579D01*
X119080600Y-72261163D01*
X119085892Y-72266454D01*
X119085892Y-72271746D01*
X119091183Y-72277038D01*
X119091183Y-72282329D01*
X119096475Y-72287621D01*
X119096475Y-72298204D01*
X119101767Y-72303496D01*
X119101767Y-72314079D01*
X119107058Y-72319371D01*
X119107058Y-72329954D01*
X119112350Y-72335246D01*
X119112350Y-72345829D01*
X119117642Y-72351121D01*
X119117642Y-72366996D01*
X119122934Y-72372288D01*
X119122934Y-72382871D01*
X119128225Y-72388163D01*
X119128225Y-72404038D01*
X119133517Y-72409329D01*
X119133517Y-72430496D01*
X119138809Y-72435788D01*
X119138809Y-72456954D01*
X119144100Y-72462246D01*
X119144100Y-72493996D01*
X119149392Y-72499288D01*
X119149392Y-72636871D01*
X119144100Y-72642163D01*
X119144100Y-72668621D01*
X119138809Y-72673913D01*
X119138809Y-72695079D01*
X119133517Y-72700371D01*
X119133517Y-72716246D01*
X119128225Y-72721538D01*
X119128225Y-72732121D01*
X119122934Y-72737413D01*
X119122934Y-72747996D01*
X119117642Y-72753288D01*
X119117642Y-72769163D01*
X119112350Y-72774454D01*
X119112350Y-72779746D01*
X119107058Y-72785038D01*
X119107058Y-72795621D01*
X119101767Y-72800913D01*
X119101767Y-72806204D01*
X119096475Y-72811496D01*
X119096475Y-72816788D01*
X119091183Y-72822079D01*
X119091183Y-72827371D01*
X119085892Y-72832663D01*
X119085892Y-72837954D01*
X119080600Y-72843246D01*
X119080600Y-72848538D01*
X119075308Y-72853829D01*
X119075308Y-72859121D01*
X119070017Y-72864413D01*
X119070017Y-72869704D01*
X119064725Y-72874996D01*
X119064725Y-72880288D01*
X119054142Y-72890871D01*
X119054142Y-72896163D01*
X119043559Y-72906746D01*
X119043559Y-72912038D01*
X119032975Y-72922621D01*
X119032975Y-72927913D01*
X119017100Y-72943788D01*
X119017100Y-72949079D01*
X118943017Y-73023163D01*
X118937725Y-73023163D01*
X118921850Y-73039038D01*
X118916558Y-73039038D01*
X118905975Y-73049621D01*
X118900684Y-73049621D01*
X118890100Y-73060204D01*
X118884809Y-73060204D01*
X118874225Y-73070788D01*
X118868933Y-73070788D01*
X118863642Y-73076079D01*
X118858350Y-73076079D01*
X118847767Y-73086663D01*
X118842475Y-73086663D01*
X118837183Y-73091954D01*
X118831892Y-73091954D01*
X118826600Y-73097246D01*
X118821309Y-73097246D01*
X118816017Y-73102538D01*
X118805434Y-73102538D01*
X118800142Y-73107829D01*
X118794850Y-73107829D01*
X118789558Y-73113121D01*
X118784267Y-73113121D01*
X118778975Y-73118413D01*
X118768392Y-73118413D01*
X118763100Y-73123704D01*
X118752517Y-73123704D01*
X118747225Y-73128996D01*
X118736642Y-73128996D01*
X118731350Y-73134288D01*
X118720767Y-73134288D01*
X118715475Y-73139579D01*
X118699600Y-73139579D01*
X118694308Y-73144871D01*
X118673142Y-73144871D01*
X118667850Y-73150163D01*
X118646684Y-73150163D01*
X118641392Y-73155454D01*
X118593767Y-73155454D01*
X118588475Y-73160746D01*
X118509100Y-73160746D01*
X118503809Y-73155454D01*
X118461475Y-73155454D01*
X118456183Y-73150163D01*
X118429725Y-73150163D01*
X118424434Y-73144871D01*
X118408559Y-73144871D01*
X118403267Y-73139579D01*
X118387392Y-73139579D01*
X118382100Y-73134288D01*
X118366225Y-73134288D01*
X118360933Y-73128996D01*
X118345059Y-73128996D01*
X118339767Y-73123704D01*
X118329184Y-73123704D01*
X118323892Y-73118413D01*
X118313309Y-73118413D01*
X118308017Y-73113121D01*
X118302725Y-73113121D01*
X118297433Y-73107829D01*
X118286850Y-73107829D01*
X118281558Y-73102538D01*
X118276267Y-73102538D01*
X118270975Y-73097246D01*
X118260392Y-73097246D01*
X118255100Y-73091954D01*
X118249809Y-73091954D01*
X118244517Y-73086663D01*
X118233934Y-73086663D01*
X118228642Y-73081371D01*
X118223350Y-73081371D01*
X118218058Y-73076079D01*
X118212767Y-73076079D01*
X118207475Y-73070788D01*
X118196892Y-73070788D01*
X118191600Y-73065496D01*
X118186309Y-73065496D01*
X118181017Y-73060204D01*
X118175725Y-73060204D01*
X118170434Y-73054913D01*
X118165142Y-73054913D01*
X118159850Y-73049621D01*
X118154559Y-73049621D01*
X118149267Y-73044329D01*
X118143975Y-73044329D01*
X118138683Y-73039038D01*
X118133392Y-73039038D01*
X118128100Y-73033746D01*
X118122808Y-73033746D01*
X118117517Y-73028454D01*
X118112225Y-73028454D01*
X118101642Y-73017871D01*
X118096350Y-73017871D01*
X118091059Y-73012579D01*
X118085767Y-73012579D01*
X118075184Y-73001996D01*
X118069892Y-73001996D01*
X118059308Y-72991413D01*
X118054017Y-72991413D01*
X118048725Y-72986121D01*
X118043433Y-72986121D01*
X118032850Y-72975538D01*
X118027559Y-72975538D01*
X118016975Y-72964954D01*
X118011684Y-72964954D01*
X118001100Y-72954371D01*
X117995809Y-72954371D01*
X117985225Y-72943788D01*
X117979933Y-72943788D01*
X117969350Y-72933204D01*
X117964058Y-72933204D01*
X117953475Y-72922621D01*
X117948184Y-72922621D01*
X117937600Y-72912038D01*
X117932309Y-72912038D01*
X117921725Y-72901454D01*
X117916434Y-72901454D01*
X117905850Y-72890871D01*
X117900558Y-72890871D01*
X117889975Y-72880288D01*
X117884683Y-72880288D01*
X117868809Y-72864413D01*
X117863517Y-72864413D01*
X117852934Y-72853829D01*
X117847642Y-72853829D01*
X117837059Y-72843246D01*
X117831767Y-72843246D01*
X117815892Y-72827371D01*
X117810600Y-72827371D01*
X117805308Y-72822079D01*
X117800017Y-72822079D01*
X117784142Y-72806204D01*
X117778850Y-72806204D01*
X117768267Y-72795621D01*
X117762975Y-72795621D01*
X117747100Y-72779746D01*
X117741808Y-72779746D01*
X117731225Y-72769163D01*
X117725933Y-72769163D01*
X117710059Y-72753288D01*
X117704767Y-72753288D01*
X117688892Y-72737413D01*
X117683600Y-72737413D01*
X117673017Y-72726829D01*
X117667725Y-72726829D01*
X117651850Y-72710954D01*
X117646558Y-72710954D01*
X117630684Y-72695079D01*
X117625392Y-72695079D01*
X117609517Y-72679204D01*
X117604225Y-72679204D01*
X117588350Y-72663329D01*
X117583058Y-72663329D01*
X117567183Y-72647454D01*
X117561892Y-72647454D01*
X117546017Y-72631579D01*
X117540725Y-72631579D01*
X117530142Y-72620996D01*
X117524850Y-72620996D01*
X117508975Y-72605121D01*
X117503683Y-72605121D01*
X117487808Y-72589246D01*
X117482517Y-72589246D01*
X117466642Y-72573371D01*
X117461350Y-72573371D01*
X117445475Y-72557496D01*
X117440184Y-72557496D01*
X117424308Y-72541621D01*
X117419017Y-72541621D01*
X117403142Y-72525746D01*
X117397850Y-72525746D01*
X117381975Y-72509871D01*
X117376684Y-72509871D01*
X117360809Y-72493996D01*
X117355517Y-72493996D01*
X117350225Y-72488704D01*
X117344933Y-72488704D01*
X117334350Y-72478121D01*
X117329058Y-72478121D01*
X117313184Y-72462246D01*
X117307892Y-72462246D01*
X117297309Y-72451663D01*
X117292017Y-72451663D01*
X117276142Y-72435788D01*
X117270850Y-72435788D01*
X117260267Y-72425204D01*
X117254975Y-72425204D01*
X117239100Y-72409329D01*
X117233809Y-72409329D01*
X117217934Y-72393454D01*
X117212642Y-72393454D01*
X117202058Y-72382871D01*
X117196767Y-72382871D01*
X117180892Y-72366996D01*
X117175600Y-72366996D01*
X117165017Y-72356413D01*
X117159725Y-72356413D01*
X117149142Y-72345829D01*
X117143850Y-72345829D01*
X117133267Y-72335246D01*
X117127975Y-72335246D01*
X117117392Y-72324663D01*
X117112100Y-72324663D01*
X117101517Y-72314079D01*
X117096225Y-72314079D01*
X117085642Y-72303496D01*
X117080350Y-72303496D01*
X117075059Y-72298204D01*
X117069767Y-72298204D01*
X117059184Y-72287621D01*
X117053892Y-72287621D01*
X117043308Y-72277038D01*
X117038017Y-72277038D01*
X117032725Y-72271746D01*
X117027434Y-72271746D01*
X117022142Y-72266454D01*
X117016850Y-72266454D01*
X117011559Y-72261163D01*
X117006267Y-72261163D01*
X117000975Y-72255871D01*
X116995684Y-72255871D01*
X116985100Y-72245288D01*
X116979809Y-72245288D01*
X116974517Y-72239996D01*
X116969225Y-72239996D01*
X116963933Y-72234704D01*
X116958642Y-72234704D01*
X116953350Y-72229413D01*
X116942767Y-72229413D01*
X116937475Y-72224121D01*
X116932184Y-72224121D01*
X116926892Y-72218829D01*
X116921600Y-72218829D01*
X116916309Y-72213538D01*
X116911017Y-72213538D01*
X116905725Y-72208246D01*
X116900434Y-72208246D01*
X116895142Y-72202954D01*
X116884559Y-72202954D01*
X116879267Y-72197663D01*
X116868684Y-72197663D01*
X116863392Y-72192371D01*
X116858100Y-72192371D01*
X116852809Y-72187079D01*
X116842225Y-72187079D01*
X116836934Y-72181788D01*
X116831642Y-72181788D01*
X116826350Y-72176496D01*
X116815767Y-72176496D01*
X116810475Y-72171204D01*
X116799892Y-72171204D01*
X116794600Y-72165913D01*
X116784017Y-72165913D01*
X116778725Y-72160621D01*
X116762850Y-72160621D01*
X116757559Y-72155329D01*
X116741684Y-72155329D01*
X116736392Y-72150038D01*
X116709934Y-72150038D01*
X116704642Y-72144746D01*
X116683475Y-72144746D01*
X116678184Y-72139454D01*
X116646434Y-72139454D01*
X116641142Y-72134163D01*
X116593517Y-72134163D01*
X116588225Y-72128871D01*
X116551184Y-72128871D01*
X116545892Y-72123579D01*
X116514142Y-72123579D01*
X116508850Y-72118288D01*
X116471809Y-72118288D01*
X116466517Y-72112996D01*
X116440059Y-72112996D01*
X116434767Y-72107704D01*
X116403017Y-72107704D01*
X116397725Y-72102413D01*
X116360684Y-72102413D01*
X116355392Y-72097121D01*
X116328934Y-72097121D01*
X116323642Y-72091829D01*
X116297184Y-72091829D01*
X116291892Y-72086538D01*
X116260142Y-72086538D01*
X116254850Y-72081246D01*
X116223100Y-72081246D01*
X116217809Y-72075954D01*
X116186059Y-72075954D01*
X116180767Y-72070663D01*
X116154309Y-72070663D01*
X116149017Y-72065371D01*
X116122559Y-72065371D01*
X116117267Y-72060079D01*
X116090809Y-72060079D01*
X116085517Y-72054788D01*
X116059059Y-72054788D01*
X116053767Y-72049496D01*
X116027309Y-72049496D01*
X116022017Y-72044204D01*
X115995559Y-72044204D01*
X115990267Y-72038913D01*
X115963809Y-72038913D01*
X115958517Y-72033621D01*
X115932059Y-72033621D01*
X115926767Y-72028329D01*
X115900309Y-72028329D01*
X115895017Y-72023038D01*
X115873850Y-72023038D01*
X115868559Y-72017746D01*
X115842100Y-72017746D01*
X115836809Y-72012454D01*
X115810350Y-72012454D01*
X115805059Y-72007163D01*
X115783892Y-72007163D01*
X115778600Y-72001871D01*
X115746850Y-72001871D01*
X115741559Y-71996579D01*
X115715100Y-71996579D01*
X115709809Y-71991288D01*
X115688642Y-71991288D01*
X115683350Y-71985996D01*
X115656892Y-71985996D01*
X115651600Y-71980704D01*
X115625142Y-71980704D01*
X115619850Y-71975413D01*
X115588100Y-71975413D01*
X115582809Y-71970121D01*
X115561642Y-71970121D01*
X115556350Y-71964829D01*
X115529892Y-71964829D01*
X115524600Y-71959538D01*
X115498142Y-71959538D01*
X115492850Y-71954246D01*
X115461100Y-71954246D01*
X115455809Y-71948954D01*
X115434642Y-71948954D01*
X115429350Y-71943663D01*
X115402892Y-71943663D01*
X115397600Y-71938371D01*
X115371142Y-71938371D01*
X115365850Y-71933079D01*
X115339392Y-71933079D01*
X115334100Y-71927788D01*
X115307642Y-71927788D01*
X115302350Y-71922496D01*
X115275892Y-71922496D01*
X115270600Y-71917204D01*
X115244142Y-71917204D01*
X115238850Y-71911913D01*
X115207100Y-71911913D01*
X115201809Y-71906621D01*
X115175350Y-71906621D01*
X115170059Y-71901329D01*
X115143600Y-71901329D01*
X115138309Y-71896038D01*
X115106559Y-71896038D01*
X115101267Y-71890746D01*
X115074809Y-71890746D01*
X115069517Y-71885454D01*
X115058934Y-71885454D01*
X115053642Y-71880163D01*
X115048350Y-71880163D01*
X115043059Y-71874871D01*
X115037767Y-71874871D01*
X115021892Y-71858996D01*
X115021892Y-71853704D01*
X115016600Y-71848413D01*
X115016600Y-71843121D01*
X115011309Y-71837829D01*
X115011309Y-71769038D01*
X115016600Y-71763746D01*
X115016600Y-71721413D01*
X115021892Y-71716121D01*
X115021892Y-71663204D01*
X115027184Y-71657913D01*
X115027184Y-71610288D01*
X115032475Y-71604996D01*
X115032475Y-71562663D01*
X115037767Y-71557371D01*
X115037767Y-71509746D01*
X115043059Y-71504454D01*
X115043059Y-71456829D01*
X115048350Y-71451538D01*
X115048350Y-71403913D01*
X115053642Y-71398621D01*
X115053642Y-71350996D01*
X115058934Y-71345704D01*
X115058934Y-71303371D01*
X115064225Y-71298079D01*
X115064225Y-71255746D01*
X115069517Y-71250454D01*
X115069517Y-71197538D01*
X115074809Y-71192246D01*
X115074809Y-71149913D01*
X115080100Y-71144621D01*
X115080100Y-71096996D01*
X115085392Y-71091704D01*
X115085392Y-71049371D01*
X115090684Y-71044079D01*
X115090684Y-70996454D01*
X115095975Y-70991163D01*
X115095975Y-70948829D01*
X115101267Y-70943538D01*
X115101267Y-70895913D01*
X115106559Y-70890621D01*
X115106559Y-70842996D01*
X115111850Y-70837704D01*
X115111850Y-70795371D01*
X115117142Y-70790079D01*
X115117142Y-70753038D01*
X115122434Y-70747746D01*
X115122434Y-70737163D01*
X115127725Y-70731871D01*
X115127725Y-70726579D01*
X115148892Y-70705413D01*
X115154184Y-70705413D01*
X115159475Y-70700121D01*
X115164767Y-70700121D01*
X115170059Y-70694829D01*
X115228267Y-70694829D01*
X115233559Y-70700121D01*
G36*
X115233559Y-70700121D02*
G01*
X115265309Y-70700121D01*
X115270600Y-70705413D01*
X115302350Y-70705413D01*
X115307642Y-70710704D01*
X115339392Y-70710704D01*
X115344684Y-70715996D01*
X115376434Y-70715996D01*
X115381725Y-70721288D01*
X115413475Y-70721288D01*
X115418767Y-70726579D01*
X115450517Y-70726579D01*
X115455809Y-70731871D01*
X115487559Y-70731871D01*
X115492850Y-70737163D01*
X115524600Y-70737163D01*
X115529892Y-70742455D01*
X115556350Y-70742455D01*
X115561642Y-70747746D01*
X115593392Y-70747746D01*
X115598684Y-70753038D01*
X115619850Y-70753038D01*
X115625142Y-70758329D01*
X115662184Y-70758329D01*
X115667475Y-70763621D01*
X115699225Y-70763621D01*
X115704517Y-70768913D01*
X115736267Y-70768913D01*
X115741559Y-70774204D01*
X115773309Y-70774204D01*
X115778600Y-70779496D01*
X115815642Y-70779496D01*
X115820934Y-70784788D01*
X115863267Y-70784788D01*
X115868559Y-70790079D01*
X115910892Y-70790079D01*
X115916184Y-70795371D01*
X115958517Y-70795371D01*
X115963809Y-70800663D01*
X115995559Y-70800663D01*
X116000850Y-70805954D01*
X116043184Y-70805954D01*
X116048475Y-70811246D01*
X116085517Y-70811246D01*
X116090809Y-70816538D01*
X116127850Y-70816538D01*
X116133142Y-70821830D01*
X116164892Y-70821830D01*
X116170184Y-70827121D01*
X116207225Y-70827121D01*
X116212517Y-70832413D01*
X116249559Y-70832413D01*
X116254850Y-70837704D01*
X116291892Y-70837704D01*
X116297184Y-70842996D01*
X116334225Y-70842996D01*
X116339517Y-70848288D01*
X116371267Y-70848288D01*
X116376559Y-70853579D01*
X116403017Y-70853579D01*
X116408309Y-70858871D01*
X116445350Y-70858871D01*
X116450642Y-70864163D01*
X116492975Y-70864163D01*
X116498267Y-70869454D01*
X116530017Y-70869454D01*
X116535309Y-70874746D01*
X116567059Y-70874746D01*
X116572350Y-70880038D01*
X116619975Y-70880038D01*
X116625267Y-70885329D01*
X116651725Y-70885329D01*
X116657017Y-70890621D01*
X116688767Y-70890621D01*
X116694059Y-70895913D01*
X116731100Y-70895913D01*
X116736392Y-70901205D01*
X116752267Y-70901205D01*
X116757559Y-70906496D01*
X116762850Y-70901205D01*
X116768142Y-70901205D01*
X116773434Y-70906496D01*
X116821059Y-70906496D01*
X116826350Y-70911788D01*
X116969225Y-70911788D01*
X116974517Y-70906496D01*
X117022142Y-70906496D01*
X117027434Y-70901205D01*
X117064475Y-70901205D01*
X117069767Y-70895913D01*
X117096225Y-70895913D01*
X117101517Y-70890621D01*
X117127975Y-70890621D01*
X117133267Y-70885329D01*
X117149142Y-70885329D01*
X117154434Y-70880038D01*
X117170309Y-70880038D01*
X117175600Y-70874746D01*
X117191475Y-70874746D01*
X117196767Y-70869454D01*
X117212642Y-70869454D01*
X117217934Y-70864163D01*
X117233809Y-70864163D01*
X117239100Y-70858871D01*
X117254975Y-70858871D01*
X117260267Y-70853579D01*
X117276142Y-70853579D01*
X117281434Y-70848288D01*
X117297309Y-70848288D01*
X117302600Y-70842996D01*
X117318475Y-70842996D01*
X117323767Y-70837704D01*
X117344933Y-70837704D01*
X117350225Y-70832413D01*
X117371392Y-70832413D01*
X117376684Y-70827121D01*
X117403142Y-70827121D01*
X117408433Y-70821830D01*
X117434892Y-70821830D01*
X117440184Y-70816538D01*
X117556600Y-70816538D01*
X117561892Y-70821830D01*
X117583058Y-70821830D01*
X117588350Y-70827121D01*
X117604225Y-70827121D01*
X117609517Y-70832413D01*
X117620100Y-70832413D01*
X117625392Y-70837704D01*
X117635975Y-70837704D01*
X117641267Y-70842996D01*
X117651850Y-70842996D01*
X117657142Y-70848288D01*
X117662433Y-70848288D01*
X117667725Y-70853579D01*
X117678309Y-70853579D01*
X117683600Y-70858871D01*
X117688892Y-70858871D01*
X117694184Y-70864163D01*
X117699475Y-70864163D01*
X117710059Y-70874746D01*
X117715350Y-70874746D01*
X117720642Y-70880038D01*
X117725933Y-70880038D01*
X117731225Y-70885329D01*
X117736517Y-70885329D01*
X117747100Y-70895913D01*
X117752392Y-70895913D01*
X117778850Y-70922371D01*
X117784142Y-70922371D01*
X117784142Y-70927663D01*
X117847642Y-70991163D01*
X117847642Y-70996454D01*
X117879392Y-71028204D01*
X117879392Y-71033496D01*
X117900558Y-71054663D01*
X117900558Y-71059954D01*
X117916434Y-71075829D01*
X117916434Y-71081121D01*
X117927017Y-71091704D01*
X117927017Y-71096996D01*
X117942892Y-71112871D01*
X117942892Y-71118163D01*
X117953475Y-71128746D01*
X117953475Y-71134038D01*
X117964058Y-71144621D01*
X117964058Y-71149913D01*
X117979933Y-71165788D01*
X117979933Y-71171079D01*
X117990517Y-71181663D01*
X117990517Y-71186954D01*
X118001100Y-71197538D01*
X118001100Y-71202829D01*
X118006392Y-71208121D01*
X118006392Y-71213413D01*
X118016975Y-71223996D01*
X118016975Y-71229288D01*
X118022267Y-71234579D01*
X118022267Y-71239871D01*
X118032850Y-71250454D01*
X118032850Y-71255746D01*
X118048725Y-71271621D01*
X118048725Y-71276913D01*
X118064600Y-71292788D01*
X118064600Y-71298079D01*
X118080475Y-71313954D01*
X118080475Y-71319246D01*
X118101642Y-71340413D01*
X118101642Y-71345704D01*
X118186309Y-71430371D01*
X118191600Y-71430371D01*
X118218058Y-71456829D01*
X118223350Y-71456829D01*
X118239225Y-71472704D01*
X118244517Y-71472704D01*
X118249809Y-71477996D01*
X118255100Y-71477996D01*
X118265684Y-71488579D01*
X118270975Y-71488579D01*
X118281558Y-71499163D01*
X118286850Y-71499163D01*
X118297433Y-71509746D01*
X118302725Y-71509746D01*
X118318600Y-71525621D01*
X118323892Y-71525621D01*
X118334475Y-71536204D01*
X118339767Y-71536204D01*
X118350350Y-71546788D01*
X118355642Y-71546788D01*
X118366225Y-71557371D01*
X118371517Y-71557371D01*
X118382100Y-71567954D01*
X118387392Y-71567954D01*
X118397975Y-71578538D01*
X118403267Y-71578538D01*
X118413850Y-71589121D01*
X118419142Y-71589121D01*
X118424434Y-71594413D01*
X118429725Y-71594413D01*
X118440308Y-71604996D01*
X118445600Y-71604996D01*
X118461475Y-71620871D01*
X118466767Y-71620871D01*
X118487934Y-71642038D01*
X118493225Y-71642038D01*
X118503809Y-71652621D01*
X118509100Y-71652621D01*
X118519683Y-71663204D01*
X118524975Y-71663204D01*
X118535558Y-71673788D01*
X118540850Y-71673788D01*
X118551433Y-71684371D01*
X118556725Y-71684371D01*
X118572600Y-71700246D01*
X118577892Y-71700246D01*
X118588475Y-71710829D01*
X118593767Y-71710829D01*
X118609642Y-71726704D01*
X118614933Y-71726704D01*
X118630808Y-71742579D01*
X118636100Y-71742579D01*
X118651975Y-71758454D01*
X118657267Y-71758454D01*
X118673142Y-71774329D01*
X118678433Y-71774329D01*
X118704892Y-71800788D01*
X118710183Y-71800788D01*
X118736642Y-71827246D01*
X118741934Y-71827246D01*
X118778975Y-71864288D01*
X118784267Y-71864288D01*
X118831892Y-71911913D01*
X118837183Y-71911913D01*
X118927142Y-72001871D01*
X118927142Y-72007163D01*
X118943017Y-72023038D01*
X118943017Y-72028329D01*
X118958892Y-72044204D01*
X118958892Y-72049496D01*
X118969475Y-72060079D01*
X118969475Y-72065371D01*
X118980059Y-72075954D01*
X118980059Y-72081246D01*
X118990642Y-72091829D01*
X118990642Y-72097121D01*
X119001225Y-72107704D01*
X119001225Y-72112996D01*
X119011808Y-72123579D01*
X119011808Y-72128871D01*
X119022392Y-72139454D01*
X119022392Y-72144746D01*
X119032975Y-72155329D01*
X119032975Y-72160621D01*
X119038267Y-72165913D01*
X119038267Y-72171204D01*
X119043559Y-72176496D01*
X119043559Y-72181788D01*
X119048850Y-72187079D01*
X119048850Y-72192371D01*
X119054142Y-72197663D01*
X119054142Y-72202954D01*
X119059434Y-72208246D01*
X119059434Y-72213538D01*
X119064725Y-72218829D01*
X119064725Y-72224121D01*
X119070017Y-72229413D01*
X119070017Y-72234704D01*
X119075308Y-72239996D01*
X119075308Y-72245288D01*
X119080600Y-72250579D01*
X119080600Y-72261163D01*
X119085892Y-72266454D01*
X119085892Y-72271746D01*
X119091183Y-72277038D01*
X119091183Y-72282329D01*
X119096475Y-72287621D01*
X119096475Y-72298204D01*
X119101767Y-72303496D01*
X119101767Y-72314079D01*
X119107058Y-72319371D01*
X119107058Y-72329954D01*
X119112350Y-72335246D01*
X119112350Y-72345829D01*
X119117642Y-72351121D01*
X119117642Y-72366996D01*
X119122934Y-72372288D01*
X119122934Y-72382871D01*
X119128225Y-72388163D01*
X119128225Y-72404038D01*
X119133517Y-72409329D01*
X119133517Y-72430496D01*
X119138809Y-72435788D01*
X119138809Y-72456954D01*
X119144100Y-72462246D01*
X119144100Y-72493996D01*
X119149392Y-72499288D01*
X119149392Y-72636871D01*
X119144100Y-72642163D01*
X119144100Y-72668621D01*
X119138809Y-72673913D01*
X119138809Y-72695079D01*
X119133517Y-72700371D01*
X119133517Y-72716246D01*
X119128225Y-72721538D01*
X119128225Y-72732121D01*
X119122934Y-72737413D01*
X119122934Y-72747996D01*
X119117642Y-72753288D01*
X119117642Y-72769163D01*
X119112350Y-72774454D01*
X119112350Y-72779746D01*
X119107058Y-72785038D01*
X119107058Y-72795621D01*
X119101767Y-72800913D01*
X119101767Y-72806204D01*
X119096475Y-72811496D01*
X119096475Y-72816788D01*
X119091183Y-72822079D01*
X119091183Y-72827371D01*
X119085892Y-72832663D01*
X119085892Y-72837954D01*
X119080600Y-72843246D01*
X119080600Y-72848538D01*
X119075308Y-72853829D01*
X119075308Y-72859121D01*
X119070017Y-72864413D01*
X119070017Y-72869704D01*
X119064725Y-72874996D01*
X119064725Y-72880288D01*
X119054142Y-72890871D01*
X119054142Y-72896163D01*
X119043559Y-72906746D01*
X119043559Y-72912038D01*
X119032975Y-72922621D01*
X119032975Y-72927913D01*
X119017100Y-72943788D01*
X119017100Y-72949079D01*
X118943017Y-73023163D01*
X118937725Y-73023163D01*
X118921850Y-73039038D01*
X118916558Y-73039038D01*
X118905975Y-73049621D01*
X118900684Y-73049621D01*
X118890100Y-73060204D01*
X118884809Y-73060204D01*
X118874225Y-73070788D01*
X118868933Y-73070788D01*
X118863642Y-73076079D01*
X118858350Y-73076079D01*
X118847767Y-73086663D01*
X118842475Y-73086663D01*
X118837183Y-73091954D01*
X118831892Y-73091954D01*
X118826600Y-73097246D01*
X118821309Y-73097246D01*
X118816017Y-73102538D01*
X118805434Y-73102538D01*
X118800142Y-73107829D01*
X118794850Y-73107829D01*
X118789558Y-73113121D01*
X118784267Y-73113121D01*
X118778975Y-73118413D01*
X118768392Y-73118413D01*
X118763100Y-73123704D01*
X118752517Y-73123704D01*
X118747225Y-73128996D01*
X118736642Y-73128996D01*
X118731350Y-73134288D01*
X118720767Y-73134288D01*
X118715475Y-73139579D01*
X118699600Y-73139579D01*
X118694308Y-73144871D01*
X118673142Y-73144871D01*
X118667850Y-73150163D01*
X118646684Y-73150163D01*
X118641392Y-73155454D01*
X118593767Y-73155454D01*
X118588475Y-73160746D01*
X118509100Y-73160746D01*
X118503809Y-73155454D01*
X118461475Y-73155454D01*
X118456183Y-73150163D01*
X118429725Y-73150163D01*
X118424434Y-73144871D01*
X118408559Y-73144871D01*
X118403267Y-73139579D01*
X118387392Y-73139579D01*
X118382100Y-73134288D01*
X118366225Y-73134288D01*
X118360933Y-73128996D01*
X118345059Y-73128996D01*
X118339767Y-73123704D01*
X118329184Y-73123704D01*
X118323892Y-73118413D01*
X118313309Y-73118413D01*
X118308017Y-73113121D01*
X118302725Y-73113121D01*
X118297433Y-73107829D01*
X118286850Y-73107829D01*
X118281558Y-73102538D01*
X118276267Y-73102538D01*
X118270975Y-73097246D01*
X118260392Y-73097246D01*
X118255100Y-73091954D01*
X118249809Y-73091954D01*
X118244517Y-73086663D01*
X118233934Y-73086663D01*
X118228642Y-73081371D01*
X118223350Y-73081371D01*
X118218058Y-73076079D01*
X118212767Y-73076079D01*
X118207475Y-73070788D01*
X118196892Y-73070788D01*
X118191600Y-73065496D01*
X118186309Y-73065496D01*
X118181017Y-73060204D01*
X118175725Y-73060204D01*
X118170434Y-73054913D01*
X118165142Y-73054913D01*
X118159850Y-73049621D01*
X118154559Y-73049621D01*
X118149267Y-73044329D01*
X118143975Y-73044329D01*
X118138683Y-73039038D01*
X118133392Y-73039038D01*
X118128100Y-73033746D01*
X118122808Y-73033746D01*
X118117517Y-73028454D01*
X118112225Y-73028454D01*
X118101642Y-73017871D01*
X118096350Y-73017871D01*
X118091059Y-73012579D01*
X118085767Y-73012579D01*
X118075184Y-73001996D01*
X118069892Y-73001996D01*
X118059308Y-72991413D01*
X118054017Y-72991413D01*
X118048725Y-72986121D01*
X118043433Y-72986121D01*
X118032850Y-72975538D01*
X118027559Y-72975538D01*
X118016975Y-72964954D01*
X118011684Y-72964954D01*
X118001100Y-72954371D01*
X117995809Y-72954371D01*
X117985225Y-72943788D01*
X117979933Y-72943788D01*
X117969350Y-72933204D01*
X117964058Y-72933204D01*
X117953475Y-72922621D01*
X117948184Y-72922621D01*
X117937600Y-72912038D01*
X117932309Y-72912038D01*
X117921725Y-72901454D01*
X117916434Y-72901454D01*
X117905850Y-72890871D01*
X117900558Y-72890871D01*
X117889975Y-72880288D01*
X117884683Y-72880288D01*
X117868809Y-72864413D01*
X117863517Y-72864413D01*
X117852934Y-72853829D01*
X117847642Y-72853829D01*
X117837059Y-72843246D01*
X117831767Y-72843246D01*
X117815892Y-72827371D01*
X117810600Y-72827371D01*
X117805308Y-72822079D01*
X117800017Y-72822079D01*
X117784142Y-72806204D01*
X117778850Y-72806204D01*
X117768267Y-72795621D01*
X117762975Y-72795621D01*
X117747100Y-72779746D01*
X117741808Y-72779746D01*
X117731225Y-72769163D01*
X117725933Y-72769163D01*
X117710059Y-72753288D01*
X117704767Y-72753288D01*
X117688892Y-72737413D01*
X117683600Y-72737413D01*
X117673017Y-72726829D01*
X117667725Y-72726829D01*
X117651850Y-72710954D01*
X117646558Y-72710954D01*
X117630684Y-72695079D01*
X117625392Y-72695079D01*
X117609517Y-72679204D01*
X117604225Y-72679204D01*
X117588350Y-72663329D01*
X117583058Y-72663329D01*
X117567183Y-72647454D01*
X117561892Y-72647454D01*
X117546017Y-72631579D01*
X117540725Y-72631579D01*
X117530142Y-72620996D01*
X117524850Y-72620996D01*
X117508975Y-72605121D01*
X117503683Y-72605121D01*
X117487808Y-72589246D01*
X117482517Y-72589246D01*
X117466642Y-72573371D01*
X117461350Y-72573371D01*
X117445475Y-72557496D01*
X117440184Y-72557496D01*
X117424308Y-72541621D01*
X117419017Y-72541621D01*
X117403142Y-72525746D01*
X117397850Y-72525746D01*
X117381975Y-72509871D01*
X117376684Y-72509871D01*
X117360809Y-72493996D01*
X117355517Y-72493996D01*
X117350225Y-72488704D01*
X117344933Y-72488704D01*
X117334350Y-72478121D01*
X117329058Y-72478121D01*
X117313184Y-72462246D01*
X117307892Y-72462246D01*
X117297309Y-72451663D01*
X117292017Y-72451663D01*
X117276142Y-72435788D01*
X117270850Y-72435788D01*
X117260267Y-72425204D01*
X117254975Y-72425204D01*
X117239100Y-72409329D01*
X117233809Y-72409329D01*
X117217934Y-72393454D01*
X117212642Y-72393454D01*
X117202058Y-72382871D01*
X117196767Y-72382871D01*
X117180892Y-72366996D01*
X117175600Y-72366996D01*
X117165017Y-72356413D01*
X117159725Y-72356413D01*
X117149142Y-72345829D01*
X117143850Y-72345829D01*
X117133267Y-72335246D01*
X117127975Y-72335246D01*
X117117392Y-72324663D01*
X117112100Y-72324663D01*
X117101517Y-72314079D01*
X117096225Y-72314079D01*
X117085642Y-72303496D01*
X117080350Y-72303496D01*
X117075059Y-72298204D01*
X117069767Y-72298204D01*
X117059184Y-72287621D01*
X117053892Y-72287621D01*
X117043308Y-72277038D01*
X117038017Y-72277038D01*
X117032725Y-72271746D01*
X117027434Y-72271746D01*
X117022142Y-72266454D01*
X117016850Y-72266454D01*
X117011559Y-72261163D01*
X117006267Y-72261163D01*
X117000975Y-72255871D01*
X116995684Y-72255871D01*
X116985100Y-72245288D01*
X116979809Y-72245288D01*
X116974517Y-72239996D01*
X116969225Y-72239996D01*
X116963933Y-72234704D01*
X116958642Y-72234704D01*
X116953350Y-72229413D01*
X116942767Y-72229413D01*
X116937475Y-72224121D01*
X116932184Y-72224121D01*
X116926892Y-72218829D01*
X116921600Y-72218829D01*
X116916309Y-72213538D01*
X116911017Y-72213538D01*
X116905725Y-72208246D01*
X116900434Y-72208246D01*
X116895142Y-72202954D01*
X116884559Y-72202954D01*
X116879267Y-72197663D01*
X116868684Y-72197663D01*
X116863392Y-72192371D01*
X116858100Y-72192371D01*
X116852809Y-72187079D01*
X116842225Y-72187079D01*
X116836934Y-72181788D01*
X116831642Y-72181788D01*
X116826350Y-72176496D01*
X116815767Y-72176496D01*
X116810475Y-72171204D01*
X116799892Y-72171204D01*
X116794600Y-72165913D01*
X116784017Y-72165913D01*
X116778725Y-72160621D01*
X116762850Y-72160621D01*
X116757559Y-72155329D01*
X116741684Y-72155329D01*
X116736392Y-72150038D01*
X116709934Y-72150038D01*
X116704642Y-72144746D01*
X116683475Y-72144746D01*
X116678184Y-72139454D01*
X116646434Y-72139454D01*
X116641142Y-72134163D01*
X116593517Y-72134163D01*
X116588225Y-72128871D01*
X116551184Y-72128871D01*
X116545892Y-72123579D01*
X116514142Y-72123579D01*
X116508850Y-72118288D01*
X116471809Y-72118288D01*
X116466517Y-72112996D01*
X116440059Y-72112996D01*
X116434767Y-72107704D01*
X116403017Y-72107704D01*
X116397725Y-72102413D01*
X116360684Y-72102413D01*
X116355392Y-72097121D01*
X116328934Y-72097121D01*
X116323642Y-72091829D01*
X116297184Y-72091829D01*
X116291892Y-72086538D01*
X116260142Y-72086538D01*
X116254850Y-72081246D01*
X116223100Y-72081246D01*
X116217809Y-72075954D01*
X116186059Y-72075954D01*
X116180767Y-72070663D01*
X116154309Y-72070663D01*
X116149017Y-72065371D01*
X116122559Y-72065371D01*
X116117267Y-72060079D01*
X116090809Y-72060079D01*
X116085517Y-72054788D01*
X116059059Y-72054788D01*
X116053767Y-72049496D01*
X116027309Y-72049496D01*
X116022017Y-72044204D01*
X115995559Y-72044204D01*
X115990267Y-72038913D01*
X115963809Y-72038913D01*
X115958517Y-72033621D01*
X115932059Y-72033621D01*
X115926767Y-72028329D01*
X115900309Y-72028329D01*
X115895017Y-72023038D01*
X115873850Y-72023038D01*
X115868559Y-72017746D01*
X115842100Y-72017746D01*
X115836809Y-72012454D01*
X115810350Y-72012454D01*
X115805059Y-72007163D01*
X115783892Y-72007163D01*
X115778600Y-72001871D01*
X115746850Y-72001871D01*
X115741559Y-71996579D01*
X115715100Y-71996579D01*
X115709809Y-71991288D01*
X115688642Y-71991288D01*
X115683350Y-71985996D01*
X115656892Y-71985996D01*
X115651600Y-71980704D01*
X115625142Y-71980704D01*
X115619850Y-71975413D01*
X115588100Y-71975413D01*
X115582809Y-71970121D01*
X115561642Y-71970121D01*
X115556350Y-71964829D01*
X115529892Y-71964829D01*
X115524600Y-71959538D01*
X115498142Y-71959538D01*
X115492850Y-71954246D01*
X115461100Y-71954246D01*
X115455809Y-71948954D01*
X115434642Y-71948954D01*
X115429350Y-71943663D01*
X115402892Y-71943663D01*
X115397600Y-71938371D01*
X115371142Y-71938371D01*
X115365850Y-71933079D01*
X115339392Y-71933079D01*
X115334100Y-71927788D01*
X115307642Y-71927788D01*
X115302350Y-71922496D01*
X115275892Y-71922496D01*
X115270600Y-71917204D01*
X115244142Y-71917204D01*
X115238850Y-71911913D01*
X115207100Y-71911913D01*
X115201809Y-71906621D01*
X115175350Y-71906621D01*
X115170059Y-71901329D01*
X115143600Y-71901329D01*
X115138309Y-71896038D01*
X115106559Y-71896038D01*
X115101267Y-71890746D01*
X115074809Y-71890746D01*
X115069517Y-71885454D01*
X115058934Y-71885454D01*
X115053642Y-71880163D01*
X115048350Y-71880163D01*
X115043059Y-71874871D01*
X115037767Y-71874871D01*
X115021892Y-71858996D01*
X115021892Y-71853704D01*
X115016600Y-71848413D01*
X115016600Y-71843121D01*
X115011309Y-71837829D01*
X115011309Y-71769038D01*
X115016600Y-71763746D01*
X115016600Y-71721413D01*
X115021892Y-71716121D01*
X115021892Y-71663204D01*
X115027184Y-71657913D01*
X115027184Y-71610288D01*
X115032475Y-71604996D01*
X115032475Y-71562663D01*
X115037767Y-71557371D01*
X115037767Y-71509746D01*
X115043059Y-71504454D01*
X115043059Y-71456829D01*
X115048350Y-71451538D01*
X115048350Y-71403913D01*
X115053642Y-71398621D01*
X115053642Y-71350996D01*
X115058934Y-71345704D01*
X115058934Y-71303371D01*
X115064225Y-71298079D01*
X115064225Y-71255746D01*
X115069517Y-71250454D01*
X115069517Y-71197538D01*
X115074809Y-71192246D01*
X115074809Y-71149913D01*
X115080100Y-71144621D01*
X115080100Y-71096996D01*
X115085392Y-71091704D01*
X115085392Y-71049371D01*
X115090684Y-71044079D01*
X115090684Y-70996454D01*
X115095975Y-70991163D01*
X115095975Y-70948829D01*
X115101267Y-70943538D01*
X115101267Y-70895913D01*
X115106559Y-70890621D01*
X115106559Y-70842996D01*
X115111850Y-70837704D01*
X115111850Y-70795371D01*
X115117142Y-70790079D01*
X115117142Y-70753038D01*
X115122434Y-70747746D01*
X115122434Y-70737163D01*
X115127725Y-70731871D01*
X115127725Y-70726579D01*
X115148892Y-70705413D01*
X115154184Y-70705413D01*
X115159475Y-70700121D01*
X115164767Y-70700121D01*
X115170059Y-70694829D01*
X115228267Y-70694829D01*
X115233559Y-70700121D01*
G37*
D10*
G36*
X116116425Y-69771834D02*
G01*
X116130612Y-69772913D01*
X116144593Y-69774689D01*
X116158351Y-69777146D01*
X116171867Y-69780265D01*
X116185124Y-69784030D01*
X116198104Y-69788422D01*
X116210791Y-69793424D01*
X116223165Y-69799019D01*
X116235211Y-69805188D01*
X116246910Y-69811915D01*
X116258245Y-69819181D01*
X116269198Y-69826970D01*
X116279751Y-69835264D01*
X116289888Y-69844044D01*
X116299590Y-69853294D01*
X116308840Y-69862997D01*
X116317621Y-69873133D01*
X116325914Y-69883687D01*
X116333703Y-69894640D01*
X116340970Y-69905975D01*
X116347697Y-69917674D01*
X116353866Y-69929719D01*
X116359461Y-69942094D01*
X116364463Y-69954781D01*
X116368855Y-69967761D01*
X116372619Y-69981018D01*
X116375739Y-69994534D01*
X116378196Y-70008291D01*
X116379972Y-70022272D01*
X116381051Y-70036460D01*
X116381415Y-70050836D01*
X116381051Y-70065212D01*
X116379972Y-70079399D01*
X116378196Y-70093380D01*
X116375739Y-70107138D01*
X116372619Y-70120654D01*
X116368855Y-70133911D01*
X116364463Y-70146891D01*
X116359461Y-70159578D01*
X116353866Y-70171952D01*
X116347697Y-70183998D01*
X116340970Y-70195697D01*
X116333703Y-70207032D01*
X116325914Y-70217985D01*
X116317621Y-70228538D01*
X116308840Y-70238675D01*
X116299590Y-70248377D01*
X116289888Y-70257627D01*
X116279751Y-70266408D01*
X116269198Y-70274701D01*
X116258245Y-70282490D01*
X116246910Y-70289757D01*
X116235211Y-70296484D01*
X116223165Y-70302653D01*
X116210791Y-70308248D01*
X116198104Y-70313250D01*
X116185124Y-70317642D01*
X116171867Y-70321406D01*
X116158351Y-70324526D01*
X116144593Y-70326983D01*
X116130612Y-70328759D01*
X116116425Y-70329838D01*
X116102049Y-70330202D01*
X116087673Y-70329838D01*
X116073485Y-70328759D01*
X116059504Y-70326983D01*
X116045747Y-70324526D01*
X116032231Y-70321406D01*
X116018974Y-70317642D01*
X116005994Y-70313250D01*
X115993307Y-70308248D01*
X115980932Y-70302653D01*
X115968887Y-70296484D01*
X115957188Y-70289757D01*
X115945853Y-70282490D01*
X115934900Y-70274701D01*
X115924346Y-70266408D01*
X115914210Y-70257627D01*
X115904508Y-70248377D01*
X115895257Y-70238675D01*
X115886477Y-70228538D01*
X115878183Y-70217985D01*
X115870394Y-70207032D01*
X115863128Y-70195697D01*
X115856401Y-70183998D01*
X115850232Y-70171952D01*
X115844637Y-70159578D01*
X115839635Y-70146891D01*
X115835243Y-70133911D01*
X115831478Y-70120654D01*
X115828359Y-70107138D01*
X115825902Y-70093380D01*
X115824126Y-70079399D01*
X115823047Y-70065212D01*
X115822683Y-70050836D01*
X115823047Y-70036460D01*
X115824126Y-70022272D01*
X115825902Y-70008291D01*
X115828359Y-69994534D01*
X115831478Y-69981018D01*
X115835243Y-69967761D01*
X115839635Y-69954781D01*
X115844637Y-69942094D01*
X115850232Y-69929719D01*
X115856401Y-69917674D01*
X115863128Y-69905975D01*
X115870394Y-69894640D01*
X115878183Y-69883687D01*
X115886477Y-69873133D01*
X115895257Y-69862997D01*
X115904508Y-69853294D01*
X115914210Y-69844044D01*
X115924346Y-69835264D01*
X115934900Y-69826970D01*
X115945853Y-69819181D01*
X115957188Y-69811915D01*
X115968887Y-69805188D01*
X115980932Y-69799019D01*
X115993307Y-69793424D01*
X116005994Y-69788422D01*
X116018974Y-69784030D01*
X116032231Y-69780265D01*
X116045747Y-69777146D01*
X116059504Y-69774689D01*
X116073485Y-69772913D01*
X116087673Y-69771834D01*
X116102049Y-69771470D01*
X116116425Y-69771834D01*
G37*
G36*
X117516728Y-69077729D02*
G01*
X117530915Y-69078808D01*
X117544896Y-69080584D01*
X117558653Y-69083041D01*
X117572169Y-69086161D01*
X117585426Y-69089925D01*
X117598407Y-69094317D01*
X117611093Y-69099320D01*
X117623468Y-69104914D01*
X117635514Y-69111084D01*
X117647213Y-69117810D01*
X117658547Y-69125077D01*
X117669500Y-69132866D01*
X117680054Y-69141159D01*
X117690191Y-69149940D01*
X117699893Y-69159190D01*
X117709143Y-69168892D01*
X117717924Y-69179029D01*
X117726217Y-69189582D01*
X117734006Y-69200535D01*
X117741272Y-69211870D01*
X117747999Y-69223569D01*
X117754169Y-69235615D01*
X117759763Y-69247990D01*
X117764765Y-69260676D01*
X117769157Y-69273657D01*
X117772922Y-69286914D01*
X117776041Y-69300429D01*
X117778498Y-69314187D01*
X117780275Y-69328168D01*
X117781354Y-69342355D01*
X117781717Y-69356731D01*
X117781354Y-69371108D01*
X117780275Y-69385295D01*
X117778498Y-69399276D01*
X117776041Y-69413033D01*
X117772922Y-69426549D01*
X117769157Y-69439806D01*
X117764765Y-69452787D01*
X117759763Y-69465473D01*
X117754169Y-69477848D01*
X117747999Y-69489894D01*
X117741272Y-69501593D01*
X117734006Y-69512927D01*
X117726217Y-69523880D01*
X117717924Y-69534434D01*
X117709143Y-69544570D01*
X117699893Y-69554273D01*
X117690191Y-69563523D01*
X117680054Y-69572303D01*
X117669500Y-69580597D01*
X117658547Y-69588386D01*
X117647213Y-69595652D01*
X117635514Y-69602379D01*
X117623468Y-69608548D01*
X117611093Y-69614143D01*
X117598407Y-69619145D01*
X117585426Y-69623537D01*
X117572169Y-69627302D01*
X117558653Y-69630421D01*
X117544896Y-69632878D01*
X117530915Y-69634655D01*
X117516728Y-69635733D01*
X117502352Y-69636097D01*
X117487975Y-69635733D01*
X117473788Y-69634655D01*
X117459807Y-69632878D01*
X117446050Y-69630421D01*
X117432534Y-69627302D01*
X117419277Y-69623537D01*
X117406296Y-69619145D01*
X117393610Y-69614143D01*
X117381235Y-69608548D01*
X117369189Y-69602379D01*
X117357490Y-69595652D01*
X117346156Y-69588386D01*
X117335203Y-69580597D01*
X117324649Y-69572303D01*
X117314512Y-69563523D01*
X117304810Y-69554273D01*
X117295560Y-69544570D01*
X117286779Y-69534434D01*
X117278486Y-69523880D01*
X117270697Y-69512927D01*
X117263431Y-69501593D01*
X117256704Y-69489894D01*
X117250534Y-69477848D01*
X117244940Y-69465473D01*
X117239938Y-69452787D01*
X117235546Y-69439806D01*
X117231781Y-69426549D01*
X117228662Y-69413033D01*
X117226205Y-69399276D01*
X117224428Y-69385295D01*
X117223349Y-69371108D01*
X117222986Y-69356731D01*
X117223349Y-69342355D01*
X117224428Y-69328168D01*
X117226205Y-69314187D01*
X117228662Y-69300429D01*
X117231781Y-69286914D01*
X117235546Y-69273657D01*
X117239938Y-69260676D01*
X117244940Y-69247990D01*
X117250534Y-69235615D01*
X117256704Y-69223569D01*
X117263431Y-69211870D01*
X117270697Y-69200535D01*
X117278486Y-69189582D01*
X117286779Y-69179029D01*
X117295560Y-69168892D01*
X117304810Y-69159190D01*
X117314512Y-69149940D01*
X117324649Y-69141159D01*
X117335203Y-69132866D01*
X117346156Y-69125077D01*
X117357490Y-69117810D01*
X117369189Y-69111084D01*
X117381235Y-69104914D01*
X117393610Y-69099320D01*
X117406296Y-69094317D01*
X117419277Y-69089925D01*
X117432534Y-69086161D01*
X117446050Y-69083041D01*
X117459807Y-69080584D01*
X117473788Y-69078808D01*
X117487975Y-69077729D01*
X117502352Y-69077366D01*
X117516728Y-69077729D01*
G37*
D13*
X119929768Y-74018932D02*
X119929768Y-73828456D01*
X119929768Y-73828456D02*
X119977387Y-73733218D01*
X119977387Y-73733218D02*
X120072625Y-73637980D01*
X120072625Y-73637980D02*
X120263101Y-73590361D01*
X120263101Y-73590361D02*
X120596434Y-73590361D01*
X120596434Y-73590361D02*
X120786910Y-73637980D01*
X120786910Y-73637980D02*
X120882149Y-73733218D01*
X120882149Y-73733218D02*
X120929768Y-73828456D01*
X120929768Y-73828456D02*
X120929768Y-74018932D01*
X120929768Y-74018932D02*
X120882149Y-74114170D01*
X120882149Y-74114170D02*
X120786910Y-74209408D01*
X120786910Y-74209408D02*
X120596434Y-74257027D01*
X120596434Y-74257027D02*
X120263101Y-74257027D01*
X120263101Y-74257027D02*
X120072625Y-74209408D01*
X120072625Y-74209408D02*
X119977387Y-74114170D01*
X119977387Y-74114170D02*
X119929768Y-74018932D01*
X120929768Y-72733218D02*
X119929768Y-72733218D01*
X120882149Y-72733218D02*
X120929768Y-72828456D01*
X120929768Y-72828456D02*
X120929768Y-73018932D01*
X120929768Y-73018932D02*
X120882149Y-73114170D01*
X120882149Y-73114170D02*
X120834529Y-73161789D01*
X120834529Y-73161789D02*
X120739291Y-73209408D01*
X120739291Y-73209408D02*
X120453577Y-73209408D01*
X120453577Y-73209408D02*
X120358339Y-73161789D01*
X120358339Y-73161789D02*
X120310720Y-73114170D01*
X120310720Y-73114170D02*
X120263101Y-73018932D01*
X120263101Y-73018932D02*
X120263101Y-72828456D01*
X120263101Y-72828456D02*
X120310720Y-72733218D01*
X120929768Y-71828456D02*
X119929768Y-71828456D01*
X120882149Y-71828456D02*
X120929768Y-71923694D01*
X120929768Y-71923694D02*
X120929768Y-72114170D01*
X120929768Y-72114170D02*
X120882149Y-72209408D01*
X120882149Y-72209408D02*
X120834529Y-72257027D01*
X120834529Y-72257027D02*
X120739291Y-72304646D01*
X120739291Y-72304646D02*
X120453577Y-72304646D01*
X120453577Y-72304646D02*
X120358339Y-72257027D01*
X120358339Y-72257027D02*
X120310720Y-72209408D01*
X120310720Y-72209408D02*
X120263101Y-72114170D01*
X120263101Y-72114170D02*
X120263101Y-71923694D01*
X120263101Y-71923694D02*
X120310720Y-71828456D01*
X120882149Y-71399884D02*
X120929768Y-71304646D01*
X120929768Y-71304646D02*
X120929768Y-71114170D01*
X120929768Y-71114170D02*
X120882149Y-71018932D01*
X120882149Y-71018932D02*
X120786910Y-70971313D01*
X120786910Y-70971313D02*
X120739291Y-70971313D01*
X120739291Y-70971313D02*
X120644053Y-71018932D01*
X120644053Y-71018932D02*
X120596434Y-71114170D01*
X120596434Y-71114170D02*
X120596434Y-71257027D01*
X120596434Y-71257027D02*
X120548815Y-71352265D01*
X120548815Y-71352265D02*
X120453577Y-71399884D01*
X120453577Y-71399884D02*
X120405958Y-71399884D01*
X120405958Y-71399884D02*
X120310720Y-71352265D01*
X120310720Y-71352265D02*
X120263101Y-71257027D01*
X120263101Y-71257027D02*
X120263101Y-71114170D01*
X120263101Y-71114170D02*
X120310720Y-71018932D01*
X120929768Y-70399884D02*
X120882149Y-70495122D01*
X120882149Y-70495122D02*
X120834529Y-70542741D01*
X120834529Y-70542741D02*
X120739291Y-70590360D01*
X120739291Y-70590360D02*
X120453577Y-70590360D01*
X120453577Y-70590360D02*
X120358339Y-70542741D01*
X120358339Y-70542741D02*
X120310720Y-70495122D01*
X120310720Y-70495122D02*
X120263101Y-70399884D01*
X120263101Y-70399884D02*
X120263101Y-70257027D01*
X120263101Y-70257027D02*
X120310720Y-70161789D01*
X120310720Y-70161789D02*
X120358339Y-70114170D01*
X120358339Y-70114170D02*
X120453577Y-70066551D01*
X120453577Y-70066551D02*
X120739291Y-70066551D01*
X120739291Y-70066551D02*
X120834529Y-70114170D01*
X120834529Y-70114170D02*
X120882149Y-70161789D01*
X120882149Y-70161789D02*
X120929768Y-70257027D01*
X120929768Y-70257027D02*
X120929768Y-70399884D01*
X120882149Y-69209408D02*
X120929768Y-69304646D01*
X120929768Y-69304646D02*
X120929768Y-69495122D01*
X120929768Y-69495122D02*
X120882149Y-69590360D01*
X120882149Y-69590360D02*
X120834529Y-69637979D01*
X120834529Y-69637979D02*
X120739291Y-69685598D01*
X120739291Y-69685598D02*
X120453577Y-69685598D01*
X120453577Y-69685598D02*
X120358339Y-69637979D01*
X120358339Y-69637979D02*
X120310720Y-69590360D01*
X120310720Y-69590360D02*
X120263101Y-69495122D01*
X120263101Y-69495122D02*
X120263101Y-69304646D01*
X120263101Y-69304646D02*
X120310720Y-69209408D01*
X120929768Y-68780836D02*
X119929768Y-68780836D01*
X120548815Y-68685598D02*
X120929768Y-68399884D01*
X120263101Y-68399884D02*
X120644053Y-68780836D01*
X120882149Y-68018931D02*
X120929768Y-67923693D01*
X120929768Y-67923693D02*
X120929768Y-67733217D01*
X120929768Y-67733217D02*
X120882149Y-67637979D01*
X120882149Y-67637979D02*
X120786910Y-67590360D01*
X120786910Y-67590360D02*
X120739291Y-67590360D01*
X120739291Y-67590360D02*
X120644053Y-67637979D01*
X120644053Y-67637979D02*
X120596434Y-67733217D01*
X120596434Y-67733217D02*
X120596434Y-67876074D01*
X120596434Y-67876074D02*
X120548815Y-67971312D01*
X120548815Y-67971312D02*
X120453577Y-68018931D01*
X120453577Y-68018931D02*
X120405958Y-68018931D01*
X120405958Y-68018931D02*
X120310720Y-67971312D01*
X120310720Y-67971312D02*
X120263101Y-67876074D01*
X120263101Y-67876074D02*
X120263101Y-67733217D01*
X120263101Y-67733217D02*
X120310720Y-67637979D01*
X122539712Y-72495122D02*
X121539712Y-72495122D01*
X121920664Y-72495122D02*
X121873045Y-72399884D01*
X121873045Y-72399884D02*
X121873045Y-72209408D01*
X121873045Y-72209408D02*
X121920664Y-72114170D01*
X121920664Y-72114170D02*
X121968283Y-72066551D01*
X121968283Y-72066551D02*
X122063521Y-72018932D01*
X122063521Y-72018932D02*
X122349235Y-72018932D01*
X122349235Y-72018932D02*
X122444473Y-72066551D01*
X122444473Y-72066551D02*
X122492093Y-72114170D01*
X122492093Y-72114170D02*
X122539712Y-72209408D01*
X122539712Y-72209408D02*
X122539712Y-72399884D01*
X122539712Y-72399884D02*
X122492093Y-72495122D01*
X121539712Y-71114170D02*
X121539712Y-71590360D01*
X121539712Y-71590360D02*
X122015902Y-71637979D01*
X122015902Y-71637979D02*
X121968283Y-71590360D01*
X121968283Y-71590360D02*
X121920664Y-71495122D01*
X121920664Y-71495122D02*
X121920664Y-71257027D01*
X121920664Y-71257027D02*
X121968283Y-71161789D01*
X121968283Y-71161789D02*
X122015902Y-71114170D01*
X122015902Y-71114170D02*
X122111140Y-71066551D01*
X122111140Y-71066551D02*
X122349235Y-71066551D01*
X122349235Y-71066551D02*
X122444473Y-71114170D01*
X122444473Y-71114170D02*
X122492093Y-71161789D01*
X122492093Y-71161789D02*
X122539712Y-71257027D01*
X122539712Y-71257027D02*
X122539712Y-71495122D01*
X122539712Y-71495122D02*
X122492093Y-71590360D01*
X122492093Y-71590360D02*
X122444473Y-71637979D01*
X122492093Y-70685598D02*
X122539712Y-70590360D01*
X122539712Y-70590360D02*
X122539712Y-70399884D01*
X122539712Y-70399884D02*
X122492093Y-70304646D01*
X122492093Y-70304646D02*
X122396854Y-70257027D01*
X122396854Y-70257027D02*
X122349235Y-70257027D01*
X122349235Y-70257027D02*
X122253997Y-70304646D01*
X122253997Y-70304646D02*
X122206378Y-70399884D01*
X122206378Y-70399884D02*
X122206378Y-70542741D01*
X122206378Y-70542741D02*
X122158759Y-70637979D01*
X122158759Y-70637979D02*
X122063521Y-70685598D01*
X122063521Y-70685598D02*
X122015902Y-70685598D01*
X122015902Y-70685598D02*
X121920664Y-70637979D01*
X121920664Y-70637979D02*
X121873045Y-70542741D01*
X121873045Y-70542741D02*
X121873045Y-70399884D01*
X121873045Y-70399884D02*
X121920664Y-70304646D01*
X121873045Y-69399884D02*
X122539712Y-69399884D01*
X121492093Y-69637979D02*
X122206378Y-69876074D01*
X122206378Y-69876074D02*
X122206378Y-69257027D01*
X121792419Y-88024687D02*
X121316228Y-88358020D01*
X121792419Y-88596115D02*
X120792419Y-88596115D01*
X120792419Y-88596115D02*
X120792419Y-88215163D01*
X120792419Y-88215163D02*
X120840038Y-88119925D01*
X120840038Y-88119925D02*
X120887657Y-88072306D01*
X120887657Y-88072306D02*
X120982895Y-88024687D01*
X120982895Y-88024687D02*
X121125752Y-88024687D01*
X121125752Y-88024687D02*
X121220990Y-88072306D01*
X121220990Y-88072306D02*
X121268609Y-88119925D01*
X121268609Y-88119925D02*
X121316228Y-88215163D01*
X121316228Y-88215163D02*
X121316228Y-88596115D01*
X121744800Y-87215163D02*
X121792419Y-87310401D01*
X121792419Y-87310401D02*
X121792419Y-87500877D01*
X121792419Y-87500877D02*
X121744800Y-87596115D01*
X121744800Y-87596115D02*
X121649561Y-87643734D01*
X121649561Y-87643734D02*
X121268609Y-87643734D01*
X121268609Y-87643734D02*
X121173371Y-87596115D01*
X121173371Y-87596115D02*
X121125752Y-87500877D01*
X121125752Y-87500877D02*
X121125752Y-87310401D01*
X121125752Y-87310401D02*
X121173371Y-87215163D01*
X121173371Y-87215163D02*
X121268609Y-87167544D01*
X121268609Y-87167544D02*
X121363847Y-87167544D01*
X121363847Y-87167544D02*
X121459085Y-87643734D01*
X121125752Y-86834210D02*
X121792419Y-86596115D01*
X121792419Y-86596115D02*
X121125752Y-86358020D01*
X121792419Y-84691353D02*
X121792419Y-85262781D01*
X121792419Y-84977067D02*
X120792419Y-84977067D01*
X120792419Y-84977067D02*
X120935276Y-85072305D01*
X120935276Y-85072305D02*
X121030514Y-85167543D01*
X121030514Y-85167543D02*
X121078133Y-85262781D01*
X121697180Y-84262781D02*
X121744800Y-84215162D01*
X121744800Y-84215162D02*
X121792419Y-84262781D01*
X121792419Y-84262781D02*
X121744800Y-84310400D01*
X121744800Y-84310400D02*
X121697180Y-84262781D01*
X121697180Y-84262781D02*
X121792419Y-84262781D01*
X120792419Y-83596115D02*
X120792419Y-83500877D01*
X120792419Y-83500877D02*
X120840038Y-83405639D01*
X120840038Y-83405639D02*
X120887657Y-83358020D01*
X120887657Y-83358020D02*
X120982895Y-83310401D01*
X120982895Y-83310401D02*
X121173371Y-83262782D01*
X121173371Y-83262782D02*
X121411466Y-83262782D01*
X121411466Y-83262782D02*
X121601942Y-83310401D01*
X121601942Y-83310401D02*
X121697180Y-83358020D01*
X121697180Y-83358020D02*
X121744800Y-83405639D01*
X121744800Y-83405639D02*
X121792419Y-83500877D01*
X121792419Y-83500877D02*
X121792419Y-83596115D01*
X121792419Y-83596115D02*
X121744800Y-83691353D01*
X121744800Y-83691353D02*
X121697180Y-83738972D01*
X121697180Y-83738972D02*
X121601942Y-83786591D01*
X121601942Y-83786591D02*
X121411466Y-83834210D01*
X121411466Y-83834210D02*
X121173371Y-83834210D01*
X121173371Y-83834210D02*
X120982895Y-83786591D01*
X120982895Y-83786591D02*
X120887657Y-83738972D01*
X120887657Y-83738972D02*
X120840038Y-83691353D01*
X120840038Y-83691353D02*
X120792419Y-83596115D01*
X121792419Y-82310401D02*
X121792419Y-82881829D01*
X121792419Y-82596115D02*
X120792419Y-82596115D01*
X120792419Y-82596115D02*
X120935276Y-82691353D01*
X120935276Y-82691353D02*
X121030514Y-82786591D01*
X121030514Y-82786591D02*
X121078133Y-82881829D01*
X125272809Y-85191769D02*
X125272809Y-85763197D01*
X125272809Y-85477483D02*
X124272809Y-85477483D01*
X124272809Y-85477483D02*
X124415666Y-85572721D01*
X124415666Y-85572721D02*
X124510904Y-85667959D01*
X124510904Y-85667959D02*
X124558523Y-85763197D01*
X124272809Y-84572721D02*
X124272809Y-84477483D01*
X124272809Y-84477483D02*
X124320428Y-84382245D01*
X124320428Y-84382245D02*
X124368047Y-84334626D01*
X124368047Y-84334626D02*
X124463285Y-84287007D01*
X124463285Y-84287007D02*
X124653761Y-84239388D01*
X124653761Y-84239388D02*
X124891856Y-84239388D01*
X124891856Y-84239388D02*
X125082332Y-84287007D01*
X125082332Y-84287007D02*
X125177570Y-84334626D01*
X125177570Y-84334626D02*
X125225190Y-84382245D01*
X125225190Y-84382245D02*
X125272809Y-84477483D01*
X125272809Y-84477483D02*
X125272809Y-84572721D01*
X125272809Y-84572721D02*
X125225190Y-84667959D01*
X125225190Y-84667959D02*
X125177570Y-84715578D01*
X125177570Y-84715578D02*
X125082332Y-84763197D01*
X125082332Y-84763197D02*
X124891856Y-84810816D01*
X124891856Y-84810816D02*
X124653761Y-84810816D01*
X124653761Y-84810816D02*
X124463285Y-84763197D01*
X124463285Y-84763197D02*
X124368047Y-84715578D01*
X124368047Y-84715578D02*
X124320428Y-84667959D01*
X124320428Y-84667959D02*
X124272809Y-84572721D01*
X124272809Y-83620340D02*
X124272809Y-83525102D01*
X124272809Y-83525102D02*
X124320428Y-83429864D01*
X124320428Y-83429864D02*
X124368047Y-83382245D01*
X124368047Y-83382245D02*
X124463285Y-83334626D01*
X124463285Y-83334626D02*
X124653761Y-83287007D01*
X124653761Y-83287007D02*
X124891856Y-83287007D01*
X124891856Y-83287007D02*
X125082332Y-83334626D01*
X125082332Y-83334626D02*
X125177570Y-83382245D01*
X125177570Y-83382245D02*
X125225190Y-83429864D01*
X125225190Y-83429864D02*
X125272809Y-83525102D01*
X125272809Y-83525102D02*
X125272809Y-83620340D01*
X125272809Y-83620340D02*
X125225190Y-83715578D01*
X125225190Y-83715578D02*
X125177570Y-83763197D01*
X125177570Y-83763197D02*
X125082332Y-83810816D01*
X125082332Y-83810816D02*
X124891856Y-83858435D01*
X124891856Y-83858435D02*
X124653761Y-83858435D01*
X124653761Y-83858435D02*
X124463285Y-83810816D01*
X124463285Y-83810816D02*
X124368047Y-83763197D01*
X124368047Y-83763197D02*
X124320428Y-83715578D01*
X124320428Y-83715578D02*
X124272809Y-83620340D01*
X124606142Y-82858435D02*
X125272809Y-82858435D01*
X124701380Y-82858435D02*
X124653761Y-82810816D01*
X124653761Y-82810816D02*
X124606142Y-82715578D01*
X124606142Y-82715578D02*
X124606142Y-82572721D01*
X124606142Y-82572721D02*
X124653761Y-82477483D01*
X124653761Y-82477483D02*
X124748999Y-82429864D01*
X124748999Y-82429864D02*
X125272809Y-82429864D01*
X124748999Y-81620340D02*
X124748999Y-81953673D01*
X125272809Y-81953673D02*
X124272809Y-81953673D01*
X124272809Y-81953673D02*
X124272809Y-81477483D01*
D14*
X117574802Y-93635714D02*
X119003373Y-93635714D01*
X119003373Y-93635714D02*
X119289087Y-93730953D01*
X119289087Y-93730953D02*
X119479564Y-93921429D01*
X119479564Y-93921429D02*
X119574802Y-94207143D01*
X119574802Y-94207143D02*
X119574802Y-94397619D01*
X119003373Y-92778571D02*
X119003373Y-91826190D01*
X119574802Y-92969047D02*
X117574802Y-92302381D01*
X117574802Y-92302381D02*
X119574802Y-91635714D01*
X119384325Y-89826190D02*
X119479564Y-89921428D01*
X119479564Y-89921428D02*
X119574802Y-90207142D01*
X119574802Y-90207142D02*
X119574802Y-90397618D01*
X119574802Y-90397618D02*
X119479564Y-90683333D01*
X119479564Y-90683333D02*
X119289087Y-90873809D01*
X119289087Y-90873809D02*
X119098611Y-90969047D01*
X119098611Y-90969047D02*
X118717659Y-91064285D01*
X118717659Y-91064285D02*
X118431944Y-91064285D01*
X118431944Y-91064285D02*
X118050992Y-90969047D01*
X118050992Y-90969047D02*
X117860516Y-90873809D01*
X117860516Y-90873809D02*
X117670040Y-90683333D01*
X117670040Y-90683333D02*
X117574802Y-90397618D01*
X117574802Y-90397618D02*
X117574802Y-90207142D01*
X117574802Y-90207142D02*
X117670040Y-89921428D01*
X117670040Y-89921428D02*
X117765278Y-89826190D01*
X119384325Y-87826190D02*
X119479564Y-87921428D01*
X119479564Y-87921428D02*
X119574802Y-88207142D01*
X119574802Y-88207142D02*
X119574802Y-88397618D01*
X119574802Y-88397618D02*
X119479564Y-88683333D01*
X119479564Y-88683333D02*
X119289087Y-88873809D01*
X119289087Y-88873809D02*
X119098611Y-88969047D01*
X119098611Y-88969047D02*
X118717659Y-89064285D01*
X118717659Y-89064285D02*
X118431944Y-89064285D01*
X118431944Y-89064285D02*
X118050992Y-88969047D01*
X118050992Y-88969047D02*
X117860516Y-88873809D01*
X117860516Y-88873809D02*
X117670040Y-88683333D01*
X117670040Y-88683333D02*
X117574802Y-88397618D01*
X117574802Y-88397618D02*
X117574802Y-88207142D01*
X117574802Y-88207142D02*
X117670040Y-87921428D01*
X117670040Y-87921428D02*
X117765278Y-87826190D01*
X117574802Y-86111904D02*
X117574802Y-86492857D01*
X117574802Y-86492857D02*
X117670040Y-86683333D01*
X117670040Y-86683333D02*
X117765278Y-86778571D01*
X117765278Y-86778571D02*
X118050992Y-86969047D01*
X118050992Y-86969047D02*
X118431944Y-87064285D01*
X118431944Y-87064285D02*
X119193849Y-87064285D01*
X119193849Y-87064285D02*
X119384325Y-86969047D01*
X119384325Y-86969047D02*
X119479564Y-86873809D01*
X119479564Y-86873809D02*
X119574802Y-86683333D01*
X119574802Y-86683333D02*
X119574802Y-86302380D01*
X119574802Y-86302380D02*
X119479564Y-86111904D01*
X119479564Y-86111904D02*
X119384325Y-86016666D01*
X119384325Y-86016666D02*
X119193849Y-85921428D01*
X119193849Y-85921428D02*
X118717659Y-85921428D01*
X118717659Y-85921428D02*
X118527183Y-86016666D01*
X118527183Y-86016666D02*
X118431944Y-86111904D01*
X118431944Y-86111904D02*
X118336706Y-86302380D01*
X118336706Y-86302380D02*
X118336706Y-86683333D01*
X118336706Y-86683333D02*
X118431944Y-86873809D01*
X118431944Y-86873809D02*
X118527183Y-86969047D01*
X118527183Y-86969047D02*
X118717659Y-87064285D01*
X118241468Y-84207142D02*
X119574802Y-84207142D01*
X117479564Y-84683333D02*
X118908135Y-85159523D01*
X118908135Y-85159523D02*
X118908135Y-83921428D01*
X119574802Y-80588094D02*
X119574802Y-81730951D01*
X119574802Y-81159523D02*
X117574802Y-81159523D01*
X117574802Y-81159523D02*
X117860516Y-81349999D01*
X117860516Y-81349999D02*
X118050992Y-81540475D01*
X118050992Y-81540475D02*
X118146230Y-81730951D01*
X117574802Y-78873808D02*
X117574802Y-79254761D01*
X117574802Y-79254761D02*
X117670040Y-79445237D01*
X117670040Y-79445237D02*
X117765278Y-79540475D01*
X117765278Y-79540475D02*
X118050992Y-79730951D01*
X118050992Y-79730951D02*
X118431944Y-79826189D01*
X118431944Y-79826189D02*
X119193849Y-79826189D01*
X119193849Y-79826189D02*
X119384325Y-79730951D01*
X119384325Y-79730951D02*
X119479564Y-79635713D01*
X119479564Y-79635713D02*
X119574802Y-79445237D01*
X119574802Y-79445237D02*
X119574802Y-79064284D01*
X119574802Y-79064284D02*
X119479564Y-78873808D01*
X119479564Y-78873808D02*
X119384325Y-78778570D01*
X119384325Y-78778570D02*
X119193849Y-78683332D01*
X119193849Y-78683332D02*
X118717659Y-78683332D01*
X118717659Y-78683332D02*
X118527183Y-78778570D01*
X118527183Y-78778570D02*
X118431944Y-78873808D01*
X118431944Y-78873808D02*
X118336706Y-79064284D01*
X118336706Y-79064284D02*
X118336706Y-79445237D01*
X118336706Y-79445237D02*
X118431944Y-79635713D01*
X118431944Y-79635713D02*
X118527183Y-79730951D01*
X118527183Y-79730951D02*
X118717659Y-79826189D01*
X119574802Y-77826189D02*
X117574802Y-77826189D01*
X119574802Y-76683332D02*
X118431944Y-77540475D01*
X117574802Y-76683332D02*
X118717659Y-77826189D01*
D13*
X147507209Y-59964532D02*
X147507209Y-58964532D01*
X147507209Y-58964532D02*
X147888161Y-58964532D01*
X147888161Y-58964532D02*
X147983399Y-59012151D01*
X147983399Y-59012151D02*
X148031018Y-59059770D01*
X148031018Y-59059770D02*
X148078637Y-59155008D01*
X148078637Y-59155008D02*
X148078637Y-59297865D01*
X148078637Y-59297865D02*
X148031018Y-59393103D01*
X148031018Y-59393103D02*
X147983399Y-59440722D01*
X147983399Y-59440722D02*
X147888161Y-59488341D01*
X147888161Y-59488341D02*
X147507209Y-59488341D01*
X148697685Y-58964532D02*
X148888161Y-58964532D01*
X148888161Y-58964532D02*
X148983399Y-59012151D01*
X148983399Y-59012151D02*
X149078637Y-59107389D01*
X149078637Y-59107389D02*
X149126256Y-59297865D01*
X149126256Y-59297865D02*
X149126256Y-59631198D01*
X149126256Y-59631198D02*
X149078637Y-59821674D01*
X149078637Y-59821674D02*
X148983399Y-59916913D01*
X148983399Y-59916913D02*
X148888161Y-59964532D01*
X148888161Y-59964532D02*
X148697685Y-59964532D01*
X148697685Y-59964532D02*
X148602447Y-59916913D01*
X148602447Y-59916913D02*
X148507209Y-59821674D01*
X148507209Y-59821674D02*
X148459590Y-59631198D01*
X148459590Y-59631198D02*
X148459590Y-59297865D01*
X148459590Y-59297865D02*
X148507209Y-59107389D01*
X148507209Y-59107389D02*
X148602447Y-59012151D01*
X148602447Y-59012151D02*
X148697685Y-58964532D01*
X149459590Y-58964532D02*
X149697685Y-59964532D01*
X149697685Y-59964532D02*
X149888161Y-59250246D01*
X149888161Y-59250246D02*
X150078637Y-59964532D01*
X150078637Y-59964532D02*
X150316733Y-58964532D01*
X150697685Y-59440722D02*
X151031018Y-59440722D01*
X151173875Y-59964532D02*
X150697685Y-59964532D01*
X150697685Y-59964532D02*
X150697685Y-58964532D01*
X150697685Y-58964532D02*
X151173875Y-58964532D01*
X152173875Y-59964532D02*
X151840542Y-59488341D01*
X151602447Y-59964532D02*
X151602447Y-58964532D01*
X151602447Y-58964532D02*
X151983399Y-58964532D01*
X151983399Y-58964532D02*
X152078637Y-59012151D01*
X152078637Y-59012151D02*
X152126256Y-59059770D01*
X152126256Y-59059770D02*
X152173875Y-59155008D01*
X152173875Y-59155008D02*
X152173875Y-59297865D01*
X152173875Y-59297865D02*
X152126256Y-59393103D01*
X152126256Y-59393103D02*
X152078637Y-59440722D01*
X152078637Y-59440722D02*
X151983399Y-59488341D01*
X151983399Y-59488341D02*
X151602447Y-59488341D01*
X126738173Y-65433361D02*
X127233411Y-65433361D01*
X127233411Y-65433361D02*
X126966745Y-65738123D01*
X126966745Y-65738123D02*
X127081030Y-65738123D01*
X127081030Y-65738123D02*
X127157221Y-65776218D01*
X127157221Y-65776218D02*
X127195316Y-65814313D01*
X127195316Y-65814313D02*
X127233411Y-65890504D01*
X127233411Y-65890504D02*
X127233411Y-66080980D01*
X127233411Y-66080980D02*
X127195316Y-66157170D01*
X127195316Y-66157170D02*
X127157221Y-66195266D01*
X127157221Y-66195266D02*
X127081030Y-66233361D01*
X127081030Y-66233361D02*
X126852459Y-66233361D01*
X126852459Y-66233361D02*
X126776268Y-66195266D01*
X126776268Y-66195266D02*
X126738173Y-66157170D01*
X127500078Y-65433361D02*
X127995316Y-65433361D01*
X127995316Y-65433361D02*
X127728650Y-65738123D01*
X127728650Y-65738123D02*
X127842935Y-65738123D01*
X127842935Y-65738123D02*
X127919126Y-65776218D01*
X127919126Y-65776218D02*
X127957221Y-65814313D01*
X127957221Y-65814313D02*
X127995316Y-65890504D01*
X127995316Y-65890504D02*
X127995316Y-66080980D01*
X127995316Y-66080980D02*
X127957221Y-66157170D01*
X127957221Y-66157170D02*
X127919126Y-66195266D01*
X127919126Y-66195266D02*
X127842935Y-66233361D01*
X127842935Y-66233361D02*
X127614364Y-66233361D01*
X127614364Y-66233361D02*
X127538173Y-66195266D01*
X127538173Y-66195266D02*
X127500078Y-66157170D01*
X128490555Y-65433361D02*
X128566745Y-65433361D01*
X128566745Y-65433361D02*
X128642936Y-65471456D01*
X128642936Y-65471456D02*
X128681031Y-65509551D01*
X128681031Y-65509551D02*
X128719126Y-65585742D01*
X128719126Y-65585742D02*
X128757221Y-65738123D01*
X128757221Y-65738123D02*
X128757221Y-65928599D01*
X128757221Y-65928599D02*
X128719126Y-66080980D01*
X128719126Y-66080980D02*
X128681031Y-66157170D01*
X128681031Y-66157170D02*
X128642936Y-66195266D01*
X128642936Y-66195266D02*
X128566745Y-66233361D01*
X128566745Y-66233361D02*
X128490555Y-66233361D01*
X128490555Y-66233361D02*
X128414364Y-66195266D01*
X128414364Y-66195266D02*
X128376269Y-66157170D01*
X128376269Y-66157170D02*
X128338174Y-66080980D01*
X128338174Y-66080980D02*
X128300078Y-65928599D01*
X128300078Y-65928599D02*
X128300078Y-65738123D01*
X128300078Y-65738123D02*
X128338174Y-65585742D01*
X128338174Y-65585742D02*
X128376269Y-65509551D01*
X128376269Y-65509551D02*
X128414364Y-65471456D01*
X128414364Y-65471456D02*
X128490555Y-65433361D01*
X129709603Y-65928599D02*
X130319127Y-65928599D01*
X131728650Y-66233361D02*
X131271507Y-66233361D01*
X131500079Y-66233361D02*
X131500079Y-65433361D01*
X131500079Y-65433361D02*
X131423888Y-65547646D01*
X131423888Y-65547646D02*
X131347698Y-65623837D01*
X131347698Y-65623837D02*
X131271507Y-65661932D01*
X132071508Y-66233361D02*
X132071508Y-65433361D01*
X132528651Y-66233361D02*
X132185793Y-65776218D01*
X132528651Y-65433361D02*
X132071508Y-65890504D01*
X125176269Y-67521316D02*
X124795317Y-67521316D01*
X124795317Y-67521316D02*
X124795317Y-66721316D01*
X125442936Y-67102268D02*
X125709602Y-67102268D01*
X125823888Y-67521316D02*
X125442936Y-67521316D01*
X125442936Y-67521316D02*
X125442936Y-66721316D01*
X125442936Y-66721316D02*
X125823888Y-66721316D01*
X126166746Y-67521316D02*
X126166746Y-66721316D01*
X126166746Y-66721316D02*
X126357222Y-66721316D01*
X126357222Y-66721316D02*
X126471508Y-66759411D01*
X126471508Y-66759411D02*
X126547698Y-66835601D01*
X126547698Y-66835601D02*
X126585793Y-66911792D01*
X126585793Y-66911792D02*
X126623889Y-67064173D01*
X126623889Y-67064173D02*
X126623889Y-67178459D01*
X126623889Y-67178459D02*
X126585793Y-67330840D01*
X126585793Y-67330840D02*
X126547698Y-67407030D01*
X126547698Y-67407030D02*
X126471508Y-67483221D01*
X126471508Y-67483221D02*
X126357222Y-67521316D01*
X126357222Y-67521316D02*
X126166746Y-67521316D01*
X127842936Y-67102268D02*
X127957222Y-67140363D01*
X127957222Y-67140363D02*
X127995317Y-67178459D01*
X127995317Y-67178459D02*
X128033413Y-67254649D01*
X128033413Y-67254649D02*
X128033413Y-67368935D01*
X128033413Y-67368935D02*
X127995317Y-67445125D01*
X127995317Y-67445125D02*
X127957222Y-67483221D01*
X127957222Y-67483221D02*
X127881032Y-67521316D01*
X127881032Y-67521316D02*
X127576270Y-67521316D01*
X127576270Y-67521316D02*
X127576270Y-66721316D01*
X127576270Y-66721316D02*
X127842936Y-66721316D01*
X127842936Y-66721316D02*
X127919127Y-66759411D01*
X127919127Y-66759411D02*
X127957222Y-66797506D01*
X127957222Y-66797506D02*
X127995317Y-66873697D01*
X127995317Y-66873697D02*
X127995317Y-66949887D01*
X127995317Y-66949887D02*
X127957222Y-67026078D01*
X127957222Y-67026078D02*
X127919127Y-67064173D01*
X127919127Y-67064173D02*
X127842936Y-67102268D01*
X127842936Y-67102268D02*
X127576270Y-67102268D01*
X128833413Y-67521316D02*
X128566746Y-67140363D01*
X128376270Y-67521316D02*
X128376270Y-66721316D01*
X128376270Y-66721316D02*
X128681032Y-66721316D01*
X128681032Y-66721316D02*
X128757222Y-66759411D01*
X128757222Y-66759411D02*
X128795317Y-66797506D01*
X128795317Y-66797506D02*
X128833413Y-66873697D01*
X128833413Y-66873697D02*
X128833413Y-66987982D01*
X128833413Y-66987982D02*
X128795317Y-67064173D01*
X128795317Y-67064173D02*
X128757222Y-67102268D01*
X128757222Y-67102268D02*
X128681032Y-67140363D01*
X128681032Y-67140363D02*
X128376270Y-67140363D01*
X129176270Y-67521316D02*
X129176270Y-66721316D01*
X129976269Y-66759411D02*
X129900079Y-66721316D01*
X129900079Y-66721316D02*
X129785793Y-66721316D01*
X129785793Y-66721316D02*
X129671507Y-66759411D01*
X129671507Y-66759411D02*
X129595317Y-66835601D01*
X129595317Y-66835601D02*
X129557222Y-66911792D01*
X129557222Y-66911792D02*
X129519126Y-67064173D01*
X129519126Y-67064173D02*
X129519126Y-67178459D01*
X129519126Y-67178459D02*
X129557222Y-67330840D01*
X129557222Y-67330840D02*
X129595317Y-67407030D01*
X129595317Y-67407030D02*
X129671507Y-67483221D01*
X129671507Y-67483221D02*
X129785793Y-67521316D01*
X129785793Y-67521316D02*
X129861984Y-67521316D01*
X129861984Y-67521316D02*
X129976269Y-67483221D01*
X129976269Y-67483221D02*
X130014365Y-67445125D01*
X130014365Y-67445125D02*
X130014365Y-67178459D01*
X130014365Y-67178459D02*
X129861984Y-67178459D01*
X130357222Y-67521316D02*
X130357222Y-66721316D01*
X130357222Y-67102268D02*
X130814365Y-67102268D01*
X130814365Y-67521316D02*
X130814365Y-66721316D01*
X131081031Y-66721316D02*
X131538174Y-66721316D01*
X131309602Y-67521316D02*
X131309602Y-66721316D01*
X131804841Y-67521316D02*
X131804841Y-66721316D01*
X131804841Y-66721316D02*
X132261984Y-67521316D01*
X132261984Y-67521316D02*
X132261984Y-66721316D01*
X132642936Y-67102268D02*
X132909602Y-67102268D01*
X133023888Y-67521316D02*
X132642936Y-67521316D01*
X132642936Y-67521316D02*
X132642936Y-66721316D01*
X132642936Y-66721316D02*
X133023888Y-66721316D01*
X133328650Y-67483221D02*
X133442936Y-67521316D01*
X133442936Y-67521316D02*
X133633412Y-67521316D01*
X133633412Y-67521316D02*
X133709603Y-67483221D01*
X133709603Y-67483221D02*
X133747698Y-67445125D01*
X133747698Y-67445125D02*
X133785793Y-67368935D01*
X133785793Y-67368935D02*
X133785793Y-67292744D01*
X133785793Y-67292744D02*
X133747698Y-67216554D01*
X133747698Y-67216554D02*
X133709603Y-67178459D01*
X133709603Y-67178459D02*
X133633412Y-67140363D01*
X133633412Y-67140363D02*
X133481031Y-67102268D01*
X133481031Y-67102268D02*
X133404841Y-67064173D01*
X133404841Y-67064173D02*
X133366746Y-67026078D01*
X133366746Y-67026078D02*
X133328650Y-66949887D01*
X133328650Y-66949887D02*
X133328650Y-66873697D01*
X133328650Y-66873697D02*
X133366746Y-66797506D01*
X133366746Y-66797506D02*
X133404841Y-66759411D01*
X133404841Y-66759411D02*
X133481031Y-66721316D01*
X133481031Y-66721316D02*
X133671508Y-66721316D01*
X133671508Y-66721316D02*
X133785793Y-66759411D01*
X134090555Y-67483221D02*
X134204841Y-67521316D01*
X134204841Y-67521316D02*
X134395317Y-67521316D01*
X134395317Y-67521316D02*
X134471508Y-67483221D01*
X134471508Y-67483221D02*
X134509603Y-67445125D01*
X134509603Y-67445125D02*
X134547698Y-67368935D01*
X134547698Y-67368935D02*
X134547698Y-67292744D01*
X134547698Y-67292744D02*
X134509603Y-67216554D01*
X134509603Y-67216554D02*
X134471508Y-67178459D01*
X134471508Y-67178459D02*
X134395317Y-67140363D01*
X134395317Y-67140363D02*
X134242936Y-67102268D01*
X134242936Y-67102268D02*
X134166746Y-67064173D01*
X134166746Y-67064173D02*
X134128651Y-67026078D01*
X134128651Y-67026078D02*
X134090555Y-66949887D01*
X134090555Y-66949887D02*
X134090555Y-66873697D01*
X134090555Y-66873697D02*
X134128651Y-66797506D01*
X134128651Y-66797506D02*
X134166746Y-66759411D01*
X134166746Y-66759411D02*
X134242936Y-66721316D01*
X134242936Y-66721316D02*
X134433413Y-66721316D01*
X134433413Y-66721316D02*
X134547698Y-66759411D01*
X161264000Y-59524416D02*
X160930667Y-59048225D01*
X160692572Y-59524416D02*
X160692572Y-58524416D01*
X160692572Y-58524416D02*
X161073524Y-58524416D01*
X161073524Y-58524416D02*
X161168762Y-58572035D01*
X161168762Y-58572035D02*
X161216381Y-58619654D01*
X161216381Y-58619654D02*
X161264000Y-58714892D01*
X161264000Y-58714892D02*
X161264000Y-58857749D01*
X161264000Y-58857749D02*
X161216381Y-58952987D01*
X161216381Y-58952987D02*
X161168762Y-59000606D01*
X161168762Y-59000606D02*
X161073524Y-59048225D01*
X161073524Y-59048225D02*
X160692572Y-59048225D01*
X161692572Y-59000606D02*
X162025905Y-59000606D01*
X162168762Y-59524416D02*
X161692572Y-59524416D01*
X161692572Y-59524416D02*
X161692572Y-58524416D01*
X161692572Y-58524416D02*
X162168762Y-58524416D01*
X162549715Y-59476797D02*
X162692572Y-59524416D01*
X162692572Y-59524416D02*
X162930667Y-59524416D01*
X162930667Y-59524416D02*
X163025905Y-59476797D01*
X163025905Y-59476797D02*
X163073524Y-59429177D01*
X163073524Y-59429177D02*
X163121143Y-59333939D01*
X163121143Y-59333939D02*
X163121143Y-59238701D01*
X163121143Y-59238701D02*
X163073524Y-59143463D01*
X163073524Y-59143463D02*
X163025905Y-59095844D01*
X163025905Y-59095844D02*
X162930667Y-59048225D01*
X162930667Y-59048225D02*
X162740191Y-59000606D01*
X162740191Y-59000606D02*
X162644953Y-58952987D01*
X162644953Y-58952987D02*
X162597334Y-58905368D01*
X162597334Y-58905368D02*
X162549715Y-58810130D01*
X162549715Y-58810130D02*
X162549715Y-58714892D01*
X162549715Y-58714892D02*
X162597334Y-58619654D01*
X162597334Y-58619654D02*
X162644953Y-58572035D01*
X162644953Y-58572035D02*
X162740191Y-58524416D01*
X162740191Y-58524416D02*
X162978286Y-58524416D01*
X162978286Y-58524416D02*
X163121143Y-58572035D01*
X163549715Y-59000606D02*
X163883048Y-59000606D01*
X164025905Y-59524416D02*
X163549715Y-59524416D01*
X163549715Y-59524416D02*
X163549715Y-58524416D01*
X163549715Y-58524416D02*
X164025905Y-58524416D01*
X164311620Y-58524416D02*
X164883048Y-58524416D01*
X164597334Y-59524416D02*
X164597334Y-58524416D01*
X114948383Y-55617718D02*
X115405526Y-55617718D01*
X115176954Y-56417718D02*
X115176954Y-55617718D01*
X115672193Y-56417718D02*
X115672193Y-55617718D01*
X115672193Y-55998670D02*
X116129336Y-55998670D01*
X116129336Y-56417718D02*
X116129336Y-55617718D01*
X116510288Y-56417718D02*
X116510288Y-55617718D01*
X116853144Y-56379623D02*
X116967430Y-56417718D01*
X116967430Y-56417718D02*
X117157906Y-56417718D01*
X117157906Y-56417718D02*
X117234097Y-56379623D01*
X117234097Y-56379623D02*
X117272192Y-56341527D01*
X117272192Y-56341527D02*
X117310287Y-56265337D01*
X117310287Y-56265337D02*
X117310287Y-56189146D01*
X117310287Y-56189146D02*
X117272192Y-56112956D01*
X117272192Y-56112956D02*
X117234097Y-56074861D01*
X117234097Y-56074861D02*
X117157906Y-56036765D01*
X117157906Y-56036765D02*
X117005525Y-55998670D01*
X117005525Y-55998670D02*
X116929335Y-55960575D01*
X116929335Y-55960575D02*
X116891240Y-55922480D01*
X116891240Y-55922480D02*
X116853144Y-55846289D01*
X116853144Y-55846289D02*
X116853144Y-55770099D01*
X116853144Y-55770099D02*
X116891240Y-55693908D01*
X116891240Y-55693908D02*
X116929335Y-55655813D01*
X116929335Y-55655813D02*
X117005525Y-55617718D01*
X117005525Y-55617718D02*
X117196002Y-55617718D01*
X117196002Y-55617718D02*
X117310287Y-55655813D01*
X118224573Y-56379623D02*
X118338859Y-56417718D01*
X118338859Y-56417718D02*
X118529335Y-56417718D01*
X118529335Y-56417718D02*
X118605526Y-56379623D01*
X118605526Y-56379623D02*
X118643621Y-56341527D01*
X118643621Y-56341527D02*
X118681716Y-56265337D01*
X118681716Y-56265337D02*
X118681716Y-56189146D01*
X118681716Y-56189146D02*
X118643621Y-56112956D01*
X118643621Y-56112956D02*
X118605526Y-56074861D01*
X118605526Y-56074861D02*
X118529335Y-56036765D01*
X118529335Y-56036765D02*
X118376954Y-55998670D01*
X118376954Y-55998670D02*
X118300764Y-55960575D01*
X118300764Y-55960575D02*
X118262669Y-55922480D01*
X118262669Y-55922480D02*
X118224573Y-55846289D01*
X118224573Y-55846289D02*
X118224573Y-55770099D01*
X118224573Y-55770099D02*
X118262669Y-55693908D01*
X118262669Y-55693908D02*
X118300764Y-55655813D01*
X118300764Y-55655813D02*
X118376954Y-55617718D01*
X118376954Y-55617718D02*
X118567431Y-55617718D01*
X118567431Y-55617718D02*
X118681716Y-55655813D01*
X119024574Y-56417718D02*
X119024574Y-55617718D01*
X119405526Y-56417718D02*
X119405526Y-55617718D01*
X119405526Y-55617718D02*
X119596002Y-55617718D01*
X119596002Y-55617718D02*
X119710288Y-55655813D01*
X119710288Y-55655813D02*
X119786478Y-55732003D01*
X119786478Y-55732003D02*
X119824573Y-55808194D01*
X119824573Y-55808194D02*
X119862669Y-55960575D01*
X119862669Y-55960575D02*
X119862669Y-56074861D01*
X119862669Y-56074861D02*
X119824573Y-56227242D01*
X119824573Y-56227242D02*
X119786478Y-56303432D01*
X119786478Y-56303432D02*
X119710288Y-56379623D01*
X119710288Y-56379623D02*
X119596002Y-56417718D01*
X119596002Y-56417718D02*
X119405526Y-56417718D01*
X120205526Y-55998670D02*
X120472192Y-55998670D01*
X120586478Y-56417718D02*
X120205526Y-56417718D01*
X120205526Y-56417718D02*
X120205526Y-55617718D01*
X120205526Y-55617718D02*
X120586478Y-55617718D01*
X121538860Y-55617718D02*
X121538860Y-56265337D01*
X121538860Y-56265337D02*
X121576955Y-56341527D01*
X121576955Y-56341527D02*
X121615050Y-56379623D01*
X121615050Y-56379623D02*
X121691241Y-56417718D01*
X121691241Y-56417718D02*
X121843622Y-56417718D01*
X121843622Y-56417718D02*
X121919812Y-56379623D01*
X121919812Y-56379623D02*
X121957907Y-56341527D01*
X121957907Y-56341527D02*
X121996003Y-56265337D01*
X121996003Y-56265337D02*
X121996003Y-55617718D01*
X122376955Y-56417718D02*
X122376955Y-55617718D01*
X122376955Y-55617718D02*
X122681717Y-55617718D01*
X122681717Y-55617718D02*
X122757907Y-55655813D01*
X122757907Y-55655813D02*
X122796002Y-55693908D01*
X122796002Y-55693908D02*
X122834098Y-55770099D01*
X122834098Y-55770099D02*
X122834098Y-55884384D01*
X122834098Y-55884384D02*
X122796002Y-55960575D01*
X122796002Y-55960575D02*
X122757907Y-55998670D01*
X122757907Y-55998670D02*
X122681717Y-56036765D01*
X122681717Y-56036765D02*
X122376955Y-56036765D01*
D15*
X119911905Y-112144819D02*
X119911905Y-111144819D01*
X119911905Y-111144819D02*
X120150000Y-111144819D01*
X120150000Y-111144819D02*
X120292857Y-111192438D01*
X120292857Y-111192438D02*
X120388095Y-111287676D01*
X120388095Y-111287676D02*
X120435714Y-111382914D01*
X120435714Y-111382914D02*
X120483333Y-111573390D01*
X120483333Y-111573390D02*
X120483333Y-111716247D01*
X120483333Y-111716247D02*
X120435714Y-111906723D01*
X120435714Y-111906723D02*
X120388095Y-112001961D01*
X120388095Y-112001961D02*
X120292857Y-112097200D01*
X120292857Y-112097200D02*
X120150000Y-112144819D01*
X120150000Y-112144819D02*
X119911905Y-112144819D01*
X121435714Y-112144819D02*
X120864286Y-112144819D01*
X121150000Y-112144819D02*
X121150000Y-111144819D01*
X121150000Y-111144819D02*
X121054762Y-111287676D01*
X121054762Y-111287676D02*
X120959524Y-111382914D01*
X120959524Y-111382914D02*
X120864286Y-111430533D01*
X118507142Y-107204819D02*
X117935714Y-107204819D01*
X118221428Y-107204819D02*
X118221428Y-106204819D01*
X118221428Y-106204819D02*
X118126190Y-106347676D01*
X118126190Y-106347676D02*
X118030952Y-106442914D01*
X118030952Y-106442914D02*
X117935714Y-106490533D01*
X118935714Y-107204819D02*
X118935714Y-106204819D01*
X118935714Y-106204819D02*
X119507142Y-107204819D01*
X119507142Y-107204819D02*
X119507142Y-106204819D01*
X120411904Y-106538152D02*
X120411904Y-107204819D01*
X120173809Y-106157200D02*
X119935714Y-106871485D01*
X119935714Y-106871485D02*
X120554761Y-106871485D01*
X121459523Y-107204819D02*
X120888095Y-107204819D01*
X121173809Y-107204819D02*
X121173809Y-106204819D01*
X121173809Y-106204819D02*
X121078571Y-106347676D01*
X121078571Y-106347676D02*
X120983333Y-106442914D01*
X120983333Y-106442914D02*
X120888095Y-106490533D01*
X122316666Y-106538152D02*
X122316666Y-107204819D01*
X122078571Y-106157200D02*
X121840476Y-106871485D01*
X121840476Y-106871485D02*
X122459523Y-106871485D01*
X122983333Y-106633390D02*
X122888095Y-106585771D01*
X122888095Y-106585771D02*
X122840476Y-106538152D01*
X122840476Y-106538152D02*
X122792857Y-106442914D01*
X122792857Y-106442914D02*
X122792857Y-106395295D01*
X122792857Y-106395295D02*
X122840476Y-106300057D01*
X122840476Y-106300057D02*
X122888095Y-106252438D01*
X122888095Y-106252438D02*
X122983333Y-106204819D01*
X122983333Y-106204819D02*
X123173809Y-106204819D01*
X123173809Y-106204819D02*
X123269047Y-106252438D01*
X123269047Y-106252438D02*
X123316666Y-106300057D01*
X123316666Y-106300057D02*
X123364285Y-106395295D01*
X123364285Y-106395295D02*
X123364285Y-106442914D01*
X123364285Y-106442914D02*
X123316666Y-106538152D01*
X123316666Y-106538152D02*
X123269047Y-106585771D01*
X123269047Y-106585771D02*
X123173809Y-106633390D01*
X123173809Y-106633390D02*
X122983333Y-106633390D01*
X122983333Y-106633390D02*
X122888095Y-106681009D01*
X122888095Y-106681009D02*
X122840476Y-106728628D01*
X122840476Y-106728628D02*
X122792857Y-106823866D01*
X122792857Y-106823866D02*
X122792857Y-107014342D01*
X122792857Y-107014342D02*
X122840476Y-107109580D01*
X122840476Y-107109580D02*
X122888095Y-107157200D01*
X122888095Y-107157200D02*
X122983333Y-107204819D01*
X122983333Y-107204819D02*
X123173809Y-107204819D01*
X123173809Y-107204819D02*
X123269047Y-107157200D01*
X123269047Y-107157200D02*
X123316666Y-107109580D01*
X123316666Y-107109580D02*
X123364285Y-107014342D01*
X123364285Y-107014342D02*
X123364285Y-106823866D01*
X123364285Y-106823866D02*
X123316666Y-106728628D01*
X123316666Y-106728628D02*
X123269047Y-106681009D01*
X123269047Y-106681009D02*
X123173809Y-106633390D01*
X124198095Y-111774819D02*
X124198095Y-110774819D01*
X124769523Y-111774819D02*
X124340952Y-111203390D01*
X124769523Y-110774819D02*
X124198095Y-111346247D01*
X161226667Y-68157200D02*
X161369524Y-68204819D01*
X161369524Y-68204819D02*
X161607619Y-68204819D01*
X161607619Y-68204819D02*
X161702857Y-68157200D01*
X161702857Y-68157200D02*
X161750476Y-68109580D01*
X161750476Y-68109580D02*
X161798095Y-68014342D01*
X161798095Y-68014342D02*
X161798095Y-67919104D01*
X161798095Y-67919104D02*
X161750476Y-67823866D01*
X161750476Y-67823866D02*
X161702857Y-67776247D01*
X161702857Y-67776247D02*
X161607619Y-67728628D01*
X161607619Y-67728628D02*
X161417143Y-67681009D01*
X161417143Y-67681009D02*
X161321905Y-67633390D01*
X161321905Y-67633390D02*
X161274286Y-67585771D01*
X161274286Y-67585771D02*
X161226667Y-67490533D01*
X161226667Y-67490533D02*
X161226667Y-67395295D01*
X161226667Y-67395295D02*
X161274286Y-67300057D01*
X161274286Y-67300057D02*
X161321905Y-67252438D01*
X161321905Y-67252438D02*
X161417143Y-67204819D01*
X161417143Y-67204819D02*
X161655238Y-67204819D01*
X161655238Y-67204819D02*
X161798095Y-67252438D01*
X162131429Y-67204819D02*
X162369524Y-68204819D01*
X162369524Y-68204819D02*
X162560000Y-67490533D01*
X162560000Y-67490533D02*
X162750476Y-68204819D01*
X162750476Y-68204819D02*
X162988572Y-67204819D01*
X163893333Y-68204819D02*
X163321905Y-68204819D01*
X163607619Y-68204819D02*
X163607619Y-67204819D01*
X163607619Y-67204819D02*
X163512381Y-67347676D01*
X163512381Y-67347676D02*
X163417143Y-67442914D01*
X163417143Y-67442914D02*
X163321905Y-67490533D01*
X129444712Y-61584819D02*
X129111379Y-61108628D01*
X128873284Y-61584819D02*
X128873284Y-60584819D01*
X128873284Y-60584819D02*
X129254236Y-60584819D01*
X129254236Y-60584819D02*
X129349474Y-60632438D01*
X129349474Y-60632438D02*
X129397093Y-60680057D01*
X129397093Y-60680057D02*
X129444712Y-60775295D01*
X129444712Y-60775295D02*
X129444712Y-60918152D01*
X129444712Y-60918152D02*
X129397093Y-61013390D01*
X129397093Y-61013390D02*
X129349474Y-61061009D01*
X129349474Y-61061009D02*
X129254236Y-61108628D01*
X129254236Y-61108628D02*
X128873284Y-61108628D01*
X129825665Y-60680057D02*
X129873284Y-60632438D01*
X129873284Y-60632438D02*
X129968522Y-60584819D01*
X129968522Y-60584819D02*
X130206617Y-60584819D01*
X130206617Y-60584819D02*
X130301855Y-60632438D01*
X130301855Y-60632438D02*
X130349474Y-60680057D01*
X130349474Y-60680057D02*
X130397093Y-60775295D01*
X130397093Y-60775295D02*
X130397093Y-60870533D01*
X130397093Y-60870533D02*
X130349474Y-61013390D01*
X130349474Y-61013390D02*
X129778046Y-61584819D01*
X129778046Y-61584819D02*
X130397093Y-61584819D01*
X128254286Y-62954819D02*
X128873333Y-62954819D01*
X128873333Y-62954819D02*
X128540000Y-63335771D01*
X128540000Y-63335771D02*
X128682857Y-63335771D01*
X128682857Y-63335771D02*
X128778095Y-63383390D01*
X128778095Y-63383390D02*
X128825714Y-63431009D01*
X128825714Y-63431009D02*
X128873333Y-63526247D01*
X128873333Y-63526247D02*
X128873333Y-63764342D01*
X128873333Y-63764342D02*
X128825714Y-63859580D01*
X128825714Y-63859580D02*
X128778095Y-63907200D01*
X128778095Y-63907200D02*
X128682857Y-63954819D01*
X128682857Y-63954819D02*
X128397143Y-63954819D01*
X128397143Y-63954819D02*
X128301905Y-63907200D01*
X128301905Y-63907200D02*
X128254286Y-63859580D01*
X129206667Y-62954819D02*
X129825714Y-62954819D01*
X129825714Y-62954819D02*
X129492381Y-63335771D01*
X129492381Y-63335771D02*
X129635238Y-63335771D01*
X129635238Y-63335771D02*
X129730476Y-63383390D01*
X129730476Y-63383390D02*
X129778095Y-63431009D01*
X129778095Y-63431009D02*
X129825714Y-63526247D01*
X129825714Y-63526247D02*
X129825714Y-63764342D01*
X129825714Y-63764342D02*
X129778095Y-63859580D01*
X129778095Y-63859580D02*
X129730476Y-63907200D01*
X129730476Y-63907200D02*
X129635238Y-63954819D01*
X129635238Y-63954819D02*
X129349524Y-63954819D01*
X129349524Y-63954819D02*
X129254286Y-63907200D01*
X129254286Y-63907200D02*
X129206667Y-63859580D01*
X130444762Y-62954819D02*
X130540000Y-62954819D01*
X130540000Y-62954819D02*
X130635238Y-63002438D01*
X130635238Y-63002438D02*
X130682857Y-63050057D01*
X130682857Y-63050057D02*
X130730476Y-63145295D01*
X130730476Y-63145295D02*
X130778095Y-63335771D01*
X130778095Y-63335771D02*
X130778095Y-63573866D01*
X130778095Y-63573866D02*
X130730476Y-63764342D01*
X130730476Y-63764342D02*
X130682857Y-63859580D01*
X130682857Y-63859580D02*
X130635238Y-63907200D01*
X130635238Y-63907200D02*
X130540000Y-63954819D01*
X130540000Y-63954819D02*
X130444762Y-63954819D01*
X130444762Y-63954819D02*
X130349524Y-63907200D01*
X130349524Y-63907200D02*
X130301905Y-63859580D01*
X130301905Y-63859580D02*
X130254286Y-63764342D01*
X130254286Y-63764342D02*
X130206667Y-63573866D01*
X130206667Y-63573866D02*
X130206667Y-63335771D01*
X130206667Y-63335771D02*
X130254286Y-63145295D01*
X130254286Y-63145295D02*
X130301905Y-63050057D01*
X130301905Y-63050057D02*
X130349524Y-63002438D01*
X130349524Y-63002438D02*
X130444762Y-62954819D01*
X127358466Y-79964094D02*
X127406086Y-80011713D01*
X127406086Y-80011713D02*
X127453705Y-80154570D01*
X127453705Y-80154570D02*
X127453705Y-80249808D01*
X127453705Y-80249808D02*
X127406086Y-80392665D01*
X127406086Y-80392665D02*
X127310847Y-80487903D01*
X127310847Y-80487903D02*
X127215609Y-80535522D01*
X127215609Y-80535522D02*
X127025133Y-80583141D01*
X127025133Y-80583141D02*
X126882276Y-80583141D01*
X126882276Y-80583141D02*
X126691800Y-80535522D01*
X126691800Y-80535522D02*
X126596562Y-80487903D01*
X126596562Y-80487903D02*
X126501324Y-80392665D01*
X126501324Y-80392665D02*
X126453705Y-80249808D01*
X126453705Y-80249808D02*
X126453705Y-80154570D01*
X126453705Y-80154570D02*
X126501324Y-80011713D01*
X126501324Y-80011713D02*
X126548943Y-79964094D01*
X127453705Y-79011713D02*
X127453705Y-79583141D01*
X127453705Y-79297427D02*
X126453705Y-79297427D01*
X126453705Y-79297427D02*
X126596562Y-79392665D01*
X126596562Y-79392665D02*
X126691800Y-79487903D01*
X126691800Y-79487903D02*
X126739419Y-79583141D01*
X120483333Y-99684819D02*
X120150000Y-99208628D01*
X119911905Y-99684819D02*
X119911905Y-98684819D01*
X119911905Y-98684819D02*
X120292857Y-98684819D01*
X120292857Y-98684819D02*
X120388095Y-98732438D01*
X120388095Y-98732438D02*
X120435714Y-98780057D01*
X120435714Y-98780057D02*
X120483333Y-98875295D01*
X120483333Y-98875295D02*
X120483333Y-99018152D01*
X120483333Y-99018152D02*
X120435714Y-99113390D01*
X120435714Y-99113390D02*
X120388095Y-99161009D01*
X120388095Y-99161009D02*
X120292857Y-99208628D01*
X120292857Y-99208628D02*
X119911905Y-99208628D01*
X121435714Y-99684819D02*
X120864286Y-99684819D01*
X121150000Y-99684819D02*
X121150000Y-98684819D01*
X121150000Y-98684819D02*
X121054762Y-98827676D01*
X121054762Y-98827676D02*
X120959524Y-98922914D01*
X120959524Y-98922914D02*
X120864286Y-98970533D01*
X120054761Y-102054819D02*
X119483333Y-102054819D01*
X119769047Y-102054819D02*
X119769047Y-101054819D01*
X119769047Y-101054819D02*
X119673809Y-101197676D01*
X119673809Y-101197676D02*
X119578571Y-101292914D01*
X119578571Y-101292914D02*
X119483333Y-101340533D01*
X120673809Y-101054819D02*
X120769047Y-101054819D01*
X120769047Y-101054819D02*
X120864285Y-101102438D01*
X120864285Y-101102438D02*
X120911904Y-101150057D01*
X120911904Y-101150057D02*
X120959523Y-101245295D01*
X120959523Y-101245295D02*
X121007142Y-101435771D01*
X121007142Y-101435771D02*
X121007142Y-101673866D01*
X121007142Y-101673866D02*
X120959523Y-101864342D01*
X120959523Y-101864342D02*
X120911904Y-101959580D01*
X120911904Y-101959580D02*
X120864285Y-102007200D01*
X120864285Y-102007200D02*
X120769047Y-102054819D01*
X120769047Y-102054819D02*
X120673809Y-102054819D01*
X120673809Y-102054819D02*
X120578571Y-102007200D01*
X120578571Y-102007200D02*
X120530952Y-101959580D01*
X120530952Y-101959580D02*
X120483333Y-101864342D01*
X120483333Y-101864342D02*
X120435714Y-101673866D01*
X120435714Y-101673866D02*
X120435714Y-101435771D01*
X120435714Y-101435771D02*
X120483333Y-101245295D01*
X120483333Y-101245295D02*
X120530952Y-101150057D01*
X120530952Y-101150057D02*
X120578571Y-101102438D01*
X120578571Y-101102438D02*
X120673809Y-101054819D01*
X121435714Y-102054819D02*
X121435714Y-101054819D01*
X121530952Y-101673866D02*
X121816666Y-102054819D01*
X121816666Y-101388152D02*
X121435714Y-101769104D01*
X149067849Y-67914819D02*
X149067849Y-66914819D01*
X149067849Y-66914819D02*
X149305944Y-66914819D01*
X149305944Y-66914819D02*
X149448801Y-66962438D01*
X149448801Y-66962438D02*
X149544039Y-67057676D01*
X149544039Y-67057676D02*
X149591658Y-67152914D01*
X149591658Y-67152914D02*
X149639277Y-67343390D01*
X149639277Y-67343390D02*
X149639277Y-67486247D01*
X149639277Y-67486247D02*
X149591658Y-67676723D01*
X149591658Y-67676723D02*
X149544039Y-67771961D01*
X149544039Y-67771961D02*
X149448801Y-67867200D01*
X149448801Y-67867200D02*
X149305944Y-67914819D01*
X149305944Y-67914819D02*
X149067849Y-67914819D01*
X149972611Y-66914819D02*
X150591658Y-66914819D01*
X150591658Y-66914819D02*
X150258325Y-67295771D01*
X150258325Y-67295771D02*
X150401182Y-67295771D01*
X150401182Y-67295771D02*
X150496420Y-67343390D01*
X150496420Y-67343390D02*
X150544039Y-67391009D01*
X150544039Y-67391009D02*
X150591658Y-67486247D01*
X150591658Y-67486247D02*
X150591658Y-67724342D01*
X150591658Y-67724342D02*
X150544039Y-67819580D01*
X150544039Y-67819580D02*
X150496420Y-67867200D01*
X150496420Y-67867200D02*
X150401182Y-67914819D01*
X150401182Y-67914819D02*
X150115468Y-67914819D01*
X150115468Y-67914819D02*
X150020230Y-67867200D01*
X150020230Y-67867200D02*
X149972611Y-67819580D01*
X119911905Y-119764819D02*
X119911905Y-118764819D01*
X119911905Y-118764819D02*
X120150000Y-118764819D01*
X120150000Y-118764819D02*
X120292857Y-118812438D01*
X120292857Y-118812438D02*
X120388095Y-118907676D01*
X120388095Y-118907676D02*
X120435714Y-119002914D01*
X120435714Y-119002914D02*
X120483333Y-119193390D01*
X120483333Y-119193390D02*
X120483333Y-119336247D01*
X120483333Y-119336247D02*
X120435714Y-119526723D01*
X120435714Y-119526723D02*
X120388095Y-119621961D01*
X120388095Y-119621961D02*
X120292857Y-119717200D01*
X120292857Y-119717200D02*
X120150000Y-119764819D01*
X120150000Y-119764819D02*
X119911905Y-119764819D01*
X120864286Y-118860057D02*
X120911905Y-118812438D01*
X120911905Y-118812438D02*
X121007143Y-118764819D01*
X121007143Y-118764819D02*
X121245238Y-118764819D01*
X121245238Y-118764819D02*
X121340476Y-118812438D01*
X121340476Y-118812438D02*
X121388095Y-118860057D01*
X121388095Y-118860057D02*
X121435714Y-118955295D01*
X121435714Y-118955295D02*
X121435714Y-119050533D01*
X121435714Y-119050533D02*
X121388095Y-119193390D01*
X121388095Y-119193390D02*
X120816667Y-119764819D01*
X120816667Y-119764819D02*
X121435714Y-119764819D01*
X118507142Y-114824819D02*
X117935714Y-114824819D01*
X118221428Y-114824819D02*
X118221428Y-113824819D01*
X118221428Y-113824819D02*
X118126190Y-113967676D01*
X118126190Y-113967676D02*
X118030952Y-114062914D01*
X118030952Y-114062914D02*
X117935714Y-114110533D01*
X118935714Y-114824819D02*
X118935714Y-113824819D01*
X118935714Y-113824819D02*
X119507142Y-114824819D01*
X119507142Y-114824819D02*
X119507142Y-113824819D01*
X120411904Y-114158152D02*
X120411904Y-114824819D01*
X120173809Y-113777200D02*
X119935714Y-114491485D01*
X119935714Y-114491485D02*
X120554761Y-114491485D01*
X121459523Y-114824819D02*
X120888095Y-114824819D01*
X121173809Y-114824819D02*
X121173809Y-113824819D01*
X121173809Y-113824819D02*
X121078571Y-113967676D01*
X121078571Y-113967676D02*
X120983333Y-114062914D01*
X120983333Y-114062914D02*
X120888095Y-114110533D01*
X122316666Y-114158152D02*
X122316666Y-114824819D01*
X122078571Y-113777200D02*
X121840476Y-114491485D01*
X121840476Y-114491485D02*
X122459523Y-114491485D01*
X122983333Y-114253390D02*
X122888095Y-114205771D01*
X122888095Y-114205771D02*
X122840476Y-114158152D01*
X122840476Y-114158152D02*
X122792857Y-114062914D01*
X122792857Y-114062914D02*
X122792857Y-114015295D01*
X122792857Y-114015295D02*
X122840476Y-113920057D01*
X122840476Y-113920057D02*
X122888095Y-113872438D01*
X122888095Y-113872438D02*
X122983333Y-113824819D01*
X122983333Y-113824819D02*
X123173809Y-113824819D01*
X123173809Y-113824819D02*
X123269047Y-113872438D01*
X123269047Y-113872438D02*
X123316666Y-113920057D01*
X123316666Y-113920057D02*
X123364285Y-114015295D01*
X123364285Y-114015295D02*
X123364285Y-114062914D01*
X123364285Y-114062914D02*
X123316666Y-114158152D01*
X123316666Y-114158152D02*
X123269047Y-114205771D01*
X123269047Y-114205771D02*
X123173809Y-114253390D01*
X123173809Y-114253390D02*
X122983333Y-114253390D01*
X122983333Y-114253390D02*
X122888095Y-114301009D01*
X122888095Y-114301009D02*
X122840476Y-114348628D01*
X122840476Y-114348628D02*
X122792857Y-114443866D01*
X122792857Y-114443866D02*
X122792857Y-114634342D01*
X122792857Y-114634342D02*
X122840476Y-114729580D01*
X122840476Y-114729580D02*
X122888095Y-114777200D01*
X122888095Y-114777200D02*
X122983333Y-114824819D01*
X122983333Y-114824819D02*
X123173809Y-114824819D01*
X123173809Y-114824819D02*
X123269047Y-114777200D01*
X123269047Y-114777200D02*
X123316666Y-114729580D01*
X123316666Y-114729580D02*
X123364285Y-114634342D01*
X123364285Y-114634342D02*
X123364285Y-114443866D01*
X123364285Y-114443866D02*
X123316666Y-114348628D01*
X123316666Y-114348628D02*
X123269047Y-114301009D01*
X123269047Y-114301009D02*
X123173809Y-114253390D01*
X124198095Y-119394819D02*
X124198095Y-118394819D01*
X124769523Y-119394819D02*
X124340952Y-118823390D01*
X124769523Y-118394819D02*
X124198095Y-118966247D01*
X129204819Y-84581904D02*
X130014342Y-84581904D01*
X130014342Y-84581904D02*
X130109580Y-84534285D01*
X130109580Y-84534285D02*
X130157200Y-84486666D01*
X130157200Y-84486666D02*
X130204819Y-84391428D01*
X130204819Y-84391428D02*
X130204819Y-84200952D01*
X130204819Y-84200952D02*
X130157200Y-84105714D01*
X130157200Y-84105714D02*
X130109580Y-84058095D01*
X130109580Y-84058095D02*
X130014342Y-84010476D01*
X130014342Y-84010476D02*
X129204819Y-84010476D01*
X130204819Y-83010476D02*
X130204819Y-83581904D01*
X130204819Y-83296190D02*
X129204819Y-83296190D01*
X129204819Y-83296190D02*
X129347676Y-83391428D01*
X129347676Y-83391428D02*
X129442914Y-83486666D01*
X129442914Y-83486666D02*
X129490533Y-83581904D01*
X166980057Y-86510475D02*
X166932438Y-86462856D01*
X166932438Y-86462856D02*
X166884819Y-86367618D01*
X166884819Y-86367618D02*
X166884819Y-86129523D01*
X166884819Y-86129523D02*
X166932438Y-86034285D01*
X166932438Y-86034285D02*
X166980057Y-85986666D01*
X166980057Y-85986666D02*
X167075295Y-85939047D01*
X167075295Y-85939047D02*
X167170533Y-85939047D01*
X167170533Y-85939047D02*
X167313390Y-85986666D01*
X167313390Y-85986666D02*
X167884819Y-86558094D01*
X167884819Y-86558094D02*
X167884819Y-85939047D01*
X166884819Y-85605713D02*
X166884819Y-84939047D01*
X166884819Y-84939047D02*
X167884819Y-85367618D01*
X167789580Y-83986666D02*
X167837200Y-84034285D01*
X167837200Y-84034285D02*
X167884819Y-84177142D01*
X167884819Y-84177142D02*
X167884819Y-84272380D01*
X167884819Y-84272380D02*
X167837200Y-84415237D01*
X167837200Y-84415237D02*
X167741961Y-84510475D01*
X167741961Y-84510475D02*
X167646723Y-84558094D01*
X167646723Y-84558094D02*
X167456247Y-84605713D01*
X167456247Y-84605713D02*
X167313390Y-84605713D01*
X167313390Y-84605713D02*
X167122914Y-84558094D01*
X167122914Y-84558094D02*
X167027676Y-84510475D01*
X167027676Y-84510475D02*
X166932438Y-84415237D01*
X166932438Y-84415237D02*
X166884819Y-84272380D01*
X166884819Y-84272380D02*
X166884819Y-84177142D01*
X166884819Y-84177142D02*
X166932438Y-84034285D01*
X166932438Y-84034285D02*
X166980057Y-83986666D01*
X167884819Y-83034285D02*
X167884819Y-83605713D01*
X167884819Y-83319999D02*
X166884819Y-83319999D01*
X166884819Y-83319999D02*
X167027676Y-83415237D01*
X167027676Y-83415237D02*
X167122914Y-83510475D01*
X167122914Y-83510475D02*
X167170533Y-83605713D01*
X166980057Y-82653332D02*
X166932438Y-82605713D01*
X166932438Y-82605713D02*
X166884819Y-82510475D01*
X166884819Y-82510475D02*
X166884819Y-82272380D01*
X166884819Y-82272380D02*
X166932438Y-82177142D01*
X166932438Y-82177142D02*
X166980057Y-82129523D01*
X166980057Y-82129523D02*
X167075295Y-82081904D01*
X167075295Y-82081904D02*
X167170533Y-82081904D01*
X167170533Y-82081904D02*
X167313390Y-82129523D01*
X167313390Y-82129523D02*
X167884819Y-82700951D01*
X167884819Y-82700951D02*
X167884819Y-82081904D01*
X167313390Y-81510475D02*
X167265771Y-81605713D01*
X167265771Y-81605713D02*
X167218152Y-81653332D01*
X167218152Y-81653332D02*
X167122914Y-81700951D01*
X167122914Y-81700951D02*
X167075295Y-81700951D01*
X167075295Y-81700951D02*
X166980057Y-81653332D01*
X166980057Y-81653332D02*
X166932438Y-81605713D01*
X166932438Y-81605713D02*
X166884819Y-81510475D01*
X166884819Y-81510475D02*
X166884819Y-81319999D01*
X166884819Y-81319999D02*
X166932438Y-81224761D01*
X166932438Y-81224761D02*
X166980057Y-81177142D01*
X166980057Y-81177142D02*
X167075295Y-81129523D01*
X167075295Y-81129523D02*
X167122914Y-81129523D01*
X167122914Y-81129523D02*
X167218152Y-81177142D01*
X167218152Y-81177142D02*
X167265771Y-81224761D01*
X167265771Y-81224761D02*
X167313390Y-81319999D01*
X167313390Y-81319999D02*
X167313390Y-81510475D01*
X167313390Y-81510475D02*
X167361009Y-81605713D01*
X167361009Y-81605713D02*
X167408628Y-81653332D01*
X167408628Y-81653332D02*
X167503866Y-81700951D01*
X167503866Y-81700951D02*
X167694342Y-81700951D01*
X167694342Y-81700951D02*
X167789580Y-81653332D01*
X167789580Y-81653332D02*
X167837200Y-81605713D01*
X167837200Y-81605713D02*
X167884819Y-81510475D01*
X167884819Y-81510475D02*
X167884819Y-81319999D01*
X167884819Y-81319999D02*
X167837200Y-81224761D01*
X167837200Y-81224761D02*
X167789580Y-81177142D01*
X167789580Y-81177142D02*
X167694342Y-81129523D01*
X167694342Y-81129523D02*
X167503866Y-81129523D01*
X167503866Y-81129523D02*
X167408628Y-81177142D01*
X167408628Y-81177142D02*
X167361009Y-81224761D01*
X167361009Y-81224761D02*
X167313390Y-81319999D01*
D16*
%TO.C,D1*%
X117930000Y-107750000D02*
X117930000Y-107880000D01*
X117930000Y-110690000D02*
X117930000Y-110560000D01*
X122350000Y-110690000D02*
X122350000Y-107750000D01*
X122470000Y-110690000D02*
X122470000Y-107750000D01*
X122590000Y-110690000D02*
X122590000Y-107750000D01*
X123370000Y-107750000D02*
X117930000Y-107750000D01*
X123370000Y-107880000D02*
X123370000Y-107750000D01*
X123370000Y-110560000D02*
X123370000Y-110690000D01*
X123370000Y-110690000D02*
X117930000Y-110690000D01*
%TO.C,SW1*%
X159060000Y-62750000D02*
X159060000Y-64250000D01*
X160310000Y-66750000D02*
X164810000Y-66750000D01*
X164810000Y-60250000D02*
X160310000Y-60250000D01*
X166060000Y-64250000D02*
X166060000Y-62750000D01*
%TO.C,R2*%
X125500000Y-63500000D02*
X126270000Y-63500000D01*
X133580000Y-63500000D02*
X132810000Y-63500000D01*
X126270000Y-62130000D02*
X132810000Y-62130000D01*
X132810000Y-64870000D01*
X126270000Y-64870000D01*
X126270000Y-62130000D01*
%TO.C,C1*%
X125955800Y-82041100D02*
X125955800Y-85281100D01*
X126103800Y-82041100D02*
X125955800Y-82041100D01*
X126103800Y-85281100D02*
X125955800Y-85281100D01*
X128195800Y-82041100D02*
X128047800Y-82041100D01*
X128195800Y-82041100D02*
X128195800Y-85281100D01*
X128195800Y-85281100D02*
X128047800Y-85281100D01*
%TO.C,R1*%
X116610000Y-101600000D02*
X117380000Y-101600000D01*
X124690000Y-101600000D02*
X123920000Y-101600000D01*
X117380000Y-100230000D02*
X123920000Y-100230000D01*
X123920000Y-102970000D01*
X117380000Y-102970000D01*
X117380000Y-100230000D01*
%TO.C,D3*%
X152365944Y-65045000D02*
X152365944Y-61955000D01*
X146815944Y-63500000D02*
G75*
G02*
X152365944Y-61955170I2990000J0D01*
G01*
X152365944Y-65044830D02*
G75*
G02*
X146815944Y-63500000I-2560000J1544830D01*
G01*
X152305944Y-63500000D02*
G75*
G02*
X147305944Y-63500000I-2500000J0D01*
G01*
X147305944Y-63500000D02*
G75*
G02*
X152305944Y-63500000I2500000J0D01*
G01*
%TO.C,D2*%
X117930000Y-115370000D02*
X117930000Y-115500000D01*
X117930000Y-118310000D02*
X117930000Y-118180000D01*
X122350000Y-118310000D02*
X122350000Y-115370000D01*
X122470000Y-118310000D02*
X122470000Y-115370000D01*
X122590000Y-118310000D02*
X122590000Y-115370000D01*
X123370000Y-115370000D02*
X117930000Y-115370000D01*
X123370000Y-115500000D02*
X123370000Y-115370000D01*
X123370000Y-118180000D02*
X123370000Y-118310000D01*
X123370000Y-118310000D02*
X117930000Y-118310000D01*
%TO.C,U1*%
X130750000Y-77360000D02*
X130750000Y-82820000D01*
X130750000Y-84820000D02*
X130750000Y-90280000D01*
X130750000Y-90280000D02*
X166430000Y-90280000D01*
X166430000Y-77360000D02*
X130750000Y-77360000D01*
X166430000Y-90280000D02*
X166430000Y-77360000D01*
X130750000Y-82820000D02*
G75*
G02*
X130750000Y-84820000I0J-1000000D01*
G01*
%TD*%
%LPC*%
D10*
%TO.C,CN1*%
G36*
X171196000Y-140970000D02*
G01*
X113284000Y-140970000D01*
X113284000Y-129540000D01*
X171196000Y-129540000D01*
X171196000Y-140970000D01*
G37*
%TD*%
D17*
%TO.C,D1*%
X124460000Y-109220000D03*
D18*
X116840000Y-109220000D03*
%TD*%
D19*
%TO.C,SW1*%
X165810000Y-65750000D03*
X159310000Y-65750000D03*
X165810000Y-61250000D03*
X159310000Y-61250000D03*
%TD*%
D20*
%TO.C,R2*%
X124460000Y-63500000D03*
X134620000Y-63500000D03*
%TD*%
%TO.C,C1*%
X127075800Y-82411100D03*
X127075800Y-84911100D03*
%TD*%
%TO.C,R1*%
X115570000Y-101600000D03*
X125730000Y-101600000D03*
%TD*%
D21*
%TO.C,D3*%
X151075944Y-63500000D03*
D22*
X148535944Y-63500000D03*
%TD*%
D17*
%TO.C,D2*%
X124460000Y-116840000D03*
D18*
X116840000Y-116840000D03*
%TD*%
D23*
%TO.C,CN1*%
X115570000Y-135255000D03*
X118110000Y-135255000D03*
X120650000Y-135255000D03*
X123190000Y-135255000D03*
X125730000Y-135255000D03*
X128270000Y-135255000D03*
X130810000Y-135255000D03*
X133350000Y-135255000D03*
X135890000Y-135255000D03*
X138430000Y-135255000D03*
X140970000Y-135255000D03*
X143510000Y-135255000D03*
X146050000Y-135255000D03*
X148590000Y-135255000D03*
X151130000Y-135255000D03*
X153670000Y-135255000D03*
X156210000Y-135255000D03*
X158750000Y-135255000D03*
X161290000Y-135255000D03*
X163830000Y-135255000D03*
X166370000Y-135255000D03*
X168910000Y-135255000D03*
X115570000Y-135255000D03*
X118110000Y-135255000D03*
X120650000Y-135255000D03*
X123190000Y-135255000D03*
X125730000Y-135255000D03*
X128270000Y-135255000D03*
X130810000Y-135255000D03*
X133350000Y-135255000D03*
X135890000Y-135255000D03*
X138430000Y-135255000D03*
X140970000Y-135255000D03*
X143510000Y-135255000D03*
X146050000Y-135255000D03*
X148590000Y-135255000D03*
X151130000Y-135255000D03*
X153670000Y-135255000D03*
X156210000Y-135255000D03*
X158750000Y-135255000D03*
X161290000Y-135255000D03*
X163830000Y-135255000D03*
X166370000Y-135255000D03*
X168910000Y-135255000D03*
%TD*%
D24*
%TO.C,U1*%
X132080000Y-91440000D03*
D20*
X134620000Y-91440000D03*
X137160000Y-91440000D03*
X139700000Y-91440000D03*
X142240000Y-91440000D03*
X144780000Y-91440000D03*
X147320000Y-91440000D03*
X149860000Y-91440000D03*
X152400000Y-91440000D03*
X154940000Y-91440000D03*
X157480000Y-91440000D03*
X160020000Y-91440000D03*
X162560000Y-91440000D03*
X165100000Y-91440000D03*
X165100000Y-76200000D03*
X162560000Y-76200000D03*
X160020000Y-76200000D03*
X157480000Y-76200000D03*
X154940000Y-76200000D03*
X152400000Y-76200000D03*
X149860000Y-76200000D03*
X147320000Y-76200000D03*
X144780000Y-76200000D03*
X142240000Y-76200000D03*
X139700000Y-76200000D03*
X137160000Y-76200000D03*
X134620000Y-76200000D03*
X132080000Y-76200000D03*
%TD*%
%LPD*%
M02*
