%TF.GenerationSoftware,KiCad,Pcbnew,9.0.5-1.fc42*%
%TF.CreationDate,2025-11-09T17:28:59+08:00*%
%TF.ProjectId,JACC64-16K,4a414343-3634-42d3-9136-4b2e6b696361,rev?*%
%TF.SameCoordinates,Original*%
%TF.FileFunction,Copper,L2,Bot*%
%TF.FilePolarity,Positive*%
%FSLAX46Y46*%
G04 Gerber Fmt 4.6, Leading zero omitted, Abs format (unit mm)*
G04 Created by KiCad (PCBNEW 9.0.5-1.fc42) date 2025-11-09 17:28:59*
%MOMM*%
%LPD*%
G01*
G04 APERTURE LIST*
G04 Aperture macros list*
%AMRoundRect*
0 Rectangle with rounded corners*
0 $1 Rounding radius*
0 $2 $3 $4 $5 $6 $7 $8 $9 X,Y pos of 4 corners*
0 Add a 4 corners polygon primitive as box body*
4,1,4,$2,$3,$4,$5,$6,$7,$8,$9,$2,$3,0*
0 Add four circle primitives for the rounded corners*
1,1,$1+$1,$2,$3*
1,1,$1+$1,$4,$5*
1,1,$1+$1,$6,$7*
1,1,$1+$1,$8,$9*
0 Add four rect primitives between the rounded corners*
20,1,$1+$1,$2,$3,$4,$5,0*
20,1,$1+$1,$4,$5,$6,$7,0*
20,1,$1+$1,$6,$7,$8,$9,0*
20,1,$1+$1,$8,$9,$2,$3,0*%
G04 Aperture macros list end*
%TA.AperFunction,ComponentPad*%
%ADD10RoundRect,0.249999X0.850001X0.850001X-0.850001X0.850001X-0.850001X-0.850001X0.850001X-0.850001X0*%
%TD*%
%TA.AperFunction,ComponentPad*%
%ADD11C,2.200000*%
%TD*%
%TA.AperFunction,ComponentPad*%
%ADD12C,2.000000*%
%TD*%
%TA.AperFunction,ComponentPad*%
%ADD13C,1.600000*%
%TD*%
%TA.AperFunction,ComponentPad*%
%ADD14R,1.800000X1.800000*%
%TD*%
%TA.AperFunction,ComponentPad*%
%ADD15C,1.800000*%
%TD*%
%TA.AperFunction,ConnectorPad*%
%ADD16R,1.524000X11.430000*%
%TD*%
%TA.AperFunction,ComponentPad*%
%ADD17RoundRect,0.250000X0.550000X-0.550000X0.550000X0.550000X-0.550000X0.550000X-0.550000X-0.550000X0*%
%TD*%
%TA.AperFunction,ViaPad*%
%ADD18C,0.600000*%
%TD*%
%TA.AperFunction,Conductor*%
%ADD19C,0.200000*%
%TD*%
G04 APERTURE END LIST*
D10*
%TO.P,D1,1,K*%
%TO.N,Net-(CN1-~{ROML})*%
X124460000Y-109220000D03*
D11*
%TO.P,D1,2,A*%
%TO.N,Net-(D1-A)*%
X116840000Y-109220000D03*
%TD*%
D12*
%TO.P,SW1,1,1*%
%TO.N,GND*%
X165810000Y-65750000D03*
X159310000Y-65750000D03*
%TO.P,SW1,2,2*%
%TO.N,Net-(CN1-~{RESET})*%
X165810000Y-61250000D03*
X159310000Y-61250000D03*
%TD*%
D13*
%TO.P,R2,1*%
%TO.N,Net-(D3-A)*%
X124460000Y-63500000D03*
%TO.P,R2,2*%
%TO.N,VCC*%
X134620000Y-63500000D03*
%TD*%
%TO.P,C1,1*%
%TO.N,GND*%
X127075800Y-82411100D03*
%TO.P,C1,2*%
%TO.N,VCC*%
X127075800Y-84911100D03*
%TD*%
%TO.P,R1,1*%
%TO.N,Net-(D1-A)*%
X115570000Y-101600000D03*
%TO.P,R1,2*%
%TO.N,VCC*%
X125730000Y-101600000D03*
%TD*%
D14*
%TO.P,D3,1,K*%
%TO.N,GND*%
X151075944Y-63500000D03*
D15*
%TO.P,D3,2,A*%
%TO.N,Net-(D3-A)*%
X148535944Y-63500000D03*
%TD*%
D10*
%TO.P,D2,1,K*%
%TO.N,Net-(CN1-~{ROMH})*%
X124460000Y-116840000D03*
D11*
%TO.P,D2,2,A*%
%TO.N,Net-(D1-A)*%
X116840000Y-116840000D03*
%TD*%
D16*
%TO.P,CN1,A,GND*%
%TO.N,GND*%
X115570000Y-135255000D03*
%TO.P,CN1,B,~{ROMH}*%
%TO.N,Net-(CN1-~{ROMH})*%
X118110000Y-135255000D03*
%TO.P,CN1,C,~{RESET}*%
%TO.N,Net-(CN1-~{RESET})*%
X120650000Y-135255000D03*
%TO.P,CN1,D,~{NMI}*%
%TO.N,unconnected-(CN1-~{NMI}-PadD)*%
X123190000Y-135255000D03*
%TO.P,CN1,E,\u22052*%
%TO.N,unconnected-(CN1-\u22052-PadE)*%
X125730000Y-135255000D03*
%TO.P,CN1,F,A15*%
%TO.N,unconnected-(CN1-A15-PadF)*%
X128270000Y-135255000D03*
%TO.P,CN1,H,A14*%
%TO.N,unconnected-(CN1-A14-PadH)*%
X130810000Y-135255000D03*
%TO.P,CN1,J,A13*%
%TO.N,unconnected-(CN1-A13-PadJ)*%
X133350000Y-135255000D03*
%TO.P,CN1,K,A12*%
%TO.N,/A12*%
X135890000Y-135255000D03*
%TO.P,CN1,L,A11*%
%TO.N,/A11*%
X138430000Y-135255000D03*
%TO.P,CN1,M,A10*%
%TO.N,/A10*%
X140970000Y-135255000D03*
%TO.P,CN1,N,A9*%
%TO.N,/A9*%
X143510000Y-135255000D03*
%TO.P,CN1,P,A8*%
%TO.N,/A8*%
X146050000Y-135255000D03*
%TO.P,CN1,R,A7*%
%TO.N,/A7*%
X148590000Y-135255000D03*
%TO.P,CN1,S,A6*%
%TO.N,/A6*%
X151130000Y-135255000D03*
%TO.P,CN1,T,A5*%
%TO.N,/A5*%
X153670000Y-135255000D03*
%TO.P,CN1,U,A4*%
%TO.N,/A4*%
X156210000Y-135255000D03*
%TO.P,CN1,V,A3*%
%TO.N,/A3*%
X158750000Y-135255000D03*
%TO.P,CN1,W,A2*%
%TO.N,/A2*%
X161290000Y-135255000D03*
%TO.P,CN1,X,A1*%
%TO.N,/A1*%
X163830000Y-135255000D03*
%TO.P,CN1,Y,A0*%
%TO.N,/A0*%
X166370000Y-135255000D03*
%TO.P,CN1,Z,GND*%
%TO.N,GND*%
X168910000Y-135255000D03*
%TD*%
D17*
%TO.P,U1,1,VPP*%
%TO.N,VCC*%
X132080000Y-91440000D03*
D13*
%TO.P,U1,2,A12*%
%TO.N,/A12*%
X134620000Y-91440000D03*
%TO.P,U1,3,A7*%
%TO.N,/A7*%
X137160000Y-91440000D03*
%TO.P,U1,4,A6*%
%TO.N,/A6*%
X139700000Y-91440000D03*
%TO.P,U1,5,A5*%
%TO.N,/A5*%
X142240000Y-91440000D03*
%TO.P,U1,6,A4*%
%TO.N,/A4*%
X144780000Y-91440000D03*
%TO.P,U1,7,A3*%
%TO.N,/A3*%
X147320000Y-91440000D03*
%TO.P,U1,8,A2*%
%TO.N,/A2*%
X149860000Y-91440000D03*
%TO.P,U1,9,A1*%
%TO.N,/A1*%
X152400000Y-91440000D03*
%TO.P,U1,10,A0*%
%TO.N,/A0*%
X154940000Y-91440000D03*
%TO.P,U1,11,D0*%
%TO.N,/D0*%
X157480000Y-91440000D03*
%TO.P,U1,12,D1*%
%TO.N,/D1*%
X160020000Y-91440000D03*
%TO.P,U1,13,D2*%
%TO.N,/D2*%
X162560000Y-91440000D03*
%TO.P,U1,14,GND*%
%TO.N,GND*%
X165100000Y-91440000D03*
%TO.P,U1,15,D3*%
%TO.N,/D3*%
X165100000Y-76200000D03*
%TO.P,U1,16,D4*%
%TO.N,/D4*%
X162560000Y-76200000D03*
%TO.P,U1,17,D5*%
%TO.N,/D5*%
X160020000Y-76200000D03*
%TO.P,U1,18,D6*%
%TO.N,/D6*%
X157480000Y-76200000D03*
%TO.P,U1,19,D7*%
%TO.N,/D7*%
X154940000Y-76200000D03*
%TO.P,U1,20,~{CE}*%
%TO.N,Net-(D1-A)*%
X152400000Y-76200000D03*
%TO.P,U1,21,A10*%
%TO.N,/A10*%
X149860000Y-76200000D03*
%TO.P,U1,22,~{OE}*%
%TO.N,Net-(D1-A)*%
X147320000Y-76200000D03*
%TO.P,U1,23,A11*%
%TO.N,/A11*%
X144780000Y-76200000D03*
%TO.P,U1,24,A9*%
%TO.N,/A9*%
X142240000Y-76200000D03*
%TO.P,U1,25,A8*%
%TO.N,/A8*%
X139700000Y-76200000D03*
%TO.P,U1,26,A13*%
%TO.N,Net-(CN1-~{ROML})*%
X137160000Y-76200000D03*
%TO.P,U1,27,~{PGM}*%
%TO.N,VCC*%
X134620000Y-76200000D03*
%TO.P,U1,28,VCC*%
X132080000Y-76200000D03*
%TD*%
D18*
%TO.N,GND*%
X127000000Y-73660000D03*
X127000000Y-91440000D03*
X134620000Y-121920000D03*
X148560906Y-127894276D03*
X134620000Y-99060000D03*
X121920000Y-58420000D03*
X121920000Y-78740000D03*
X162560000Y-111760000D03*
X116840000Y-73660000D03*
X150382374Y-125858763D03*
X119380000Y-63500000D03*
X129540000Y-116840000D03*
X151667175Y-127197599D03*
X157480000Y-83820000D03*
X149860000Y-83820000D03*
X129540000Y-99060000D03*
X116840000Y-91440000D03*
X142240000Y-106680000D03*
X157480000Y-111760000D03*
X146000448Y-128282597D03*
X139700000Y-71120000D03*
X116840000Y-96520000D03*
X165031100Y-128129694D03*
X137924520Y-115879450D03*
X144780000Y-73660000D03*
X159243719Y-98891187D03*
X148014506Y-115443282D03*
X129540000Y-124460000D03*
X153704451Y-125365662D03*
X139559592Y-93390418D03*
X167640000Y-73660000D03*
X127000000Y-58420000D03*
X170180000Y-76200000D03*
X162560000Y-121920000D03*
X146083605Y-124139256D03*
X134620000Y-106680000D03*
X170180000Y-83820000D03*
X134620000Y-83820000D03*
X162072770Y-117410756D03*
X132080000Y-127000000D03*
X116840000Y-58420000D03*
X139700000Y-66040000D03*
X116840000Y-83820000D03*
X141833511Y-127487787D03*
X167640000Y-58420000D03*
X145679015Y-93997303D03*
X139700000Y-114300000D03*
X157480000Y-58420000D03*
X129540000Y-106680000D03*
X132080000Y-71120000D03*
X157480000Y-68580000D03*
X167640000Y-68580000D03*
X147320000Y-71120000D03*
X134620000Y-58420000D03*
X140827177Y-95417558D03*
X162560000Y-71120000D03*
X121920000Y-91440000D03*
X134620000Y-116840000D03*
%TO.N,Net-(CN1-~{RESET})*%
X151565200Y-119162500D03*
%TO.N,/A1*%
X152347500Y-121958700D03*
%TO.N,/D3*%
X159275700Y-104744000D03*
X164066200Y-104744000D03*
%TO.N,/D2*%
X159810700Y-92907700D03*
%TO.N,/A0*%
X154997400Y-119288000D03*
%TO.N,/A12*%
X136446700Y-128275600D03*
%TO.N,/A2*%
X154995800Y-122974000D03*
X154186600Y-93225800D03*
%TO.N,/A10*%
X143975600Y-128390200D03*
%TO.N,/D4*%
X158031100Y-126457700D03*
X167450500Y-116379200D03*
%TO.N,/A8*%
X147215335Y-128982165D03*
%TO.N,/A11*%
X145690800Y-126755100D03*
%TO.N,/A6*%
X138558400Y-127968300D03*
X137291900Y-93210900D03*
%TO.N,/A5*%
X151933500Y-124812500D03*
X153077500Y-96017600D03*
X144780000Y-96017600D03*
%TO.N,/A9*%
X144872500Y-127276500D03*
%TO.N,Net-(CN1-~{ROML})*%
X138643800Y-110561600D03*
%TO.N,/A7*%
X147035900Y-127954200D03*
X149889300Y-93002600D03*
%TO.N,/D0*%
X162003800Y-96017600D03*
%TO.N,/A3*%
X148360000Y-124044800D03*
%TO.N,/A4*%
X156536900Y-93181300D03*
X154940000Y-127000000D03*
%TO.N,Net-(D1-A)*%
X146608000Y-89690000D03*
%TD*%
D19*
%TO.N,GND*%
X114855000Y-127037200D02*
X115570000Y-127752200D01*
X168910000Y-128171500D02*
X168910000Y-135255000D01*
X167670700Y-126932200D02*
X168910000Y-128171500D01*
X115570000Y-127752200D02*
X115570000Y-135255000D01*
%TO.N,VCC*%
X134620000Y-76200000D02*
X132080000Y-76200000D01*
%TO.N,Net-(CN1-~{RESET})*%
X130600300Y-119288000D02*
X151765300Y-119288000D01*
X151765300Y-119252700D02*
X151675100Y-119162500D01*
X151765300Y-119252700D02*
X151765300Y-119288000D01*
X120650000Y-129238300D02*
X130600300Y-119288000D01*
X159310000Y-61250000D02*
X165810000Y-61250000D01*
X120650000Y-135255000D02*
X120650000Y-129238300D01*
X151675100Y-119162500D02*
X151565200Y-119162500D01*
%TO.N,/A1*%
X156550400Y-121958700D02*
X152347500Y-121958700D01*
X163830000Y-129238300D02*
X156550400Y-121958700D01*
X163830000Y-135255000D02*
X163830000Y-129238300D01*
%TO.N,/D3*%
X164066200Y-104744000D02*
X159275700Y-104744000D01*
%TO.N,/D2*%
X161458300Y-91579985D02*
X161458300Y-91577700D01*
X162560000Y-91440000D02*
X162420015Y-91579985D01*
X162420015Y-91579985D02*
X161458300Y-91579985D01*
X160128300Y-92907700D02*
X159810700Y-92907700D01*
X161458300Y-91577700D02*
X160128300Y-92907700D01*
%TO.N,/A0*%
X166370000Y-128270000D02*
X165100000Y-127000000D01*
X166370000Y-135255000D02*
X166370000Y-128270000D01*
X165100000Y-127000000D02*
X162709400Y-127000000D01*
X162709400Y-127000000D02*
X154997400Y-119288000D01*
%TO.N,/A12*%
X135890000Y-135255000D02*
X135890000Y-129238300D01*
X135890000Y-129238300D02*
X136446700Y-128681600D01*
X136446700Y-128681600D02*
X136446700Y-128275600D01*
%TO.N,/A2*%
X160020000Y-127000000D02*
X161290000Y-128270000D01*
X168052200Y-116130100D02*
X167699600Y-115777500D01*
X157301400Y-127000000D02*
X157724871Y-127000000D01*
X154524000Y-122974000D02*
X154110500Y-122560500D01*
X151658700Y-121710000D02*
X155070500Y-118298200D01*
X151658700Y-122182300D02*
X151658700Y-121710000D01*
X149860000Y-91440000D02*
X150088300Y-91668300D01*
X157724871Y-127000000D02*
X157782571Y-127057700D01*
X150961700Y-91668300D02*
X152519200Y-93225800D01*
X150855300Y-121177300D02*
X150855300Y-122612800D01*
X155070500Y-118298200D02*
X166382300Y-118298200D01*
X168052200Y-116628300D02*
X168052200Y-116130100D01*
X152519200Y-93225800D02*
X154186600Y-93225800D01*
X166382300Y-118298200D02*
X168052200Y-116628300D01*
X156255100Y-115777500D02*
X150855300Y-121177300D01*
X161290000Y-128270000D02*
X161290000Y-135255000D01*
X154057100Y-123755700D02*
X157301400Y-127000000D01*
X157782571Y-127057700D02*
X158279629Y-127057700D01*
X158337329Y-127000000D02*
X160020000Y-127000000D01*
X152036900Y-122560500D02*
X151658700Y-122182300D01*
X151998200Y-123755700D02*
X154057100Y-123755700D01*
X154995800Y-122974000D02*
X154524000Y-122974000D01*
X158279629Y-127057700D02*
X158337329Y-127000000D01*
X150855300Y-122612800D02*
X151998200Y-123755700D01*
X154110500Y-122560500D02*
X152036900Y-122560500D01*
X167699600Y-115777500D02*
X156255100Y-115777500D01*
X150088300Y-91668300D02*
X150961700Y-91668300D01*
%TO.N,/A10*%
X141818100Y-128390200D02*
X143975600Y-128390200D01*
X140970000Y-135255000D02*
X140970000Y-129238300D01*
X140970000Y-129238300D02*
X141818100Y-128390200D01*
%TO.N,/D4*%
X154409600Y-123427600D02*
X154336000Y-123354000D01*
X156304000Y-116379200D02*
X167450500Y-116379200D01*
X158031100Y-126457700D02*
X157972300Y-126516500D01*
X154336000Y-123354000D02*
X152237400Y-123354000D01*
X151257000Y-121426200D02*
X156304000Y-116379200D01*
X157972300Y-126516500D02*
X157385900Y-126516500D01*
X154409600Y-123540200D02*
X154409600Y-123427600D01*
X151257000Y-122373600D02*
X151257000Y-121426200D01*
X152237400Y-123354000D02*
X151257000Y-122373600D01*
X157385900Y-126516500D02*
X154409600Y-123540200D01*
%TO.N,/A8*%
X147215335Y-128982165D02*
X146050000Y-130147500D01*
X146050000Y-130147500D02*
X146050000Y-135255000D01*
%TO.N,/A11*%
X138430000Y-135255000D02*
X138430000Y-129238300D01*
X138430000Y-129238300D02*
X140997300Y-126671000D01*
X145606700Y-126671000D02*
X145690800Y-126755100D01*
X140997300Y-126671000D02*
X145606700Y-126671000D01*
%TO.N,/A6*%
X139062800Y-91440000D02*
X137291900Y-93210900D01*
X148032100Y-126140400D02*
X140386300Y-126140400D01*
X151130000Y-135255000D02*
X151130000Y-129238300D01*
X139700000Y-91440000D02*
X139062800Y-91440000D01*
X151130000Y-129238300D02*
X148032100Y-126140400D01*
X140386300Y-126140400D02*
X138558400Y-127968300D01*
%TO.N,/A5*%
X153670000Y-126549000D02*
X151933500Y-124812500D01*
X144780000Y-96017600D02*
X153077500Y-96017600D01*
X153670000Y-135255000D02*
X153670000Y-126549000D01*
%TO.N,/A9*%
X143510000Y-135255000D02*
X143510000Y-129540000D01*
X143674329Y-129540000D02*
X144872500Y-128341829D01*
X143510000Y-129540000D02*
X143674329Y-129540000D01*
X144872500Y-128341829D02*
X144872500Y-127276500D01*
%TO.N,Net-(CN1-~{ROMH})*%
X124460000Y-116840000D02*
X124460000Y-118241700D01*
X118110000Y-135255000D02*
X118110000Y-124591700D01*
X118110000Y-124591700D02*
X124460000Y-118241700D01*
%TO.N,Net-(CN1-~{ROML})*%
X124460000Y-109220000D02*
X125861700Y-109220000D01*
X127203300Y-110561600D02*
X125861700Y-109220000D01*
X138643800Y-110561600D02*
X127203300Y-110561600D01*
%TO.N,/A7*%
X149772900Y-93002600D02*
X149889300Y-93002600D01*
X148590000Y-129508300D02*
X147035900Y-127954200D01*
X148421700Y-91651400D02*
X149772900Y-93002600D01*
X137160000Y-91440000D02*
X139533100Y-89066900D01*
X148590000Y-135255000D02*
X148590000Y-129508300D01*
X148421700Y-90570500D02*
X148421700Y-91651400D01*
X146918100Y-89066900D02*
X148421700Y-90570500D01*
X139533100Y-89066900D02*
X146918100Y-89066900D01*
%TO.N,/D0*%
X157480000Y-91440000D02*
X157480000Y-91493800D01*
X157480000Y-91493800D02*
X162003800Y-96017600D01*
%TO.N,/A3*%
X148472600Y-124157400D02*
X153669100Y-124157400D01*
X158750000Y-135255000D02*
X158750000Y-129238300D01*
X148360000Y-124044800D02*
X148472600Y-124157400D01*
X153669100Y-124157400D02*
X158750000Y-129238300D01*
%TO.N,/A4*%
X144917700Y-91577700D02*
X145881700Y-91577700D01*
X156210000Y-128270000D02*
X156210000Y-135255000D01*
X154940000Y-127000000D02*
X156210000Y-128270000D01*
X155853000Y-93865200D02*
X156536900Y-93181300D01*
X144780000Y-91440000D02*
X144917700Y-91577700D01*
X145881700Y-91577700D02*
X148169200Y-93865200D01*
X148169200Y-93865200D02*
X155853000Y-93865200D01*
%TO.N,Net-(D1-A)*%
X144962800Y-89690000D02*
X146608000Y-89690000D01*
X148759000Y-75862700D02*
X148759000Y-75743950D01*
X143510000Y-91142800D02*
X144962800Y-89690000D01*
X147320000Y-76200000D02*
X148421700Y-76200000D01*
X152262300Y-76062300D02*
X152400000Y-76200000D01*
X143510000Y-91767400D02*
X143510000Y-91142800D01*
X150290800Y-75054800D02*
X151298300Y-76062300D01*
X122888200Y-94281800D02*
X140995600Y-94281800D01*
X149522700Y-75099000D02*
X149566900Y-75054800D01*
X151298300Y-76062300D02*
X152262300Y-76062300D01*
X148421700Y-76200000D02*
X148759000Y-75862700D01*
X140995600Y-94281800D02*
X143510000Y-91767400D01*
X148759000Y-75743950D02*
X149403950Y-75099000D01*
X149566900Y-75054800D02*
X150290800Y-75054800D01*
X115570000Y-101600000D02*
X122888200Y-94281800D01*
X149403950Y-75099000D02*
X149522700Y-75099000D01*
%TO.N,Net-(D3-A)*%
X124460000Y-63500000D02*
X124460000Y-66040000D01*
X125443379Y-67023379D02*
X145014021Y-67023379D01*
X124460000Y-66040000D02*
X125443379Y-67023379D01*
X145014021Y-67023379D02*
X148537400Y-63500000D01*
%TD*%
%TA.AperFunction,Conductor*%
%TO.N,GND*%
G36*
X170247731Y-54441172D02*
G01*
X170338073Y-54451353D01*
X170365143Y-54457532D01*
X170444347Y-54485248D01*
X170469363Y-54497296D01*
X170540408Y-54541937D01*
X170562118Y-54559249D01*
X170621454Y-54618586D01*
X170638764Y-54640293D01*
X170683409Y-54711346D01*
X170695451Y-54736350D01*
X170723170Y-54815565D01*
X170729347Y-54842631D01*
X170739539Y-54933082D01*
X170740319Y-54946979D01*
X170732370Y-128956259D01*
X170712678Y-129023297D01*
X170659869Y-129069046D01*
X170608874Y-129080245D01*
X166795004Y-129095755D01*
X166727885Y-129076343D01*
X166681916Y-129023726D01*
X166670500Y-128971756D01*
X166670500Y-128230439D01*
X166650020Y-128154009D01*
X166650017Y-128154004D01*
X166610464Y-128085495D01*
X166610458Y-128085487D01*
X165284510Y-126759539D01*
X165261969Y-126746525D01*
X165239427Y-126733511D01*
X165234472Y-126730650D01*
X165215990Y-126719979D01*
X165215991Y-126719979D01*
X165177775Y-126709739D01*
X165139562Y-126699500D01*
X165139560Y-126699500D01*
X162885233Y-126699500D01*
X162818194Y-126679815D01*
X162797552Y-126663181D01*
X155534219Y-119399848D01*
X155500734Y-119338525D01*
X155497900Y-119312167D01*
X155497900Y-119222110D01*
X155497900Y-119222108D01*
X155463792Y-119094814D01*
X155397900Y-118980686D01*
X155304714Y-118887500D01*
X155205271Y-118830086D01*
X155157057Y-118779520D01*
X155143835Y-118710912D01*
X155169803Y-118646048D01*
X155226717Y-118605520D01*
X155267273Y-118598700D01*
X166421860Y-118598700D01*
X166421862Y-118598700D01*
X166498289Y-118578221D01*
X166566811Y-118538660D01*
X166622760Y-118482711D01*
X168292660Y-116812811D01*
X168332221Y-116744289D01*
X168352700Y-116667862D01*
X168352700Y-116090538D01*
X168347267Y-116070263D01*
X168332222Y-116014112D01*
X168292660Y-115945589D01*
X167884111Y-115537040D01*
X167884109Y-115537039D01*
X167884104Y-115537035D01*
X167815595Y-115497482D01*
X167815590Y-115497479D01*
X167790113Y-115490652D01*
X167739162Y-115477000D01*
X156215538Y-115477000D01*
X156177324Y-115487239D01*
X156139109Y-115497479D01*
X156139104Y-115497482D01*
X156070595Y-115537035D01*
X156070587Y-115537041D01*
X152277481Y-119330148D01*
X152258186Y-119340683D01*
X152241607Y-119355126D01*
X152228119Y-119357101D01*
X152216158Y-119363633D01*
X152194229Y-119362064D01*
X152172474Y-119365251D01*
X152160060Y-119359621D01*
X152146466Y-119358649D01*
X152128864Y-119345472D01*
X152108843Y-119336392D01*
X152101444Y-119324945D01*
X152090533Y-119316777D01*
X152082849Y-119296177D01*
X152070915Y-119277713D01*
X152067700Y-119255560D01*
X152066116Y-119251313D01*
X152065800Y-119242792D01*
X152065800Y-119213138D01*
X152065721Y-119212844D01*
X152065700Y-119204590D01*
X152065717Y-119204530D01*
X152065700Y-119204265D01*
X152065700Y-119096610D01*
X152065700Y-119096608D01*
X152031592Y-118969314D01*
X151965700Y-118855186D01*
X151872514Y-118762000D01*
X151815450Y-118729054D01*
X151758387Y-118696108D01*
X151694739Y-118679054D01*
X151631092Y-118662000D01*
X151499308Y-118662000D01*
X151372012Y-118696108D01*
X151257886Y-118762000D01*
X151257883Y-118762002D01*
X151164702Y-118855183D01*
X151164698Y-118855189D01*
X151124104Y-118925500D01*
X151073537Y-118973716D01*
X151016717Y-118987500D01*
X130560738Y-118987500D01*
X130509786Y-119001152D01*
X130484310Y-119007979D01*
X130425234Y-119042087D01*
X130425233Y-119042086D01*
X130415792Y-119047537D01*
X130415787Y-119047541D01*
X120409541Y-129053787D01*
X120409535Y-129053795D01*
X120369982Y-129122304D01*
X120369980Y-129122308D01*
X120369979Y-129122310D01*
X120369979Y-129122311D01*
X120350978Y-129193218D01*
X120314614Y-129252877D01*
X120251767Y-129283405D01*
X120231709Y-129285121D01*
X118535004Y-129292021D01*
X118467885Y-129272609D01*
X118421916Y-129219992D01*
X118410500Y-129168022D01*
X118410500Y-124767533D01*
X118430185Y-124700494D01*
X118446819Y-124679852D01*
X124700458Y-118426213D01*
X124700460Y-118426211D01*
X124707401Y-118414188D01*
X124740021Y-118357689D01*
X124760500Y-118281262D01*
X124760500Y-118244606D01*
X124766722Y-118225713D01*
X124775720Y-118212664D01*
X124780185Y-118197460D01*
X124795146Y-118184495D01*
X124806388Y-118168195D01*
X124821012Y-118162082D01*
X124832989Y-118151705D01*
X124859797Y-118145872D01*
X124870854Y-118141252D01*
X124876467Y-118142246D01*
X124884500Y-118140499D01*
X125364260Y-118140499D01*
X125364266Y-118140499D01*
X125394700Y-118137646D01*
X125522883Y-118092793D01*
X125632150Y-118012150D01*
X125712793Y-117902883D01*
X125751419Y-117792497D01*
X125757646Y-117774702D01*
X125757646Y-117774700D01*
X125760500Y-117744267D01*
X125760499Y-115935734D01*
X125757646Y-115905300D01*
X125712793Y-115777117D01*
X125676331Y-115727713D01*
X125632150Y-115667849D01*
X125558123Y-115613215D01*
X125522883Y-115587207D01*
X125522881Y-115587206D01*
X125394701Y-115542353D01*
X125364270Y-115539500D01*
X123555739Y-115539500D01*
X123541751Y-115540811D01*
X123525300Y-115542354D01*
X123525297Y-115542354D01*
X123525296Y-115542355D01*
X123525294Y-115542355D01*
X123397117Y-115587206D01*
X123287849Y-115667849D01*
X123207206Y-115777118D01*
X123162353Y-115905297D01*
X123162353Y-115905299D01*
X123159500Y-115935729D01*
X123159500Y-117744260D01*
X123159501Y-117744266D01*
X123162354Y-117774700D01*
X123162354Y-117774702D01*
X123162355Y-117774703D01*
X123162355Y-117774705D01*
X123207206Y-117902882D01*
X123287849Y-118012150D01*
X123332655Y-118045218D01*
X123397117Y-118092793D01*
X123439844Y-118107744D01*
X123525298Y-118137646D01*
X123533239Y-118138390D01*
X123555733Y-118140500D01*
X123836867Y-118140499D01*
X123903905Y-118160183D01*
X123949660Y-118212987D01*
X123959604Y-118282146D01*
X123930579Y-118345701D01*
X123924547Y-118352180D01*
X117925489Y-124351240D01*
X117869541Y-124407187D01*
X117869535Y-124407195D01*
X117829982Y-124475704D01*
X117829979Y-124475709D01*
X117809500Y-124552139D01*
X117809500Y-129171475D01*
X117789815Y-129238514D01*
X117737011Y-129284269D01*
X117686004Y-129295474D01*
X113870210Y-129310992D01*
X113803091Y-129291580D01*
X113757122Y-129238963D01*
X113745707Y-129186986D01*
X113747044Y-116737648D01*
X115539500Y-116737648D01*
X115539500Y-116942351D01*
X115571522Y-117144534D01*
X115634781Y-117339223D01*
X115727715Y-117521613D01*
X115848028Y-117687213D01*
X115992786Y-117831971D01*
X116147749Y-117944556D01*
X116158390Y-117952287D01*
X116241956Y-117994866D01*
X116340776Y-118045218D01*
X116340778Y-118045218D01*
X116340781Y-118045220D01*
X116445137Y-118079127D01*
X116535465Y-118108477D01*
X116636557Y-118124488D01*
X116737648Y-118140500D01*
X116737649Y-118140500D01*
X116942351Y-118140500D01*
X116942352Y-118140500D01*
X117144534Y-118108477D01*
X117339219Y-118045220D01*
X117521610Y-117952287D01*
X117654066Y-117856053D01*
X117687213Y-117831971D01*
X117687215Y-117831968D01*
X117687219Y-117831966D01*
X117831966Y-117687219D01*
X117831968Y-117687215D01*
X117831971Y-117687213D01*
X117884732Y-117614590D01*
X117952287Y-117521610D01*
X118045220Y-117339219D01*
X118108477Y-117144534D01*
X118140500Y-116942352D01*
X118140500Y-116737648D01*
X118129447Y-116667862D01*
X118108477Y-116535465D01*
X118045218Y-116340776D01*
X118011503Y-116274607D01*
X117952287Y-116158390D01*
X117944556Y-116147749D01*
X117831971Y-115992786D01*
X117687213Y-115848028D01*
X117521613Y-115727715D01*
X117521612Y-115727714D01*
X117521610Y-115727713D01*
X117464653Y-115698691D01*
X117339223Y-115634781D01*
X117144534Y-115571522D01*
X116960371Y-115542354D01*
X116942352Y-115539500D01*
X116737648Y-115539500D01*
X116719635Y-115542353D01*
X116535465Y-115571522D01*
X116340776Y-115634781D01*
X116158386Y-115727715D01*
X115992786Y-115848028D01*
X115848028Y-115992786D01*
X115727715Y-116158386D01*
X115634781Y-116340776D01*
X115571522Y-116535465D01*
X115539500Y-116737648D01*
X113747044Y-116737648D01*
X113747862Y-109117648D01*
X115539500Y-109117648D01*
X115539500Y-109322351D01*
X115571522Y-109524534D01*
X115634781Y-109719223D01*
X115727715Y-109901613D01*
X115848028Y-110067213D01*
X115992786Y-110211971D01*
X116147749Y-110324556D01*
X116158390Y-110332287D01*
X116274607Y-110391503D01*
X116340776Y-110425218D01*
X116340778Y-110425218D01*
X116340781Y-110425220D01*
X116445137Y-110459127D01*
X116535465Y-110488477D01*
X116636557Y-110504488D01*
X116737648Y-110520500D01*
X116737649Y-110520500D01*
X116942351Y-110520500D01*
X116942352Y-110520500D01*
X117144534Y-110488477D01*
X117339219Y-110425220D01*
X117521610Y-110332287D01*
X117669581Y-110224781D01*
X117687213Y-110211971D01*
X117687215Y-110211968D01*
X117687219Y-110211966D01*
X117831966Y-110067219D01*
X117831968Y-110067215D01*
X117831971Y-110067213D01*
X117884732Y-109994590D01*
X117952287Y-109901610D01*
X118045220Y-109719219D01*
X118108477Y-109524534D01*
X118140500Y-109322352D01*
X118140500Y-109117648D01*
X118118626Y-108979541D01*
X118108477Y-108915465D01*
X118045218Y-108720776D01*
X118011503Y-108654607D01*
X117952287Y-108538390D01*
X117943335Y-108526069D01*
X117841367Y-108385719D01*
X117831971Y-108372787D01*
X117831967Y-108372782D01*
X117774914Y-108315729D01*
X123159500Y-108315729D01*
X123159500Y-110124260D01*
X123159501Y-110124266D01*
X123162354Y-110154700D01*
X123162354Y-110154702D01*
X123162355Y-110154703D01*
X123162355Y-110154705D01*
X123207206Y-110282882D01*
X123287849Y-110392150D01*
X123332655Y-110425218D01*
X123397117Y-110472793D01*
X123439844Y-110487744D01*
X123525298Y-110517646D01*
X123532323Y-110518304D01*
X123555733Y-110520500D01*
X125364266Y-110520499D01*
X125394700Y-110517646D01*
X125522883Y-110472793D01*
X125632150Y-110392150D01*
X125712793Y-110282883D01*
X125755407Y-110161100D01*
X125757646Y-110154702D01*
X125757646Y-110154700D01*
X125760500Y-110124267D01*
X125760499Y-109843130D01*
X125780183Y-109776093D01*
X125832987Y-109730338D01*
X125902146Y-109720394D01*
X125965701Y-109749419D01*
X125972180Y-109755451D01*
X126962840Y-110746111D01*
X127018789Y-110802060D01*
X127018791Y-110802061D01*
X127018795Y-110802064D01*
X127087304Y-110841617D01*
X127087311Y-110841621D01*
X127163738Y-110862100D01*
X138185124Y-110862100D01*
X138252163Y-110881785D01*
X138272805Y-110898419D01*
X138336486Y-110962100D01*
X138450614Y-111027992D01*
X138577908Y-111062100D01*
X138577910Y-111062100D01*
X138709690Y-111062100D01*
X138709692Y-111062100D01*
X138836986Y-111027992D01*
X138951114Y-110962100D01*
X139044300Y-110868914D01*
X139110192Y-110754786D01*
X139144300Y-110627492D01*
X139144300Y-110495708D01*
X139110192Y-110368414D01*
X139044300Y-110254286D01*
X138951114Y-110161100D01*
X138894050Y-110128154D01*
X138836987Y-110095208D01*
X138773339Y-110078154D01*
X138709692Y-110061100D01*
X138577908Y-110061100D01*
X138450612Y-110095208D01*
X138336486Y-110161100D01*
X138336483Y-110161102D01*
X138272805Y-110224781D01*
X138211482Y-110258266D01*
X138185124Y-110261100D01*
X127379133Y-110261100D01*
X127312094Y-110241415D01*
X127291452Y-110224781D01*
X126046212Y-108979541D01*
X126046204Y-108979535D01*
X125977695Y-108939982D01*
X125977690Y-108939979D01*
X125952213Y-108933152D01*
X125901262Y-108919500D01*
X125901260Y-108919500D01*
X125884499Y-108919500D01*
X125817460Y-108899815D01*
X125771705Y-108847011D01*
X125760499Y-108795500D01*
X125760499Y-108315739D01*
X125760499Y-108315734D01*
X125757646Y-108285300D01*
X125712793Y-108157117D01*
X125676331Y-108107713D01*
X125632150Y-108047849D01*
X125558123Y-107993215D01*
X125522883Y-107967207D01*
X125522881Y-107967206D01*
X125394701Y-107922353D01*
X125364270Y-107919500D01*
X123555739Y-107919500D01*
X123541751Y-107920811D01*
X123525300Y-107922354D01*
X123525297Y-107922354D01*
X123525296Y-107922355D01*
X123525294Y-107922355D01*
X123397117Y-107967206D01*
X123287849Y-108047849D01*
X123207206Y-108157118D01*
X123162353Y-108285297D01*
X123162353Y-108285299D01*
X123159500Y-108315729D01*
X117774914Y-108315729D01*
X117687213Y-108228028D01*
X117521613Y-108107715D01*
X117521612Y-108107714D01*
X117521610Y-108107713D01*
X117464653Y-108078691D01*
X117339223Y-108014781D01*
X117144534Y-107951522D01*
X116960371Y-107922354D01*
X116942352Y-107919500D01*
X116737648Y-107919500D01*
X116719635Y-107922353D01*
X116535465Y-107951522D01*
X116340776Y-108014781D01*
X116158386Y-108107715D01*
X115992786Y-108228028D01*
X115848028Y-108372786D01*
X115727715Y-108538386D01*
X115634781Y-108720776D01*
X115571522Y-108915465D01*
X115539500Y-109117648D01*
X113747862Y-109117648D01*
X113748339Y-104678108D01*
X158775200Y-104678108D01*
X158775200Y-104809891D01*
X158809308Y-104937187D01*
X158842254Y-104994250D01*
X158875200Y-105051314D01*
X158968386Y-105144500D01*
X159082514Y-105210392D01*
X159209808Y-105244500D01*
X159209810Y-105244500D01*
X159341590Y-105244500D01*
X159341592Y-105244500D01*
X159468886Y-105210392D01*
X159583014Y-105144500D01*
X159646695Y-105080819D01*
X159708018Y-105047334D01*
X159734376Y-105044500D01*
X163607524Y-105044500D01*
X163674563Y-105064185D01*
X163695205Y-105080819D01*
X163758886Y-105144500D01*
X163873014Y-105210392D01*
X164000308Y-105244500D01*
X164000310Y-105244500D01*
X164132090Y-105244500D01*
X164132092Y-105244500D01*
X164259386Y-105210392D01*
X164373514Y-105144500D01*
X164466700Y-105051314D01*
X164532592Y-104937186D01*
X164566700Y-104809892D01*
X164566700Y-104678108D01*
X164532592Y-104550814D01*
X164466700Y-104436686D01*
X164373514Y-104343500D01*
X164316450Y-104310554D01*
X164259387Y-104277608D01*
X164195739Y-104260554D01*
X164132092Y-104243500D01*
X164000308Y-104243500D01*
X163873012Y-104277608D01*
X163758886Y-104343500D01*
X163758883Y-104343502D01*
X163695205Y-104407181D01*
X163633882Y-104440666D01*
X163607524Y-104443500D01*
X159734376Y-104443500D01*
X159667337Y-104423815D01*
X159646695Y-104407181D01*
X159583016Y-104343502D01*
X159583014Y-104343500D01*
X159525950Y-104310554D01*
X159468887Y-104277608D01*
X159405239Y-104260554D01*
X159341592Y-104243500D01*
X159209808Y-104243500D01*
X159082512Y-104277608D01*
X158968386Y-104343500D01*
X158968383Y-104343502D01*
X158875202Y-104436683D01*
X158875200Y-104436686D01*
X158809308Y-104550812D01*
X158775200Y-104678108D01*
X113748339Y-104678108D01*
X113748659Y-101698543D01*
X114569499Y-101698543D01*
X114607947Y-101891829D01*
X114607950Y-101891839D01*
X114683364Y-102073907D01*
X114683371Y-102073920D01*
X114792860Y-102237781D01*
X114792863Y-102237785D01*
X114932214Y-102377136D01*
X114932218Y-102377139D01*
X115096079Y-102486628D01*
X115096092Y-102486635D01*
X115278160Y-102562049D01*
X115278165Y-102562051D01*
X115278169Y-102562051D01*
X115278170Y-102562052D01*
X115471456Y-102600500D01*
X115471459Y-102600500D01*
X115668543Y-102600500D01*
X115798582Y-102574632D01*
X115861835Y-102562051D01*
X116043914Y-102486632D01*
X116207782Y-102377139D01*
X116347139Y-102237782D01*
X116456632Y-102073914D01*
X116532051Y-101891835D01*
X116565175Y-101725313D01*
X116570500Y-101698543D01*
X124729499Y-101698543D01*
X124767947Y-101891829D01*
X124767950Y-101891839D01*
X124843364Y-102073907D01*
X124843371Y-102073920D01*
X124952860Y-102237781D01*
X124952863Y-102237785D01*
X125092214Y-102377136D01*
X125092218Y-102377139D01*
X125256079Y-102486628D01*
X125256092Y-102486635D01*
X125438160Y-102562049D01*
X125438165Y-102562051D01*
X125438169Y-102562051D01*
X125438170Y-102562052D01*
X125631456Y-102600500D01*
X125631459Y-102600500D01*
X125828543Y-102600500D01*
X125958582Y-102574632D01*
X126021835Y-102562051D01*
X126203914Y-102486632D01*
X126367782Y-102377139D01*
X126507139Y-102237782D01*
X126616632Y-102073914D01*
X126692051Y-101891835D01*
X126725175Y-101725313D01*
X126730500Y-101698543D01*
X126730500Y-101501456D01*
X126692052Y-101308170D01*
X126692051Y-101308169D01*
X126692051Y-101308165D01*
X126692049Y-101308160D01*
X126616635Y-101126092D01*
X126616628Y-101126079D01*
X126507139Y-100962218D01*
X126507136Y-100962214D01*
X126367785Y-100822863D01*
X126367781Y-100822860D01*
X126203920Y-100713371D01*
X126203907Y-100713364D01*
X126021839Y-100637950D01*
X126021829Y-100637947D01*
X125828543Y-100599500D01*
X125828541Y-100599500D01*
X125631459Y-100599500D01*
X125631457Y-100599500D01*
X125438170Y-100637947D01*
X125438160Y-100637950D01*
X125256092Y-100713364D01*
X125256079Y-100713371D01*
X125092218Y-100822860D01*
X125092214Y-100822863D01*
X124952863Y-100962214D01*
X124952860Y-100962218D01*
X124843371Y-101126079D01*
X124843364Y-101126092D01*
X124767950Y-101308160D01*
X124767947Y-101308170D01*
X124729500Y-101501456D01*
X124729500Y-101501459D01*
X124729500Y-101698541D01*
X124729500Y-101698543D01*
X124729499Y-101698543D01*
X116570500Y-101698543D01*
X116570500Y-101501456D01*
X116532052Y-101308170D01*
X116532051Y-101308169D01*
X116532051Y-101308165D01*
X116491925Y-101211294D01*
X116484457Y-101141828D01*
X116515732Y-101079349D01*
X116518778Y-101076191D01*
X118705726Y-98889244D01*
X139199500Y-98889244D01*
X139199500Y-99230755D01*
X139237734Y-99570092D01*
X139237736Y-99570108D01*
X139313726Y-99903044D01*
X139313730Y-99903056D01*
X139426515Y-100225375D01*
X139426524Y-100225397D01*
X139574686Y-100533059D01*
X139574690Y-100533065D01*
X139756380Y-100822222D01*
X139969303Y-101089219D01*
X140210781Y-101330697D01*
X140477778Y-101543620D01*
X140724333Y-101698541D01*
X140766940Y-101725313D01*
X141074602Y-101873475D01*
X141074611Y-101873478D01*
X141074618Y-101873482D01*
X141074624Y-101873484D01*
X141396943Y-101986269D01*
X141396955Y-101986273D01*
X141729895Y-102062264D01*
X142069245Y-102100499D01*
X142069246Y-102100500D01*
X142069249Y-102100500D01*
X142410754Y-102100500D01*
X142410754Y-102100499D01*
X142750105Y-102062264D01*
X143083045Y-101986273D01*
X143405382Y-101873482D01*
X143713065Y-101725310D01*
X144002222Y-101543620D01*
X144269219Y-101330697D01*
X144510697Y-101089219D01*
X144723620Y-100822222D01*
X144905310Y-100533065D01*
X145053482Y-100225382D01*
X145166273Y-99903045D01*
X145242264Y-99570105D01*
X145280500Y-99230751D01*
X145280500Y-98889249D01*
X145242264Y-98549895D01*
X145166273Y-98216955D01*
X145053482Y-97894618D01*
X145053478Y-97894611D01*
X145053475Y-97894602D01*
X144905313Y-97586940D01*
X144765367Y-97364218D01*
X144723620Y-97297778D01*
X144510697Y-97030781D01*
X144269219Y-96789303D01*
X144002222Y-96576380D01*
X143713065Y-96394690D01*
X143713066Y-96394690D01*
X143713059Y-96394686D01*
X143405397Y-96246524D01*
X143405375Y-96246515D01*
X143083056Y-96133730D01*
X143083044Y-96133726D01*
X142779618Y-96064472D01*
X142750108Y-96057736D01*
X142750092Y-96057734D01*
X142410755Y-96019500D01*
X142410751Y-96019500D01*
X142069249Y-96019500D01*
X142069244Y-96019500D01*
X141729907Y-96057734D01*
X141729891Y-96057736D01*
X141396955Y-96133726D01*
X141396943Y-96133730D01*
X141074624Y-96246515D01*
X141074602Y-96246524D01*
X140766940Y-96394686D01*
X140477779Y-96576379D01*
X140210781Y-96789302D01*
X139969302Y-97030781D01*
X139756379Y-97297779D01*
X139574686Y-97586940D01*
X139426524Y-97894602D01*
X139426515Y-97894624D01*
X139313730Y-98216943D01*
X139313726Y-98216955D01*
X139237736Y-98549891D01*
X139237734Y-98549907D01*
X139199500Y-98889244D01*
X118705726Y-98889244D01*
X121643263Y-95951708D01*
X144279500Y-95951708D01*
X144279500Y-96083491D01*
X144313608Y-96210787D01*
X144334236Y-96246515D01*
X144379500Y-96324914D01*
X144472686Y-96418100D01*
X144586814Y-96483992D01*
X144714108Y-96518100D01*
X144714110Y-96518100D01*
X144845890Y-96518100D01*
X144845892Y-96518100D01*
X144973186Y-96483992D01*
X145087314Y-96418100D01*
X145150995Y-96354419D01*
X145212318Y-96320934D01*
X145238676Y-96318100D01*
X152618824Y-96318100D01*
X152685863Y-96337785D01*
X152706505Y-96354419D01*
X152770186Y-96418100D01*
X152884314Y-96483992D01*
X153011608Y-96518100D01*
X153011610Y-96518100D01*
X153143390Y-96518100D01*
X153143392Y-96518100D01*
X153270686Y-96483992D01*
X153384814Y-96418100D01*
X153478000Y-96324914D01*
X153543892Y-96210786D01*
X153578000Y-96083492D01*
X153578000Y-95951708D01*
X153543892Y-95824414D01*
X153478000Y-95710286D01*
X153384814Y-95617100D01*
X153327750Y-95584154D01*
X153270687Y-95551208D01*
X153207039Y-95534154D01*
X153143392Y-95517100D01*
X153011608Y-95517100D01*
X152884312Y-95551208D01*
X152770186Y-95617100D01*
X152770183Y-95617102D01*
X152706505Y-95680781D01*
X152645182Y-95714266D01*
X152618824Y-95717100D01*
X145238676Y-95717100D01*
X145171637Y-95697415D01*
X145150995Y-95680781D01*
X145087316Y-95617102D01*
X145087314Y-95617100D01*
X145030250Y-95584154D01*
X144973187Y-95551208D01*
X144909539Y-95534154D01*
X144845892Y-95517100D01*
X144714108Y-95517100D01*
X144586812Y-95551208D01*
X144472686Y-95617100D01*
X144472683Y-95617102D01*
X144379502Y-95710283D01*
X144379500Y-95710286D01*
X144313608Y-95824412D01*
X144279500Y-95951708D01*
X121643263Y-95951708D01*
X122976352Y-94618619D01*
X123037675Y-94585134D01*
X123064033Y-94582300D01*
X141035160Y-94582300D01*
X141035162Y-94582300D01*
X141111589Y-94561821D01*
X141180111Y-94522260D01*
X141236060Y-94466311D01*
X143744508Y-91957862D01*
X143805829Y-91924379D01*
X143875521Y-91929363D01*
X143931454Y-91971235D01*
X143935289Y-91976654D01*
X144002860Y-92077781D01*
X144002863Y-92077785D01*
X144142214Y-92217136D01*
X144142218Y-92217139D01*
X144306079Y-92326628D01*
X144306092Y-92326635D01*
X144465814Y-92392793D01*
X144488165Y-92402051D01*
X144488169Y-92402051D01*
X144488170Y-92402052D01*
X144681456Y-92440500D01*
X144681459Y-92440500D01*
X144878543Y-92440500D01*
X145035442Y-92409290D01*
X145071835Y-92402051D01*
X145253914Y-92326632D01*
X145417782Y-92217139D01*
X145557139Y-92077782D01*
X145607856Y-92001878D01*
X145633282Y-91963826D01*
X145686894Y-91919021D01*
X145756219Y-91910314D01*
X145819246Y-91940468D01*
X145824065Y-91945036D01*
X147984689Y-94105660D01*
X148044029Y-94139920D01*
X148053208Y-94145220D01*
X148053212Y-94145222D01*
X148129638Y-94165700D01*
X148129640Y-94165700D01*
X155892560Y-94165700D01*
X155892562Y-94165700D01*
X155968989Y-94145221D01*
X156037511Y-94105660D01*
X156093460Y-94049711D01*
X156425051Y-93718118D01*
X156486374Y-93684634D01*
X156512732Y-93681800D01*
X156602790Y-93681800D01*
X156602792Y-93681800D01*
X156730086Y-93647692D01*
X156844214Y-93581800D01*
X156937400Y-93488614D01*
X157003292Y-93374486D01*
X157037400Y-93247192D01*
X157037400Y-93115408D01*
X157003292Y-92988114D01*
X156937400Y-92873986D01*
X156844214Y-92780800D01*
X156771548Y-92738846D01*
X156730087Y-92714908D01*
X156656844Y-92695283D01*
X156602792Y-92680800D01*
X156471008Y-92680800D01*
X156343712Y-92714908D01*
X156229586Y-92780800D01*
X156229583Y-92780802D01*
X156136402Y-92873983D01*
X156136400Y-92873986D01*
X156070508Y-92988112D01*
X156036400Y-93115408D01*
X156036400Y-93205466D01*
X156016715Y-93272505D01*
X156000081Y-93293147D01*
X155764848Y-93528381D01*
X155703525Y-93561866D01*
X155677167Y-93564700D01*
X154775548Y-93564700D01*
X154708509Y-93545015D01*
X154662754Y-93492211D01*
X154652810Y-93423053D01*
X154655773Y-93408607D01*
X154664915Y-93374487D01*
X154687100Y-93291692D01*
X154687100Y-93159908D01*
X154652992Y-93032614D01*
X154587100Y-92918486D01*
X154493914Y-92825300D01*
X154436850Y-92792354D01*
X154379787Y-92759408D01*
X154303047Y-92738846D01*
X154252492Y-92725300D01*
X154120708Y-92725300D01*
X153993412Y-92759408D01*
X153879286Y-92825300D01*
X153879283Y-92825302D01*
X153815605Y-92888981D01*
X153754282Y-92922466D01*
X153727924Y-92925300D01*
X152695033Y-92925300D01*
X152627994Y-92905615D01*
X152607352Y-92888981D01*
X152370552Y-92652181D01*
X152337067Y-92590858D01*
X152342051Y-92521166D01*
X152383923Y-92465233D01*
X152449387Y-92440816D01*
X152458233Y-92440500D01*
X152498543Y-92440500D01*
X152655442Y-92409290D01*
X152691835Y-92402051D01*
X152873914Y-92326632D01*
X153037782Y-92217139D01*
X153177139Y-92077782D01*
X153286632Y-91913914D01*
X153362051Y-91731835D01*
X153400500Y-91538543D01*
X153939499Y-91538543D01*
X153977947Y-91731829D01*
X153977950Y-91731839D01*
X154053364Y-91913907D01*
X154053371Y-91913920D01*
X154162860Y-92077781D01*
X154162863Y-92077785D01*
X154302214Y-92217136D01*
X154302218Y-92217139D01*
X154466079Y-92326628D01*
X154466092Y-92326635D01*
X154625814Y-92392793D01*
X154648165Y-92402051D01*
X154648169Y-92402051D01*
X154648170Y-92402052D01*
X154841456Y-92440500D01*
X154841459Y-92440500D01*
X155038543Y-92440500D01*
X155195442Y-92409290D01*
X155231835Y-92402051D01*
X155413914Y-92326632D01*
X155577782Y-92217139D01*
X155717139Y-92077782D01*
X155826632Y-91913914D01*
X155902051Y-91731835D01*
X155940500Y-91538543D01*
X156479499Y-91538543D01*
X156517947Y-91731829D01*
X156517950Y-91731839D01*
X156593364Y-91913907D01*
X156593371Y-91913920D01*
X156702860Y-92077781D01*
X156702863Y-92077785D01*
X156842214Y-92217136D01*
X156842218Y-92217139D01*
X157006079Y-92326628D01*
X157006092Y-92326635D01*
X157165814Y-92392793D01*
X157188165Y-92402051D01*
X157188169Y-92402051D01*
X157188170Y-92402052D01*
X157381456Y-92440500D01*
X157381459Y-92440500D01*
X157578543Y-92440500D01*
X157735442Y-92409290D01*
X157771835Y-92402051D01*
X157830660Y-92377684D01*
X157900127Y-92370215D01*
X157962606Y-92401489D01*
X157965793Y-92404564D01*
X161466981Y-95905752D01*
X161500466Y-95967075D01*
X161503300Y-95993433D01*
X161503300Y-96083491D01*
X161537408Y-96210787D01*
X161558036Y-96246515D01*
X161603300Y-96324914D01*
X161696486Y-96418100D01*
X161810614Y-96483992D01*
X161937908Y-96518100D01*
X161937910Y-96518100D01*
X162069690Y-96518100D01*
X162069692Y-96518100D01*
X162196986Y-96483992D01*
X162311114Y-96418100D01*
X162404300Y-96324914D01*
X162470192Y-96210786D01*
X162504300Y-96083492D01*
X162504300Y-95951708D01*
X162470192Y-95824414D01*
X162404300Y-95710286D01*
X162311114Y-95617100D01*
X162254050Y-95584154D01*
X162196987Y-95551208D01*
X162133339Y-95534154D01*
X162069692Y-95517100D01*
X161979633Y-95517100D01*
X161912594Y-95497415D01*
X161891952Y-95480781D01*
X159979553Y-93568382D01*
X159946068Y-93507059D01*
X159951052Y-93437367D01*
X159992924Y-93381434D01*
X160005234Y-93373314D01*
X160040385Y-93353019D01*
X160118014Y-93308200D01*
X160211200Y-93215014D01*
X160211200Y-93215013D01*
X160216948Y-93209266D01*
X160218177Y-93210495D01*
X160243842Y-93187978D01*
X160244285Y-93187721D01*
X160244289Y-93187721D01*
X160312811Y-93148160D01*
X160368760Y-93092211D01*
X161515936Y-91945034D01*
X161577257Y-91911551D01*
X161646949Y-91916535D01*
X161702882Y-91958407D01*
X161706717Y-91963826D01*
X161782860Y-92077781D01*
X161782863Y-92077785D01*
X161922214Y-92217136D01*
X161922218Y-92217139D01*
X162086079Y-92326628D01*
X162086092Y-92326635D01*
X162245814Y-92392793D01*
X162268165Y-92402051D01*
X162268169Y-92402051D01*
X162268170Y-92402052D01*
X162461456Y-92440500D01*
X162461459Y-92440500D01*
X162658543Y-92440500D01*
X162815442Y-92409290D01*
X162851835Y-92402051D01*
X162908468Y-92378593D01*
X162959021Y-92357654D01*
X163033907Y-92326635D01*
X163033907Y-92326634D01*
X163033914Y-92326632D01*
X163197782Y-92217139D01*
X163337139Y-92077782D01*
X163446632Y-91913914D01*
X163522051Y-91731835D01*
X163558034Y-91550937D01*
X163590419Y-91489027D01*
X163651134Y-91454453D01*
X163720904Y-91458192D01*
X163777576Y-91499059D01*
X163802124Y-91555731D01*
X163832009Y-91744417D01*
X163895244Y-91939031D01*
X163988141Y-92121350D01*
X163988147Y-92121359D01*
X164020523Y-92165921D01*
X164020524Y-92165922D01*
X164700000Y-91486446D01*
X164700000Y-91492661D01*
X164727259Y-91594394D01*
X164779920Y-91685606D01*
X164854394Y-91760080D01*
X164945606Y-91812741D01*
X165047339Y-91840000D01*
X165053553Y-91840000D01*
X164374076Y-92519474D01*
X164418650Y-92551859D01*
X164600968Y-92644755D01*
X164795582Y-92707990D01*
X164997683Y-92740000D01*
X165202317Y-92740000D01*
X165404417Y-92707990D01*
X165599031Y-92644755D01*
X165781349Y-92551859D01*
X165825921Y-92519474D01*
X165146447Y-91840000D01*
X165152661Y-91840000D01*
X165254394Y-91812741D01*
X165345606Y-91760080D01*
X165420080Y-91685606D01*
X165472741Y-91594394D01*
X165500000Y-91492661D01*
X165500000Y-91486448D01*
X166179474Y-92165922D01*
X166179474Y-92165921D01*
X166211859Y-92121349D01*
X166304755Y-91939031D01*
X166367990Y-91744417D01*
X166400000Y-91542317D01*
X166400000Y-91337682D01*
X166367990Y-91135582D01*
X166304755Y-90940968D01*
X166211859Y-90758650D01*
X166179474Y-90714077D01*
X166179474Y-90714076D01*
X165500000Y-91393551D01*
X165500000Y-91387339D01*
X165472741Y-91285606D01*
X165420080Y-91194394D01*
X165345606Y-91119920D01*
X165254394Y-91067259D01*
X165152661Y-91040000D01*
X165146446Y-91040000D01*
X165825922Y-90360524D01*
X165825921Y-90360523D01*
X165781359Y-90328147D01*
X165781350Y-90328141D01*
X165599031Y-90235244D01*
X165404417Y-90172009D01*
X165202317Y-90140000D01*
X164997683Y-90140000D01*
X164795582Y-90172009D01*
X164600968Y-90235244D01*
X164418644Y-90328143D01*
X164374077Y-90360523D01*
X164374077Y-90360524D01*
X165053554Y-91040000D01*
X165047339Y-91040000D01*
X164945606Y-91067259D01*
X164854394Y-91119920D01*
X164779920Y-91194394D01*
X164727259Y-91285606D01*
X164700000Y-91387339D01*
X164700000Y-91393553D01*
X164020524Y-90714077D01*
X164020523Y-90714077D01*
X163988143Y-90758644D01*
X163895244Y-90940968D01*
X163832010Y-91135581D01*
X163802124Y-91324269D01*
X163772194Y-91387403D01*
X163712883Y-91424334D01*
X163643020Y-91423336D01*
X163584788Y-91384726D01*
X163558034Y-91329061D01*
X163533299Y-91204711D01*
X163522051Y-91148165D01*
X163503442Y-91103238D01*
X163446635Y-90966092D01*
X163446628Y-90966079D01*
X163337139Y-90802218D01*
X163337136Y-90802214D01*
X163197785Y-90662863D01*
X163197781Y-90662860D01*
X163033920Y-90553371D01*
X163033907Y-90553364D01*
X162959016Y-90522344D01*
X162851839Y-90477950D01*
X162851829Y-90477947D01*
X162658543Y-90439500D01*
X162658541Y-90439500D01*
X162461459Y-90439500D01*
X162461457Y-90439500D01*
X162268170Y-90477947D01*
X162268160Y-90477950D01*
X162086092Y-90553364D01*
X162086079Y-90553371D01*
X161922218Y-90662860D01*
X161922214Y-90662863D01*
X161782863Y-90802214D01*
X161782860Y-90802218D01*
X161673371Y-90966079D01*
X161673364Y-90966092D01*
X161597949Y-91148163D01*
X161597946Y-91148173D01*
X161592135Y-91177391D01*
X161559750Y-91239302D01*
X161502724Y-91272945D01*
X161486903Y-91277200D01*
X161418738Y-91277200D01*
X161342311Y-91297679D01*
X161296701Y-91324012D01*
X161282616Y-91332143D01*
X161282611Y-91332145D01*
X161273795Y-91337235D01*
X161273787Y-91337241D01*
X161225862Y-91385166D01*
X161164539Y-91418650D01*
X161094847Y-91413665D01*
X161038914Y-91371794D01*
X161016565Y-91321675D01*
X160993299Y-91204711D01*
X160982051Y-91148165D01*
X160963442Y-91103238D01*
X160906635Y-90966092D01*
X160906628Y-90966079D01*
X160797139Y-90802218D01*
X160797136Y-90802214D01*
X160657785Y-90662863D01*
X160657781Y-90662860D01*
X160493920Y-90553371D01*
X160493907Y-90553364D01*
X160311839Y-90477950D01*
X160311829Y-90477947D01*
X160118543Y-90439500D01*
X160118541Y-90439500D01*
X159921459Y-90439500D01*
X159921457Y-90439500D01*
X159728170Y-90477947D01*
X159728160Y-90477950D01*
X159546092Y-90553364D01*
X159546079Y-90553371D01*
X159382218Y-90662860D01*
X159382214Y-90662863D01*
X159242863Y-90802214D01*
X159242860Y-90802218D01*
X159133371Y-90966079D01*
X159133364Y-90966092D01*
X159057950Y-91148160D01*
X159057947Y-91148170D01*
X159019500Y-91341456D01*
X159019500Y-91341459D01*
X159019500Y-91538541D01*
X159019500Y-91538543D01*
X159019499Y-91538543D01*
X159057947Y-91731829D01*
X159057950Y-91731839D01*
X159133364Y-91913907D01*
X159133371Y-91913920D01*
X159242860Y-92077781D01*
X159242863Y-92077785D01*
X159382214Y-92217136D01*
X159382218Y-92217139D01*
X159505463Y-92299489D01*
X159550268Y-92353101D01*
X159558975Y-92422426D01*
X159528821Y-92485453D01*
X159509173Y-92501390D01*
X159509835Y-92502252D01*
X159503383Y-92507202D01*
X159410202Y-92600383D01*
X159410195Y-92600392D01*
X159345084Y-92713166D01*
X159294517Y-92761381D01*
X159225909Y-92774603D01*
X159161045Y-92748635D01*
X159150017Y-92738846D01*
X158413049Y-92001878D01*
X158379564Y-91940555D01*
X158384548Y-91870863D01*
X158386144Y-91866806D01*
X158442051Y-91731835D01*
X158480500Y-91538541D01*
X158480500Y-91341459D01*
X158480500Y-91341456D01*
X158442052Y-91148170D01*
X158442051Y-91148169D01*
X158442051Y-91148165D01*
X158423442Y-91103238D01*
X158366635Y-90966092D01*
X158366628Y-90966079D01*
X158257139Y-90802218D01*
X158257136Y-90802214D01*
X158117785Y-90662863D01*
X158117781Y-90662860D01*
X157953920Y-90553371D01*
X157953907Y-90553364D01*
X157771839Y-90477950D01*
X157771829Y-90477947D01*
X157578543Y-90439500D01*
X157578541Y-90439500D01*
X157381459Y-90439500D01*
X157381457Y-90439500D01*
X157188170Y-90477947D01*
X157188160Y-90477950D01*
X157006092Y-90553364D01*
X157006079Y-90553371D01*
X156842218Y-90662860D01*
X156842214Y-90662863D01*
X156702863Y-90802214D01*
X156702860Y-90802218D01*
X156593371Y-90966079D01*
X156593364Y-90966092D01*
X156517950Y-91148160D01*
X156517947Y-91148170D01*
X156479500Y-91341456D01*
X156479500Y-91341459D01*
X156479500Y-91538541D01*
X156479500Y-91538543D01*
X156479499Y-91538543D01*
X155940500Y-91538543D01*
X155940500Y-91538541D01*
X155940500Y-91341459D01*
X155940500Y-91341456D01*
X155902052Y-91148170D01*
X155902051Y-91148169D01*
X155902051Y-91148165D01*
X155883442Y-91103238D01*
X155826635Y-90966092D01*
X155826628Y-90966079D01*
X155717139Y-90802218D01*
X155717136Y-90802214D01*
X155577785Y-90662863D01*
X155577781Y-90662860D01*
X155413920Y-90553371D01*
X155413907Y-90553364D01*
X155231839Y-90477950D01*
X155231829Y-90477947D01*
X155038543Y-90439500D01*
X155038541Y-90439500D01*
X154841459Y-90439500D01*
X154841457Y-90439500D01*
X154648170Y-90477947D01*
X154648160Y-90477950D01*
X154466092Y-90553364D01*
X154466079Y-90553371D01*
X154302218Y-90662860D01*
X154302214Y-90662863D01*
X154162863Y-90802214D01*
X154162860Y-90802218D01*
X154053371Y-90966079D01*
X154053364Y-90966092D01*
X153977950Y-91148160D01*
X153977947Y-91148170D01*
X153939500Y-91341456D01*
X153939500Y-91341459D01*
X153939500Y-91538541D01*
X153939500Y-91538543D01*
X153939499Y-91538543D01*
X153400500Y-91538543D01*
X153400500Y-91538541D01*
X153400500Y-91341459D01*
X153400500Y-91341456D01*
X153362052Y-91148170D01*
X153362051Y-91148169D01*
X153362051Y-91148165D01*
X153343442Y-91103238D01*
X153286635Y-90966092D01*
X153286628Y-90966079D01*
X153177139Y-90802218D01*
X153177136Y-90802214D01*
X153037785Y-90662863D01*
X153037781Y-90662860D01*
X152873920Y-90553371D01*
X152873907Y-90553364D01*
X152691839Y-90477950D01*
X152691829Y-90477947D01*
X152498543Y-90439500D01*
X152498541Y-90439500D01*
X152301459Y-90439500D01*
X152301457Y-90439500D01*
X152108170Y-90477947D01*
X152108160Y-90477950D01*
X151926092Y-90553364D01*
X151926079Y-90553371D01*
X151762218Y-90662860D01*
X151762214Y-90662863D01*
X151622863Y-90802214D01*
X151622860Y-90802218D01*
X151513371Y-90966079D01*
X151513364Y-90966092D01*
X151437950Y-91148160D01*
X151437947Y-91148170D01*
X151399500Y-91341456D01*
X151399500Y-91381767D01*
X151395046Y-91396934D01*
X151395571Y-91412734D01*
X151385404Y-91429771D01*
X151379815Y-91448806D01*
X151367868Y-91459157D01*
X151359768Y-91472733D01*
X151342003Y-91481570D01*
X151327011Y-91494561D01*
X151311366Y-91496810D01*
X151297211Y-91503852D01*
X151277489Y-91501681D01*
X151257853Y-91504505D01*
X151242596Y-91497841D01*
X151227761Y-91496209D01*
X151206978Y-91482284D01*
X151197452Y-91478124D01*
X151192415Y-91474044D01*
X151146211Y-91427840D01*
X151116939Y-91410940D01*
X151108476Y-91406054D01*
X151108475Y-91406053D01*
X151077690Y-91388279D01*
X151052213Y-91381452D01*
X151001262Y-91367800D01*
X151001260Y-91367800D01*
X150967504Y-91367800D01*
X150900465Y-91348115D01*
X150854710Y-91295311D01*
X150845887Y-91267992D01*
X150822052Y-91148170D01*
X150822051Y-91148169D01*
X150822051Y-91148165D01*
X150803442Y-91103238D01*
X150746635Y-90966092D01*
X150746628Y-90966079D01*
X150637139Y-90802218D01*
X150637136Y-90802214D01*
X150497785Y-90662863D01*
X150497781Y-90662860D01*
X150333920Y-90553371D01*
X150333907Y-90553364D01*
X150151839Y-90477950D01*
X150151829Y-90477947D01*
X149958543Y-90439500D01*
X149958541Y-90439500D01*
X149761459Y-90439500D01*
X149761457Y-90439500D01*
X149568170Y-90477947D01*
X149568160Y-90477950D01*
X149386092Y-90553364D01*
X149386079Y-90553371D01*
X149222218Y-90662860D01*
X149222214Y-90662863D01*
X149082863Y-90802214D01*
X149082860Y-90802218D01*
X148973371Y-90966079D01*
X148973366Y-90966089D01*
X148960761Y-90996521D01*
X148916919Y-91050925D01*
X148850625Y-91072989D01*
X148782926Y-91055709D01*
X148735316Y-91004572D01*
X148722200Y-90949068D01*
X148722200Y-90530939D01*
X148722200Y-90530938D01*
X148710482Y-90487207D01*
X148701722Y-90454512D01*
X148662160Y-90385989D01*
X147102611Y-88826440D01*
X147102609Y-88826439D01*
X147102604Y-88826435D01*
X147034095Y-88786882D01*
X147034090Y-88786879D01*
X147008613Y-88780052D01*
X146957662Y-88766400D01*
X139493538Y-88766400D01*
X139455324Y-88776639D01*
X139417109Y-88786879D01*
X139417104Y-88786882D01*
X139348595Y-88826435D01*
X139348587Y-88826441D01*
X137683835Y-90491192D01*
X137622512Y-90524677D01*
X137552820Y-90519693D01*
X137548702Y-90518072D01*
X137451839Y-90477950D01*
X137451829Y-90477947D01*
X137258543Y-90439500D01*
X137258541Y-90439500D01*
X137061459Y-90439500D01*
X137061457Y-90439500D01*
X136868170Y-90477947D01*
X136868160Y-90477950D01*
X136686092Y-90553364D01*
X136686079Y-90553371D01*
X136522218Y-90662860D01*
X136522214Y-90662863D01*
X136382863Y-90802214D01*
X136382860Y-90802218D01*
X136273371Y-90966079D01*
X136273364Y-90966092D01*
X136197950Y-91148160D01*
X136197947Y-91148170D01*
X136159500Y-91341456D01*
X136159500Y-91341459D01*
X136159500Y-91538541D01*
X136159500Y-91538543D01*
X136159499Y-91538543D01*
X136197947Y-91731829D01*
X136197950Y-91731839D01*
X136273364Y-91913907D01*
X136273371Y-91913920D01*
X136382860Y-92077781D01*
X136382863Y-92077785D01*
X136522214Y-92217136D01*
X136522218Y-92217139D01*
X136686079Y-92326628D01*
X136686092Y-92326635D01*
X136845814Y-92392793D01*
X136868165Y-92402051D01*
X136868169Y-92402051D01*
X136868170Y-92402052D01*
X137061456Y-92440500D01*
X137061459Y-92440500D01*
X137258543Y-92440500D01*
X137330462Y-92426194D01*
X137364198Y-92429212D01*
X137397986Y-92431629D01*
X137398906Y-92432318D01*
X137400054Y-92432421D01*
X137426800Y-92453198D01*
X137453920Y-92473499D01*
X137454322Y-92474578D01*
X137455231Y-92475284D01*
X137466494Y-92507210D01*
X137478338Y-92538963D01*
X137478093Y-92540088D01*
X137478476Y-92541173D01*
X137470685Y-92574143D01*
X137463487Y-92607236D01*
X137462579Y-92608448D01*
X137462409Y-92609170D01*
X137442336Y-92635491D01*
X137403748Y-92674080D01*
X137342426Y-92707566D01*
X137316066Y-92710400D01*
X137226008Y-92710400D01*
X137098712Y-92744508D01*
X136984586Y-92810400D01*
X136984583Y-92810402D01*
X136891402Y-92903583D01*
X136891400Y-92903586D01*
X136825508Y-93017712D01*
X136811902Y-93068491D01*
X136791400Y-93145008D01*
X136791400Y-93276792D01*
X136808454Y-93340439D01*
X136825508Y-93404087D01*
X136844723Y-93437367D01*
X136891400Y-93518214D01*
X136984586Y-93611400D01*
X137098714Y-93677292D01*
X137226008Y-93711400D01*
X137226010Y-93711400D01*
X137357790Y-93711400D01*
X137357792Y-93711400D01*
X137485086Y-93677292D01*
X137599214Y-93611400D01*
X137692400Y-93518214D01*
X137758292Y-93404086D01*
X137792400Y-93276792D01*
X137792400Y-93186732D01*
X137812085Y-93119693D01*
X137828719Y-93099051D01*
X138798743Y-92129027D01*
X138860066Y-92095542D01*
X138929758Y-92100526D01*
X138974105Y-92129027D01*
X139062214Y-92217136D01*
X139062218Y-92217139D01*
X139226079Y-92326628D01*
X139226092Y-92326635D01*
X139385814Y-92392793D01*
X139408165Y-92402051D01*
X139408169Y-92402051D01*
X139408170Y-92402052D01*
X139601456Y-92440500D01*
X139601459Y-92440500D01*
X139798543Y-92440500D01*
X139955442Y-92409290D01*
X139991835Y-92402051D01*
X140173914Y-92326632D01*
X140337782Y-92217139D01*
X140477139Y-92077782D01*
X140586632Y-91913914D01*
X140662051Y-91731835D01*
X140700500Y-91538541D01*
X140700500Y-91341459D01*
X140700500Y-91341456D01*
X140662052Y-91148170D01*
X140662051Y-91148169D01*
X140662051Y-91148165D01*
X140643442Y-91103238D01*
X140586635Y-90966092D01*
X140586628Y-90966079D01*
X140477139Y-90802218D01*
X140477136Y-90802214D01*
X140337785Y-90662863D01*
X140337781Y-90662860D01*
X140173920Y-90553371D01*
X140173907Y-90553364D01*
X139991839Y-90477950D01*
X139991829Y-90477947D01*
X139798543Y-90439500D01*
X139798541Y-90439500D01*
X139601459Y-90439500D01*
X139601457Y-90439500D01*
X139408170Y-90477947D01*
X139408160Y-90477950D01*
X139226092Y-90553364D01*
X139226079Y-90553371D01*
X139062218Y-90662860D01*
X139062214Y-90662863D01*
X138922863Y-90802214D01*
X138922860Y-90802218D01*
X138813371Y-90966079D01*
X138813364Y-90966092D01*
X138737950Y-91148160D01*
X138737947Y-91148170D01*
X138698311Y-91347434D01*
X138696262Y-91347026D01*
X138673645Y-91403009D01*
X138664098Y-91413730D01*
X138355491Y-91722336D01*
X138294168Y-91755821D01*
X138224476Y-91750837D01*
X138168543Y-91708965D01*
X138144126Y-91643501D01*
X138146192Y-91610468D01*
X138160500Y-91538541D01*
X138160500Y-91341459D01*
X138160500Y-91341456D01*
X138122052Y-91148170D01*
X138122051Y-91148169D01*
X138122051Y-91148165D01*
X138081925Y-91051294D01*
X138074457Y-90981828D01*
X138105732Y-90919349D01*
X138108777Y-90916192D01*
X139621252Y-89403719D01*
X139682575Y-89370234D01*
X139708933Y-89367400D01*
X144561067Y-89367400D01*
X144628106Y-89387085D01*
X144673861Y-89439889D01*
X144683805Y-89509047D01*
X144654780Y-89572603D01*
X144648748Y-89579081D01*
X143325488Y-90902341D01*
X143287589Y-90940239D01*
X143226265Y-90973724D01*
X143156574Y-90968738D01*
X143100641Y-90926866D01*
X143096807Y-90921448D01*
X143017139Y-90802218D01*
X143017136Y-90802214D01*
X142877785Y-90662863D01*
X142877781Y-90662860D01*
X142713920Y-90553371D01*
X142713907Y-90553364D01*
X142531839Y-90477950D01*
X142531829Y-90477947D01*
X142338543Y-90439500D01*
X142338541Y-90439500D01*
X142141459Y-90439500D01*
X142141457Y-90439500D01*
X141948170Y-90477947D01*
X141948160Y-90477950D01*
X141766092Y-90553364D01*
X141766079Y-90553371D01*
X141602218Y-90662860D01*
X141602214Y-90662863D01*
X141462863Y-90802214D01*
X141462860Y-90802218D01*
X141353371Y-90966079D01*
X141353364Y-90966092D01*
X141277950Y-91148160D01*
X141277947Y-91148170D01*
X141239500Y-91341456D01*
X141239500Y-91341459D01*
X141239500Y-91538541D01*
X141239500Y-91538543D01*
X141239499Y-91538543D01*
X141277947Y-91731829D01*
X141277950Y-91731839D01*
X141353364Y-91913907D01*
X141353371Y-91913920D01*
X141462860Y-92077781D01*
X141462863Y-92077785D01*
X141602214Y-92217136D01*
X141602218Y-92217139D01*
X141766079Y-92326628D01*
X141766092Y-92326635D01*
X141925814Y-92392793D01*
X141948165Y-92402051D01*
X142139524Y-92440115D01*
X142201435Y-92472500D01*
X142236009Y-92533215D01*
X142232270Y-92602985D01*
X142203014Y-92649413D01*
X140907448Y-93944981D01*
X140846125Y-93978466D01*
X140819767Y-93981300D01*
X122848638Y-93981300D01*
X122772210Y-94001778D01*
X122703689Y-94041340D01*
X122703686Y-94041342D01*
X116093835Y-100651192D01*
X116032512Y-100684677D01*
X115962820Y-100679693D01*
X115958702Y-100678072D01*
X115861839Y-100637950D01*
X115861829Y-100637947D01*
X115668543Y-100599500D01*
X115668541Y-100599500D01*
X115471459Y-100599500D01*
X115471457Y-100599500D01*
X115278170Y-100637947D01*
X115278160Y-100637950D01*
X115096092Y-100713364D01*
X115096079Y-100713371D01*
X114932218Y-100822860D01*
X114932214Y-100822863D01*
X114792863Y-100962214D01*
X114792860Y-100962218D01*
X114683371Y-101126079D01*
X114683364Y-101126092D01*
X114607950Y-101308160D01*
X114607947Y-101308170D01*
X114569500Y-101501456D01*
X114569500Y-101501459D01*
X114569500Y-101698541D01*
X114569500Y-101698543D01*
X114569499Y-101698543D01*
X113748659Y-101698543D01*
X113749825Y-90835730D01*
X131079500Y-90835730D01*
X131079500Y-92044269D01*
X131082353Y-92074699D01*
X131082353Y-92074701D01*
X131127206Y-92202880D01*
X131127207Y-92202882D01*
X131207850Y-92312150D01*
X131317118Y-92392793D01*
X131358291Y-92407200D01*
X131445299Y-92437646D01*
X131475730Y-92440500D01*
X131475734Y-92440500D01*
X132684270Y-92440500D01*
X132714699Y-92437646D01*
X132714701Y-92437646D01*
X132795736Y-92409290D01*
X132842882Y-92392793D01*
X132952150Y-92312150D01*
X133032793Y-92202882D01*
X133070353Y-92095542D01*
X133077646Y-92074701D01*
X133077646Y-92074699D01*
X133080500Y-92044269D01*
X133080500Y-91538543D01*
X133619499Y-91538543D01*
X133657947Y-91731829D01*
X133657950Y-91731839D01*
X133733364Y-91913907D01*
X133733371Y-91913920D01*
X133842860Y-92077781D01*
X133842863Y-92077785D01*
X133982214Y-92217136D01*
X133982218Y-92217139D01*
X134146079Y-92326628D01*
X134146092Y-92326635D01*
X134305814Y-92392793D01*
X134328165Y-92402051D01*
X134328169Y-92402051D01*
X134328170Y-92402052D01*
X134521456Y-92440500D01*
X134521459Y-92440500D01*
X134718543Y-92440500D01*
X134875442Y-92409290D01*
X134911835Y-92402051D01*
X135093914Y-92326632D01*
X135257782Y-92217139D01*
X135397139Y-92077782D01*
X135506632Y-91913914D01*
X135582051Y-91731835D01*
X135620500Y-91538541D01*
X135620500Y-91341459D01*
X135620500Y-91341456D01*
X135582052Y-91148170D01*
X135582051Y-91148169D01*
X135582051Y-91148165D01*
X135563442Y-91103238D01*
X135506635Y-90966092D01*
X135506628Y-90966079D01*
X135397139Y-90802218D01*
X135397136Y-90802214D01*
X135257785Y-90662863D01*
X135257781Y-90662860D01*
X135093920Y-90553371D01*
X135093907Y-90553364D01*
X134911839Y-90477950D01*
X134911829Y-90477947D01*
X134718543Y-90439500D01*
X134718541Y-90439500D01*
X134521459Y-90439500D01*
X134521457Y-90439500D01*
X134328170Y-90477947D01*
X134328160Y-90477950D01*
X134146092Y-90553364D01*
X134146079Y-90553371D01*
X133982218Y-90662860D01*
X133982214Y-90662863D01*
X133842863Y-90802214D01*
X133842860Y-90802218D01*
X133733371Y-90966079D01*
X133733364Y-90966092D01*
X133657950Y-91148160D01*
X133657947Y-91148170D01*
X133619500Y-91341456D01*
X133619500Y-91341459D01*
X133619500Y-91538541D01*
X133619500Y-91538543D01*
X133619499Y-91538543D01*
X133080500Y-91538543D01*
X133080500Y-90835730D01*
X133077646Y-90805300D01*
X133077646Y-90805298D01*
X133032793Y-90677119D01*
X133032792Y-90677117D01*
X133022270Y-90662860D01*
X132952150Y-90567850D01*
X132842882Y-90487207D01*
X132842880Y-90487206D01*
X132714700Y-90442353D01*
X132684270Y-90439500D01*
X132684266Y-90439500D01*
X131475734Y-90439500D01*
X131475730Y-90439500D01*
X131445300Y-90442353D01*
X131445298Y-90442353D01*
X131317119Y-90487206D01*
X131317117Y-90487207D01*
X131207850Y-90567850D01*
X131127207Y-90677117D01*
X131127206Y-90677119D01*
X131082353Y-90805298D01*
X131082353Y-90805300D01*
X131079500Y-90835730D01*
X113749825Y-90835730D01*
X113750741Y-82308782D01*
X125775800Y-82308782D01*
X125775800Y-82513417D01*
X125807809Y-82715517D01*
X125871044Y-82910131D01*
X125963941Y-83092450D01*
X125963947Y-83092459D01*
X125996323Y-83137021D01*
X125996324Y-83137022D01*
X126675800Y-82457546D01*
X126675800Y-82463761D01*
X126703059Y-82565494D01*
X126755720Y-82656706D01*
X126830194Y-82731180D01*
X126921406Y-82783841D01*
X127023139Y-82811100D01*
X127029353Y-82811100D01*
X126349876Y-83490574D01*
X126394450Y-83522959D01*
X126576768Y-83615855D01*
X126771376Y-83679088D01*
X126848117Y-83691242D01*
X126911252Y-83721171D01*
X126948184Y-83780483D01*
X126947186Y-83850345D01*
X126908577Y-83908578D01*
X126852913Y-83935333D01*
X126783969Y-83949047D01*
X126783960Y-83949050D01*
X126601892Y-84024464D01*
X126601879Y-84024471D01*
X126438018Y-84133960D01*
X126438014Y-84133963D01*
X126298663Y-84273314D01*
X126298660Y-84273318D01*
X126189171Y-84437179D01*
X126189164Y-84437192D01*
X126113750Y-84619260D01*
X126113747Y-84619270D01*
X126075300Y-84812556D01*
X126075300Y-84812559D01*
X126075300Y-85009641D01*
X126075300Y-85009643D01*
X126075299Y-85009643D01*
X126113747Y-85202929D01*
X126113750Y-85202939D01*
X126189164Y-85385007D01*
X126189171Y-85385020D01*
X126298660Y-85548881D01*
X126298663Y-85548885D01*
X126438014Y-85688236D01*
X126438018Y-85688239D01*
X126601879Y-85797728D01*
X126601892Y-85797735D01*
X126783960Y-85873149D01*
X126783965Y-85873151D01*
X126783969Y-85873151D01*
X126783970Y-85873152D01*
X126977256Y-85911600D01*
X126977259Y-85911600D01*
X127174343Y-85911600D01*
X127304382Y-85885732D01*
X127367635Y-85873151D01*
X127549714Y-85797732D01*
X127713582Y-85688239D01*
X127852939Y-85548882D01*
X127962432Y-85385014D01*
X128037851Y-85202935D01*
X128076300Y-85009641D01*
X128076300Y-84812559D01*
X128076300Y-84812556D01*
X128037852Y-84619270D01*
X128037851Y-84619269D01*
X128037851Y-84619265D01*
X128037849Y-84619260D01*
X127962435Y-84437192D01*
X127962428Y-84437179D01*
X127852939Y-84273318D01*
X127852936Y-84273314D01*
X127713585Y-84133963D01*
X127713581Y-84133960D01*
X127549720Y-84024471D01*
X127549707Y-84024464D01*
X127367639Y-83949050D01*
X127367630Y-83949047D01*
X127298686Y-83935333D01*
X127236776Y-83902947D01*
X127202202Y-83842231D01*
X127205943Y-83772461D01*
X127246810Y-83715790D01*
X127303482Y-83691242D01*
X127380223Y-83679088D01*
X127574831Y-83615855D01*
X127757149Y-83522959D01*
X127801721Y-83490574D01*
X127122247Y-82811100D01*
X127128461Y-82811100D01*
X127230194Y-82783841D01*
X127321406Y-82731180D01*
X127395880Y-82656706D01*
X127448541Y-82565494D01*
X127475800Y-82463761D01*
X127475800Y-82457547D01*
X128155274Y-83137021D01*
X128187659Y-83092449D01*
X128280555Y-82910131D01*
X128343790Y-82715517D01*
X128375800Y-82513417D01*
X128375800Y-82308782D01*
X128343790Y-82106682D01*
X128280555Y-81912068D01*
X128187659Y-81729750D01*
X128155274Y-81685177D01*
X128155274Y-81685176D01*
X127475800Y-82364651D01*
X127475800Y-82358439D01*
X127448541Y-82256706D01*
X127395880Y-82165494D01*
X127321406Y-82091020D01*
X127230194Y-82038359D01*
X127128461Y-82011100D01*
X127122246Y-82011100D01*
X127801722Y-81331624D01*
X127801721Y-81331623D01*
X127757159Y-81299247D01*
X127757150Y-81299241D01*
X127574831Y-81206344D01*
X127380217Y-81143109D01*
X127178117Y-81111100D01*
X126973483Y-81111100D01*
X126771382Y-81143109D01*
X126576768Y-81206344D01*
X126394444Y-81299243D01*
X126349877Y-81331623D01*
X126349877Y-81331624D01*
X127029354Y-82011100D01*
X127023139Y-82011100D01*
X126921406Y-82038359D01*
X126830194Y-82091020D01*
X126755720Y-82165494D01*
X126703059Y-82256706D01*
X126675800Y-82358439D01*
X126675800Y-82364653D01*
X125996324Y-81685177D01*
X125996323Y-81685177D01*
X125963943Y-81729744D01*
X125871044Y-81912068D01*
X125807809Y-82106682D01*
X125775800Y-82308782D01*
X113750741Y-82308782D01*
X113751386Y-76298543D01*
X131079499Y-76298543D01*
X131117947Y-76491829D01*
X131117950Y-76491839D01*
X131193364Y-76673907D01*
X131193371Y-76673920D01*
X131302860Y-76837781D01*
X131302863Y-76837785D01*
X131442214Y-76977136D01*
X131442218Y-76977139D01*
X131606079Y-77086628D01*
X131606092Y-77086635D01*
X131788160Y-77162049D01*
X131788165Y-77162051D01*
X131788169Y-77162051D01*
X131788170Y-77162052D01*
X131981456Y-77200500D01*
X131981459Y-77200500D01*
X132178543Y-77200500D01*
X132308582Y-77174632D01*
X132371835Y-77162051D01*
X132553914Y-77086632D01*
X132717782Y-76977139D01*
X132857139Y-76837782D01*
X132966632Y-76673914D01*
X133006755Y-76577048D01*
X133050595Y-76522644D01*
X133116889Y-76500579D01*
X133121316Y-76500500D01*
X133578684Y-76500500D01*
X133645723Y-76520185D01*
X133691478Y-76572989D01*
X133693245Y-76577048D01*
X133733364Y-76673907D01*
X133733371Y-76673920D01*
X133842860Y-76837781D01*
X133842863Y-76837785D01*
X133982214Y-76977136D01*
X133982218Y-76977139D01*
X134146079Y-77086628D01*
X134146092Y-77086635D01*
X134328160Y-77162049D01*
X134328165Y-77162051D01*
X134328169Y-77162051D01*
X134328170Y-77162052D01*
X134521456Y-77200500D01*
X134521459Y-77200500D01*
X134718543Y-77200500D01*
X134848582Y-77174632D01*
X134911835Y-77162051D01*
X135093914Y-77086632D01*
X135257782Y-76977139D01*
X135397139Y-76837782D01*
X135506632Y-76673914D01*
X135582051Y-76491835D01*
X135611792Y-76342320D01*
X135620500Y-76298543D01*
X136159499Y-76298543D01*
X136197947Y-76491829D01*
X136197950Y-76491839D01*
X136273364Y-76673907D01*
X136273371Y-76673920D01*
X136382860Y-76837781D01*
X136382863Y-76837785D01*
X136522214Y-76977136D01*
X136522218Y-76977139D01*
X136686079Y-77086628D01*
X136686092Y-77086635D01*
X136868160Y-77162049D01*
X136868165Y-77162051D01*
X136868169Y-77162051D01*
X136868170Y-77162052D01*
X137061456Y-77200500D01*
X137061459Y-77200500D01*
X137258543Y-77200500D01*
X137388582Y-77174632D01*
X137451835Y-77162051D01*
X137633914Y-77086632D01*
X137797782Y-76977139D01*
X137937139Y-76837782D01*
X138046632Y-76673914D01*
X138122051Y-76491835D01*
X138151792Y-76342320D01*
X138160500Y-76298543D01*
X138699499Y-76298543D01*
X138737947Y-76491829D01*
X138737950Y-76491839D01*
X138813364Y-76673907D01*
X138813371Y-76673920D01*
X138922860Y-76837781D01*
X138922863Y-76837785D01*
X139062214Y-76977136D01*
X139062218Y-76977139D01*
X139226079Y-77086628D01*
X139226092Y-77086635D01*
X139408160Y-77162049D01*
X139408165Y-77162051D01*
X139408169Y-77162051D01*
X139408170Y-77162052D01*
X139601456Y-77200500D01*
X139601459Y-77200500D01*
X139798543Y-77200500D01*
X139928582Y-77174632D01*
X139991835Y-77162051D01*
X140173914Y-77086632D01*
X140337782Y-76977139D01*
X140477139Y-76837782D01*
X140586632Y-76673914D01*
X140662051Y-76491835D01*
X140691792Y-76342320D01*
X140700500Y-76298543D01*
X141239499Y-76298543D01*
X141277947Y-76491829D01*
X141277950Y-76491839D01*
X141353364Y-76673907D01*
X141353371Y-76673920D01*
X141462860Y-76837781D01*
X141462863Y-76837785D01*
X141602214Y-76977136D01*
X141602218Y-76977139D01*
X141766079Y-77086628D01*
X141766092Y-77086635D01*
X141948160Y-77162049D01*
X141948165Y-77162051D01*
X141948169Y-77162051D01*
X141948170Y-77162052D01*
X142141456Y-77200500D01*
X142141459Y-77200500D01*
X142338543Y-77200500D01*
X142468582Y-77174632D01*
X142531835Y-77162051D01*
X142713914Y-77086632D01*
X142877782Y-76977139D01*
X143017139Y-76837782D01*
X143126632Y-76673914D01*
X143202051Y-76491835D01*
X143231792Y-76342320D01*
X143240500Y-76298543D01*
X143779499Y-76298543D01*
X143817947Y-76491829D01*
X143817950Y-76491839D01*
X143893364Y-76673907D01*
X143893371Y-76673920D01*
X144002860Y-76837781D01*
X144002863Y-76837785D01*
X144142214Y-76977136D01*
X144142218Y-76977139D01*
X144306079Y-77086628D01*
X144306092Y-77086635D01*
X144488160Y-77162049D01*
X144488165Y-77162051D01*
X144488169Y-77162051D01*
X144488170Y-77162052D01*
X144681456Y-77200500D01*
X144681459Y-77200500D01*
X144878543Y-77200500D01*
X145008582Y-77174632D01*
X145071835Y-77162051D01*
X145253914Y-77086632D01*
X145417782Y-76977139D01*
X145557139Y-76837782D01*
X145666632Y-76673914D01*
X145742051Y-76491835D01*
X145771792Y-76342320D01*
X145780500Y-76298543D01*
X146319499Y-76298543D01*
X146357947Y-76491829D01*
X146357950Y-76491839D01*
X146433364Y-76673907D01*
X146433371Y-76673920D01*
X146542860Y-76837781D01*
X146542863Y-76837785D01*
X146682214Y-76977136D01*
X146682218Y-76977139D01*
X146846079Y-77086628D01*
X146846092Y-77086635D01*
X147028160Y-77162049D01*
X147028165Y-77162051D01*
X147028169Y-77162051D01*
X147028170Y-77162052D01*
X147221456Y-77200500D01*
X147221459Y-77200500D01*
X147418543Y-77200500D01*
X147548582Y-77174632D01*
X147611835Y-77162051D01*
X147793914Y-77086632D01*
X147957782Y-76977139D01*
X148097139Y-76837782D01*
X148206632Y-76673914D01*
X148246755Y-76577048D01*
X148290595Y-76522644D01*
X148356889Y-76500579D01*
X148361316Y-76500500D01*
X148461260Y-76500500D01*
X148461262Y-76500500D01*
X148537689Y-76480021D01*
X148606211Y-76440460D01*
X148662160Y-76384511D01*
X148676981Y-76369689D01*
X148738301Y-76336204D01*
X148807993Y-76341186D01*
X148863928Y-76383055D01*
X148886280Y-76433176D01*
X148897947Y-76491830D01*
X148897950Y-76491839D01*
X148973364Y-76673907D01*
X148973371Y-76673920D01*
X149082860Y-76837781D01*
X149082863Y-76837785D01*
X149222214Y-76977136D01*
X149222218Y-76977139D01*
X149386079Y-77086628D01*
X149386092Y-77086635D01*
X149568160Y-77162049D01*
X149568165Y-77162051D01*
X149568169Y-77162051D01*
X149568170Y-77162052D01*
X149761456Y-77200500D01*
X149761459Y-77200500D01*
X149958543Y-77200500D01*
X150088582Y-77174632D01*
X150151835Y-77162051D01*
X150333914Y-77086632D01*
X150497782Y-76977139D01*
X150637139Y-76837782D01*
X150746632Y-76673914D01*
X150822051Y-76491835D01*
X150856565Y-76318324D01*
X150888950Y-76256413D01*
X150949665Y-76221839D01*
X151019435Y-76225578D01*
X151065863Y-76254834D01*
X151113789Y-76302760D01*
X151113791Y-76302761D01*
X151113795Y-76302764D01*
X151171716Y-76336204D01*
X151182311Y-76342321D01*
X151258738Y-76362800D01*
X151310518Y-76362800D01*
X151377557Y-76382485D01*
X151423312Y-76435289D01*
X151432135Y-76462609D01*
X151437947Y-76491827D01*
X151437950Y-76491839D01*
X151513364Y-76673907D01*
X151513371Y-76673920D01*
X151622860Y-76837781D01*
X151622863Y-76837785D01*
X151762214Y-76977136D01*
X151762218Y-76977139D01*
X151926079Y-77086628D01*
X151926092Y-77086635D01*
X152108160Y-77162049D01*
X152108165Y-77162051D01*
X152108169Y-77162051D01*
X152108170Y-77162052D01*
X152301456Y-77200500D01*
X152301459Y-77200500D01*
X152498543Y-77200500D01*
X152628582Y-77174632D01*
X152691835Y-77162051D01*
X152873914Y-77086632D01*
X153037782Y-76977139D01*
X153177139Y-76837782D01*
X153286632Y-76673914D01*
X153362051Y-76491835D01*
X153391792Y-76342320D01*
X153400500Y-76298543D01*
X153939499Y-76298543D01*
X153977947Y-76491829D01*
X153977950Y-76491839D01*
X154053364Y-76673907D01*
X154053371Y-76673920D01*
X154162860Y-76837781D01*
X154162863Y-76837785D01*
X154302214Y-76977136D01*
X154302218Y-76977139D01*
X154466079Y-77086628D01*
X154466092Y-77086635D01*
X154648160Y-77162049D01*
X154648165Y-77162051D01*
X154648169Y-77162051D01*
X154648170Y-77162052D01*
X154841456Y-77200500D01*
X154841459Y-77200500D01*
X155038543Y-77200500D01*
X155168582Y-77174632D01*
X155231835Y-77162051D01*
X155413914Y-77086632D01*
X155577782Y-76977139D01*
X155717139Y-76837782D01*
X155826632Y-76673914D01*
X155902051Y-76491835D01*
X155931792Y-76342320D01*
X155940500Y-76298543D01*
X156479499Y-76298543D01*
X156517947Y-76491829D01*
X156517950Y-76491839D01*
X156593364Y-76673907D01*
X156593371Y-76673920D01*
X156702860Y-76837781D01*
X156702863Y-76837785D01*
X156842214Y-76977136D01*
X156842218Y-76977139D01*
X157006079Y-77086628D01*
X157006092Y-77086635D01*
X157188160Y-77162049D01*
X157188165Y-77162051D01*
X157188169Y-77162051D01*
X157188170Y-77162052D01*
X157381456Y-77200500D01*
X157381459Y-77200500D01*
X157578543Y-77200500D01*
X157708582Y-77174632D01*
X157771835Y-77162051D01*
X157953914Y-77086632D01*
X158117782Y-76977139D01*
X158257139Y-76837782D01*
X158366632Y-76673914D01*
X158442051Y-76491835D01*
X158471792Y-76342320D01*
X158480500Y-76298543D01*
X159019499Y-76298543D01*
X159057947Y-76491829D01*
X159057950Y-76491839D01*
X159133364Y-76673907D01*
X159133371Y-76673920D01*
X159242860Y-76837781D01*
X159242863Y-76837785D01*
X159382214Y-76977136D01*
X159382218Y-76977139D01*
X159546079Y-77086628D01*
X159546092Y-77086635D01*
X159728160Y-77162049D01*
X159728165Y-77162051D01*
X159728169Y-77162051D01*
X159728170Y-77162052D01*
X159921456Y-77200500D01*
X159921459Y-77200500D01*
X160118543Y-77200500D01*
X160248582Y-77174632D01*
X160311835Y-77162051D01*
X160493914Y-77086632D01*
X160657782Y-76977139D01*
X160797139Y-76837782D01*
X160906632Y-76673914D01*
X160982051Y-76491835D01*
X161011792Y-76342320D01*
X161020500Y-76298543D01*
X161559499Y-76298543D01*
X161597947Y-76491829D01*
X161597950Y-76491839D01*
X161673364Y-76673907D01*
X161673371Y-76673920D01*
X161782860Y-76837781D01*
X161782863Y-76837785D01*
X161922214Y-76977136D01*
X161922218Y-76977139D01*
X162086079Y-77086628D01*
X162086092Y-77086635D01*
X162268160Y-77162049D01*
X162268165Y-77162051D01*
X162268169Y-77162051D01*
X162268170Y-77162052D01*
X162461456Y-77200500D01*
X162461459Y-77200500D01*
X162658543Y-77200500D01*
X162788582Y-77174632D01*
X162851835Y-77162051D01*
X163033914Y-77086632D01*
X163197782Y-76977139D01*
X163337139Y-76837782D01*
X163446632Y-76673914D01*
X163522051Y-76491835D01*
X163551792Y-76342320D01*
X163560500Y-76298543D01*
X164099499Y-76298543D01*
X164137947Y-76491829D01*
X164137950Y-76491839D01*
X164213364Y-76673907D01*
X164213371Y-76673920D01*
X164322860Y-76837781D01*
X164322863Y-76837785D01*
X164462214Y-76977136D01*
X164462218Y-76977139D01*
X164626079Y-77086628D01*
X164626092Y-77086635D01*
X164808160Y-77162049D01*
X164808165Y-77162051D01*
X164808169Y-77162051D01*
X164808170Y-77162052D01*
X165001456Y-77200500D01*
X165001459Y-77200500D01*
X165198543Y-77200500D01*
X165328582Y-77174632D01*
X165391835Y-77162051D01*
X165573914Y-77086632D01*
X165737782Y-76977139D01*
X165877139Y-76837782D01*
X165986632Y-76673914D01*
X166062051Y-76491835D01*
X166091792Y-76342320D01*
X166100500Y-76298543D01*
X166100500Y-76101456D01*
X166062052Y-75908170D01*
X166062051Y-75908169D01*
X166062051Y-75908165D01*
X166009604Y-75781545D01*
X165986635Y-75726092D01*
X165986628Y-75726079D01*
X165877139Y-75562218D01*
X165877136Y-75562214D01*
X165737785Y-75422863D01*
X165737781Y-75422860D01*
X165573920Y-75313371D01*
X165573907Y-75313364D01*
X165391839Y-75237950D01*
X165391829Y-75237947D01*
X165198543Y-75199500D01*
X165198541Y-75199500D01*
X165001459Y-75199500D01*
X165001457Y-75199500D01*
X164808170Y-75237947D01*
X164808160Y-75237950D01*
X164626092Y-75313364D01*
X164626079Y-75313371D01*
X164462218Y-75422860D01*
X164462214Y-75422863D01*
X164322863Y-75562214D01*
X164322860Y-75562218D01*
X164213371Y-75726079D01*
X164213364Y-75726092D01*
X164137950Y-75908160D01*
X164137947Y-75908170D01*
X164099500Y-76101456D01*
X164099500Y-76101459D01*
X164099500Y-76298541D01*
X164099500Y-76298543D01*
X164099499Y-76298543D01*
X163560500Y-76298543D01*
X163560500Y-76101456D01*
X163522052Y-75908170D01*
X163522051Y-75908169D01*
X163522051Y-75908165D01*
X163469604Y-75781545D01*
X163446635Y-75726092D01*
X163446628Y-75726079D01*
X163337139Y-75562218D01*
X163337136Y-75562214D01*
X163197785Y-75422863D01*
X163197781Y-75422860D01*
X163033920Y-75313371D01*
X163033907Y-75313364D01*
X162851839Y-75237950D01*
X162851829Y-75237947D01*
X162658543Y-75199500D01*
X162658541Y-75199500D01*
X162461459Y-75199500D01*
X162461457Y-75199500D01*
X162268170Y-75237947D01*
X162268160Y-75237950D01*
X162086092Y-75313364D01*
X162086079Y-75313371D01*
X161922218Y-75422860D01*
X161922214Y-75422863D01*
X161782863Y-75562214D01*
X161782860Y-75562218D01*
X161673371Y-75726079D01*
X161673364Y-75726092D01*
X161597950Y-75908160D01*
X161597947Y-75908170D01*
X161559500Y-76101456D01*
X161559500Y-76101459D01*
X161559500Y-76298541D01*
X161559500Y-76298543D01*
X161559499Y-76298543D01*
X161020500Y-76298543D01*
X161020500Y-76101456D01*
X160982052Y-75908170D01*
X160982051Y-75908169D01*
X160982051Y-75908165D01*
X160929604Y-75781545D01*
X160906635Y-75726092D01*
X160906628Y-75726079D01*
X160797139Y-75562218D01*
X160797136Y-75562214D01*
X160657785Y-75422863D01*
X160657781Y-75422860D01*
X160493920Y-75313371D01*
X160493907Y-75313364D01*
X160311839Y-75237950D01*
X160311829Y-75237947D01*
X160118543Y-75199500D01*
X160118541Y-75199500D01*
X159921459Y-75199500D01*
X159921457Y-75199500D01*
X159728170Y-75237947D01*
X159728160Y-75237950D01*
X159546092Y-75313364D01*
X159546079Y-75313371D01*
X159382218Y-75422860D01*
X159382214Y-75422863D01*
X159242863Y-75562214D01*
X159242860Y-75562218D01*
X159133371Y-75726079D01*
X159133364Y-75726092D01*
X159057950Y-75908160D01*
X159057947Y-75908170D01*
X159019500Y-76101456D01*
X159019500Y-76101459D01*
X159019500Y-76298541D01*
X159019500Y-76298543D01*
X159019499Y-76298543D01*
X158480500Y-76298543D01*
X158480500Y-76101456D01*
X158442052Y-75908170D01*
X158442051Y-75908169D01*
X158442051Y-75908165D01*
X158389604Y-75781545D01*
X158366635Y-75726092D01*
X158366628Y-75726079D01*
X158257139Y-75562218D01*
X158257136Y-75562214D01*
X158117785Y-75422863D01*
X158117781Y-75422860D01*
X157953920Y-75313371D01*
X157953907Y-75313364D01*
X157771839Y-75237950D01*
X157771829Y-75237947D01*
X157578543Y-75199500D01*
X157578541Y-75199500D01*
X157381459Y-75199500D01*
X157381457Y-75199500D01*
X157188170Y-75237947D01*
X157188160Y-75237950D01*
X157006092Y-75313364D01*
X157006079Y-75313371D01*
X156842218Y-75422860D01*
X156842214Y-75422863D01*
X156702863Y-75562214D01*
X156702860Y-75562218D01*
X156593371Y-75726079D01*
X156593364Y-75726092D01*
X156517950Y-75908160D01*
X156517947Y-75908170D01*
X156479500Y-76101456D01*
X156479500Y-76101459D01*
X156479500Y-76298541D01*
X156479500Y-76298543D01*
X156479499Y-76298543D01*
X155940500Y-76298543D01*
X155940500Y-76101456D01*
X155902052Y-75908170D01*
X155902051Y-75908169D01*
X155902051Y-75908165D01*
X155849604Y-75781545D01*
X155826635Y-75726092D01*
X155826628Y-75726079D01*
X155717139Y-75562218D01*
X155717136Y-75562214D01*
X155577785Y-75422863D01*
X155577781Y-75422860D01*
X155413920Y-75313371D01*
X155413907Y-75313364D01*
X155231839Y-75237950D01*
X155231829Y-75237947D01*
X155038543Y-75199500D01*
X155038541Y-75199500D01*
X154841459Y-75199500D01*
X154841457Y-75199500D01*
X154648170Y-75237947D01*
X154648160Y-75237950D01*
X154466092Y-75313364D01*
X154466079Y-75313371D01*
X154302218Y-75422860D01*
X154302214Y-75422863D01*
X154162863Y-75562214D01*
X154162860Y-75562218D01*
X154053371Y-75726079D01*
X154053364Y-75726092D01*
X153977950Y-75908160D01*
X153977947Y-75908170D01*
X153939500Y-76101456D01*
X153939500Y-76101459D01*
X153939500Y-76298541D01*
X153939500Y-76298543D01*
X153939499Y-76298543D01*
X153400500Y-76298543D01*
X153400500Y-76101456D01*
X153362052Y-75908170D01*
X153362051Y-75908169D01*
X153362051Y-75908165D01*
X153309604Y-75781545D01*
X153286635Y-75726092D01*
X153286628Y-75726079D01*
X153177139Y-75562218D01*
X153177136Y-75562214D01*
X153037785Y-75422863D01*
X153037781Y-75422860D01*
X152873920Y-75313371D01*
X152873907Y-75313364D01*
X152691839Y-75237950D01*
X152691829Y-75237947D01*
X152498543Y-75199500D01*
X152498541Y-75199500D01*
X152301459Y-75199500D01*
X152301457Y-75199500D01*
X152108170Y-75237947D01*
X152108160Y-75237950D01*
X151926092Y-75313364D01*
X151926079Y-75313371D01*
X151762218Y-75422860D01*
X151762214Y-75422863D01*
X151622863Y-75562214D01*
X151546717Y-75676174D01*
X151493104Y-75720978D01*
X151423779Y-75729685D01*
X151360752Y-75699530D01*
X151355934Y-75694963D01*
X150475312Y-74814341D01*
X150475311Y-74814340D01*
X150447875Y-74798500D01*
X150447874Y-74798499D01*
X150419099Y-74781886D01*
X150406790Y-74774779D01*
X150381313Y-74767952D01*
X150330362Y-74754300D01*
X149527338Y-74754300D01*
X149480563Y-74766833D01*
X149450906Y-74774780D01*
X149450905Y-74774781D01*
X149438600Y-74781886D01*
X149376599Y-74798500D01*
X149364388Y-74798500D01*
X149326174Y-74808739D01*
X149287959Y-74818979D01*
X149287954Y-74818982D01*
X149219445Y-74858535D01*
X149219437Y-74858541D01*
X148518541Y-75559437D01*
X148518535Y-75559445D01*
X148478982Y-75627954D01*
X148478979Y-75627959D01*
X148466667Y-75673906D01*
X148461026Y-75694963D01*
X148456397Y-75712238D01*
X148454407Y-75711704D01*
X148449613Y-75722539D01*
X148444756Y-75744869D01*
X148432471Y-75761279D01*
X148430589Y-75765533D01*
X148423605Y-75773123D01*
X148415183Y-75781545D01*
X148353860Y-75815030D01*
X148284168Y-75810046D01*
X148228235Y-75768174D01*
X148212941Y-75741316D01*
X148206635Y-75726092D01*
X148206628Y-75726079D01*
X148097139Y-75562218D01*
X148097136Y-75562214D01*
X147957785Y-75422863D01*
X147957781Y-75422860D01*
X147793920Y-75313371D01*
X147793907Y-75313364D01*
X147611839Y-75237950D01*
X147611829Y-75237947D01*
X147418543Y-75199500D01*
X147418541Y-75199500D01*
X147221459Y-75199500D01*
X147221457Y-75199500D01*
X147028170Y-75237947D01*
X147028160Y-75237950D01*
X146846092Y-75313364D01*
X146846079Y-75313371D01*
X146682218Y-75422860D01*
X146682214Y-75422863D01*
X146542863Y-75562214D01*
X146542860Y-75562218D01*
X146433371Y-75726079D01*
X146433364Y-75726092D01*
X146357950Y-75908160D01*
X146357947Y-75908170D01*
X146319500Y-76101456D01*
X146319500Y-76101459D01*
X146319500Y-76298541D01*
X146319500Y-76298543D01*
X146319499Y-76298543D01*
X145780500Y-76298543D01*
X145780500Y-76101456D01*
X145742052Y-75908170D01*
X145742051Y-75908169D01*
X145742051Y-75908165D01*
X145689604Y-75781545D01*
X145666635Y-75726092D01*
X145666628Y-75726079D01*
X145557139Y-75562218D01*
X145557136Y-75562214D01*
X145417785Y-75422863D01*
X145417781Y-75422860D01*
X145253920Y-75313371D01*
X145253907Y-75313364D01*
X145071839Y-75237950D01*
X145071829Y-75237947D01*
X144878543Y-75199500D01*
X144878541Y-75199500D01*
X144681459Y-75199500D01*
X144681457Y-75199500D01*
X144488170Y-75237947D01*
X144488160Y-75237950D01*
X144306092Y-75313364D01*
X144306079Y-75313371D01*
X144142218Y-75422860D01*
X144142214Y-75422863D01*
X144002863Y-75562214D01*
X144002860Y-75562218D01*
X143893371Y-75726079D01*
X143893364Y-75726092D01*
X143817950Y-75908160D01*
X143817947Y-75908170D01*
X143779500Y-76101456D01*
X143779500Y-76101459D01*
X143779500Y-76298541D01*
X143779500Y-76298543D01*
X143779499Y-76298543D01*
X143240500Y-76298543D01*
X143240500Y-76101456D01*
X143202052Y-75908170D01*
X143202051Y-75908169D01*
X143202051Y-75908165D01*
X143149604Y-75781545D01*
X143126635Y-75726092D01*
X143126628Y-75726079D01*
X143017139Y-75562218D01*
X143017136Y-75562214D01*
X142877785Y-75422863D01*
X142877781Y-75422860D01*
X142713920Y-75313371D01*
X142713907Y-75313364D01*
X142531839Y-75237950D01*
X142531829Y-75237947D01*
X142338543Y-75199500D01*
X142338541Y-75199500D01*
X142141459Y-75199500D01*
X142141457Y-75199500D01*
X141948170Y-75237947D01*
X141948160Y-75237950D01*
X141766092Y-75313364D01*
X141766079Y-75313371D01*
X141602218Y-75422860D01*
X141602214Y-75422863D01*
X141462863Y-75562214D01*
X141462860Y-75562218D01*
X141353371Y-75726079D01*
X141353364Y-75726092D01*
X141277950Y-75908160D01*
X141277947Y-75908170D01*
X141239500Y-76101456D01*
X141239500Y-76101459D01*
X141239500Y-76298541D01*
X141239500Y-76298543D01*
X141239499Y-76298543D01*
X140700500Y-76298543D01*
X140700500Y-76101456D01*
X140662052Y-75908170D01*
X140662051Y-75908169D01*
X140662051Y-75908165D01*
X140609604Y-75781545D01*
X140586635Y-75726092D01*
X140586628Y-75726079D01*
X140477139Y-75562218D01*
X140477136Y-75562214D01*
X140337785Y-75422863D01*
X140337781Y-75422860D01*
X140173920Y-75313371D01*
X140173907Y-75313364D01*
X139991839Y-75237950D01*
X139991829Y-75237947D01*
X139798543Y-75199500D01*
X139798541Y-75199500D01*
X139601459Y-75199500D01*
X139601457Y-75199500D01*
X139408170Y-75237947D01*
X139408160Y-75237950D01*
X139226092Y-75313364D01*
X139226079Y-75313371D01*
X139062218Y-75422860D01*
X139062214Y-75422863D01*
X138922863Y-75562214D01*
X138922860Y-75562218D01*
X138813371Y-75726079D01*
X138813364Y-75726092D01*
X138737950Y-75908160D01*
X138737947Y-75908170D01*
X138699500Y-76101456D01*
X138699500Y-76101459D01*
X138699500Y-76298541D01*
X138699500Y-76298543D01*
X138699499Y-76298543D01*
X138160500Y-76298543D01*
X138160500Y-76101456D01*
X138122052Y-75908170D01*
X138122051Y-75908169D01*
X138122051Y-75908165D01*
X138069604Y-75781545D01*
X138046635Y-75726092D01*
X138046628Y-75726079D01*
X137937139Y-75562218D01*
X137937136Y-75562214D01*
X137797785Y-75422863D01*
X137797781Y-75422860D01*
X137633920Y-75313371D01*
X137633907Y-75313364D01*
X137451839Y-75237950D01*
X137451829Y-75237947D01*
X137258543Y-75199500D01*
X137258541Y-75199500D01*
X137061459Y-75199500D01*
X137061457Y-75199500D01*
X136868170Y-75237947D01*
X136868160Y-75237950D01*
X136686092Y-75313364D01*
X136686079Y-75313371D01*
X136522218Y-75422860D01*
X136522214Y-75422863D01*
X136382863Y-75562214D01*
X136382860Y-75562218D01*
X136273371Y-75726079D01*
X136273364Y-75726092D01*
X136197950Y-75908160D01*
X136197947Y-75908170D01*
X136159500Y-76101456D01*
X136159500Y-76101459D01*
X136159500Y-76298541D01*
X136159500Y-76298543D01*
X136159499Y-76298543D01*
X135620500Y-76298543D01*
X135620500Y-76101456D01*
X135582052Y-75908170D01*
X135582051Y-75908169D01*
X135582051Y-75908165D01*
X135529604Y-75781545D01*
X135506635Y-75726092D01*
X135506628Y-75726079D01*
X135397139Y-75562218D01*
X135397136Y-75562214D01*
X135257785Y-75422863D01*
X135257781Y-75422860D01*
X135093920Y-75313371D01*
X135093907Y-75313364D01*
X134911839Y-75237950D01*
X134911829Y-75237947D01*
X134718543Y-75199500D01*
X134718541Y-75199500D01*
X134521459Y-75199500D01*
X134521457Y-75199500D01*
X134328170Y-75237947D01*
X134328160Y-75237950D01*
X134146092Y-75313364D01*
X134146079Y-75313371D01*
X133982218Y-75422860D01*
X133982214Y-75422863D01*
X133842863Y-75562214D01*
X133842860Y-75562218D01*
X133733371Y-75726079D01*
X133733364Y-75726092D01*
X133693245Y-75822952D01*
X133649405Y-75877356D01*
X133583111Y-75899421D01*
X133578684Y-75899500D01*
X133121316Y-75899500D01*
X133054277Y-75879815D01*
X133008522Y-75827011D01*
X133006755Y-75822952D01*
X132966635Y-75726092D01*
X132966628Y-75726079D01*
X132857139Y-75562218D01*
X132857136Y-75562214D01*
X132717785Y-75422863D01*
X132717781Y-75422860D01*
X132553920Y-75313371D01*
X132553907Y-75313364D01*
X132371839Y-75237950D01*
X132371829Y-75237947D01*
X132178543Y-75199500D01*
X132178541Y-75199500D01*
X131981459Y-75199500D01*
X131981457Y-75199500D01*
X131788170Y-75237947D01*
X131788160Y-75237950D01*
X131606092Y-75313364D01*
X131606079Y-75313371D01*
X131442218Y-75422860D01*
X131442214Y-75422863D01*
X131302863Y-75562214D01*
X131302860Y-75562218D01*
X131193371Y-75726079D01*
X131193364Y-75726092D01*
X131117950Y-75908160D01*
X131117947Y-75908170D01*
X131079500Y-76101456D01*
X131079500Y-76101459D01*
X131079500Y-76298541D01*
X131079500Y-76298543D01*
X131079499Y-76298543D01*
X113751386Y-76298543D01*
X113752750Y-63598543D01*
X123459499Y-63598543D01*
X123497947Y-63791829D01*
X123497950Y-63791839D01*
X123573364Y-63973907D01*
X123573371Y-63973920D01*
X123682860Y-64137781D01*
X123682863Y-64137785D01*
X123822217Y-64277139D01*
X123915419Y-64339414D01*
X123986086Y-64386632D01*
X124082953Y-64426755D01*
X124137355Y-64470594D01*
X124159421Y-64536888D01*
X124159500Y-64541315D01*
X124159500Y-66079562D01*
X124161683Y-66087708D01*
X124179979Y-66155990D01*
X124179982Y-66155995D01*
X124219535Y-66224504D01*
X124219539Y-66224509D01*
X124219540Y-66224511D01*
X125202919Y-67207890D01*
X125258868Y-67263839D01*
X125258870Y-67263840D01*
X125258874Y-67263843D01*
X125327383Y-67303396D01*
X125327390Y-67303400D01*
X125403817Y-67323879D01*
X125403819Y-67323879D01*
X145053581Y-67323879D01*
X145053583Y-67323879D01*
X145130010Y-67303400D01*
X145198532Y-67263839D01*
X145254481Y-67207890D01*
X146830423Y-65631947D01*
X157810000Y-65631947D01*
X157810000Y-65868052D01*
X157846934Y-66101247D01*
X157919897Y-66325802D01*
X158027087Y-66536174D01*
X158087338Y-66619104D01*
X158087340Y-66619105D01*
X158786212Y-65920233D01*
X158797482Y-65962292D01*
X158869890Y-66087708D01*
X158972292Y-66190110D01*
X159097708Y-66262518D01*
X159139765Y-66273787D01*
X158440893Y-66972658D01*
X158523828Y-67032914D01*
X158734197Y-67140102D01*
X158958752Y-67213065D01*
X158958751Y-67213065D01*
X159191948Y-67250000D01*
X159428052Y-67250000D01*
X159661247Y-67213065D01*
X159885802Y-67140102D01*
X160096163Y-67032918D01*
X160096169Y-67032914D01*
X160179104Y-66972658D01*
X160179105Y-66972658D01*
X159480233Y-66273787D01*
X159522292Y-66262518D01*
X159647708Y-66190110D01*
X159750110Y-66087708D01*
X159822518Y-65962292D01*
X159833787Y-65920234D01*
X160532658Y-66619105D01*
X160532658Y-66619104D01*
X160592914Y-66536169D01*
X160592918Y-66536163D01*
X160700102Y-66325802D01*
X160773065Y-66101247D01*
X160810000Y-65868052D01*
X160810000Y-65631947D01*
X164310000Y-65631947D01*
X164310000Y-65868052D01*
X164346934Y-66101247D01*
X164419897Y-66325802D01*
X164527087Y-66536174D01*
X164587338Y-66619104D01*
X164587340Y-66619105D01*
X165286212Y-65920233D01*
X165297482Y-65962292D01*
X165369890Y-66087708D01*
X165472292Y-66190110D01*
X165597708Y-66262518D01*
X165639765Y-66273787D01*
X164940893Y-66972658D01*
X165023828Y-67032914D01*
X165234197Y-67140102D01*
X165458752Y-67213065D01*
X165458751Y-67213065D01*
X165691948Y-67250000D01*
X165928052Y-67250000D01*
X166161247Y-67213065D01*
X166385802Y-67140102D01*
X166596163Y-67032918D01*
X166596169Y-67032914D01*
X166679104Y-66972658D01*
X166679105Y-66972658D01*
X165980233Y-66273787D01*
X166022292Y-66262518D01*
X166147708Y-66190110D01*
X166250110Y-66087708D01*
X166322518Y-65962292D01*
X166333787Y-65920233D01*
X167032658Y-66619105D01*
X167032658Y-66619104D01*
X167092914Y-66536169D01*
X167092918Y-66536163D01*
X167200102Y-66325802D01*
X167273065Y-66101247D01*
X167310000Y-65868052D01*
X167310000Y-65631947D01*
X167273065Y-65398752D01*
X167200102Y-65174197D01*
X167092914Y-64963828D01*
X167032658Y-64880894D01*
X167032658Y-64880893D01*
X166333787Y-65579765D01*
X166322518Y-65537708D01*
X166250110Y-65412292D01*
X166147708Y-65309890D01*
X166022292Y-65237482D01*
X165980234Y-65226212D01*
X166679105Y-64527340D01*
X166679104Y-64527338D01*
X166596174Y-64467087D01*
X166385802Y-64359897D01*
X166161247Y-64286934D01*
X166161248Y-64286934D01*
X165928052Y-64250000D01*
X165691948Y-64250000D01*
X165458752Y-64286934D01*
X165234197Y-64359897D01*
X165023830Y-64467084D01*
X164940894Y-64527340D01*
X165639766Y-65226212D01*
X165597708Y-65237482D01*
X165472292Y-65309890D01*
X165369890Y-65412292D01*
X165297482Y-65537708D01*
X165286212Y-65579766D01*
X164587340Y-64880894D01*
X164527084Y-64963830D01*
X164419897Y-65174197D01*
X164346934Y-65398752D01*
X164310000Y-65631947D01*
X160810000Y-65631947D01*
X160773065Y-65398752D01*
X160700102Y-65174197D01*
X160592914Y-64963828D01*
X160532658Y-64880894D01*
X160532658Y-64880893D01*
X159833787Y-65579765D01*
X159822518Y-65537708D01*
X159750110Y-65412292D01*
X159647708Y-65309890D01*
X159522292Y-65237482D01*
X159480234Y-65226212D01*
X160179105Y-64527340D01*
X160179104Y-64527339D01*
X160096174Y-64467087D01*
X159885802Y-64359897D01*
X159661247Y-64286934D01*
X159661248Y-64286934D01*
X159428052Y-64250000D01*
X159191948Y-64250000D01*
X158958752Y-64286934D01*
X158734197Y-64359897D01*
X158523830Y-64467084D01*
X158440894Y-64527340D01*
X159139766Y-65226212D01*
X159097708Y-65237482D01*
X158972292Y-65309890D01*
X158869890Y-65412292D01*
X158797482Y-65537708D01*
X158786212Y-65579766D01*
X158087340Y-64880894D01*
X158027084Y-64963830D01*
X157919897Y-65174197D01*
X157846934Y-65398752D01*
X157810000Y-65631947D01*
X146830423Y-65631947D01*
X147936514Y-64525855D01*
X147997835Y-64492372D01*
X148067527Y-64497356D01*
X148080486Y-64503052D01*
X148113499Y-64519873D01*
X148278243Y-64573402D01*
X148449333Y-64600500D01*
X148449334Y-64600500D01*
X148622554Y-64600500D01*
X148622555Y-64600500D01*
X148793645Y-64573402D01*
X148958389Y-64519873D01*
X149112732Y-64441232D01*
X149252872Y-64339414D01*
X149375358Y-64216928D01*
X149451626Y-64111953D01*
X149506956Y-64069289D01*
X149576570Y-64063310D01*
X149638365Y-64095916D01*
X149672722Y-64156755D01*
X149675944Y-64184840D01*
X149675944Y-64447844D01*
X149682345Y-64507372D01*
X149682347Y-64507379D01*
X149732589Y-64642086D01*
X149732593Y-64642093D01*
X149818753Y-64757187D01*
X149818756Y-64757190D01*
X149933850Y-64843350D01*
X149933857Y-64843354D01*
X150068564Y-64893596D01*
X150068571Y-64893598D01*
X150128099Y-64899999D01*
X150128116Y-64900000D01*
X150825944Y-64900000D01*
X150825944Y-63875277D01*
X150902250Y-63919333D01*
X151016700Y-63950000D01*
X151135188Y-63950000D01*
X151249638Y-63919333D01*
X151325944Y-63875277D01*
X151325944Y-64900000D01*
X152023772Y-64900000D01*
X152023788Y-64899999D01*
X152083316Y-64893598D01*
X152083323Y-64893596D01*
X152218030Y-64843354D01*
X152218037Y-64843350D01*
X152333131Y-64757190D01*
X152333134Y-64757187D01*
X152419294Y-64642093D01*
X152419298Y-64642086D01*
X152460632Y-64531266D01*
X152460632Y-64531265D01*
X152469540Y-64507382D01*
X152469542Y-64507372D01*
X152475943Y-64447844D01*
X152475944Y-64447827D01*
X152475944Y-63750000D01*
X151451222Y-63750000D01*
X151495277Y-63673694D01*
X151525944Y-63559244D01*
X151525944Y-63440756D01*
X151495277Y-63326306D01*
X151451222Y-63250000D01*
X152475944Y-63250000D01*
X152475944Y-62552172D01*
X152475943Y-62552155D01*
X152469542Y-62492627D01*
X152469540Y-62492620D01*
X152419298Y-62357913D01*
X152419294Y-62357906D01*
X152333134Y-62242812D01*
X152333131Y-62242809D01*
X152218037Y-62156649D01*
X152218030Y-62156645D01*
X152083323Y-62106403D01*
X152083316Y-62106401D01*
X152023788Y-62100000D01*
X151325944Y-62100000D01*
X151325944Y-63124722D01*
X151249638Y-63080667D01*
X151135188Y-63050000D01*
X151016700Y-63050000D01*
X150902250Y-63080667D01*
X150825944Y-63124722D01*
X150825944Y-62100000D01*
X150128099Y-62100000D01*
X150068571Y-62106401D01*
X150068564Y-62106403D01*
X149933857Y-62156645D01*
X149933850Y-62156649D01*
X149818756Y-62242809D01*
X149818753Y-62242812D01*
X149732593Y-62357906D01*
X149732589Y-62357913D01*
X149682347Y-62492620D01*
X149682345Y-62492627D01*
X149675944Y-62552155D01*
X149675944Y-62815159D01*
X149656259Y-62882198D01*
X149603455Y-62927953D01*
X149534297Y-62937897D01*
X149470741Y-62908872D01*
X149451626Y-62888045D01*
X149419225Y-62843450D01*
X149375358Y-62783072D01*
X149252872Y-62660586D01*
X149112732Y-62558768D01*
X148958389Y-62480127D01*
X148793645Y-62426598D01*
X148793643Y-62426597D01*
X148793642Y-62426597D01*
X148662215Y-62405781D01*
X148622555Y-62399500D01*
X148449333Y-62399500D01*
X148409672Y-62405781D01*
X148278246Y-62426597D01*
X148113496Y-62480128D01*
X147959155Y-62558768D01*
X147884011Y-62613364D01*
X147819016Y-62660586D01*
X147819014Y-62660588D01*
X147819013Y-62660588D01*
X147696532Y-62783069D01*
X147696532Y-62783070D01*
X147696530Y-62783072D01*
X147652803Y-62843256D01*
X147594712Y-62923211D01*
X147516072Y-63077552D01*
X147462541Y-63242302D01*
X147435444Y-63413389D01*
X147435444Y-63586610D01*
X147449236Y-63673694D01*
X147462542Y-63757701D01*
X147495810Y-63860090D01*
X147516072Y-63922447D01*
X147533873Y-63957385D01*
X147546768Y-64026054D01*
X147520491Y-64090794D01*
X147511068Y-64101359D01*
X144925869Y-66686560D01*
X144864546Y-66720045D01*
X144838188Y-66722879D01*
X125619212Y-66722879D01*
X125552173Y-66703194D01*
X125531531Y-66686560D01*
X124796819Y-65951848D01*
X124763334Y-65890525D01*
X124760500Y-65864167D01*
X124760500Y-64541315D01*
X124780185Y-64474276D01*
X124832989Y-64428521D01*
X124837002Y-64426773D01*
X124933914Y-64386632D01*
X125097782Y-64277139D01*
X125237139Y-64137782D01*
X125346632Y-63973914D01*
X125353479Y-63957385D01*
X125422049Y-63791839D01*
X125422051Y-63791835D01*
X125460500Y-63598543D01*
X133619499Y-63598543D01*
X133657947Y-63791829D01*
X133657950Y-63791839D01*
X133733364Y-63973907D01*
X133733371Y-63973920D01*
X133842860Y-64137781D01*
X133842863Y-64137785D01*
X133982214Y-64277136D01*
X133982218Y-64277139D01*
X134146079Y-64386628D01*
X134146092Y-64386635D01*
X134277903Y-64441232D01*
X134328165Y-64462051D01*
X134328169Y-64462051D01*
X134328170Y-64462052D01*
X134521456Y-64500500D01*
X134521459Y-64500500D01*
X134718543Y-64500500D01*
X134868887Y-64470594D01*
X134911835Y-64462051D01*
X135093914Y-64386632D01*
X135257782Y-64277139D01*
X135397139Y-64137782D01*
X135506632Y-63973914D01*
X135513479Y-63957385D01*
X135582049Y-63791839D01*
X135582051Y-63791835D01*
X135620500Y-63598541D01*
X135620500Y-63401459D01*
X135620500Y-63401456D01*
X135582052Y-63208170D01*
X135582051Y-63208169D01*
X135582051Y-63208165D01*
X135527950Y-63077552D01*
X135506635Y-63026092D01*
X135506628Y-63026079D01*
X135397139Y-62862218D01*
X135397136Y-62862214D01*
X135257785Y-62722863D01*
X135257781Y-62722860D01*
X135093920Y-62613371D01*
X135093907Y-62613364D01*
X134911839Y-62537950D01*
X134911829Y-62537947D01*
X134718543Y-62499500D01*
X134718541Y-62499500D01*
X134521459Y-62499500D01*
X134521457Y-62499500D01*
X134328170Y-62537947D01*
X134328160Y-62537950D01*
X134146092Y-62613364D01*
X134146079Y-62613371D01*
X133982218Y-62722860D01*
X133982214Y-62722863D01*
X133842863Y-62862214D01*
X133842860Y-62862218D01*
X133733371Y-63026079D01*
X133733364Y-63026092D01*
X133657950Y-63208160D01*
X133657947Y-63208170D01*
X133619500Y-63401456D01*
X133619500Y-63401459D01*
X133619500Y-63598541D01*
X133619500Y-63598543D01*
X133619499Y-63598543D01*
X125460500Y-63598543D01*
X125460500Y-63598541D01*
X125460500Y-63401459D01*
X125460500Y-63401456D01*
X125422052Y-63208170D01*
X125422051Y-63208169D01*
X125422051Y-63208165D01*
X125367950Y-63077552D01*
X125346635Y-63026092D01*
X125346628Y-63026079D01*
X125237139Y-62862218D01*
X125237136Y-62862214D01*
X125097785Y-62722863D01*
X125097781Y-62722860D01*
X124933920Y-62613371D01*
X124933907Y-62613364D01*
X124751839Y-62537950D01*
X124751829Y-62537947D01*
X124558543Y-62499500D01*
X124558541Y-62499500D01*
X124361459Y-62499500D01*
X124361457Y-62499500D01*
X124168170Y-62537947D01*
X124168160Y-62537950D01*
X123986092Y-62613364D01*
X123986079Y-62613371D01*
X123822218Y-62722860D01*
X123822214Y-62722863D01*
X123682863Y-62862214D01*
X123682860Y-62862218D01*
X123573371Y-63026079D01*
X123573364Y-63026092D01*
X123497950Y-63208160D01*
X123497947Y-63208170D01*
X123459500Y-63401456D01*
X123459500Y-63401459D01*
X123459500Y-63598541D01*
X123459500Y-63598543D01*
X123459499Y-63598543D01*
X113752750Y-63598543D01*
X113753325Y-58249244D01*
X139199500Y-58249244D01*
X139199500Y-58590755D01*
X139237734Y-58930092D01*
X139237736Y-58930108D01*
X139313726Y-59263044D01*
X139313730Y-59263056D01*
X139426515Y-59585375D01*
X139426524Y-59585397D01*
X139574686Y-59893059D01*
X139574690Y-59893065D01*
X139756380Y-60182222D01*
X139969303Y-60449219D01*
X140210781Y-60690697D01*
X140477778Y-60903620D01*
X140766935Y-61085310D01*
X140766940Y-61085313D01*
X141074602Y-61233475D01*
X141074611Y-61233478D01*
X141074618Y-61233482D01*
X141074624Y-61233484D01*
X141396943Y-61346269D01*
X141396955Y-61346273D01*
X141729895Y-61422264D01*
X142069245Y-61460499D01*
X142069246Y-61460500D01*
X142069249Y-61460500D01*
X142410754Y-61460500D01*
X142410754Y-61460499D01*
X142750105Y-61422264D01*
X143083045Y-61346273D01*
X143405382Y-61233482D01*
X143567275Y-61155519D01*
X143567287Y-61155513D01*
X158109500Y-61155513D01*
X158109500Y-61344486D01*
X158139059Y-61531118D01*
X158197454Y-61710836D01*
X158283240Y-61879199D01*
X158394310Y-62032073D01*
X158527927Y-62165690D01*
X158680801Y-62276760D01*
X158760347Y-62317290D01*
X158849163Y-62362545D01*
X158849165Y-62362545D01*
X158849168Y-62362547D01*
X158945497Y-62393846D01*
X159028881Y-62420940D01*
X159215514Y-62450500D01*
X159215519Y-62450500D01*
X159404486Y-62450500D01*
X159591118Y-62420940D01*
X159770832Y-62362547D01*
X159939199Y-62276760D01*
X160092073Y-62165690D01*
X160225690Y-62032073D01*
X160336760Y-61879199D01*
X160422547Y-61710832D01*
X160422548Y-61710829D01*
X160446803Y-61636182D01*
X160486241Y-61578506D01*
X160550599Y-61551308D01*
X160564734Y-61550500D01*
X164555266Y-61550500D01*
X164622305Y-61570185D01*
X164668060Y-61622989D01*
X164673197Y-61636182D01*
X164697451Y-61710829D01*
X164697453Y-61710832D01*
X164783240Y-61879199D01*
X164894310Y-62032073D01*
X165027927Y-62165690D01*
X165180801Y-62276760D01*
X165260347Y-62317290D01*
X165349163Y-62362545D01*
X165349165Y-62362545D01*
X165349168Y-62362547D01*
X165445497Y-62393846D01*
X165528881Y-62420940D01*
X165715514Y-62450500D01*
X165715519Y-62450500D01*
X165904486Y-62450500D01*
X166091118Y-62420940D01*
X166270832Y-62362547D01*
X166439199Y-62276760D01*
X166592073Y-62165690D01*
X166725690Y-62032073D01*
X166836760Y-61879199D01*
X166922547Y-61710832D01*
X166980940Y-61531118D01*
X166992125Y-61460499D01*
X167010500Y-61344486D01*
X167010500Y-61155513D01*
X166980940Y-60968881D01*
X166946802Y-60863818D01*
X166922547Y-60789168D01*
X166922545Y-60789165D01*
X166922545Y-60789163D01*
X166836759Y-60620800D01*
X166725690Y-60467927D01*
X166592073Y-60334310D01*
X166439199Y-60223240D01*
X166270836Y-60137454D01*
X166091118Y-60079059D01*
X165904486Y-60049500D01*
X165904481Y-60049500D01*
X165715519Y-60049500D01*
X165715514Y-60049500D01*
X165528881Y-60079059D01*
X165349163Y-60137454D01*
X165180800Y-60223240D01*
X165093579Y-60286610D01*
X165027927Y-60334310D01*
X165027925Y-60334312D01*
X165027924Y-60334312D01*
X164894312Y-60467924D01*
X164894312Y-60467925D01*
X164894310Y-60467927D01*
X164846610Y-60533579D01*
X164783240Y-60620800D01*
X164697451Y-60789170D01*
X164673197Y-60863818D01*
X164633759Y-60921494D01*
X164569401Y-60948692D01*
X164555266Y-60949500D01*
X160564734Y-60949500D01*
X160497695Y-60929815D01*
X160451940Y-60877011D01*
X160446803Y-60863818D01*
X160422548Y-60789170D01*
X160422544Y-60789163D01*
X160336760Y-60620801D01*
X160225690Y-60467927D01*
X160092073Y-60334310D01*
X159939199Y-60223240D01*
X159770836Y-60137454D01*
X159591118Y-60079059D01*
X159404486Y-60049500D01*
X159404481Y-60049500D01*
X159215519Y-60049500D01*
X159215514Y-60049500D01*
X159028881Y-60079059D01*
X158849163Y-60137454D01*
X158680800Y-60223240D01*
X158593579Y-60286610D01*
X158527927Y-60334310D01*
X158527925Y-60334312D01*
X158527924Y-60334312D01*
X158394312Y-60467924D01*
X158394312Y-60467925D01*
X158394310Y-60467927D01*
X158346610Y-60533579D01*
X158283240Y-60620800D01*
X158197454Y-60789163D01*
X158139059Y-60968881D01*
X158109500Y-61155513D01*
X143567287Y-61155513D01*
X143713059Y-61085313D01*
X143713059Y-61085312D01*
X143713065Y-61085310D01*
X144002222Y-60903620D01*
X144269219Y-60690697D01*
X144510697Y-60449219D01*
X144723620Y-60182222D01*
X144905310Y-59893065D01*
X145053482Y-59585382D01*
X145166273Y-59263045D01*
X145242264Y-58930105D01*
X145280500Y-58590751D01*
X145280500Y-58249249D01*
X145242264Y-57909895D01*
X145166273Y-57576955D01*
X145053482Y-57254618D01*
X145053478Y-57254611D01*
X145053475Y-57254602D01*
X144905313Y-56946940D01*
X144765367Y-56724218D01*
X144723620Y-56657778D01*
X144510697Y-56390781D01*
X144269219Y-56149303D01*
X144002222Y-55936380D01*
X143713065Y-55754690D01*
X143713066Y-55754690D01*
X143713059Y-55754686D01*
X143405397Y-55606524D01*
X143405375Y-55606515D01*
X143083056Y-55493730D01*
X143083044Y-55493726D01*
X142750108Y-55417736D01*
X142750092Y-55417734D01*
X142410755Y-55379500D01*
X142410751Y-55379500D01*
X142069249Y-55379500D01*
X142069244Y-55379500D01*
X141729907Y-55417734D01*
X141729891Y-55417736D01*
X141396955Y-55493726D01*
X141396943Y-55493730D01*
X141074624Y-55606515D01*
X141074602Y-55606524D01*
X140766940Y-55754686D01*
X140477779Y-55936379D01*
X140210781Y-56149302D01*
X139969302Y-56390781D01*
X139756379Y-56657779D01*
X139574686Y-56946940D01*
X139426524Y-57254602D01*
X139426515Y-57254624D01*
X139313730Y-57576943D01*
X139313726Y-57576955D01*
X139237736Y-57909891D01*
X139237734Y-57909907D01*
X139199500Y-58249244D01*
X113753325Y-58249244D01*
X113753673Y-55005815D01*
X113753681Y-55005789D01*
X113753681Y-54946843D01*
X113753682Y-54946839D01*
X113754461Y-54932975D01*
X113761100Y-54874055D01*
X113764640Y-54842639D01*
X113770817Y-54815576D01*
X113798531Y-54736382D01*
X113810577Y-54711371D01*
X113855220Y-54640328D01*
X113872525Y-54618628D01*
X113931866Y-54559292D01*
X113953557Y-54541996D01*
X114024616Y-54497352D01*
X114049615Y-54485315D01*
X114128822Y-54457606D01*
X114155881Y-54451432D01*
X114247006Y-54441171D01*
X114260861Y-54440393D01*
X114319033Y-54440399D01*
X114319055Y-54440393D01*
X170233847Y-54440393D01*
X170247731Y-54441172D01*
G37*
%TD.AperFunction*%
%TA.AperFunction,Conductor*%
G36*
X151330827Y-119605112D02*
G01*
X151372014Y-119628892D01*
X151499308Y-119663000D01*
X151499310Y-119663000D01*
X151639219Y-119663000D01*
X151639219Y-119664584D01*
X151699018Y-119673901D01*
X151751280Y-119720273D01*
X151770175Y-119787539D01*
X151749704Y-119854343D01*
X151733865Y-119873763D01*
X150670789Y-120936840D01*
X150614841Y-120992787D01*
X150614835Y-120992795D01*
X150575282Y-121061304D01*
X150575279Y-121061309D01*
X150561626Y-121112262D01*
X150554800Y-121137738D01*
X150554800Y-122652362D01*
X150568452Y-122703313D01*
X150575279Y-122728790D01*
X150575280Y-122728791D01*
X150610324Y-122789489D01*
X150610325Y-122789491D01*
X150614837Y-122797307D01*
X150614841Y-122797312D01*
X151462748Y-123645219D01*
X151496233Y-123706542D01*
X151491249Y-123776234D01*
X151449377Y-123832167D01*
X151383913Y-123856584D01*
X151375067Y-123856900D01*
X148901035Y-123856900D01*
X148833996Y-123837215D01*
X148793648Y-123794900D01*
X148782871Y-123776234D01*
X148760500Y-123737486D01*
X148667314Y-123644300D01*
X148610250Y-123611354D01*
X148553187Y-123578408D01*
X148489539Y-123561354D01*
X148425892Y-123544300D01*
X148294108Y-123544300D01*
X148166812Y-123578408D01*
X148052686Y-123644300D01*
X148052683Y-123644302D01*
X147959502Y-123737483D01*
X147959500Y-123737486D01*
X147893608Y-123851612D01*
X147859500Y-123978908D01*
X147859500Y-124110691D01*
X147893608Y-124237987D01*
X147926554Y-124295050D01*
X147959500Y-124352114D01*
X148052686Y-124445300D01*
X148166814Y-124511192D01*
X148294108Y-124545300D01*
X148294110Y-124545300D01*
X148425890Y-124545300D01*
X148425892Y-124545300D01*
X148553186Y-124511192D01*
X148616716Y-124474512D01*
X148678716Y-124457900D01*
X151348759Y-124457900D01*
X151415798Y-124477585D01*
X151461553Y-124530389D01*
X151471497Y-124599547D01*
X151468534Y-124613993D01*
X151467108Y-124619313D01*
X151467108Y-124619314D01*
X151433000Y-124746608D01*
X151433000Y-124878392D01*
X151445314Y-124924348D01*
X151467108Y-125005687D01*
X151500054Y-125062750D01*
X151533000Y-125119814D01*
X151626186Y-125213000D01*
X151740314Y-125278892D01*
X151867608Y-125313000D01*
X151867610Y-125313000D01*
X151957667Y-125313000D01*
X152024706Y-125332685D01*
X152045348Y-125349319D01*
X153333181Y-126637152D01*
X153366666Y-126698475D01*
X153369500Y-126724833D01*
X153369500Y-129026858D01*
X153349815Y-129093897D01*
X153297011Y-129139652D01*
X153246004Y-129150857D01*
X151502691Y-129157947D01*
X151435572Y-129138535D01*
X151394801Y-129095949D01*
X151370460Y-129053789D01*
X151314511Y-128997840D01*
X148216611Y-125899940D01*
X148216609Y-125899939D01*
X148216604Y-125899935D01*
X148148095Y-125860382D01*
X148148090Y-125860379D01*
X148122613Y-125853552D01*
X148071662Y-125839900D01*
X140346738Y-125839900D01*
X140308524Y-125850139D01*
X140270309Y-125860379D01*
X140270304Y-125860382D01*
X140201795Y-125899935D01*
X140201787Y-125899941D01*
X138670247Y-127431481D01*
X138608924Y-127464966D01*
X138582566Y-127467800D01*
X138492508Y-127467800D01*
X138365212Y-127501908D01*
X138251086Y-127567800D01*
X138251083Y-127567802D01*
X138157902Y-127660983D01*
X138157900Y-127660986D01*
X138092008Y-127775112D01*
X138061305Y-127889700D01*
X138057900Y-127902408D01*
X138057900Y-128034192D01*
X138072014Y-128086866D01*
X138092008Y-128161487D01*
X138112520Y-128197014D01*
X138157900Y-128275614D01*
X138251086Y-128368800D01*
X138365214Y-128434692D01*
X138492508Y-128468800D01*
X138492509Y-128468800D01*
X138500358Y-128470903D01*
X138500023Y-128472152D01*
X138556312Y-128497047D01*
X138594788Y-128555367D01*
X138595627Y-128625232D01*
X138563920Y-128679408D01*
X138252803Y-128990525D01*
X138252800Y-128990528D01*
X138245489Y-128997840D01*
X138189540Y-129053789D01*
X138149979Y-129122311D01*
X138144583Y-129142447D01*
X138131597Y-129160678D01*
X138121011Y-129168999D01*
X138114001Y-129180498D01*
X138094078Y-129190173D01*
X138076668Y-129203860D01*
X138063263Y-129205137D01*
X138051151Y-129211020D01*
X138031105Y-129212734D01*
X136634722Y-129218412D01*
X136567603Y-129199000D01*
X136521634Y-129146383D01*
X136511409Y-129077265D01*
X136540176Y-129013592D01*
X136546498Y-129006772D01*
X136687160Y-128866111D01*
X136726722Y-128797588D01*
X136747200Y-128721162D01*
X136747200Y-128721148D01*
X136747503Y-128718854D01*
X136748302Y-128717047D01*
X136749303Y-128713312D01*
X136749885Y-128713468D01*
X136775766Y-128654956D01*
X136782739Y-128647374D01*
X136847200Y-128582914D01*
X136913092Y-128468786D01*
X136947200Y-128341492D01*
X136947200Y-128209708D01*
X136913092Y-128082414D01*
X136847200Y-127968286D01*
X136754014Y-127875100D01*
X136696950Y-127842154D01*
X136639887Y-127809208D01*
X136576239Y-127792154D01*
X136512592Y-127775100D01*
X136380808Y-127775100D01*
X136253512Y-127809208D01*
X136139386Y-127875100D01*
X136139383Y-127875102D01*
X136046202Y-127968283D01*
X136046200Y-127968286D01*
X135980308Y-128082412D01*
X135949601Y-128197014D01*
X135946200Y-128209708D01*
X135946200Y-128341492D01*
X135950664Y-128358152D01*
X135980308Y-128468786D01*
X135980309Y-128468789D01*
X136025789Y-128547563D01*
X136042262Y-128615463D01*
X136019409Y-128681490D01*
X136006084Y-128697244D01*
X135854411Y-128848918D01*
X135705489Y-128997840D01*
X135649540Y-129053789D01*
X135609979Y-129122311D01*
X135602082Y-129151780D01*
X135589987Y-129169361D01*
X135578764Y-129178483D01*
X135571236Y-129190834D01*
X135552194Y-129200082D01*
X135535770Y-129213434D01*
X135521396Y-129215041D01*
X135508387Y-129221360D01*
X135488334Y-129223075D01*
X121332490Y-129280644D01*
X121265371Y-129261232D01*
X121219402Y-129208615D01*
X121209177Y-129139497D01*
X121237944Y-129075824D01*
X121244279Y-129068991D01*
X130688452Y-119624819D01*
X130749775Y-119591334D01*
X130776133Y-119588500D01*
X151268828Y-119588500D01*
X151330827Y-119605112D01*
G37*
%TD.AperFunction*%
%TA.AperFunction,Conductor*%
G36*
X144341508Y-126991185D02*
G01*
X144387263Y-127043989D01*
X144397207Y-127113147D01*
X144394245Y-127127586D01*
X144372000Y-127210608D01*
X144372000Y-127342392D01*
X144378762Y-127367629D01*
X144406108Y-127469687D01*
X144435264Y-127520185D01*
X144472000Y-127583814D01*
X144472002Y-127583816D01*
X144535681Y-127647495D01*
X144550384Y-127674422D01*
X144566977Y-127700241D01*
X144567868Y-127706441D01*
X144569166Y-127708818D01*
X144571999Y-127735170D01*
X144572000Y-127735176D01*
X144572000Y-127979424D01*
X144552315Y-128046463D01*
X144499511Y-128092218D01*
X144430353Y-128102162D01*
X144366797Y-128073137D01*
X144360319Y-128067105D01*
X144282916Y-127989702D01*
X144282914Y-127989700D01*
X144225850Y-127956754D01*
X144168787Y-127923808D01*
X144088919Y-127902408D01*
X144041492Y-127889700D01*
X143909708Y-127889700D01*
X143782412Y-127923808D01*
X143668286Y-127989700D01*
X143668283Y-127989702D01*
X143604605Y-128053381D01*
X143543282Y-128086866D01*
X143516924Y-128089700D01*
X141778538Y-128089700D01*
X141702110Y-128110178D01*
X141633589Y-128149740D01*
X141633586Y-128149742D01*
X140729541Y-129053787D01*
X140729535Y-129053795D01*
X140689981Y-129122306D01*
X140688513Y-129125850D01*
X140686475Y-129128377D01*
X140685915Y-129129349D01*
X140685763Y-129129261D01*
X140644669Y-129180251D01*
X140578373Y-129202312D01*
X140574458Y-129202390D01*
X139185094Y-129208040D01*
X139117975Y-129188628D01*
X139072006Y-129136011D01*
X139061781Y-129066893D01*
X139090548Y-129003220D01*
X139096883Y-128996387D01*
X141085452Y-127007819D01*
X141146775Y-126974334D01*
X141173133Y-126971500D01*
X144274469Y-126971500D01*
X144341508Y-126991185D01*
G37*
%TD.AperFunction*%
%TA.AperFunction,Conductor*%
G36*
X147923306Y-126460585D02*
G01*
X147943948Y-126477219D01*
X150417762Y-128951033D01*
X150451247Y-129012356D01*
X150446263Y-129082048D01*
X150404391Y-129137981D01*
X150338927Y-129162398D01*
X150330585Y-129162713D01*
X148727769Y-129169231D01*
X148660650Y-129149819D01*
X148639584Y-129132913D01*
X147572719Y-128066048D01*
X147539234Y-128004725D01*
X147536400Y-127978367D01*
X147536400Y-127888310D01*
X147536400Y-127888308D01*
X147502292Y-127761014D01*
X147436400Y-127646886D01*
X147343214Y-127553700D01*
X147253508Y-127501908D01*
X147229087Y-127487808D01*
X147154414Y-127467800D01*
X147101792Y-127453700D01*
X146970008Y-127453700D01*
X146842712Y-127487808D01*
X146728586Y-127553700D01*
X146728583Y-127553702D01*
X146635402Y-127646883D01*
X146635400Y-127646886D01*
X146569508Y-127761012D01*
X146535400Y-127888308D01*
X146535400Y-128020092D01*
X146537932Y-128029540D01*
X146569508Y-128147387D01*
X146577649Y-128161487D01*
X146635400Y-128261514D01*
X146728586Y-128354700D01*
X146797471Y-128394471D01*
X146846283Y-128422653D01*
X146894499Y-128473220D01*
X146907721Y-128541827D01*
X146881753Y-128606692D01*
X146871965Y-128617721D01*
X146814835Y-128674851D01*
X146748943Y-128788977D01*
X146714835Y-128916273D01*
X146714835Y-129006329D01*
X146706190Y-129035766D01*
X146699667Y-129065757D01*
X146695912Y-129070772D01*
X146695150Y-129073368D01*
X146678515Y-129094011D01*
X146630728Y-129141797D01*
X146569405Y-129175281D01*
X146543552Y-129178114D01*
X144753770Y-129185393D01*
X144686651Y-129165981D01*
X144640682Y-129113364D01*
X144630457Y-129044246D01*
X144659224Y-128980573D01*
X144665566Y-128973732D01*
X145112960Y-128526340D01*
X145152522Y-128457817D01*
X145173000Y-128381391D01*
X145173000Y-128302267D01*
X145173000Y-127735176D01*
X145192685Y-127668137D01*
X145209319Y-127647495D01*
X145209931Y-127646883D01*
X145273000Y-127583814D01*
X145338892Y-127469686D01*
X145373000Y-127342392D01*
X145373000Y-127342383D01*
X145374061Y-127334332D01*
X145377384Y-127334769D01*
X145392685Y-127282662D01*
X145445489Y-127236907D01*
X145514647Y-127226963D01*
X145529078Y-127229922D01*
X145624908Y-127255600D01*
X145624911Y-127255600D01*
X145756690Y-127255600D01*
X145756692Y-127255600D01*
X145883986Y-127221492D01*
X145998114Y-127155600D01*
X146091300Y-127062414D01*
X146157192Y-126948286D01*
X146191300Y-126820992D01*
X146191300Y-126689208D01*
X146166591Y-126596991D01*
X146168254Y-126527143D01*
X146207417Y-126469281D01*
X146271645Y-126441777D01*
X146286366Y-126440900D01*
X147856267Y-126440900D01*
X147923306Y-126460585D01*
G37*
%TD.AperFunction*%
%TA.AperFunction,Conductor*%
G36*
X153560306Y-124477585D02*
G01*
X153580948Y-124494219D01*
X158006899Y-128920170D01*
X158040384Y-128981493D01*
X158035400Y-129051185D01*
X157993528Y-129107118D01*
X157928064Y-129131535D01*
X157919722Y-129131850D01*
X156635004Y-129137074D01*
X156567885Y-129117662D01*
X156521916Y-129065045D01*
X156510500Y-129013075D01*
X156510500Y-128230439D01*
X156490020Y-128154009D01*
X156490017Y-128154004D01*
X156450464Y-128085495D01*
X156450458Y-128085487D01*
X155476819Y-127111848D01*
X155443334Y-127050525D01*
X155440500Y-127024167D01*
X155440500Y-126934110D01*
X155440500Y-126934108D01*
X155406392Y-126806814D01*
X155340500Y-126692686D01*
X155247314Y-126599500D01*
X155182213Y-126561914D01*
X155133187Y-126533608D01*
X155042981Y-126509438D01*
X155005892Y-126499500D01*
X154874108Y-126499500D01*
X154746812Y-126533608D01*
X154632686Y-126599500D01*
X154632683Y-126599502D01*
X154539502Y-126692683D01*
X154539500Y-126692686D01*
X154473608Y-126806812D01*
X154469809Y-126820991D01*
X154439500Y-126934108D01*
X154439500Y-127065892D01*
X154444168Y-127083314D01*
X154473608Y-127193187D01*
X154493109Y-127226963D01*
X154539500Y-127307314D01*
X154632686Y-127400500D01*
X154746814Y-127466392D01*
X154874108Y-127500500D01*
X154874110Y-127500500D01*
X154964167Y-127500500D01*
X155031206Y-127520185D01*
X155051848Y-127536819D01*
X155873181Y-128358152D01*
X155906666Y-128419475D01*
X155909500Y-128445833D01*
X155909500Y-129016528D01*
X155889815Y-129083567D01*
X155837011Y-129129322D01*
X155786004Y-129140527D01*
X154095004Y-129147404D01*
X154027885Y-129127992D01*
X153981916Y-129075375D01*
X153970500Y-129023405D01*
X153970500Y-126509439D01*
X153967837Y-126499500D01*
X153950021Y-126433011D01*
X153926233Y-126391808D01*
X153910464Y-126364495D01*
X153910458Y-126364487D01*
X152470319Y-124924348D01*
X152436834Y-124863025D01*
X152434000Y-124836667D01*
X152434000Y-124746610D01*
X152434000Y-124746608D01*
X152399892Y-124619314D01*
X152399891Y-124619313D01*
X152398466Y-124613993D01*
X152400129Y-124544143D01*
X152439292Y-124486281D01*
X152503520Y-124458777D01*
X152518241Y-124457900D01*
X153493267Y-124457900D01*
X153560306Y-124477585D01*
G37*
%TD.AperFunction*%
%TA.AperFunction,Conductor*%
G36*
X162635088Y-127291188D02*
G01*
X162669838Y-127300500D01*
X162748962Y-127300500D01*
X164924167Y-127300500D01*
X164991206Y-127320185D01*
X165011848Y-127336819D01*
X166033181Y-128358152D01*
X166066666Y-128419475D01*
X166069500Y-128445833D01*
X166069500Y-128975209D01*
X166049815Y-129042248D01*
X165997011Y-129088003D01*
X165946004Y-129099208D01*
X164172500Y-129106421D01*
X164105381Y-129087009D01*
X164073619Y-129057906D01*
X164070460Y-129053789D01*
X162515315Y-127498644D01*
X162481830Y-127437321D01*
X162486814Y-127367629D01*
X162528686Y-127311696D01*
X162594150Y-127287279D01*
X162635088Y-127291188D01*
G37*
%TD.AperFunction*%
%TA.AperFunction,Conductor*%
G36*
X167021264Y-116688344D02*
G01*
X167051251Y-116694868D01*
X167056266Y-116698622D01*
X167058863Y-116699385D01*
X167079505Y-116716019D01*
X167143186Y-116779700D01*
X167214124Y-116820656D01*
X167262338Y-116871221D01*
X167275562Y-116939828D01*
X167249594Y-117004693D01*
X167239804Y-117015723D01*
X166294148Y-117961381D01*
X166232825Y-117994866D01*
X166206467Y-117997700D01*
X155409833Y-117997700D01*
X155342794Y-117978015D01*
X155297039Y-117925211D01*
X155287095Y-117856053D01*
X155316120Y-117792497D01*
X155322152Y-117786019D01*
X156392152Y-116716019D01*
X156453475Y-116682534D01*
X156479833Y-116679700D01*
X166991824Y-116679700D01*
X167021264Y-116688344D01*
G37*
%TD.AperFunction*%
%TD*%
M02*
