%TF.GenerationSoftware,KiCad,Pcbnew,9.0.5-1.fc42*%
%TF.CreationDate,2025-11-09T17:28:59+08:00*%
%TF.ProjectId,JACC64-16K,4a414343-3634-42d3-9136-4b2e6b696361,rev?*%
%TF.SameCoordinates,Original*%
%TF.FileFunction,Legend,Bot*%
%TF.FilePolarity,Positive*%
%FSLAX46Y46*%
G04 Gerber Fmt 4.6, Leading zero omitted, Abs format (unit mm)*
G04 Created by KiCad (PCBNEW 9.0.5-1.fc42) date 2025-11-09 17:28:59*
%MOMM*%
%LPD*%
G01*
G04 APERTURE LIST*
G04 Aperture macros list*
%AMRoundRect*
0 Rectangle with rounded corners*
0 $1 Rounding radius*
0 $2 $3 $4 $5 $6 $7 $8 $9 X,Y pos of 4 corners*
0 Add a 4 corners polygon primitive as box body*
4,1,4,$2,$3,$4,$5,$6,$7,$8,$9,$2,$3,0*
0 Add four circle primitives for the rounded corners*
1,1,$1+$1,$2,$3*
1,1,$1+$1,$4,$5*
1,1,$1+$1,$6,$7*
1,1,$1+$1,$8,$9*
0 Add four rect primitives between the rounded corners*
20,1,$1+$1,$2,$3,$4,$5,0*
20,1,$1+$1,$4,$5,$6,$7,0*
20,1,$1+$1,$6,$7,$8,$9,0*
20,1,$1+$1,$8,$9,$2,$3,0*%
G04 Aperture macros list end*
%ADD10C,0.100000*%
%ADD11C,0.000000*%
%ADD12RoundRect,0.249999X0.850001X0.850001X-0.850001X0.850001X-0.850001X-0.850001X0.850001X-0.850001X0*%
%ADD13C,2.200000*%
%ADD14C,2.000000*%
%ADD15C,1.600000*%
%ADD16R,1.800000X1.800000*%
%ADD17C,1.800000*%
%ADD18RoundRect,0.250000X0.550000X-0.550000X0.550000X0.550000X-0.550000X0.550000X-0.550000X-0.550000X0*%
G04 APERTURE END LIST*
D10*
X169182922Y-55516570D02*
X168725779Y-55516570D01*
X168954351Y-56316570D02*
X168954351Y-55516570D01*
X168459112Y-56316570D02*
X168459112Y-55516570D01*
X168459112Y-55897522D02*
X168001969Y-55897522D01*
X168001969Y-56316570D02*
X168001969Y-55516570D01*
X167621017Y-56316570D02*
X167621017Y-55516570D01*
X167278161Y-56278475D02*
X167163875Y-56316570D01*
X167163875Y-56316570D02*
X166973399Y-56316570D01*
X166973399Y-56316570D02*
X166897208Y-56278475D01*
X166897208Y-56278475D02*
X166859113Y-56240379D01*
X166859113Y-56240379D02*
X166821018Y-56164189D01*
X166821018Y-56164189D02*
X166821018Y-56087998D01*
X166821018Y-56087998D02*
X166859113Y-56011808D01*
X166859113Y-56011808D02*
X166897208Y-55973713D01*
X166897208Y-55973713D02*
X166973399Y-55935617D01*
X166973399Y-55935617D02*
X167125780Y-55897522D01*
X167125780Y-55897522D02*
X167201970Y-55859427D01*
X167201970Y-55859427D02*
X167240065Y-55821332D01*
X167240065Y-55821332D02*
X167278161Y-55745141D01*
X167278161Y-55745141D02*
X167278161Y-55668951D01*
X167278161Y-55668951D02*
X167240065Y-55592760D01*
X167240065Y-55592760D02*
X167201970Y-55554665D01*
X167201970Y-55554665D02*
X167125780Y-55516570D01*
X167125780Y-55516570D02*
X166935303Y-55516570D01*
X166935303Y-55516570D02*
X166821018Y-55554665D01*
X165906732Y-56278475D02*
X165792446Y-56316570D01*
X165792446Y-56316570D02*
X165601970Y-56316570D01*
X165601970Y-56316570D02*
X165525779Y-56278475D01*
X165525779Y-56278475D02*
X165487684Y-56240379D01*
X165487684Y-56240379D02*
X165449589Y-56164189D01*
X165449589Y-56164189D02*
X165449589Y-56087998D01*
X165449589Y-56087998D02*
X165487684Y-56011808D01*
X165487684Y-56011808D02*
X165525779Y-55973713D01*
X165525779Y-55973713D02*
X165601970Y-55935617D01*
X165601970Y-55935617D02*
X165754351Y-55897522D01*
X165754351Y-55897522D02*
X165830541Y-55859427D01*
X165830541Y-55859427D02*
X165868636Y-55821332D01*
X165868636Y-55821332D02*
X165906732Y-55745141D01*
X165906732Y-55745141D02*
X165906732Y-55668951D01*
X165906732Y-55668951D02*
X165868636Y-55592760D01*
X165868636Y-55592760D02*
X165830541Y-55554665D01*
X165830541Y-55554665D02*
X165754351Y-55516570D01*
X165754351Y-55516570D02*
X165563874Y-55516570D01*
X165563874Y-55516570D02*
X165449589Y-55554665D01*
X165106731Y-56316570D02*
X165106731Y-55516570D01*
X164725779Y-56316570D02*
X164725779Y-55516570D01*
X164725779Y-55516570D02*
X164535303Y-55516570D01*
X164535303Y-55516570D02*
X164421017Y-55554665D01*
X164421017Y-55554665D02*
X164344827Y-55630855D01*
X164344827Y-55630855D02*
X164306732Y-55707046D01*
X164306732Y-55707046D02*
X164268636Y-55859427D01*
X164268636Y-55859427D02*
X164268636Y-55973713D01*
X164268636Y-55973713D02*
X164306732Y-56126094D01*
X164306732Y-56126094D02*
X164344827Y-56202284D01*
X164344827Y-56202284D02*
X164421017Y-56278475D01*
X164421017Y-56278475D02*
X164535303Y-56316570D01*
X164535303Y-56316570D02*
X164725779Y-56316570D01*
X163925779Y-55897522D02*
X163659113Y-55897522D01*
X163544827Y-56316570D02*
X163925779Y-56316570D01*
X163925779Y-56316570D02*
X163925779Y-55516570D01*
X163925779Y-55516570D02*
X163544827Y-55516570D01*
X162592445Y-56316570D02*
X162592445Y-55516570D01*
X162592445Y-55516570D02*
X162401969Y-55516570D01*
X162401969Y-55516570D02*
X162287683Y-55554665D01*
X162287683Y-55554665D02*
X162211493Y-55630855D01*
X162211493Y-55630855D02*
X162173398Y-55707046D01*
X162173398Y-55707046D02*
X162135302Y-55859427D01*
X162135302Y-55859427D02*
X162135302Y-55973713D01*
X162135302Y-55973713D02*
X162173398Y-56126094D01*
X162173398Y-56126094D02*
X162211493Y-56202284D01*
X162211493Y-56202284D02*
X162287683Y-56278475D01*
X162287683Y-56278475D02*
X162401969Y-56316570D01*
X162401969Y-56316570D02*
X162592445Y-56316570D01*
X161640064Y-55516570D02*
X161487683Y-55516570D01*
X161487683Y-55516570D02*
X161411493Y-55554665D01*
X161411493Y-55554665D02*
X161335302Y-55630855D01*
X161335302Y-55630855D02*
X161297207Y-55783236D01*
X161297207Y-55783236D02*
X161297207Y-56049903D01*
X161297207Y-56049903D02*
X161335302Y-56202284D01*
X161335302Y-56202284D02*
X161411493Y-56278475D01*
X161411493Y-56278475D02*
X161487683Y-56316570D01*
X161487683Y-56316570D02*
X161640064Y-56316570D01*
X161640064Y-56316570D02*
X161716255Y-56278475D01*
X161716255Y-56278475D02*
X161792445Y-56202284D01*
X161792445Y-56202284D02*
X161830541Y-56049903D01*
X161830541Y-56049903D02*
X161830541Y-55783236D01*
X161830541Y-55783236D02*
X161792445Y-55630855D01*
X161792445Y-55630855D02*
X161716255Y-55554665D01*
X161716255Y-55554665D02*
X161640064Y-55516570D01*
X161030541Y-55516570D02*
X160840065Y-56316570D01*
X160840065Y-56316570D02*
X160687684Y-55745141D01*
X160687684Y-55745141D02*
X160535303Y-56316570D01*
X160535303Y-56316570D02*
X160344827Y-55516570D01*
X160040064Y-56316570D02*
X160040064Y-55516570D01*
X160040064Y-55516570D02*
X159582921Y-56316570D01*
X159582921Y-56316570D02*
X159582921Y-55516570D01*
X120882053Y-93351134D02*
X119882053Y-93113039D01*
X119882053Y-93113039D02*
X120596339Y-92922563D01*
X120596339Y-92922563D02*
X119882053Y-92732087D01*
X119882053Y-92732087D02*
X120882053Y-92493992D01*
X119929673Y-91732087D02*
X119882053Y-91827325D01*
X119882053Y-91827325D02*
X119882053Y-92017801D01*
X119882053Y-92017801D02*
X119929673Y-92113039D01*
X119929673Y-92113039D02*
X120024911Y-92160658D01*
X120024911Y-92160658D02*
X120405863Y-92160658D01*
X120405863Y-92160658D02*
X120501101Y-92113039D01*
X120501101Y-92113039D02*
X120548720Y-92017801D01*
X120548720Y-92017801D02*
X120548720Y-91827325D01*
X120548720Y-91827325D02*
X120501101Y-91732087D01*
X120501101Y-91732087D02*
X120405863Y-91684468D01*
X120405863Y-91684468D02*
X120310625Y-91684468D01*
X120310625Y-91684468D02*
X120215387Y-92160658D01*
X119929673Y-90541610D02*
X119882053Y-90446372D01*
X119882053Y-90446372D02*
X119882053Y-90255896D01*
X119882053Y-90255896D02*
X119929673Y-90160658D01*
X119929673Y-90160658D02*
X120024911Y-90113039D01*
X120024911Y-90113039D02*
X120072530Y-90113039D01*
X120072530Y-90113039D02*
X120167768Y-90160658D01*
X120167768Y-90160658D02*
X120215387Y-90255896D01*
X120215387Y-90255896D02*
X120215387Y-90398753D01*
X120215387Y-90398753D02*
X120263006Y-90493991D01*
X120263006Y-90493991D02*
X120358244Y-90541610D01*
X120358244Y-90541610D02*
X120405863Y-90541610D01*
X120405863Y-90541610D02*
X120501101Y-90493991D01*
X120501101Y-90493991D02*
X120548720Y-90398753D01*
X120548720Y-90398753D02*
X120548720Y-90255896D01*
X120548720Y-90255896D02*
X120501101Y-90160658D01*
X120548720Y-89827324D02*
X120548720Y-89446372D01*
X120882053Y-89684467D02*
X120024911Y-89684467D01*
X120024911Y-89684467D02*
X119929673Y-89636848D01*
X119929673Y-89636848D02*
X119882053Y-89541610D01*
X119882053Y-89541610D02*
X119882053Y-89446372D01*
X119882053Y-88684467D02*
X120405863Y-88684467D01*
X120405863Y-88684467D02*
X120501101Y-88732086D01*
X120501101Y-88732086D02*
X120548720Y-88827324D01*
X120548720Y-88827324D02*
X120548720Y-89017800D01*
X120548720Y-89017800D02*
X120501101Y-89113038D01*
X119929673Y-88684467D02*
X119882053Y-88779705D01*
X119882053Y-88779705D02*
X119882053Y-89017800D01*
X119882053Y-89017800D02*
X119929673Y-89113038D01*
X119929673Y-89113038D02*
X120024911Y-89160657D01*
X120024911Y-89160657D02*
X120120149Y-89160657D01*
X120120149Y-89160657D02*
X120215387Y-89113038D01*
X120215387Y-89113038D02*
X120263006Y-89017800D01*
X120263006Y-89017800D02*
X120263006Y-88779705D01*
X120263006Y-88779705D02*
X120310625Y-88684467D01*
X120548720Y-88208276D02*
X119882053Y-88208276D01*
X120453482Y-88208276D02*
X120501101Y-88160657D01*
X120501101Y-88160657D02*
X120548720Y-88065419D01*
X120548720Y-88065419D02*
X120548720Y-87922562D01*
X120548720Y-87922562D02*
X120501101Y-87827324D01*
X120501101Y-87827324D02*
X120405863Y-87779705D01*
X120405863Y-87779705D02*
X119882053Y-87779705D01*
X119882053Y-86874943D02*
X120882053Y-86874943D01*
X119929673Y-86874943D02*
X119882053Y-86970181D01*
X119882053Y-86970181D02*
X119882053Y-87160657D01*
X119882053Y-87160657D02*
X119929673Y-87255895D01*
X119929673Y-87255895D02*
X119977292Y-87303514D01*
X119977292Y-87303514D02*
X120072530Y-87351133D01*
X120072530Y-87351133D02*
X120358244Y-87351133D01*
X120358244Y-87351133D02*
X120453482Y-87303514D01*
X120453482Y-87303514D02*
X120501101Y-87255895D01*
X120501101Y-87255895D02*
X120548720Y-87160657D01*
X120548720Y-87160657D02*
X120548720Y-86970181D01*
X120548720Y-86970181D02*
X120501101Y-86874943D01*
X119882053Y-85493990D02*
X119929673Y-85589228D01*
X119929673Y-85589228D02*
X119977292Y-85636847D01*
X119977292Y-85636847D02*
X120072530Y-85684466D01*
X120072530Y-85684466D02*
X120358244Y-85684466D01*
X120358244Y-85684466D02*
X120453482Y-85636847D01*
X120453482Y-85636847D02*
X120501101Y-85589228D01*
X120501101Y-85589228D02*
X120548720Y-85493990D01*
X120548720Y-85493990D02*
X120548720Y-85351133D01*
X120548720Y-85351133D02*
X120501101Y-85255895D01*
X120501101Y-85255895D02*
X120453482Y-85208276D01*
X120453482Y-85208276D02*
X120358244Y-85160657D01*
X120358244Y-85160657D02*
X120072530Y-85160657D01*
X120072530Y-85160657D02*
X119977292Y-85208276D01*
X119977292Y-85208276D02*
X119929673Y-85255895D01*
X119929673Y-85255895D02*
X119882053Y-85351133D01*
X119882053Y-85351133D02*
X119882053Y-85493990D01*
X120548720Y-84732085D02*
X119882053Y-84732085D01*
X120453482Y-84732085D02*
X120501101Y-84684466D01*
X120501101Y-84684466D02*
X120548720Y-84589228D01*
X120548720Y-84589228D02*
X120548720Y-84446371D01*
X120548720Y-84446371D02*
X120501101Y-84351133D01*
X120501101Y-84351133D02*
X120405863Y-84303514D01*
X120405863Y-84303514D02*
X119882053Y-84303514D01*
X120548720Y-83208275D02*
X120548720Y-82827323D01*
X120882053Y-83065418D02*
X120024911Y-83065418D01*
X120024911Y-83065418D02*
X119929673Y-83017799D01*
X119929673Y-83017799D02*
X119882053Y-82922561D01*
X119882053Y-82922561D02*
X119882053Y-82827323D01*
X119882053Y-82493989D02*
X120882053Y-82493989D01*
X119882053Y-82065418D02*
X120405863Y-82065418D01*
X120405863Y-82065418D02*
X120501101Y-82113037D01*
X120501101Y-82113037D02*
X120548720Y-82208275D01*
X120548720Y-82208275D02*
X120548720Y-82351132D01*
X120548720Y-82351132D02*
X120501101Y-82446370D01*
X120501101Y-82446370D02*
X120453482Y-82493989D01*
X119929673Y-81208275D02*
X119882053Y-81303513D01*
X119882053Y-81303513D02*
X119882053Y-81493989D01*
X119882053Y-81493989D02*
X119929673Y-81589227D01*
X119929673Y-81589227D02*
X120024911Y-81636846D01*
X120024911Y-81636846D02*
X120405863Y-81636846D01*
X120405863Y-81636846D02*
X120501101Y-81589227D01*
X120501101Y-81589227D02*
X120548720Y-81493989D01*
X120548720Y-81493989D02*
X120548720Y-81303513D01*
X120548720Y-81303513D02*
X120501101Y-81208275D01*
X120501101Y-81208275D02*
X120405863Y-81160656D01*
X120405863Y-81160656D02*
X120310625Y-81160656D01*
X120310625Y-81160656D02*
X120215387Y-81636846D01*
X119929673Y-80017798D02*
X119882053Y-79922560D01*
X119882053Y-79922560D02*
X119882053Y-79732084D01*
X119882053Y-79732084D02*
X119929673Y-79636846D01*
X119929673Y-79636846D02*
X120024911Y-79589227D01*
X120024911Y-79589227D02*
X120072530Y-79589227D01*
X120072530Y-79589227D02*
X120167768Y-79636846D01*
X120167768Y-79636846D02*
X120215387Y-79732084D01*
X120215387Y-79732084D02*
X120215387Y-79874941D01*
X120215387Y-79874941D02*
X120263006Y-79970179D01*
X120263006Y-79970179D02*
X120358244Y-80017798D01*
X120358244Y-80017798D02*
X120405863Y-80017798D01*
X120405863Y-80017798D02*
X120501101Y-79970179D01*
X120501101Y-79970179D02*
X120548720Y-79874941D01*
X120548720Y-79874941D02*
X120548720Y-79732084D01*
X120548720Y-79732084D02*
X120501101Y-79636846D01*
X119882053Y-79160655D02*
X120882053Y-79160655D01*
X119882053Y-78732084D02*
X120405863Y-78732084D01*
X120405863Y-78732084D02*
X120501101Y-78779703D01*
X120501101Y-78779703D02*
X120548720Y-78874941D01*
X120548720Y-78874941D02*
X120548720Y-79017798D01*
X120548720Y-79017798D02*
X120501101Y-79113036D01*
X120501101Y-79113036D02*
X120453482Y-79160655D01*
X119882053Y-78113036D02*
X119929673Y-78208274D01*
X119929673Y-78208274D02*
X119977292Y-78255893D01*
X119977292Y-78255893D02*
X120072530Y-78303512D01*
X120072530Y-78303512D02*
X120358244Y-78303512D01*
X120358244Y-78303512D02*
X120453482Y-78255893D01*
X120453482Y-78255893D02*
X120501101Y-78208274D01*
X120501101Y-78208274D02*
X120548720Y-78113036D01*
X120548720Y-78113036D02*
X120548720Y-77970179D01*
X120548720Y-77970179D02*
X120501101Y-77874941D01*
X120501101Y-77874941D02*
X120453482Y-77827322D01*
X120453482Y-77827322D02*
X120358244Y-77779703D01*
X120358244Y-77779703D02*
X120072530Y-77779703D01*
X120072530Y-77779703D02*
X119977292Y-77827322D01*
X119977292Y-77827322D02*
X119929673Y-77874941D01*
X119929673Y-77874941D02*
X119882053Y-77970179D01*
X119882053Y-77970179D02*
X119882053Y-78113036D01*
X120548720Y-76922560D02*
X119882053Y-76922560D01*
X120548720Y-77351131D02*
X120024911Y-77351131D01*
X120024911Y-77351131D02*
X119929673Y-77303512D01*
X119929673Y-77303512D02*
X119882053Y-77208274D01*
X119882053Y-77208274D02*
X119882053Y-77065417D01*
X119882053Y-77065417D02*
X119929673Y-76970179D01*
X119929673Y-76970179D02*
X119977292Y-76922560D01*
X119882053Y-76303512D02*
X119929673Y-76398750D01*
X119929673Y-76398750D02*
X120024911Y-76446369D01*
X120024911Y-76446369D02*
X120882053Y-76446369D01*
X119882053Y-75493988D02*
X120882053Y-75493988D01*
X119929673Y-75493988D02*
X119882053Y-75589226D01*
X119882053Y-75589226D02*
X119882053Y-75779702D01*
X119882053Y-75779702D02*
X119929673Y-75874940D01*
X119929673Y-75874940D02*
X119977292Y-75922559D01*
X119977292Y-75922559D02*
X120072530Y-75970178D01*
X120072530Y-75970178D02*
X120358244Y-75970178D01*
X120358244Y-75970178D02*
X120453482Y-75922559D01*
X120453482Y-75922559D02*
X120501101Y-75874940D01*
X120501101Y-75874940D02*
X120548720Y-75779702D01*
X120548720Y-75779702D02*
X120548720Y-75589226D01*
X120548720Y-75589226D02*
X120501101Y-75493988D01*
X119929673Y-74636845D02*
X119882053Y-74732083D01*
X119882053Y-74732083D02*
X119882053Y-74922559D01*
X119882053Y-74922559D02*
X119929673Y-75017797D01*
X119929673Y-75017797D02*
X120024911Y-75065416D01*
X120024911Y-75065416D02*
X120405863Y-75065416D01*
X120405863Y-75065416D02*
X120501101Y-75017797D01*
X120501101Y-75017797D02*
X120548720Y-74922559D01*
X120548720Y-74922559D02*
X120548720Y-74732083D01*
X120548720Y-74732083D02*
X120501101Y-74636845D01*
X120501101Y-74636845D02*
X120405863Y-74589226D01*
X120405863Y-74589226D02*
X120310625Y-74589226D01*
X120310625Y-74589226D02*
X120215387Y-75065416D01*
X119882053Y-74160654D02*
X120548720Y-74160654D01*
X120358244Y-74160654D02*
X120453482Y-74113035D01*
X120453482Y-74113035D02*
X120501101Y-74065416D01*
X120501101Y-74065416D02*
X120548720Y-73970178D01*
X120548720Y-73970178D02*
X120548720Y-73874940D01*
X119929673Y-73589225D02*
X119882053Y-73493987D01*
X119882053Y-73493987D02*
X119882053Y-73303511D01*
X119882053Y-73303511D02*
X119929673Y-73208273D01*
X119929673Y-73208273D02*
X120024911Y-73160654D01*
X120024911Y-73160654D02*
X120072530Y-73160654D01*
X120072530Y-73160654D02*
X120167768Y-73208273D01*
X120167768Y-73208273D02*
X120215387Y-73303511D01*
X120215387Y-73303511D02*
X120215387Y-73446368D01*
X120215387Y-73446368D02*
X120263006Y-73541606D01*
X120263006Y-73541606D02*
X120358244Y-73589225D01*
X120358244Y-73589225D02*
X120405863Y-73589225D01*
X120405863Y-73589225D02*
X120501101Y-73541606D01*
X120501101Y-73541606D02*
X120548720Y-73446368D01*
X120548720Y-73446368D02*
X120548720Y-73303511D01*
X120548720Y-73303511D02*
X120501101Y-73208273D01*
X119882053Y-71827320D02*
X119929673Y-71922558D01*
X119929673Y-71922558D02*
X119977292Y-71970177D01*
X119977292Y-71970177D02*
X120072530Y-72017796D01*
X120072530Y-72017796D02*
X120358244Y-72017796D01*
X120358244Y-72017796D02*
X120453482Y-71970177D01*
X120453482Y-71970177D02*
X120501101Y-71922558D01*
X120501101Y-71922558D02*
X120548720Y-71827320D01*
X120548720Y-71827320D02*
X120548720Y-71684463D01*
X120548720Y-71684463D02*
X120501101Y-71589225D01*
X120501101Y-71589225D02*
X120453482Y-71541606D01*
X120453482Y-71541606D02*
X120358244Y-71493987D01*
X120358244Y-71493987D02*
X120072530Y-71493987D01*
X120072530Y-71493987D02*
X119977292Y-71541606D01*
X119977292Y-71541606D02*
X119929673Y-71589225D01*
X119929673Y-71589225D02*
X119882053Y-71684463D01*
X119882053Y-71684463D02*
X119882053Y-71827320D01*
X120548720Y-71208272D02*
X120548720Y-70827320D01*
X119882053Y-71065415D02*
X120739196Y-71065415D01*
X120739196Y-71065415D02*
X120834434Y-71017796D01*
X120834434Y-71017796D02*
X120882053Y-70922558D01*
X120882053Y-70922558D02*
X120882053Y-70827320D01*
X120548720Y-69303510D02*
X119739196Y-69303510D01*
X119739196Y-69303510D02*
X119643958Y-69351129D01*
X119643958Y-69351129D02*
X119596339Y-69398748D01*
X119596339Y-69398748D02*
X119548720Y-69493986D01*
X119548720Y-69493986D02*
X119548720Y-69636843D01*
X119548720Y-69636843D02*
X119596339Y-69732081D01*
X119929673Y-69303510D02*
X119882053Y-69398748D01*
X119882053Y-69398748D02*
X119882053Y-69589224D01*
X119882053Y-69589224D02*
X119929673Y-69684462D01*
X119929673Y-69684462D02*
X119977292Y-69732081D01*
X119977292Y-69732081D02*
X120072530Y-69779700D01*
X120072530Y-69779700D02*
X120358244Y-69779700D01*
X120358244Y-69779700D02*
X120453482Y-69732081D01*
X120453482Y-69732081D02*
X120501101Y-69684462D01*
X120501101Y-69684462D02*
X120548720Y-69589224D01*
X120548720Y-69589224D02*
X120548720Y-69398748D01*
X120548720Y-69398748D02*
X120501101Y-69303510D01*
X119882053Y-68827319D02*
X120548720Y-68827319D01*
X120882053Y-68827319D02*
X120834434Y-68874938D01*
X120834434Y-68874938D02*
X120786815Y-68827319D01*
X120786815Y-68827319D02*
X120834434Y-68779700D01*
X120834434Y-68779700D02*
X120882053Y-68827319D01*
X120882053Y-68827319D02*
X120786815Y-68827319D01*
X119882053Y-67922558D02*
X120405863Y-67922558D01*
X120405863Y-67922558D02*
X120501101Y-67970177D01*
X120501101Y-67970177D02*
X120548720Y-68065415D01*
X120548720Y-68065415D02*
X120548720Y-68255891D01*
X120548720Y-68255891D02*
X120501101Y-68351129D01*
X119929673Y-67922558D02*
X119882053Y-68017796D01*
X119882053Y-68017796D02*
X119882053Y-68255891D01*
X119882053Y-68255891D02*
X119929673Y-68351129D01*
X119929673Y-68351129D02*
X120024911Y-68398748D01*
X120024911Y-68398748D02*
X120120149Y-68398748D01*
X120120149Y-68398748D02*
X120215387Y-68351129D01*
X120215387Y-68351129D02*
X120263006Y-68255891D01*
X120263006Y-68255891D02*
X120263006Y-68017796D01*
X120263006Y-68017796D02*
X120310625Y-67922558D01*
X120548720Y-67446367D02*
X119882053Y-67446367D01*
X120453482Y-67446367D02*
X120501101Y-67398748D01*
X120501101Y-67398748D02*
X120548720Y-67303510D01*
X120548720Y-67303510D02*
X120548720Y-67160653D01*
X120548720Y-67160653D02*
X120501101Y-67065415D01*
X120501101Y-67065415D02*
X120405863Y-67017796D01*
X120405863Y-67017796D02*
X119882053Y-67017796D01*
X120548720Y-66684462D02*
X120548720Y-66303510D01*
X120882053Y-66541605D02*
X120024911Y-66541605D01*
X120024911Y-66541605D02*
X119929673Y-66493986D01*
X119929673Y-66493986D02*
X119882053Y-66398748D01*
X119882053Y-66398748D02*
X119882053Y-66303510D01*
X119929673Y-66017795D02*
X119882053Y-65922557D01*
X119882053Y-65922557D02*
X119882053Y-65732081D01*
X119882053Y-65732081D02*
X119929673Y-65636843D01*
X119929673Y-65636843D02*
X120024911Y-65589224D01*
X120024911Y-65589224D02*
X120072530Y-65589224D01*
X120072530Y-65589224D02*
X120167768Y-65636843D01*
X120167768Y-65636843D02*
X120215387Y-65732081D01*
X120215387Y-65732081D02*
X120215387Y-65874938D01*
X120215387Y-65874938D02*
X120263006Y-65970176D01*
X120263006Y-65970176D02*
X120358244Y-66017795D01*
X120358244Y-66017795D02*
X120405863Y-66017795D01*
X120405863Y-66017795D02*
X120501101Y-65970176D01*
X120501101Y-65970176D02*
X120548720Y-65874938D01*
X120548720Y-65874938D02*
X120548720Y-65732081D01*
X120548720Y-65732081D02*
X120501101Y-65636843D01*
X119977292Y-65160652D02*
X119929673Y-65113033D01*
X119929673Y-65113033D02*
X119882053Y-65160652D01*
X119882053Y-65160652D02*
X119929673Y-65208271D01*
X119929673Y-65208271D02*
X119977292Y-65160652D01*
X119977292Y-65160652D02*
X119882053Y-65160652D01*
X118272109Y-93422560D02*
X119272109Y-93422560D01*
X118272109Y-92993989D02*
X118795919Y-92993989D01*
X118795919Y-92993989D02*
X118891157Y-93041608D01*
X118891157Y-93041608D02*
X118938776Y-93136846D01*
X118938776Y-93136846D02*
X118938776Y-93279703D01*
X118938776Y-93279703D02*
X118891157Y-93374941D01*
X118891157Y-93374941D02*
X118843538Y-93422560D01*
X118938776Y-92660655D02*
X118938776Y-92279703D01*
X119272109Y-92517798D02*
X118414967Y-92517798D01*
X118414967Y-92517798D02*
X118319729Y-92470179D01*
X118319729Y-92470179D02*
X118272109Y-92374941D01*
X118272109Y-92374941D02*
X118272109Y-92279703D01*
X118938776Y-92089226D02*
X118938776Y-91708274D01*
X119272109Y-91946369D02*
X118414967Y-91946369D01*
X118414967Y-91946369D02*
X118319729Y-91898750D01*
X118319729Y-91898750D02*
X118272109Y-91803512D01*
X118272109Y-91803512D02*
X118272109Y-91708274D01*
X118938776Y-91374940D02*
X117938776Y-91374940D01*
X118891157Y-91374940D02*
X118938776Y-91279702D01*
X118938776Y-91279702D02*
X118938776Y-91089226D01*
X118938776Y-91089226D02*
X118891157Y-90993988D01*
X118891157Y-90993988D02*
X118843538Y-90946369D01*
X118843538Y-90946369D02*
X118748300Y-90898750D01*
X118748300Y-90898750D02*
X118462586Y-90898750D01*
X118462586Y-90898750D02*
X118367348Y-90946369D01*
X118367348Y-90946369D02*
X118319729Y-90993988D01*
X118319729Y-90993988D02*
X118272109Y-91089226D01*
X118272109Y-91089226D02*
X118272109Y-91279702D01*
X118272109Y-91279702D02*
X118319729Y-91374940D01*
X118319729Y-90517797D02*
X118272109Y-90422559D01*
X118272109Y-90422559D02*
X118272109Y-90232083D01*
X118272109Y-90232083D02*
X118319729Y-90136845D01*
X118319729Y-90136845D02*
X118414967Y-90089226D01*
X118414967Y-90089226D02*
X118462586Y-90089226D01*
X118462586Y-90089226D02*
X118557824Y-90136845D01*
X118557824Y-90136845D02*
X118605443Y-90232083D01*
X118605443Y-90232083D02*
X118605443Y-90374940D01*
X118605443Y-90374940D02*
X118653062Y-90470178D01*
X118653062Y-90470178D02*
X118748300Y-90517797D01*
X118748300Y-90517797D02*
X118795919Y-90517797D01*
X118795919Y-90517797D02*
X118891157Y-90470178D01*
X118891157Y-90470178D02*
X118938776Y-90374940D01*
X118938776Y-90374940D02*
X118938776Y-90232083D01*
X118938776Y-90232083D02*
X118891157Y-90136845D01*
X118367348Y-89660654D02*
X118319729Y-89613035D01*
X118319729Y-89613035D02*
X118272109Y-89660654D01*
X118272109Y-89660654D02*
X118319729Y-89708273D01*
X118319729Y-89708273D02*
X118367348Y-89660654D01*
X118367348Y-89660654D02*
X118272109Y-89660654D01*
X118891157Y-89660654D02*
X118843538Y-89613035D01*
X118843538Y-89613035D02*
X118795919Y-89660654D01*
X118795919Y-89660654D02*
X118843538Y-89708273D01*
X118843538Y-89708273D02*
X118891157Y-89660654D01*
X118891157Y-89660654D02*
X118795919Y-89660654D01*
X119319729Y-88470179D02*
X118034014Y-89327321D01*
X119319729Y-87422560D02*
X118034014Y-88279702D01*
X118938776Y-87089226D02*
X117938776Y-87089226D01*
X118891157Y-87089226D02*
X118938776Y-86993988D01*
X118938776Y-86993988D02*
X118938776Y-86803512D01*
X118938776Y-86803512D02*
X118891157Y-86708274D01*
X118891157Y-86708274D02*
X118843538Y-86660655D01*
X118843538Y-86660655D02*
X118748300Y-86613036D01*
X118748300Y-86613036D02*
X118462586Y-86613036D01*
X118462586Y-86613036D02*
X118367348Y-86660655D01*
X118367348Y-86660655D02*
X118319729Y-86708274D01*
X118319729Y-86708274D02*
X118272109Y-86803512D01*
X118272109Y-86803512D02*
X118272109Y-86993988D01*
X118272109Y-86993988D02*
X118319729Y-87089226D01*
X118272109Y-86184464D02*
X118938776Y-86184464D01*
X118748300Y-86184464D02*
X118843538Y-86136845D01*
X118843538Y-86136845D02*
X118891157Y-86089226D01*
X118891157Y-86089226D02*
X118938776Y-85993988D01*
X118938776Y-85993988D02*
X118938776Y-85898750D01*
X118272109Y-85422559D02*
X118319729Y-85517797D01*
X118319729Y-85517797D02*
X118367348Y-85565416D01*
X118367348Y-85565416D02*
X118462586Y-85613035D01*
X118462586Y-85613035D02*
X118748300Y-85613035D01*
X118748300Y-85613035D02*
X118843538Y-85565416D01*
X118843538Y-85565416D02*
X118891157Y-85517797D01*
X118891157Y-85517797D02*
X118938776Y-85422559D01*
X118938776Y-85422559D02*
X118938776Y-85279702D01*
X118938776Y-85279702D02*
X118891157Y-85184464D01*
X118891157Y-85184464D02*
X118843538Y-85136845D01*
X118843538Y-85136845D02*
X118748300Y-85089226D01*
X118748300Y-85089226D02*
X118462586Y-85089226D01*
X118462586Y-85089226D02*
X118367348Y-85136845D01*
X118367348Y-85136845D02*
X118319729Y-85184464D01*
X118319729Y-85184464D02*
X118272109Y-85279702D01*
X118272109Y-85279702D02*
X118272109Y-85422559D01*
X118938776Y-84660654D02*
X118081633Y-84660654D01*
X118081633Y-84660654D02*
X117986395Y-84708273D01*
X117986395Y-84708273D02*
X117938776Y-84803511D01*
X117938776Y-84803511D02*
X117938776Y-84851130D01*
X119272109Y-84660654D02*
X119224490Y-84708273D01*
X119224490Y-84708273D02*
X119176871Y-84660654D01*
X119176871Y-84660654D02*
X119224490Y-84613035D01*
X119224490Y-84613035D02*
X119272109Y-84660654D01*
X119272109Y-84660654D02*
X119176871Y-84660654D01*
X118319729Y-83803512D02*
X118272109Y-83898750D01*
X118272109Y-83898750D02*
X118272109Y-84089226D01*
X118272109Y-84089226D02*
X118319729Y-84184464D01*
X118319729Y-84184464D02*
X118414967Y-84232083D01*
X118414967Y-84232083D02*
X118795919Y-84232083D01*
X118795919Y-84232083D02*
X118891157Y-84184464D01*
X118891157Y-84184464D02*
X118938776Y-84089226D01*
X118938776Y-84089226D02*
X118938776Y-83898750D01*
X118938776Y-83898750D02*
X118891157Y-83803512D01*
X118891157Y-83803512D02*
X118795919Y-83755893D01*
X118795919Y-83755893D02*
X118700681Y-83755893D01*
X118700681Y-83755893D02*
X118605443Y-84232083D01*
X118319729Y-82898750D02*
X118272109Y-82993988D01*
X118272109Y-82993988D02*
X118272109Y-83184464D01*
X118272109Y-83184464D02*
X118319729Y-83279702D01*
X118319729Y-83279702D02*
X118367348Y-83327321D01*
X118367348Y-83327321D02*
X118462586Y-83374940D01*
X118462586Y-83374940D02*
X118748300Y-83374940D01*
X118748300Y-83374940D02*
X118843538Y-83327321D01*
X118843538Y-83327321D02*
X118891157Y-83279702D01*
X118891157Y-83279702D02*
X118938776Y-83184464D01*
X118938776Y-83184464D02*
X118938776Y-82993988D01*
X118938776Y-82993988D02*
X118891157Y-82898750D01*
X118938776Y-82613035D02*
X118938776Y-82232083D01*
X119272109Y-82470178D02*
X118414967Y-82470178D01*
X118414967Y-82470178D02*
X118319729Y-82422559D01*
X118319729Y-82422559D02*
X118272109Y-82327321D01*
X118272109Y-82327321D02*
X118272109Y-82232083D01*
X118319729Y-81946368D02*
X118272109Y-81851130D01*
X118272109Y-81851130D02*
X118272109Y-81660654D01*
X118272109Y-81660654D02*
X118319729Y-81565416D01*
X118319729Y-81565416D02*
X118414967Y-81517797D01*
X118414967Y-81517797D02*
X118462586Y-81517797D01*
X118462586Y-81517797D02*
X118557824Y-81565416D01*
X118557824Y-81565416D02*
X118605443Y-81660654D01*
X118605443Y-81660654D02*
X118605443Y-81803511D01*
X118605443Y-81803511D02*
X118653062Y-81898749D01*
X118653062Y-81898749D02*
X118748300Y-81946368D01*
X118748300Y-81946368D02*
X118795919Y-81946368D01*
X118795919Y-81946368D02*
X118891157Y-81898749D01*
X118891157Y-81898749D02*
X118938776Y-81803511D01*
X118938776Y-81803511D02*
X118938776Y-81660654D01*
X118938776Y-81660654D02*
X118891157Y-81565416D01*
X118367348Y-81089225D02*
X118319729Y-81041606D01*
X118319729Y-81041606D02*
X118272109Y-81089225D01*
X118272109Y-81089225D02*
X118319729Y-81136844D01*
X118319729Y-81136844D02*
X118367348Y-81089225D01*
X118367348Y-81089225D02*
X118272109Y-81089225D01*
X118272109Y-80184464D02*
X118795919Y-80184464D01*
X118795919Y-80184464D02*
X118891157Y-80232083D01*
X118891157Y-80232083D02*
X118938776Y-80327321D01*
X118938776Y-80327321D02*
X118938776Y-80517797D01*
X118938776Y-80517797D02*
X118891157Y-80613035D01*
X118319729Y-80184464D02*
X118272109Y-80279702D01*
X118272109Y-80279702D02*
X118272109Y-80517797D01*
X118272109Y-80517797D02*
X118319729Y-80613035D01*
X118319729Y-80613035D02*
X118414967Y-80660654D01*
X118414967Y-80660654D02*
X118510205Y-80660654D01*
X118510205Y-80660654D02*
X118605443Y-80613035D01*
X118605443Y-80613035D02*
X118653062Y-80517797D01*
X118653062Y-80517797D02*
X118653062Y-80279702D01*
X118653062Y-80279702D02*
X118700681Y-80184464D01*
X118272109Y-79708273D02*
X118938776Y-79708273D01*
X118843538Y-79708273D02*
X118891157Y-79660654D01*
X118891157Y-79660654D02*
X118938776Y-79565416D01*
X118938776Y-79565416D02*
X118938776Y-79422559D01*
X118938776Y-79422559D02*
X118891157Y-79327321D01*
X118891157Y-79327321D02*
X118795919Y-79279702D01*
X118795919Y-79279702D02*
X118272109Y-79279702D01*
X118795919Y-79279702D02*
X118891157Y-79232083D01*
X118891157Y-79232083D02*
X118938776Y-79136845D01*
X118938776Y-79136845D02*
X118938776Y-78993988D01*
X118938776Y-78993988D02*
X118891157Y-78898749D01*
X118891157Y-78898749D02*
X118795919Y-78851130D01*
X118795919Y-78851130D02*
X118272109Y-78851130D01*
X118272109Y-78374940D02*
X118938776Y-78374940D01*
X119272109Y-78374940D02*
X119224490Y-78422559D01*
X119224490Y-78422559D02*
X119176871Y-78374940D01*
X119176871Y-78374940D02*
X119224490Y-78327321D01*
X119224490Y-78327321D02*
X119272109Y-78374940D01*
X119272109Y-78374940D02*
X119176871Y-78374940D01*
X118938776Y-77470179D02*
X118129252Y-77470179D01*
X118129252Y-77470179D02*
X118034014Y-77517798D01*
X118034014Y-77517798D02*
X117986395Y-77565417D01*
X117986395Y-77565417D02*
X117938776Y-77660655D01*
X117938776Y-77660655D02*
X117938776Y-77803512D01*
X117938776Y-77803512D02*
X117986395Y-77898750D01*
X118319729Y-77470179D02*
X118272109Y-77565417D01*
X118272109Y-77565417D02*
X118272109Y-77755893D01*
X118272109Y-77755893D02*
X118319729Y-77851131D01*
X118319729Y-77851131D02*
X118367348Y-77898750D01*
X118367348Y-77898750D02*
X118462586Y-77946369D01*
X118462586Y-77946369D02*
X118748300Y-77946369D01*
X118748300Y-77946369D02*
X118843538Y-77898750D01*
X118843538Y-77898750D02*
X118891157Y-77851131D01*
X118891157Y-77851131D02*
X118938776Y-77755893D01*
X118938776Y-77755893D02*
X118938776Y-77565417D01*
X118938776Y-77565417D02*
X118891157Y-77470179D01*
X118272109Y-76565417D02*
X118795919Y-76565417D01*
X118795919Y-76565417D02*
X118891157Y-76613036D01*
X118891157Y-76613036D02*
X118938776Y-76708274D01*
X118938776Y-76708274D02*
X118938776Y-76898750D01*
X118938776Y-76898750D02*
X118891157Y-76993988D01*
X118319729Y-76565417D02*
X118272109Y-76660655D01*
X118272109Y-76660655D02*
X118272109Y-76898750D01*
X118272109Y-76898750D02*
X118319729Y-76993988D01*
X118319729Y-76993988D02*
X118414967Y-77041607D01*
X118414967Y-77041607D02*
X118510205Y-77041607D01*
X118510205Y-77041607D02*
X118605443Y-76993988D01*
X118605443Y-76993988D02*
X118653062Y-76898750D01*
X118653062Y-76898750D02*
X118653062Y-76660655D01*
X118653062Y-76660655D02*
X118700681Y-76565417D01*
X118653062Y-76089226D02*
X118653062Y-75327322D01*
X118272109Y-74851131D02*
X119272109Y-74851131D01*
X118272109Y-74422560D02*
X118795919Y-74422560D01*
X118795919Y-74422560D02*
X118891157Y-74470179D01*
X118891157Y-74470179D02*
X118938776Y-74565417D01*
X118938776Y-74565417D02*
X118938776Y-74708274D01*
X118938776Y-74708274D02*
X118891157Y-74803512D01*
X118891157Y-74803512D02*
X118843538Y-74851131D01*
X118272109Y-73517798D02*
X118795919Y-73517798D01*
X118795919Y-73517798D02*
X118891157Y-73565417D01*
X118891157Y-73565417D02*
X118938776Y-73660655D01*
X118938776Y-73660655D02*
X118938776Y-73851131D01*
X118938776Y-73851131D02*
X118891157Y-73946369D01*
X118319729Y-73517798D02*
X118272109Y-73613036D01*
X118272109Y-73613036D02*
X118272109Y-73851131D01*
X118272109Y-73851131D02*
X118319729Y-73946369D01*
X118319729Y-73946369D02*
X118414967Y-73993988D01*
X118414967Y-73993988D02*
X118510205Y-73993988D01*
X118510205Y-73993988D02*
X118605443Y-73946369D01*
X118605443Y-73946369D02*
X118653062Y-73851131D01*
X118653062Y-73851131D02*
X118653062Y-73613036D01*
X118653062Y-73613036D02*
X118700681Y-73517798D01*
X118272109Y-73041607D02*
X118938776Y-73041607D01*
X118748300Y-73041607D02*
X118843538Y-72993988D01*
X118843538Y-72993988D02*
X118891157Y-72946369D01*
X118891157Y-72946369D02*
X118938776Y-72851131D01*
X118938776Y-72851131D02*
X118938776Y-72755893D01*
X118272109Y-71993988D02*
X119272109Y-71993988D01*
X118319729Y-71993988D02*
X118272109Y-72089226D01*
X118272109Y-72089226D02*
X118272109Y-72279702D01*
X118272109Y-72279702D02*
X118319729Y-72374940D01*
X118319729Y-72374940D02*
X118367348Y-72422559D01*
X118367348Y-72422559D02*
X118462586Y-72470178D01*
X118462586Y-72470178D02*
X118748300Y-72470178D01*
X118748300Y-72470178D02*
X118843538Y-72422559D01*
X118843538Y-72422559D02*
X118891157Y-72374940D01*
X118891157Y-72374940D02*
X118938776Y-72279702D01*
X118938776Y-72279702D02*
X118938776Y-72089226D01*
X118938776Y-72089226D02*
X118891157Y-71993988D01*
X118938776Y-71613035D02*
X118272109Y-71422559D01*
X118272109Y-71422559D02*
X118748300Y-71232083D01*
X118748300Y-71232083D02*
X118272109Y-71041607D01*
X118272109Y-71041607D02*
X118938776Y-70851131D01*
X118272109Y-70041607D02*
X118795919Y-70041607D01*
X118795919Y-70041607D02*
X118891157Y-70089226D01*
X118891157Y-70089226D02*
X118938776Y-70184464D01*
X118938776Y-70184464D02*
X118938776Y-70374940D01*
X118938776Y-70374940D02*
X118891157Y-70470178D01*
X118319729Y-70041607D02*
X118272109Y-70136845D01*
X118272109Y-70136845D02*
X118272109Y-70374940D01*
X118272109Y-70374940D02*
X118319729Y-70470178D01*
X118319729Y-70470178D02*
X118414967Y-70517797D01*
X118414967Y-70517797D02*
X118510205Y-70517797D01*
X118510205Y-70517797D02*
X118605443Y-70470178D01*
X118605443Y-70470178D02*
X118653062Y-70374940D01*
X118653062Y-70374940D02*
X118653062Y-70136845D01*
X118653062Y-70136845D02*
X118700681Y-70041607D01*
X118272109Y-69565416D02*
X118938776Y-69565416D01*
X118748300Y-69565416D02*
X118843538Y-69517797D01*
X118843538Y-69517797D02*
X118891157Y-69470178D01*
X118891157Y-69470178D02*
X118938776Y-69374940D01*
X118938776Y-69374940D02*
X118938776Y-69279702D01*
X118319729Y-68565416D02*
X118272109Y-68660654D01*
X118272109Y-68660654D02*
X118272109Y-68851130D01*
X118272109Y-68851130D02*
X118319729Y-68946368D01*
X118319729Y-68946368D02*
X118414967Y-68993987D01*
X118414967Y-68993987D02*
X118795919Y-68993987D01*
X118795919Y-68993987D02*
X118891157Y-68946368D01*
X118891157Y-68946368D02*
X118938776Y-68851130D01*
X118938776Y-68851130D02*
X118938776Y-68660654D01*
X118938776Y-68660654D02*
X118891157Y-68565416D01*
X118891157Y-68565416D02*
X118795919Y-68517797D01*
X118795919Y-68517797D02*
X118700681Y-68517797D01*
X118700681Y-68517797D02*
X118605443Y-68993987D01*
X118367348Y-68089225D02*
X118319729Y-68041606D01*
X118319729Y-68041606D02*
X118272109Y-68089225D01*
X118272109Y-68089225D02*
X118319729Y-68136844D01*
X118319729Y-68136844D02*
X118367348Y-68089225D01*
X118367348Y-68089225D02*
X118272109Y-68089225D01*
X118319729Y-67184464D02*
X118272109Y-67279702D01*
X118272109Y-67279702D02*
X118272109Y-67470178D01*
X118272109Y-67470178D02*
X118319729Y-67565416D01*
X118319729Y-67565416D02*
X118367348Y-67613035D01*
X118367348Y-67613035D02*
X118462586Y-67660654D01*
X118462586Y-67660654D02*
X118748300Y-67660654D01*
X118748300Y-67660654D02*
X118843538Y-67613035D01*
X118843538Y-67613035D02*
X118891157Y-67565416D01*
X118891157Y-67565416D02*
X118938776Y-67470178D01*
X118938776Y-67470178D02*
X118938776Y-67279702D01*
X118938776Y-67279702D02*
X118891157Y-67184464D01*
X118272109Y-66613035D02*
X118319729Y-66708273D01*
X118319729Y-66708273D02*
X118367348Y-66755892D01*
X118367348Y-66755892D02*
X118462586Y-66803511D01*
X118462586Y-66803511D02*
X118748300Y-66803511D01*
X118748300Y-66803511D02*
X118843538Y-66755892D01*
X118843538Y-66755892D02*
X118891157Y-66708273D01*
X118891157Y-66708273D02*
X118938776Y-66613035D01*
X118938776Y-66613035D02*
X118938776Y-66470178D01*
X118938776Y-66470178D02*
X118891157Y-66374940D01*
X118891157Y-66374940D02*
X118843538Y-66327321D01*
X118843538Y-66327321D02*
X118748300Y-66279702D01*
X118748300Y-66279702D02*
X118462586Y-66279702D01*
X118462586Y-66279702D02*
X118367348Y-66327321D01*
X118367348Y-66327321D02*
X118319729Y-66374940D01*
X118319729Y-66374940D02*
X118272109Y-66470178D01*
X118272109Y-66470178D02*
X118272109Y-66613035D01*
X118272109Y-65851130D02*
X118938776Y-65851130D01*
X118843538Y-65851130D02*
X118891157Y-65803511D01*
X118891157Y-65803511D02*
X118938776Y-65708273D01*
X118938776Y-65708273D02*
X118938776Y-65565416D01*
X118938776Y-65565416D02*
X118891157Y-65470178D01*
X118891157Y-65470178D02*
X118795919Y-65422559D01*
X118795919Y-65422559D02*
X118272109Y-65422559D01*
X118795919Y-65422559D02*
X118891157Y-65374940D01*
X118891157Y-65374940D02*
X118938776Y-65279702D01*
X118938776Y-65279702D02*
X118938776Y-65136845D01*
X118938776Y-65136845D02*
X118891157Y-65041606D01*
X118891157Y-65041606D02*
X118795919Y-64993987D01*
X118795919Y-64993987D02*
X118272109Y-64993987D01*
%LPC*%
D11*
%TO.C,CN1*%
G36*
X171196000Y-140970000D02*
G01*
X113284000Y-140970000D01*
X113284000Y-129540000D01*
X171196000Y-129540000D01*
X171196000Y-140970000D01*
G37*
%TD*%
D12*
%TO.C,D1*%
X124460000Y-109220000D03*
D13*
X116840000Y-109220000D03*
%TD*%
D14*
%TO.C,SW1*%
X165810000Y-65750000D03*
X159310000Y-65750000D03*
X165810000Y-61250000D03*
X159310000Y-61250000D03*
%TD*%
D15*
%TO.C,R2*%
X124460000Y-63500000D03*
X134620000Y-63500000D03*
%TD*%
%TO.C,C1*%
X127075800Y-82411100D03*
X127075800Y-84911100D03*
%TD*%
%TO.C,R1*%
X115570000Y-101600000D03*
X125730000Y-101600000D03*
%TD*%
D16*
%TO.C,D3*%
X151075944Y-63500000D03*
D17*
X148535944Y-63500000D03*
%TD*%
D12*
%TO.C,D2*%
X124460000Y-116840000D03*
D13*
X116840000Y-116840000D03*
%TD*%
D18*
%TO.C,U1*%
X132080000Y-91440000D03*
D15*
X134620000Y-91440000D03*
X137160000Y-91440000D03*
X139700000Y-91440000D03*
X142240000Y-91440000D03*
X144780000Y-91440000D03*
X147320000Y-91440000D03*
X149860000Y-91440000D03*
X152400000Y-91440000D03*
X154940000Y-91440000D03*
X157480000Y-91440000D03*
X160020000Y-91440000D03*
X162560000Y-91440000D03*
X165100000Y-91440000D03*
X165100000Y-76200000D03*
X162560000Y-76200000D03*
X160020000Y-76200000D03*
X157480000Y-76200000D03*
X154940000Y-76200000D03*
X152400000Y-76200000D03*
X149860000Y-76200000D03*
X147320000Y-76200000D03*
X144780000Y-76200000D03*
X142240000Y-76200000D03*
X139700000Y-76200000D03*
X137160000Y-76200000D03*
X134620000Y-76200000D03*
X132080000Y-76200000D03*
%TD*%
%LPD*%
M02*
